<svg width="62" height="68" viewBox="0 0 62 68" fill="none" xmlns="http://www.w3.org/2000/svg">
<path fill-rule="evenodd" clip-rule="evenodd" d="M30.811 3.04547C15.458 3.04547 3.01098 16.9197 3.01098 34.0345C3.01198 51.1493 15.458 65.0236 30.811 65.0236C46.164 65.0236 58.611 51.1493 58.611 34.0334C58.611 16.9197 46.164 3.04547 30.811 3.04547ZM0.781982 34.0334C0.781982 15.5463 14.227 0.55957 30.812 0.55957C47.395 0.55957 60.84 15.5463 60.84 34.0345C60.84 52.5216 47.395 67.5095 30.811 67.5095C14.227 67.5095 0.781982 52.5216 0.781982 34.0334Z" fill="#0B3B3D"/>
<mask id="mask0" style="mask-type:alpha" maskUnits="userSpaceOnUse" x="18" y="18" width="25" height="35">
<path d="M30.811 52.6945C30.811 52.6945 42.985 45.909 42.985 35.7302V23.8547L30.811 18.7659L18.637 23.8547V35.7302C18.637 45.9079 30.811 52.6945 30.811 52.6945Z" fill="#C4C4C4"/>
</mask>
<g mask="url(#mask0)">
<path d="M63.904 56.2461C64.0793 56.4382 64.3152 56.5459 64.561 56.5459C64.8068 56.5459 65.0428 56.4382 65.218 56.2461C65.3904 56.0507 65.4869 55.7877 65.4869 55.5137C65.4869 55.2397 65.3904 54.9767 65.218 54.7813C65.0428 54.5892 64.8068 54.4815 64.561 54.4815C64.3152 54.4815 64.0793 54.5892 63.904 54.7813C63.7317 54.9767 63.6351 55.2397 63.6351 55.5137C63.6351 55.7877 63.7317 56.0507 63.904 56.2461ZM59.485 51.3189C59.6602 51.5107 59.896 51.6181 60.1415 51.6181C60.3871 51.6181 60.6228 51.5107 60.798 51.3189C60.9704 51.1235 61.0669 50.8605 61.0669 50.5865C61.0669 50.3125 60.9704 50.0495 60.798 49.8541C60.6228 49.6623 60.3871 49.5549 60.1415 49.5549C59.896 49.5549 59.6602 49.6623 59.485 49.8541C59.3129 50.0496 59.2165 50.3126 59.2165 50.5865C59.2165 50.8604 59.3129 51.1234 59.485 51.3189ZM55.184 46.5254C55.3593 46.7176 55.5952 46.8252 55.841 46.8252C56.0868 46.8252 56.3228 46.7176 56.498 46.5254C56.6701 46.3299 56.7665 46.067 56.7665 45.793C56.7665 45.5191 56.6701 45.2562 56.498 45.0607C56.3228 44.8689 56.0871 44.7614 55.8415 44.7614C55.596 44.7614 55.3602 44.8689 55.185 45.0607C55.0127 45.256 54.9161 45.519 54.9161 45.793C54.9161 46.067 55.0127 46.3301 55.185 46.5254H55.184ZM46.584 75.5536C46.7593 75.7458 46.9952 75.8534 47.241 75.8534C47.4868 75.8534 47.7228 75.7458 47.898 75.5536C48.0704 75.3583 48.1669 75.0952 48.1669 74.8212C48.1669 74.5472 48.0704 74.2842 47.898 74.0888C47.7228 73.8967 47.4868 73.7891 47.241 73.7891C46.9952 73.7891 46.7593 73.8967 46.584 74.0888C46.106 74.4879 46.106 75.1546 46.584 75.5536ZM42.164 70.6264C42.3393 70.8185 42.5752 70.9262 42.821 70.9262C43.0668 70.9262 43.3028 70.8185 43.478 70.6264C43.6504 70.4311 43.7469 70.168 43.7469 69.894C43.7469 69.62 43.6504 69.357 43.478 69.1616C43.3028 68.9695 43.0668 68.8618 42.821 68.8618C42.5752 68.8618 42.3393 68.9695 42.164 69.1616C41.806 69.6945 41.806 70.2273 42.164 70.6264ZM50.884 70.6264C51.0594 70.8183 51.2953 70.9258 51.541 70.9258C51.7867 70.9258 52.0226 70.8183 52.198 70.6264C52.3704 70.4311 52.4669 70.168 52.4669 69.894C52.4669 69.62 52.3704 69.357 52.198 69.1616C52.0226 68.9698 51.7867 68.8623 51.541 68.8623C51.2953 68.8623 51.0594 68.9698 50.884 69.1616C50.526 69.6945 50.526 70.2273 50.884 70.6264ZM46.584 65.833C46.7593 66.0251 46.9952 66.1328 47.241 66.1328C47.4868 66.1328 47.7228 66.0251 47.898 65.833C48.0704 65.6376 48.1669 65.3746 48.1669 65.1006C48.1669 64.8266 48.0704 64.5636 47.898 64.3682C47.7228 64.1761 47.4868 64.0684 47.241 64.0684C46.9952 64.0684 46.7593 64.1761 46.584 64.3682C46.106 64.7673 46.106 65.4339 46.584 65.833ZM42.164 65.833C42.3393 66.0251 42.5752 66.1328 42.821 66.1328C43.0668 66.1328 43.3028 66.0251 43.478 65.833C43.6504 65.6376 43.7469 65.3746 43.7469 65.1006C43.7469 64.8266 43.6504 64.5636 43.478 64.3682C43.3028 64.1761 43.0668 64.0684 42.821 64.0684C42.5752 64.0684 42.3393 64.1761 42.164 64.3682C41.9919 64.5637 41.8955 64.8267 41.8955 65.1006C41.8955 65.3745 41.9919 65.6375 42.164 65.833ZM46.584 70.6264C46.7593 70.8185 46.9952 70.9262 47.241 70.9262C47.4868 70.9262 47.7228 70.8185 47.898 70.6264C48.0704 70.4311 48.1669 70.168 48.1669 69.894C48.1669 69.62 48.0704 69.357 47.898 69.1616C47.7228 68.9695 47.4868 68.8618 47.241 68.8618C46.9952 68.8618 46.7593 68.9695 46.584 69.1616C46.226 69.6945 46.226 70.2273 46.584 70.6264ZM46.584 61.0395C46.7593 61.2317 46.9952 61.3393 47.241 61.3393C47.4868 61.3393 47.7228 61.2317 47.898 61.0395C48.0704 60.8442 48.1669 60.5811 48.1669 60.3071C48.1669 60.0331 48.0704 59.7701 47.898 59.5748C47.7228 59.3826 47.4868 59.275 47.241 59.275C46.9952 59.275 46.7593 59.3826 46.584 59.5748C46.4117 59.7701 46.3151 60.0331 46.3151 60.3071C46.3151 60.5811 46.4117 60.8442 46.584 61.0395ZM50.884 65.833C51.0594 66.0248 51.2953 66.1323 51.541 66.1323C51.7867 66.1323 52.0226 66.0248 52.198 65.833C52.3704 65.6376 52.4669 65.3746 52.4669 65.1006C52.4669 64.8266 52.3704 64.5636 52.198 64.3682C52.0226 64.1763 51.7867 64.0689 51.541 64.0689C51.2953 64.0689 51.0594 64.1763 50.884 64.3682C50.7119 64.5637 50.6155 64.8267 50.6155 65.1006C50.6155 65.3745 50.7119 65.6375 50.884 65.833ZM37.864 65.833C38.0393 66.0251 38.2752 66.1328 38.521 66.1328C38.7668 66.1328 39.0028 66.0251 39.178 65.833C39.3501 65.6375 39.4465 65.3745 39.4465 65.1006C39.4465 64.8267 39.3501 64.5637 39.178 64.3682C39.0028 64.1761 38.7668 64.0684 38.521 64.0684C38.2752 64.0684 38.0393 64.1761 37.864 64.3682C37.6917 64.5636 37.5951 64.8266 37.5951 65.1006C37.5951 65.3746 37.6917 65.6376 37.864 65.833ZM42.164 61.0395C42.3393 61.2317 42.5752 61.3393 42.821 61.3393C43.0668 61.3393 43.3028 61.2317 43.478 61.0395C43.6504 60.8442 43.7469 60.5811 43.7469 60.3071C43.7469 60.0331 43.6504 59.7701 43.478 59.5748C43.3028 59.3826 43.0668 59.275 42.821 59.275C42.5752 59.275 42.3393 59.3826 42.164 59.5748C41.9917 59.7701 41.8951 60.0331 41.8951 60.3071C41.8951 60.5811 41.9917 60.8442 42.164 61.0395ZM55.184 65.833C55.3593 66.0251 55.5952 66.1328 55.841 66.1328C56.0868 66.1328 56.3228 66.0251 56.498 65.833C56.6701 65.6375 56.7665 65.3745 56.7665 65.1006C56.7665 64.8267 56.6701 64.5637 56.498 64.3682C56.3228 64.1764 56.0871 64.069 55.8415 64.069C55.596 64.069 55.3602 64.1764 55.185 64.3682C55.0127 64.5636 54.9161 64.8266 54.9161 65.1006C54.9161 65.3746 55.0127 65.6376 55.185 65.833H55.184ZM50.884 61.0395C51.0594 61.2314 51.2953 61.3389 51.541 61.3389C51.7867 61.3389 52.0226 61.2314 52.198 61.0395C52.3704 60.8442 52.4669 60.5811 52.4669 60.3071C52.4669 60.0331 52.3704 59.7701 52.198 59.5748C52.0228 59.3826 51.7868 59.275 51.541 59.275C51.2952 59.275 51.0593 59.3826 50.884 59.5748C50.7117 59.7701 50.6151 60.0331 50.6151 60.3071C50.6151 60.5811 50.7117 60.8442 50.884 61.0395ZM46.584 56.2461C46.7593 56.4382 46.9952 56.5459 47.241 56.5459C47.4868 56.5459 47.7228 56.4382 47.898 56.2461C48.0704 56.0507 48.1669 55.7877 48.1669 55.5137C48.1669 55.2397 48.0704 54.9767 47.898 54.7813C47.7228 54.5892 47.4868 54.4815 47.241 54.4815C46.9952 54.4815 46.7593 54.5892 46.584 54.7813C46.106 55.1804 46.106 55.8459 46.584 56.2461ZM63.904 36.8048C64.0793 36.9969 64.3152 37.1046 64.561 37.1046C64.8068 37.1046 65.0428 36.9969 65.218 36.8048C65.3904 36.6094 65.4869 36.3464 65.4869 36.0724C65.4869 35.7984 65.3904 35.5354 65.218 35.34C65.0428 35.1479 64.8068 35.0402 64.561 35.0402C64.3152 35.0402 64.0793 35.1479 63.904 35.34C63.546 35.8728 63.546 36.4057 63.904 36.8048ZM59.485 32.0113C59.6602 32.2031 59.896 32.3106 60.1415 32.3106C60.3871 32.3106 60.6228 32.2031 60.798 32.0113C60.9704 31.816 61.0669 31.5529 61.0669 31.2789C61.0669 31.0049 60.9704 30.7419 60.798 30.5466C60.6228 30.3548 60.3871 30.2473 60.1415 30.2473C59.896 30.2473 59.6602 30.3548 59.485 30.5466C59.3129 30.7421 59.2165 31.005 59.2165 31.2789C59.2165 31.5529 59.3129 31.8158 59.485 32.0113ZM68.204 32.0113C68.3794 32.2032 68.6153 32.3107 68.861 32.3107C69.1067 32.3107 69.3426 32.2032 69.518 32.0113C69.6904 31.816 69.7869 31.5529 69.7869 31.2789C69.7869 31.0049 69.6904 30.7419 69.518 30.5466C69.3426 30.3547 69.1067 30.2472 68.861 30.2472C68.6153 30.2472 68.3794 30.3547 68.204 30.5466C68.0319 30.7421 67.9355 31.005 67.9355 31.2789C67.9355 31.5529 68.0319 31.8158 68.204 32.0113ZM63.904 27.2179C64.0793 27.41 64.3152 27.5177 64.561 27.5177C64.8068 27.5177 65.0428 27.41 65.218 27.2179C65.3904 27.0225 65.4869 26.7595 65.4869 26.4855C65.4869 26.2115 65.3904 25.9485 65.218 25.7531C65.0428 25.561 64.8068 25.4533 64.561 25.4533C64.3152 25.4533 64.0793 25.561 63.904 25.7531C63.7317 25.9485 63.6351 26.2115 63.6351 26.4855C63.6351 26.7595 63.7317 27.0225 63.904 27.2179ZM59.485 27.2179C59.6602 27.4097 59.896 27.5171 60.1415 27.5171C60.3871 27.5171 60.6228 27.4097 60.798 27.2179C60.9704 27.0225 61.0669 26.7595 61.0669 26.4855C61.0669 26.2115 60.9704 25.9485 60.798 25.7531C60.6228 25.5613 60.3871 25.4539 60.1415 25.4539C59.896 25.4539 59.6602 25.5613 59.485 25.7531C59.3127 25.9485 59.2161 26.2115 59.2161 26.4855C59.2161 26.7595 59.3127 27.0225 59.485 27.2179ZM63.904 32.0113C64.0793 32.2035 64.3152 32.3111 64.561 32.3111C64.8068 32.3111 65.0428 32.2035 65.218 32.0113C65.3904 31.816 65.4869 31.5529 65.4869 31.2789C65.4869 31.0049 65.3904 30.7419 65.218 30.5466C65.0428 30.3544 64.8068 30.2468 64.561 30.2468C64.3152 30.2468 64.0793 30.3544 63.904 30.5466C63.7317 30.7419 63.6351 31.0049 63.6351 31.2789C63.6351 31.5529 63.7317 31.816 63.904 32.0113ZM63.904 22.4245C64.0793 22.6166 64.3152 22.7242 64.561 22.7242C64.8068 22.7242 65.0428 22.6166 65.218 22.4245C65.3904 22.2291 65.4869 21.9661 65.4869 21.6921C65.4869 21.4181 65.3904 21.155 65.218 20.9597C65.0428 20.7675 64.8068 20.6599 64.561 20.6599C64.3152 20.6599 64.0793 20.7675 63.904 20.9597C63.7317 21.155 63.6351 21.4181 63.6351 21.6921C63.6351 21.9661 63.7317 22.2291 63.904 22.4245ZM68.204 27.2179C68.3794 27.4098 68.6153 27.5172 68.861 27.5172C69.1067 27.5172 69.3426 27.4098 69.518 27.2179C69.6904 27.0225 69.7869 26.7595 69.7869 26.4855C69.7869 26.2115 69.6904 25.9485 69.518 25.7531C69.3428 25.561 69.1068 25.4533 68.861 25.4533C68.6152 25.4533 68.3793 25.561 68.204 25.7531C68.0317 25.9485 67.9351 26.2115 67.9351 26.4855C67.9351 26.7595 68.0317 27.0225 68.204 27.2179ZM55.184 27.2179C55.3593 27.41 55.5952 27.5177 55.841 27.5177C56.0868 27.5177 56.3228 27.41 56.498 27.2179C56.6704 27.0225 56.7669 26.7595 56.7669 26.4855C56.7669 26.2115 56.6704 25.9485 56.498 25.7531C56.3228 25.5613 56.0871 25.4539 55.8415 25.4539C55.596 25.4539 55.3602 25.5613 55.185 25.7531C55.0127 25.9485 54.9161 26.2115 54.9161 26.4855C54.9161 26.7595 55.0127 27.0225 55.185 27.2179H55.184ZM59.485 22.4245C59.6602 22.6162 59.896 22.7237 60.1415 22.7237C60.3871 22.7237 60.6228 22.6162 60.798 22.4245C60.9704 22.2291 61.0669 21.9661 61.0669 21.6921C61.0669 21.4181 60.9704 21.155 60.798 20.9597C60.6228 20.7679 60.3871 20.6604 60.1415 20.6604C59.896 20.6604 59.6602 20.7679 59.485 20.9597C59.3127 21.155 59.2161 21.4181 59.2161 21.6921C59.2161 21.9661 59.3127 22.2291 59.485 22.4245ZM72.505 27.2179C72.6803 27.41 72.9162 27.5177 73.162 27.5177C73.4078 27.5177 73.6438 27.41 73.819 27.2179C73.9914 27.0225 74.0879 26.7595 74.0879 26.4855C74.0879 26.2115 73.9914 25.9485 73.819 25.7531C73.6438 25.561 73.4078 25.4533 73.162 25.4533C72.9162 25.4533 72.6803 25.561 72.505 25.7531C72.3327 25.9485 72.2361 26.2115 72.2361 26.4855C72.2361 26.7595 72.3327 27.0225 72.505 27.2179ZM68.204 22.4245C68.3793 22.6166 68.6152 22.7242 68.861 22.7242C69.1068 22.7242 69.3428 22.6166 69.518 22.4245C69.6904 22.2291 69.7869 21.9661 69.7869 21.6921C69.7869 21.4181 69.6904 21.155 69.518 20.9597C69.3428 20.7675 69.1068 20.6599 68.861 20.6599C68.6152 20.6599 68.3793 20.7675 68.204 20.9597C68.0317 21.155 67.9351 21.4181 67.9351 21.6921C67.9351 21.9661 68.0317 22.2291 68.204 22.4245ZM63.904 17.4972C64.0793 17.6894 64.3152 17.797 64.561 17.797C64.8068 17.797 65.0428 17.6894 65.218 17.4972C65.3904 17.3019 65.4869 17.0389 65.4869 16.7648C65.4869 16.4908 65.3904 16.2278 65.218 16.0325C65.0428 15.8403 64.8068 15.7327 64.561 15.7327C64.3152 15.7327 64.0793 15.8403 63.904 16.0325C63.7317 16.2278 63.6351 16.4908 63.6351 16.7648C63.6351 17.0389 63.7317 17.3019 63.904 17.4972Z" fill="#0A3B3C"/>
<path d="M55.184 46.5254C55.3593 46.7175 55.5952 46.8252 55.841 46.8252C56.0868 46.8252 56.3228 46.7175 56.498 46.5254C56.6701 46.3299 56.7665 46.0669 56.7665 45.793C56.7665 45.5191 56.6701 45.2561 56.498 45.0606C56.3228 44.8689 56.0871 44.7614 55.8415 44.7614C55.596 44.7614 55.3602 44.8689 55.185 45.0606C55.0127 45.256 54.9161 45.519 54.9161 45.793C54.9161 46.067 55.0127 46.3301 55.185 46.5254H55.184ZM50.884 41.732C51.0593 41.9241 51.2952 42.0318 51.541 42.0318C51.7868 42.0318 52.0228 41.9241 52.198 41.732C52.3704 41.5366 52.4669 41.2736 52.4669 40.9996C52.4669 40.7256 52.3704 40.4626 52.198 40.2672C52.0228 40.0751 51.7868 39.9674 51.541 39.9674C51.2952 39.9674 51.0593 40.0751 50.884 40.2672C50.7117 40.4626 50.6151 40.7256 50.6151 40.9996C50.6151 41.2736 50.7117 41.5366 50.884 41.732ZM59.485 41.732C59.6602 41.9238 59.896 42.0312 60.1415 42.0312C60.3871 42.0312 60.6228 41.9238 60.798 41.732C60.9704 41.5366 61.0669 41.2736 61.0669 40.9996C61.0669 40.7256 60.9704 40.4626 60.798 40.2672C60.6228 40.0754 60.3871 39.968 60.1415 39.968C59.896 39.968 59.6602 40.0754 59.485 40.2672C59.3127 40.4626 59.2161 40.7256 59.2161 40.9996C59.2161 41.2736 59.3127 41.5366 59.485 41.732ZM55.184 36.8048C55.3593 36.9969 55.5952 37.1046 55.841 37.1046C56.0868 37.1046 56.3228 36.9969 56.498 36.8048C56.6701 36.6093 56.7665 36.3463 56.7665 36.0724C56.7665 35.7985 56.6701 35.5355 56.498 35.34C56.3228 35.1482 56.0871 35.0407 55.8415 35.0407C55.596 35.0407 55.3602 35.1482 55.185 35.34C54.826 35.8728 54.826 36.4057 55.185 36.8048H55.184ZM50.884 36.8048C51.0594 36.9966 51.2953 37.1041 51.541 37.1041C51.7867 37.1041 52.0226 36.9966 52.198 36.8048C52.3704 36.6094 52.4669 36.3464 52.4669 36.0724C52.4669 35.7984 52.3704 35.5353 52.198 35.34C52.0226 35.1481 51.7867 35.0406 51.541 35.0406C51.2953 35.0406 51.0594 35.1481 50.884 35.34C50.526 35.8728 50.526 36.4057 50.884 36.8048ZM55.184 41.732C55.3593 41.9241 55.5952 42.0318 55.841 42.0318C56.0868 42.0318 56.3228 41.9241 56.498 41.732C56.6704 41.5366 56.7669 41.2736 56.7669 40.9996C56.7669 40.7256 56.6704 40.4626 56.498 40.2672C56.3228 40.0754 56.0871 39.968 55.8415 39.968C55.596 39.968 55.3602 40.0754 55.185 40.2672C55.0127 40.4626 54.9161 40.7256 54.9161 40.9996C54.9161 41.2736 55.0127 41.5366 55.185 41.732H55.184ZM55.184 32.0113C55.3593 32.2035 55.5952 32.3111 55.841 32.3111C56.0868 32.3111 56.3228 32.2035 56.498 32.0113C56.6701 31.8158 56.7665 31.5528 56.7665 31.2789C56.7665 31.005 56.6701 30.742 56.498 30.5465C56.3228 30.3548 56.0871 30.2473 55.8415 30.2473C55.596 30.2473 55.3602 30.3548 55.185 30.5465C55.0127 30.7419 54.9161 31.0049 54.9161 31.2789C54.9161 31.5529 55.0127 31.816 55.185 32.0113H55.184ZM59.485 36.8048C59.6602 36.9966 59.896 37.104 60.1415 37.104C60.3871 37.104 60.6228 36.9966 60.798 36.8048C60.9704 36.6094 61.0669 36.3464 61.0669 36.0724C61.0669 35.7984 60.9704 35.5353 60.798 35.34C60.6228 35.1482 60.3871 35.0407 60.1415 35.0407C59.896 35.0407 59.6602 35.1482 59.485 35.34C59.126 35.8728 59.126 36.4057 59.485 36.8048ZM46.584 36.8048C46.7593 36.9969 46.9952 37.1046 47.241 37.1046C47.4868 37.1046 47.7228 36.9969 47.898 36.8048C48.0704 36.6094 48.1669 36.3464 48.1669 36.0724C48.1669 35.7984 48.0704 35.5353 47.898 35.34C47.7228 35.1479 47.4868 35.0402 47.241 35.0402C46.9952 35.0402 46.7593 35.1479 46.584 35.34C46.226 35.7391 46.106 36.4057 46.584 36.8048ZM50.884 32.0113C51.0594 32.2032 51.2953 32.3107 51.541 32.3107C51.7867 32.3107 52.0226 32.2032 52.198 32.0113C52.3704 31.816 52.4669 31.5529 52.4669 31.2789C52.4669 31.0049 52.3704 30.7419 52.198 30.5465C52.0226 30.3547 51.7867 30.2472 51.541 30.2472C51.2953 30.2472 51.0594 30.3547 50.884 30.5465C50.7119 30.742 50.6155 31.005 50.6155 31.2789C50.6155 31.5528 50.7119 31.8158 50.884 32.0113ZM63.904 36.8048C64.0793 36.9969 64.3152 37.1046 64.561 37.1046C64.8068 37.1046 65.0428 36.9969 65.218 36.8048C65.3904 36.6094 65.4869 36.3464 65.4869 36.0724C65.4869 35.7984 65.3904 35.5353 65.218 35.34C65.0428 35.1479 64.8068 35.0402 64.561 35.0402C64.3152 35.0402 64.0793 35.1479 63.904 35.34C63.546 35.8728 63.546 36.4057 63.904 36.8048ZM59.485 32.0113C59.6602 32.2031 59.896 32.3106 60.1415 32.3106C60.3871 32.3106 60.6228 32.2031 60.798 32.0113C60.9704 31.816 61.0669 31.5529 61.0669 31.2789C61.0669 31.0049 60.9704 30.7419 60.798 30.5465C60.6228 30.3548 60.3871 30.2473 60.1415 30.2473C59.896 30.2473 59.6602 30.3548 59.485 30.5465C59.3129 30.742 59.2165 31.005 59.2165 31.2789C59.2165 31.5528 59.3129 31.8158 59.485 32.0113ZM55.184 27.2179C55.3593 27.41 55.5952 27.5177 55.841 27.5177C56.0868 27.5177 56.3228 27.41 56.498 27.2179C56.6704 27.0225 56.7669 26.7595 56.7669 26.4855C56.7669 26.2115 56.6704 25.9485 56.498 25.7531C56.3228 25.5613 56.0871 25.4539 55.8415 25.4539C55.596 25.4539 55.3602 25.5613 55.185 25.7531C55.0127 25.9485 54.9161 26.2115 54.9161 26.4855C54.9161 26.7595 55.0127 27.0225 55.185 27.2179H55.184ZM46.584 56.2461C46.7593 56.4382 46.9952 56.5459 47.241 56.5459C47.4868 56.5459 47.7228 56.4382 47.898 56.2461C48.0704 56.0507 48.1669 55.7877 48.1669 55.5137C48.1669 55.2397 48.0704 54.9767 47.898 54.7813C47.7228 54.5892 47.4868 54.4815 47.241 54.4815C46.9952 54.4815 46.7593 54.5892 46.584 54.7813C46.106 55.1804 46.106 55.8459 46.584 56.2461ZM42.164 51.3189C42.3393 51.511 42.5752 51.6187 42.821 51.6187C43.0668 51.6187 43.3028 51.511 43.478 51.3189C43.6504 51.1235 43.7469 50.8605 43.7469 50.5865C43.7469 50.3125 43.6504 50.0494 43.478 49.8541C43.3028 49.662 43.0668 49.5543 42.821 49.5543C42.5752 49.5543 42.3393 49.662 42.164 49.8541C41.9919 50.0496 41.8955 50.3126 41.8955 50.5865C41.8955 50.8604 41.9919 51.1234 42.164 51.3189ZM50.884 51.3189C51.0594 51.5107 51.2953 51.6182 51.541 51.6182C51.7867 51.6182 52.0226 51.5107 52.198 51.3189C52.3704 51.1235 52.4669 50.8605 52.4669 50.5865C52.4669 50.3125 52.3704 50.0494 52.198 49.8541C52.0226 49.6622 51.7867 49.5547 51.541 49.5547C51.2953 49.5547 51.0594 49.6622 50.884 49.8541C50.7119 50.0496 50.6155 50.3126 50.6155 50.5865C50.6155 50.8604 50.7119 51.1234 50.884 51.3189ZM46.584 46.5254C46.7593 46.7175 46.9952 46.8252 47.241 46.8252C47.4868 46.8252 47.7228 46.7175 47.898 46.5254C48.0704 46.3301 48.1669 46.067 48.1669 45.793C48.1669 45.519 48.0704 45.256 47.898 45.0606C47.7228 44.8685 47.4868 44.7608 47.241 44.7608C46.9952 44.7608 46.7593 44.8685 46.584 45.0606C46.106 45.4597 46.106 46.1263 46.584 46.5254ZM42.164 46.5254C42.3393 46.7175 42.5752 46.8252 42.821 46.8252C43.0668 46.8252 43.3028 46.7175 43.478 46.5254C43.6504 46.3301 43.7469 46.067 43.7469 45.793C43.7469 45.519 43.6504 45.256 43.478 45.0606C43.3028 44.8685 43.0668 44.7608 42.821 44.7608C42.5752 44.7608 42.3393 44.8685 42.164 45.0606C41.9919 45.2561 41.8955 45.5191 41.8955 45.793C41.8955 46.0669 41.9919 46.3299 42.164 46.5254ZM46.584 51.3189C46.7593 51.511 46.9952 51.6187 47.241 51.6187C47.4868 51.6187 47.7228 51.511 47.898 51.3189C48.0704 51.1235 48.1669 50.8605 48.1669 50.5865C48.1669 50.3125 48.0704 50.0494 47.898 49.8541C47.7228 49.662 47.4868 49.5543 47.241 49.5543C46.9952 49.5543 46.7593 49.662 46.584 49.8541C46.106 50.2532 46.106 50.9198 46.584 51.3189ZM46.584 41.732C46.7593 41.9241 46.9952 42.0318 47.241 42.0318C47.4868 42.0318 47.7228 41.9241 47.898 41.732C48.0704 41.5366 48.1669 41.2736 48.1669 40.9996C48.1669 40.7256 48.0704 40.4626 47.898 40.2672C47.7228 40.0751 47.4868 39.9674 47.241 39.9674C46.9952 39.9674 46.7593 40.0751 46.584 40.2672C46.106 40.6663 46.106 41.3318 46.584 41.732ZM50.884 46.5254C51.0594 46.7173 51.2953 46.8248 51.541 46.8248C51.7867 46.8248 52.0226 46.7173 52.198 46.5254C52.3704 46.3301 52.4669 46.067 52.4669 45.793C52.4669 45.519 52.3704 45.256 52.198 45.0606C52.0226 44.8688 51.7867 44.7613 51.541 44.7613C51.2953 44.7613 51.0594 44.8688 50.884 45.0606C50.7119 45.2561 50.6155 45.5191 50.6155 45.793C50.6155 46.0669 50.7119 46.3299 50.884 46.5254ZM37.864 46.5254C38.0393 46.7175 38.2752 46.8252 38.521 46.8252C38.7668 46.8252 39.0028 46.7175 39.178 46.5254C39.3501 46.3299 39.4465 46.0669 39.4465 45.793C39.4465 45.5191 39.3501 45.2561 39.178 45.0606C39.0028 44.8685 38.7668 44.7608 38.521 44.7608C38.2752 44.7608 38.0393 44.8685 37.864 45.0606C37.6917 45.256 37.5951 45.519 37.5951 45.793C37.5951 46.067 37.6917 46.3301 37.864 46.5254ZM42.164 41.732C42.3393 41.9241 42.5752 42.0318 42.821 42.0318C43.0668 42.0318 43.3028 41.9241 43.478 41.732C43.6504 41.5366 43.7469 41.2736 43.7469 40.9996C43.7469 40.7256 43.6504 40.4626 43.478 40.2672C43.3028 40.0751 43.0668 39.9674 42.821 39.9674C42.5752 39.9674 42.3393 40.0751 42.164 40.2672C41.9917 40.4626 41.8951 40.7256 41.8951 40.9996C41.8951 41.2736 41.9917 41.5366 42.164 41.732Z" fill="#0A3B3C"/>
<path d="M55.184 46.5253C55.3592 46.7174 55.5952 46.8251 55.841 46.8251C56.0867 46.8251 56.3227 46.7174 56.498 46.5253C56.6701 46.3298 56.7665 46.0668 56.7665 45.7929C56.7665 45.519 56.6701 45.256 56.498 45.0605C56.3228 44.8687 56.087 44.7612 55.8415 44.7612C55.5959 44.7612 55.3602 44.8687 55.185 45.0605C55.0126 45.2558 54.916 45.5189 54.916 45.7929C54.916 46.0669 55.0126 46.3299 55.185 46.5253H55.184ZM50.884 41.7318C51.0592 41.924 51.2952 42.0316 51.541 42.0316C51.7867 42.0316 52.0227 41.924 52.198 41.7318C52.3703 41.5365 52.4669 41.2734 52.4669 40.9994C52.4669 40.7254 52.3703 40.4624 52.198 40.267C52.0227 40.0749 51.7867 39.9673 51.541 39.9673C51.2952 39.9673 51.0592 40.0749 50.884 40.267C50.7116 40.4624 50.615 40.7254 50.615 40.9994C50.615 41.2734 50.7116 41.5365 50.884 41.7318ZM46.584 36.8046C46.7592 36.9967 46.9952 37.1044 47.241 37.1044C47.4867 37.1044 47.7227 36.9967 47.898 36.8046C48.0703 36.6093 48.1669 36.3462 48.1669 36.0722C48.1669 35.7982 48.0703 35.5352 47.898 35.3398C47.7227 35.1477 47.4867 35.04 47.241 35.04C46.9952 35.04 46.7592 35.1477 46.584 35.3398C46.226 35.7389 46.106 36.4055 46.584 36.8046ZM37.864 65.8328C38.0392 66.0249 38.2752 66.1326 38.521 66.1326C38.7667 66.1326 39.0027 66.0249 39.178 65.8328C39.3501 65.6373 39.4465 65.3743 39.4465 65.1004C39.4465 64.8265 39.3501 64.5635 39.178 64.368C39.0027 64.1759 38.7667 64.0682 38.521 64.0682C38.2752 64.0682 38.0392 64.1759 37.864 64.368C37.6916 64.5634 37.595 64.8264 37.595 65.1004C37.595 65.3744 37.6916 65.6375 37.864 65.8328ZM33.564 61.0394C33.7393 61.2312 33.9752 61.3387 34.221 61.3387C34.4667 61.3387 34.7026 61.2312 34.878 61.0394C35.0503 60.844 35.1469 60.581 35.1469 60.307C35.1469 60.033 35.0503 59.7699 34.878 59.5746C34.7027 59.3825 34.4667 59.2748 34.221 59.2748C33.9752 59.2748 33.7392 59.3825 33.564 59.5746C33.3916 59.7699 33.295 60.033 33.295 60.307C33.295 60.581 33.3916 60.844 33.564 61.0394ZM42.164 61.0394C42.3392 61.2315 42.5752 61.3392 42.821 61.3392C43.0667 61.3392 43.3027 61.2315 43.478 61.0394C43.6503 60.844 43.7469 60.581 43.7469 60.307C43.7469 60.033 43.6503 59.7699 43.478 59.5746C43.3027 59.3825 43.0667 59.2748 42.821 59.2748C42.5752 59.2748 42.3392 59.3825 42.164 59.5746C41.9916 59.7699 41.895 60.033 41.895 60.307C41.895 60.581 41.9916 60.844 42.164 61.0394ZM37.864 56.2459C38.0392 56.4381 38.2752 56.5457 38.521 56.5457C38.7667 56.5457 39.0027 56.4381 39.178 56.2459C39.3503 56.0506 39.4469 55.7875 39.4469 55.5135C39.4469 55.2395 39.3503 54.9765 39.178 54.7811C39.0027 54.589 38.7667 54.4814 38.521 54.4814C38.2752 54.4814 38.0392 54.589 37.864 54.7811C37.6916 54.9765 37.595 55.2395 37.595 55.5135C37.595 55.7875 37.6916 56.0506 37.864 56.2459ZM33.564 56.2459C33.7392 56.4381 33.9752 56.5457 34.221 56.5457C34.4667 56.5457 34.7027 56.4381 34.878 56.2459C35.0503 56.0506 35.1469 55.7875 35.1469 55.5135C35.1469 55.2395 35.0503 54.9765 34.878 54.7811C34.7027 54.589 34.4667 54.4814 34.221 54.4814C33.9752 54.4814 33.7392 54.589 33.564 54.7811C33.3916 54.9765 33.295 55.2395 33.295 55.5135C33.295 55.7875 33.3916 56.0506 33.564 56.2459ZM37.864 61.0394C38.0392 61.2315 38.2752 61.3392 38.521 61.3392C38.7667 61.3392 39.0027 61.2315 39.178 61.0394C39.3503 60.844 39.4469 60.581 39.4469 60.307C39.4469 60.033 39.3503 59.7699 39.178 59.5746C39.0027 59.3825 38.7667 59.2748 38.521 59.2748C38.2752 59.2748 38.0392 59.3825 37.864 59.5746C37.6916 59.7699 37.595 60.033 37.595 60.307C37.595 60.581 37.6916 60.844 37.864 61.0394ZM37.864 51.3187C38.0392 51.5108 38.2752 51.6185 38.521 51.6185C38.7667 51.6185 39.0027 51.5108 39.178 51.3187C39.3501 51.1232 39.4465 50.8602 39.4465 50.5863C39.4465 50.3124 39.3501 50.0494 39.178 49.8539C39.0027 49.6618 38.7667 49.5541 38.521 49.5541C38.2752 49.5541 38.0392 49.6618 37.864 49.8539C37.6916 50.0493 37.595 50.3123 37.595 50.5863C37.595 50.8603 37.6916 51.1234 37.864 51.3187ZM42.164 56.2459C42.3392 56.4381 42.5752 56.5457 42.821 56.5457C43.0667 56.5457 43.3027 56.4381 43.478 56.2459C43.6503 56.0506 43.7469 55.7875 43.7469 55.5135C43.7469 55.2395 43.6503 54.9765 43.478 54.7811C43.3027 54.589 43.0667 54.4814 42.821 54.4814C42.5752 54.4814 42.3392 54.589 42.164 54.7811C41.9916 54.9765 41.895 55.2395 41.895 55.5135C41.895 55.7875 41.9916 56.0506 42.164 56.2459ZM29.144 56.2459C29.3192 56.4381 29.5552 56.5457 29.801 56.5457C30.0467 56.5457 30.2827 56.4381 30.458 56.2459C30.6303 56.0506 30.7269 55.7875 30.7269 55.5135C30.7269 55.2395 30.6303 54.9765 30.458 54.7811C30.2827 54.589 30.0467 54.4814 29.801 54.4814C29.5552 54.4814 29.3192 54.589 29.144 54.7811C28.9716 54.9765 28.875 55.2395 28.875 55.5135C28.875 55.7875 28.9716 56.0506 29.144 56.2459ZM33.564 51.3187C33.7393 51.5106 33.9752 51.6181 34.221 51.6181C34.4667 51.6181 34.7026 51.5106 34.878 51.3187C35.0503 51.1234 35.1469 50.8603 35.1469 50.5863C35.1469 50.3123 35.0503 50.0493 34.878 49.8539C34.7026 49.6621 34.4667 49.5546 34.221 49.5546C33.9752 49.5546 33.7393 49.6621 33.564 49.8539C33.3916 50.0493 33.295 50.3123 33.295 50.5863C33.295 50.8603 33.3916 51.1234 33.564 51.3187ZM46.584 56.2459C46.7592 56.4381 46.9952 56.5457 47.241 56.5457C47.4867 56.5457 47.7227 56.4381 47.898 56.2459C48.0703 56.0506 48.1669 55.7875 48.1669 55.5135C48.1669 55.2395 48.0703 54.9765 47.898 54.7811C47.7227 54.589 47.4867 54.4814 47.241 54.4814C46.9952 54.4814 46.7592 54.589 46.584 54.7811C46.106 55.1802 46.106 55.8457 46.584 56.2459ZM42.164 51.3187C42.3392 51.5108 42.5752 51.6185 42.821 51.6185C43.0667 51.6185 43.3027 51.5108 43.478 51.3187C43.6503 51.1234 43.7469 50.8603 43.7469 50.5863C43.7469 50.3123 43.6503 50.0493 43.478 49.8539C43.3027 49.6618 43.0667 49.5541 42.821 49.5541C42.5752 49.5541 42.3392 49.6618 42.164 49.8539C41.9918 50.0494 41.8954 50.3124 41.8954 50.5863C41.8954 50.8602 41.9918 51.1232 42.164 51.3187ZM37.864 46.5253C38.0392 46.7174 38.2752 46.8251 38.521 46.8251C38.7667 46.8251 39.0027 46.7174 39.178 46.5253C39.3501 46.3298 39.4465 46.0668 39.4465 45.7929C39.4465 45.519 39.3501 45.256 39.178 45.0605C39.0027 44.8684 38.7667 44.7607 38.521 44.7607C38.2752 44.7607 38.0392 44.8684 37.864 45.0605C37.6916 45.2558 37.595 45.5189 37.595 45.7929C37.595 46.0669 37.6916 46.3299 37.864 46.5253ZM29.144 75.5535C29.3192 75.7456 29.5552 75.8533 29.801 75.8533C30.0467 75.8533 30.2827 75.7456 30.458 75.5535C30.6303 75.3581 30.7269 75.0951 30.7269 74.8211C30.7269 74.5471 30.6303 74.284 30.458 74.0887C30.2827 73.8966 30.0467 73.7889 29.801 73.7889C29.5552 73.7889 29.3192 73.8966 29.144 74.0887C28.9716 74.284 28.875 74.5471 28.875 74.8211C28.875 75.0951 28.9716 75.3581 29.144 75.5535ZM24.844 70.6263C25.0192 70.8184 25.2552 70.926 25.501 70.926C25.7467 70.926 25.9827 70.8184 26.158 70.6263C26.3303 70.4309 26.4269 70.1679 26.4269 69.8939C26.4269 69.6199 26.3303 69.3568 26.158 69.1615C25.9827 68.9693 25.7467 68.8617 25.501 68.8617C25.2552 68.8617 25.0192 68.9693 24.844 69.1615C24.486 69.6943 24.486 70.2272 24.844 70.6263ZM33.564 70.6263C33.7393 70.8181 33.9752 70.9256 34.221 70.9256C34.4667 70.9256 34.7026 70.8181 34.878 70.6263C35.0503 70.4309 35.1469 70.1679 35.1469 69.8939C35.1469 69.6199 35.0503 69.3568 34.878 69.1615C34.7026 68.9696 34.4667 68.8621 34.221 68.8621C33.9752 68.8621 33.7393 68.9696 33.564 69.1615C33.206 69.6943 33.206 70.2272 33.564 70.6263ZM29.144 65.8328C29.3192 66.0249 29.5552 66.1326 29.801 66.1326C30.0467 66.1326 30.2827 66.0249 30.458 65.8328C30.6301 65.6373 30.7265 65.3743 30.7265 65.1004C30.7265 64.8265 30.6301 64.5635 30.458 64.368C30.2827 64.1759 30.0467 64.0682 29.801 64.0682C29.5552 64.0682 29.3192 64.1759 29.144 64.368C28.9716 64.5634 28.875 64.8264 28.875 65.1004C28.875 65.3744 28.9716 65.6375 29.144 65.8328ZM24.844 65.8328C25.0192 66.0249 25.2552 66.1326 25.501 66.1326C25.7467 66.1326 25.9827 66.0249 26.158 65.8328C26.3303 65.6375 26.4269 65.3744 26.4269 65.1004C26.4269 64.8264 26.3303 64.5634 26.158 64.368C25.9827 64.1759 25.7467 64.0682 25.501 64.0682C25.2552 64.0682 25.0192 64.1759 24.844 64.368C24.6718 64.5635 24.5754 64.8265 24.5754 65.1004C24.5754 65.3743 24.6718 65.6373 24.844 65.8328ZM29.144 70.6263C29.3192 70.8184 29.5552 70.926 29.801 70.926C30.0467 70.926 30.2827 70.8184 30.458 70.6263C30.6301 70.4308 30.7265 70.1678 30.7265 69.8939C30.7265 69.6199 30.6301 69.357 30.458 69.1615C30.2827 68.9693 30.0467 68.8617 29.801 68.8617C29.5552 68.8617 29.3192 68.9693 29.144 69.1615C28.786 69.6943 28.786 70.2272 29.144 70.6263ZM29.144 61.0394C29.3192 61.2315 29.5552 61.3392 29.801 61.3392C30.0467 61.3392 30.2827 61.2315 30.458 61.0394C30.6303 60.844 30.7269 60.581 30.7269 60.307C30.7269 60.033 30.6303 59.7699 30.458 59.5746C30.2827 59.3825 30.0467 59.2748 29.801 59.2748C29.5552 59.2748 29.3192 59.3825 29.144 59.5746C28.9716 59.7699 28.875 60.033 28.875 60.307C28.875 60.581 28.9716 60.844 29.144 61.0394ZM33.564 65.8328C33.7393 66.0247 33.9752 66.1322 34.221 66.1322C34.4667 66.1322 34.7026 66.0247 34.878 65.8328C35.0503 65.6375 35.1469 65.3744 35.1469 65.1004C35.1469 64.8264 35.0503 64.5634 34.878 64.368C34.7026 64.1762 34.4667 64.0687 34.221 64.0687C33.9752 64.0687 33.7393 64.1762 33.564 64.368C33.3916 64.5634 33.295 64.8264 33.295 65.1004C33.295 65.3744 33.3916 65.6375 33.564 65.8328ZM20.544 65.8328C20.7192 66.0249 20.9552 66.1326 21.201 66.1326C21.4467 66.1326 21.6827 66.0249 21.858 65.8328C22.0301 65.6373 22.1265 65.3743 22.1265 65.1004C22.1265 64.8265 22.0301 64.5635 21.858 64.368C21.6827 64.1759 21.4467 64.0682 21.201 64.0682C20.9552 64.0682 20.7192 64.1759 20.544 64.368C20.3716 64.5634 20.275 64.8264 20.275 65.1004C20.275 65.3744 20.3716 65.6375 20.544 65.8328ZM24.844 61.0394C25.0192 61.2315 25.2552 61.3392 25.501 61.3392C25.7467 61.3392 25.9827 61.2315 26.158 61.0394C26.3303 60.844 26.4269 60.581 26.4269 60.307C26.4269 60.033 26.3303 59.7699 26.158 59.5746C25.9827 59.3825 25.7467 59.2748 25.501 59.2748C25.2552 59.2748 25.0192 59.3825 24.844 59.5746C24.6716 59.7699 24.575 60.033 24.575 60.307C24.575 60.581 24.6716 60.844 24.844 61.0394Z" fill="#0A3B3C"/>
<path d="M37.8639 65.8329C38.0392 66.025 38.2751 66.1327 38.5209 66.1327C38.7667 66.1327 39.0027 66.025 39.1779 65.8329C39.35 65.6374 39.4465 65.3744 39.4465 65.1005C39.4465 64.8266 39.35 64.5636 39.1779 64.3681C39.0027 64.176 38.7667 64.0683 38.5209 64.0683C38.2751 64.0683 38.0392 64.176 37.8639 64.3681C37.6916 64.5635 37.595 64.8265 37.595 65.1005C37.595 65.3745 37.6916 65.6375 37.8639 65.8329ZM33.5639 61.0395C33.7393 61.2313 33.9752 61.3388 34.2209 61.3388C34.4666 61.3388 34.7026 61.2313 34.8779 61.0395C35.0503 60.8441 35.1469 60.5811 35.1469 60.3071C35.1469 60.0331 35.0503 59.77 34.8779 59.5747C34.7027 59.3825 34.4667 59.2749 34.2209 59.2749C33.9751 59.2749 33.7392 59.3825 33.5639 59.5747C33.3916 59.77 33.295 60.0331 33.295 60.3071C33.295 60.5811 33.3916 60.8441 33.5639 61.0395ZM29.1439 56.246C29.3192 56.4381 29.5551 56.5458 29.8009 56.5458C30.0467 56.5458 30.2827 56.4381 30.4579 56.246C30.6303 56.0506 30.7269 55.7876 30.7269 55.5136C30.7269 55.2396 30.6303 54.9766 30.4579 54.7812C30.2827 54.5891 30.0467 54.4814 29.8009 54.4814C29.5551 54.4814 29.3192 54.5891 29.1439 54.7812C28.9716 54.9766 28.875 55.2396 28.875 55.5136C28.875 55.7876 28.9716 56.0506 29.1439 56.246ZM55.1839 27.2178C55.3592 27.4099 55.5951 27.5176 55.8409 27.5176C56.0867 27.5176 56.3227 27.4099 56.4979 27.2178C56.6703 27.0224 56.7669 26.7594 56.7669 26.4854C56.7669 26.2114 56.6703 25.9484 56.4979 25.753C56.3227 25.5612 56.087 25.4538 55.8414 25.4538C55.5959 25.4538 55.3601 25.5612 55.1849 25.753C55.0126 25.9484 54.916 26.2114 54.916 26.4854C54.916 26.7594 55.0126 27.0224 55.1849 27.2178H55.1839ZM50.8839 22.4244C51.0592 22.6165 51.2951 22.7242 51.5409 22.7242C51.7867 22.7242 52.0227 22.6165 52.1979 22.4244C52.3703 22.229 52.4669 21.966 52.4669 21.692C52.4669 21.418 52.3703 21.1549 52.1979 20.9596C52.0227 20.7675 51.7867 20.6598 51.5409 20.6598C51.2951 20.6598 51.0592 20.7675 50.8839 20.9596C50.7116 21.1549 50.615 21.418 50.615 21.692C50.615 21.966 50.7116 22.229 50.8839 22.4244ZM59.4849 22.4244C59.6601 22.6162 59.8959 22.7236 60.1414 22.7236C60.387 22.7236 60.6227 22.6162 60.7979 22.4244C60.9703 22.229 61.0669 21.966 61.0669 21.692C61.0669 21.418 60.9703 21.1549 60.7979 20.9596C60.6227 20.7678 60.387 20.6603 60.1414 20.6603C59.8959 20.6603 59.6601 20.7678 59.4849 20.9596C59.3126 21.1549 59.216 21.418 59.216 21.692C59.216 21.966 59.3126 22.229 59.4849 22.4244ZM55.1839 17.4972C55.3592 17.6893 55.5951 17.7969 55.8409 17.7969C56.0867 17.7969 56.3227 17.6893 56.4979 17.4972C56.67 17.3017 56.7665 17.0387 56.7665 16.7648C56.7665 16.4908 56.67 16.2279 56.4979 16.0324C56.3227 15.8406 56.087 15.7331 55.8414 15.7331C55.5959 15.7331 55.3601 15.8406 55.1849 16.0324C55.0126 16.2277 54.916 16.4908 54.916 16.7648C54.916 17.0388 55.0126 17.3018 55.1849 17.4972H55.1839ZM50.8839 17.4972C51.0593 17.689 51.2952 17.7965 51.5409 17.7965C51.7866 17.7965 52.0226 17.689 52.1979 17.4972C52.3703 17.3018 52.4669 17.0388 52.4669 16.7648C52.4669 16.4908 52.3703 16.2277 52.1979 16.0324C52.0226 15.8405 51.7866 15.733 51.5409 15.733C51.2952 15.733 51.0593 15.8405 50.8839 16.0324C50.7116 16.2277 50.615 16.4908 50.615 16.7648C50.615 17.0388 50.7116 17.3018 50.8839 17.4972ZM55.1839 22.4244C55.3592 22.6165 55.5951 22.7242 55.8409 22.7242C56.0867 22.7242 56.3227 22.6165 56.4979 22.4244C56.6703 22.229 56.7669 21.966 56.7669 21.692C56.7669 21.418 56.6703 21.1549 56.4979 20.9596C56.3227 20.7678 56.087 20.6603 55.8414 20.6603C55.5959 20.6603 55.3601 20.7678 55.1849 20.9596C55.0126 21.1549 54.916 21.418 54.916 21.692C54.916 21.966 55.0126 22.229 55.1849 22.4244H55.1839ZM55.1839 12.7037C55.3592 12.8958 55.5951 13.0035 55.8409 13.0035C56.0867 13.0035 56.3227 12.8958 56.4979 12.7037C56.67 12.5082 56.7665 12.2452 56.7665 11.9713C56.7665 11.6974 56.67 11.4344 56.4979 11.2389C56.3227 11.0471 56.087 10.9397 55.8414 10.9397C55.5959 10.9397 55.3601 11.0471 55.1849 11.2389C55.0126 11.4343 54.916 11.6973 54.916 11.9713C54.916 12.2453 55.0126 12.5083 55.1849 12.7037H55.1839ZM59.4849 17.4972C59.6601 17.6889 59.8959 17.7964 60.1414 17.7964C60.387 17.7964 60.6227 17.6889 60.7979 17.4972C60.9703 17.3018 61.0669 17.0388 61.0669 16.7648C61.0669 16.4908 60.9703 16.2277 60.7979 16.0324C60.6227 15.8406 60.387 15.7331 60.1414 15.7331C59.8959 15.7331 59.6601 15.8406 59.4849 16.0324C59.3128 16.2279 59.2164 16.4908 59.2164 16.7648C59.2164 17.0387 59.3128 17.3017 59.4849 17.4972ZM46.5839 17.4972C46.7592 17.6893 46.9951 17.7969 47.2409 17.7969C47.4867 17.7969 47.7227 17.6893 47.8979 17.4972C48.0703 17.3018 48.1669 17.0388 48.1669 16.7648C48.1669 16.4908 48.0703 16.2277 47.8979 16.0324C47.7227 15.8402 47.4867 15.7326 47.2409 15.7326C46.9951 15.7326 46.7592 15.8402 46.5839 16.0324C46.2259 16.4314 46.1059 17.0981 46.5839 17.4972ZM50.8839 12.7037C51.0593 12.8956 51.2952 13.0031 51.5409 13.0031C51.7866 13.0031 52.0226 12.8956 52.1979 12.7037C52.3703 12.5083 52.4669 12.2453 52.4669 11.9713C52.4669 11.6973 52.3703 11.4343 52.1979 11.2389C52.0226 11.0471 51.7866 10.9396 51.5409 10.9396C51.2952 10.9396 51.0593 11.0471 50.8839 11.2389C50.7118 11.4344 50.6154 11.6974 50.6154 11.9713C50.6154 12.2452 50.7118 12.5082 50.8839 12.7037ZM63.9039 17.4972C64.0792 17.6893 64.3151 17.7969 64.5609 17.7969C64.8067 17.7969 65.0427 17.6893 65.2179 17.4972C65.3903 17.3018 65.4869 17.0388 65.4869 16.7648C65.4869 16.4908 65.3903 16.2277 65.2179 16.0324C65.0427 15.8402 64.8067 15.7326 64.5609 15.7326C64.3151 15.7326 64.0792 15.8402 63.9039 16.0324C63.7316 16.2277 63.635 16.4908 63.635 16.7648C63.635 17.0388 63.7316 17.3018 63.9039 17.4972ZM59.4849 12.7037C59.6601 12.8955 59.8959 13.003 60.1414 13.003C60.387 13.003 60.6227 12.8955 60.7979 12.7037C60.9703 12.5083 61.0669 12.2453 61.0669 11.9713C61.0669 11.6973 60.9703 11.4343 60.7979 11.2389C60.6227 11.0471 60.387 10.9397 60.1414 10.9397C59.8959 10.9397 59.6601 11.0471 59.4849 11.2389C59.3128 11.4344 59.2164 11.6974 59.2164 11.9713C59.2164 12.2452 59.3128 12.5082 59.4849 12.7037ZM55.1839 7.91027C55.3592 8.10239 55.5951 8.21006 55.8409 8.21006C56.0867 8.21006 56.3227 8.10239 56.4979 7.91027C56.6703 7.71491 56.7669 7.45188 56.7669 7.17787C56.7669 6.90387 56.6703 6.64084 56.4979 6.44548C56.3227 6.25369 56.087 6.14624 55.8414 6.14624C55.5959 6.14624 55.3601 6.25369 55.1849 6.44548C55.0126 6.64084 54.916 6.90387 54.916 7.17787C54.916 7.45188 55.0126 7.71491 55.1849 7.91027H55.1839ZM46.5839 36.8047C46.7592 36.9968 46.9951 37.1045 47.2409 37.1045C47.4867 37.1045 47.7227 36.9968 47.8979 36.8047C48.0703 36.6093 48.1669 36.3463 48.1669 36.0723C48.1669 35.7983 48.0703 35.5353 47.8979 35.3399C47.7227 35.1478 47.4867 35.0401 47.2409 35.0401C46.9951 35.0401 46.7592 35.1478 46.5839 35.3399C46.2259 35.739 46.1059 36.4056 46.5839 36.8047ZM42.1639 32.0113C42.3392 32.2034 42.5751 32.311 42.8209 32.311C43.0667 32.311 43.3027 32.2034 43.4779 32.0113C43.6503 31.8159 43.7469 31.5529 43.7469 31.2789C43.7469 31.0049 43.6503 30.7418 43.4779 30.5465C43.3027 30.3543 43.0667 30.2467 42.8209 30.2467C42.5751 30.2467 42.3392 30.3543 42.1639 30.5465C41.9918 30.742 41.8954 31.0049 41.8954 31.2789C41.8954 31.5528 41.9918 31.8158 42.1639 32.0113ZM50.8839 32.0113C51.0593 32.2031 51.2952 32.3106 51.5409 32.3106C51.7866 32.3106 52.0226 32.2031 52.1979 32.0113C52.3703 31.8159 52.4669 31.5529 52.4669 31.2789C52.4669 31.0049 52.3703 30.7418 52.1979 30.5465C52.0226 30.3546 51.7866 30.2471 51.5409 30.2471C51.2952 30.2471 51.0593 30.3546 50.8839 30.5465C50.7118 30.742 50.6154 31.0049 50.6154 31.2789C50.6154 31.5528 50.7118 31.8158 50.8839 32.0113ZM46.5839 27.2178C46.7592 27.4099 46.9951 27.5176 47.2409 27.5176C47.4867 27.5176 47.7227 27.4099 47.8979 27.2178C48.0703 27.0224 48.1669 26.7594 48.1669 26.4854C48.1669 26.2114 48.0703 25.9484 47.8979 25.753C47.7227 25.5609 47.4867 25.4532 47.2409 25.4532C46.9951 25.4532 46.7592 25.5609 46.5839 25.753C46.1059 26.1521 46.1059 26.8176 46.5839 27.2178ZM42.1639 27.2178C42.3392 27.4099 42.5751 27.5176 42.8209 27.5176C43.0667 27.5176 43.3027 27.4099 43.4779 27.2178C43.6503 27.0224 43.7469 26.7594 43.7469 26.4854C43.7469 26.2114 43.6503 25.9484 43.4779 25.753C43.3027 25.5609 43.0667 25.4532 42.8209 25.4532C42.5751 25.4532 42.3392 25.5609 42.1639 25.753C41.9916 25.9484 41.895 26.2114 41.895 26.4854C41.895 26.7594 41.9916 27.0224 42.1639 27.2178ZM46.5839 32.0113C46.7592 32.2034 46.9951 32.311 47.2409 32.311C47.4867 32.311 47.7227 32.2034 47.8979 32.0113C48.0703 31.8159 48.1669 31.5529 48.1669 31.2789C48.1669 31.0049 48.0703 30.7418 47.8979 30.5465C47.7227 30.3543 47.4867 30.2467 47.2409 30.2467C46.9951 30.2467 46.7592 30.3543 46.5839 30.5465C46.1059 30.9455 46.1059 31.6122 46.5839 32.0113ZM46.5839 22.4244C46.7592 22.6165 46.9951 22.7242 47.2409 22.7242C47.4867 22.7242 47.7227 22.6165 47.8979 22.4244C48.0703 22.229 48.1669 21.966 48.1669 21.692C48.1669 21.418 48.0703 21.1549 47.8979 20.9596C47.7227 20.7675 47.4867 20.6598 47.2409 20.6598C46.9951 20.6598 46.7592 20.7675 46.5839 20.9596C46.1059 21.3587 46.1059 22.0242 46.5839 22.4244ZM50.8839 27.2178C51.0593 27.4097 51.2952 27.5171 51.5409 27.5171C51.7866 27.5171 52.0226 27.4097 52.1979 27.2178C52.3703 27.0224 52.4669 26.7594 52.4669 26.4854C52.4669 26.2114 52.3703 25.9484 52.1979 25.753C52.0227 25.5609 51.7867 25.4532 51.5409 25.4532C51.2951 25.4532 51.0592 25.5609 50.8839 25.753C50.7116 25.9484 50.615 26.2114 50.615 26.4854C50.615 26.7594 50.7116 27.0224 50.8839 27.2178ZM37.8639 27.2178C38.0392 27.4099 38.2751 27.5176 38.5209 27.5176C38.7667 27.5176 39.0027 27.4099 39.1779 27.2178C39.3503 27.0224 39.4469 26.7594 39.4469 26.4854C39.4469 26.2114 39.3503 25.9484 39.1779 25.753C39.0027 25.5609 38.7667 25.4532 38.5209 25.4532C38.2751 25.4532 38.0392 25.5609 37.8639 25.753C37.6916 25.9484 37.595 26.2114 37.595 26.4854C37.595 26.7594 37.6916 27.0224 37.8639 27.2178ZM42.1639 22.4244C42.3392 22.6165 42.5751 22.7242 42.8209 22.7242C43.0667 22.7242 43.3027 22.6165 43.4779 22.4244C43.6503 22.229 43.7469 21.966 43.7469 21.692C43.7469 21.418 43.6503 21.1549 43.4779 20.9596C43.3027 20.7675 43.0667 20.6598 42.8209 20.6598C42.5751 20.6598 42.3392 20.7675 42.1639 20.9596C41.9916 21.1549 41.895 21.418 41.895 21.692C41.895 21.966 41.9916 22.229 42.1639 22.4244Z" fill="#0A3B3C"/>
<path d="M55.184 27.2179C55.3592 27.41 55.5952 27.5177 55.841 27.5177C56.0867 27.5177 56.3227 27.41 56.498 27.2179C56.6703 27.0225 56.7669 26.7595 56.7669 26.4855C56.7669 26.2115 56.6703 25.9485 56.498 25.7531C56.3228 25.5613 56.087 25.4539 55.8415 25.4539C55.5959 25.4539 55.3602 25.5613 55.185 25.7531C55.0126 25.9485 54.916 26.2115 54.916 26.4855C54.916 26.7595 55.0126 27.0225 55.185 27.2179H55.184ZM50.884 22.4245C51.0592 22.6166 51.2952 22.7242 51.541 22.7242C51.7867 22.7242 52.0227 22.6166 52.198 22.4245C52.3703 22.2291 52.4669 21.9661 52.4669 21.6921C52.4669 21.4181 52.3703 21.155 52.198 20.9597C52.0227 20.7675 51.7867 20.6599 51.541 20.6599C51.2952 20.6599 51.0592 20.7675 50.884 20.9597C50.7116 21.155 50.615 21.4181 50.615 21.6921C50.615 21.9661 50.7116 22.2291 50.884 22.4245ZM46.584 17.4972C46.7592 17.6894 46.9952 17.797 47.241 17.797C47.4867 17.797 47.7227 17.6894 47.898 17.4972C48.0703 17.3019 48.1669 17.0389 48.1669 16.7648C48.1669 16.4908 48.0703 16.2278 47.898 16.0325C47.7227 15.8403 47.4867 15.7327 47.241 15.7327C46.9952 15.7327 46.7592 15.8403 46.584 16.0325C46.226 16.4315 46.106 17.0982 46.584 17.4972ZM37.864 46.5254C38.0392 46.7176 38.2752 46.8252 38.521 46.8252C38.7667 46.8252 39.0027 46.7176 39.178 46.5254C39.3501 46.3299 39.4465 46.067 39.4465 45.793C39.4465 45.5191 39.3501 45.2562 39.178 45.0607C39.0027 44.8685 38.7667 44.7609 38.521 44.7609C38.2752 44.7609 38.0392 44.8685 37.864 45.0607C37.6916 45.256 37.595 45.519 37.595 45.793C37.595 46.067 37.6916 46.3301 37.864 46.5254ZM33.564 41.732C33.7392 41.9241 33.9752 42.0318 34.221 42.0318C34.4667 42.0318 34.7027 41.9241 34.878 41.732C35.0503 41.5366 35.1469 41.2736 35.1469 40.9996C35.1469 40.7256 35.0503 40.4626 34.878 40.2672C34.7027 40.0751 34.4667 39.9674 34.221 39.9674C33.9752 39.9674 33.7392 40.0751 33.564 40.2672C33.3916 40.4626 33.295 40.7256 33.295 40.9996C33.295 41.2736 33.3916 41.5366 33.564 41.732ZM42.164 41.732C42.3392 41.9241 42.5752 42.0318 42.821 42.0318C43.0667 42.0318 43.3027 41.9241 43.478 41.732C43.6503 41.5366 43.7469 41.2736 43.7469 40.9996C43.7469 40.7256 43.6503 40.4626 43.478 40.2672C43.3027 40.0751 43.0667 39.9674 42.821 39.9674C42.5752 39.9674 42.3392 40.0751 42.164 40.2672C41.9916 40.4626 41.895 40.7256 41.895 40.9996C41.895 41.2736 41.9916 41.5366 42.164 41.732ZM37.864 36.8048C38.0392 36.9969 38.2752 37.1046 38.521 37.1046C38.7667 37.1046 39.0027 36.9969 39.178 36.8048C39.3501 36.6093 39.4465 36.3463 39.4465 36.0724C39.4465 35.7985 39.3501 35.5355 39.178 35.34C39.0027 35.1479 38.7667 35.0402 38.521 35.0402C38.2752 35.0402 38.0392 35.1479 37.864 35.34C37.506 35.8728 37.506 36.4057 37.864 36.8048ZM33.564 36.8048C33.7393 36.9966 33.9752 37.1041 34.221 37.1041C34.4667 37.1041 34.7026 36.9966 34.878 36.8048C35.0503 36.6094 35.1469 36.3464 35.1469 36.0724C35.1469 35.7984 35.0503 35.5354 34.878 35.34C34.7026 35.1481 34.4667 35.0407 34.221 35.0407C33.9752 35.0407 33.7393 35.1481 33.564 35.34C33.206 35.8728 33.206 36.4057 33.564 36.8048ZM37.864 41.732C38.0392 41.9241 38.2752 42.0318 38.521 42.0318C38.7667 42.0318 39.0027 41.9241 39.178 41.732C39.3503 41.5366 39.4469 41.2736 39.4469 40.9996C39.4469 40.7256 39.3503 40.4626 39.178 40.2672C39.0027 40.0751 38.7667 39.9674 38.521 39.9674C38.2752 39.9674 38.0392 40.0751 37.864 40.2672C37.6916 40.4626 37.595 40.7256 37.595 40.9996C37.595 41.2736 37.6916 41.5366 37.864 41.732ZM37.864 32.0113C38.0392 32.2035 38.2752 32.3111 38.521 32.3111C38.7667 32.3111 39.0027 32.2035 39.178 32.0113C39.3501 31.8158 39.4465 31.5529 39.4465 31.2789C39.4465 31.005 39.3501 30.7421 39.178 30.5466C39.0027 30.3544 38.7667 30.2468 38.521 30.2468C38.2752 30.2468 38.0392 30.3544 37.864 30.5466C37.6916 30.7419 37.595 31.0049 37.595 31.2789C37.595 31.5529 37.6916 31.816 37.864 32.0113ZM42.164 36.8048C42.3392 36.9969 42.5752 37.1046 42.821 37.1046C43.0667 37.1046 43.3027 36.9969 43.478 36.8048C43.6503 36.6094 43.7469 36.3464 43.7469 36.0724C43.7469 35.7984 43.6503 35.5354 43.478 35.34C43.3027 35.1479 43.0667 35.0402 42.821 35.0402C42.5752 35.0402 42.3392 35.1479 42.164 35.34C41.806 35.8728 41.806 36.4057 42.164 36.8048ZM29.144 36.8048C29.3192 36.9969 29.5552 37.1046 29.801 37.1046C30.0467 37.1046 30.2827 36.9969 30.458 36.8048C30.6301 36.6093 30.7265 36.3463 30.7265 36.0724C30.7265 35.7985 30.6301 35.5355 30.458 35.34C30.2827 35.1479 30.0467 35.0402 29.801 35.0402C29.5552 35.0402 29.3192 35.1479 29.144 35.34C28.786 35.8728 28.786 36.4057 29.144 36.8048ZM33.564 32.0113C33.7393 32.2032 33.9752 32.3107 34.221 32.3107C34.4667 32.3107 34.7026 32.2032 34.878 32.0113C35.0503 31.816 35.1469 31.5529 35.1469 31.2789C35.1469 31.0049 35.0503 30.7419 34.878 30.5466C34.7026 30.3547 34.4667 30.2472 34.221 30.2472C33.9752 30.2472 33.7393 30.3547 33.564 30.5466C33.3916 30.7419 33.295 31.0049 33.295 31.2789C33.295 31.5529 33.3916 31.816 33.564 32.0113ZM46.584 36.8048C46.7592 36.9969 46.9952 37.1046 47.241 37.1046C47.4867 37.1046 47.7227 36.9969 47.898 36.8048C48.0703 36.6094 48.1669 36.3464 48.1669 36.0724C48.1669 35.7984 48.0703 35.5354 47.898 35.34C47.7227 35.1479 47.4867 35.0402 47.241 35.0402C46.9952 35.0402 46.7592 35.1479 46.584 35.34C46.226 35.7391 46.106 36.4057 46.584 36.8048ZM42.164 32.0113C42.3392 32.2035 42.5752 32.3111 42.821 32.3111C43.0667 32.3111 43.3027 32.2035 43.478 32.0113C43.6503 31.816 43.7469 31.5529 43.7469 31.2789C43.7469 31.0049 43.6503 30.7419 43.478 30.5466C43.3027 30.3544 43.0667 30.2468 42.821 30.2468C42.5752 30.2468 42.3392 30.3544 42.164 30.5466C41.9918 30.7421 41.8954 31.005 41.8954 31.2789C41.8954 31.5529 41.9918 31.8158 42.164 32.0113ZM37.864 27.2179C38.0392 27.41 38.2752 27.5177 38.521 27.5177C38.7667 27.5177 39.0027 27.41 39.178 27.2179C39.3503 27.0225 39.4469 26.7595 39.4469 26.4855C39.4469 26.2115 39.3503 25.9485 39.178 25.7531C39.0027 25.561 38.7667 25.4533 38.521 25.4533C38.2752 25.4533 38.0392 25.561 37.864 25.7531C37.6916 25.9485 37.595 26.2115 37.595 26.4855C37.595 26.7595 37.6916 27.0225 37.864 27.2179ZM29.144 56.2461C29.3192 56.4382 29.5552 56.5459 29.801 56.5459C30.0467 56.5459 30.2827 56.4382 30.458 56.2461C30.6303 56.0507 30.7269 55.7877 30.7269 55.5137C30.7269 55.2397 30.6303 54.9767 30.458 54.7813C30.2827 54.5892 30.0467 54.4815 29.801 54.4815C29.5552 54.4815 29.3192 54.5892 29.144 54.7813C28.9716 54.9767 28.875 55.2397 28.875 55.5137C28.875 55.7877 28.9716 56.0507 29.144 56.2461ZM24.844 51.3189C25.0192 51.511 25.2552 51.6187 25.501 51.6187C25.7467 51.6187 25.9827 51.511 26.158 51.3189C26.3303 51.1235 26.4269 50.8605 26.4269 50.5865C26.4269 50.3125 26.3303 50.0495 26.158 49.8541C25.9827 49.662 25.7467 49.5543 25.501 49.5543C25.2552 49.5543 25.0192 49.662 24.844 49.8541C24.6718 50.0496 24.5754 50.3126 24.5754 50.5865C24.5754 50.8604 24.6718 51.1234 24.844 51.3189ZM33.564 51.3189C33.7393 51.5107 33.9752 51.6182 34.221 51.6182C34.4667 51.6182 34.7026 51.5107 34.878 51.3189C35.0503 51.1235 35.1469 50.8605 35.1469 50.5865C35.1469 50.3125 35.0503 50.0495 34.878 49.8541C34.7026 49.6622 34.4667 49.5548 34.221 49.5548C33.9752 49.5548 33.7393 49.6622 33.564 49.8541C33.3916 50.0495 33.295 50.3125 33.295 50.5865C33.295 50.8605 33.3916 51.1235 33.564 51.3189ZM29.144 46.5254C29.3192 46.7176 29.5552 46.8252 29.801 46.8252C30.0467 46.8252 30.2827 46.7176 30.458 46.5254C30.6301 46.3299 30.7265 46.067 30.7265 45.793C30.7265 45.5191 30.6301 45.2562 30.458 45.0607C30.2827 44.8685 30.0467 44.7609 29.801 44.7609C29.5552 44.7609 29.3192 44.8685 29.144 45.0607C28.9716 45.256 28.875 45.519 28.875 45.793C28.875 46.067 28.9716 46.3301 29.144 46.5254ZM24.844 46.5254C25.0192 46.7176 25.2552 46.8252 25.501 46.8252C25.7467 46.8252 25.9827 46.7176 26.158 46.5254C26.3303 46.3301 26.4269 46.067 26.4269 45.793C26.4269 45.519 26.3303 45.256 26.158 45.0607C25.9827 44.8685 25.7467 44.7609 25.501 44.7609C25.2552 44.7609 25.0192 44.8685 24.844 45.0607C24.6718 45.2562 24.5754 45.5191 24.5754 45.793C24.5754 46.067 24.6718 46.3299 24.844 46.5254ZM29.144 51.3189C29.3192 51.511 29.5552 51.6187 29.801 51.6187C30.0467 51.6187 30.2827 51.511 30.458 51.3189C30.6301 51.1234 30.7265 50.8604 30.7265 50.5865C30.7265 50.3126 30.6301 50.0496 30.458 49.8541C30.2827 49.662 30.0467 49.5543 29.801 49.5543C29.5552 49.5543 29.3192 49.662 29.144 49.8541C28.9716 50.0495 28.875 50.3125 28.875 50.5865C28.875 50.8605 28.9716 51.1235 29.144 51.3189ZM29.144 41.732C29.3192 41.9241 29.5552 42.0318 29.801 42.0318C30.0467 42.0318 30.2827 41.9241 30.458 41.732C30.6303 41.5366 30.7269 41.2736 30.7269 40.9996C30.7269 40.7256 30.6303 40.4626 30.458 40.2672C30.2827 40.0751 30.0467 39.9674 29.801 39.9674C29.5552 39.9674 29.3192 40.0751 29.144 40.2672C28.9716 40.4626 28.875 40.7256 28.875 40.9996C28.875 41.2736 28.9716 41.5366 29.144 41.732ZM33.564 46.5254C33.7393 46.7173 33.9752 46.8248 34.221 46.8248C34.4667 46.8248 34.7026 46.7173 34.878 46.5254C35.0503 46.3301 35.1469 46.067 35.1469 45.793C35.1469 45.519 35.0503 45.256 34.878 45.0607C34.7026 44.8688 34.4667 44.7613 34.221 44.7613C33.9752 44.7613 33.7393 44.8688 33.564 45.0607C33.3916 45.256 33.295 45.519 33.295 45.793C33.295 46.067 33.3916 46.3301 33.564 46.5254ZM20.544 46.5254C20.7192 46.7176 20.9552 46.8252 21.201 46.8252C21.4467 46.8252 21.6827 46.7176 21.858 46.5254C22.0301 46.3299 22.1265 46.067 22.1265 45.793C22.1265 45.5191 22.0301 45.2562 21.858 45.0607C21.6827 44.8685 21.4467 44.7609 21.201 44.7609C20.9552 44.7609 20.7192 44.8685 20.544 45.0607C20.3716 45.256 20.275 45.519 20.275 45.793C20.275 46.067 20.3716 46.3301 20.544 46.5254ZM24.844 41.732C25.0192 41.9241 25.2552 42.0318 25.501 42.0318C25.7467 42.0318 25.9827 41.9241 26.158 41.732C26.3303 41.5366 26.4269 41.2736 26.4269 40.9996C26.4269 40.7256 26.3303 40.4626 26.158 40.2672C25.9827 40.0751 25.7467 39.9674 25.501 39.9674C25.2552 39.9674 25.0192 40.0751 24.844 40.2672C24.6716 40.4626 24.575 40.7256 24.575 40.9996C24.575 41.2736 24.6716 41.5366 24.844 41.732Z" fill="#0A3B3C"/>
<path d="M37.864 46.5254C38.0392 46.7175 38.2752 46.8251 38.521 46.8251C38.7668 46.8251 39.0027 46.7175 39.178 46.5254C39.3501 46.3299 39.4465 46.0669 39.4465 45.793C39.4465 45.5191 39.3501 45.2561 39.178 45.0606C39.0027 44.8685 38.7668 44.7608 38.521 44.7608C38.2752 44.7608 38.0392 44.8685 37.864 45.0606C37.6916 45.2559 37.5951 45.519 37.5951 45.793C37.5951 46.067 37.6916 46.33 37.864 46.5254ZM33.564 41.7319C33.7392 41.924 33.9752 42.0317 34.221 42.0317C34.4668 42.0317 34.7027 41.924 34.878 41.7319C35.0503 41.5366 35.1469 41.2735 35.1469 40.9995C35.1469 40.7255 35.0503 40.4625 34.878 40.2671C34.7027 40.075 34.4668 39.9673 34.221 39.9673C33.9752 39.9673 33.7392 40.075 33.564 40.2671C33.3916 40.4625 33.2951 40.7255 33.2951 40.9995C33.2951 41.2735 33.3916 41.5366 33.564 41.7319ZM29.144 36.8047C29.3192 36.9968 29.5552 37.1045 29.801 37.1045C30.0468 37.1045 30.2827 36.9968 30.458 36.8047C30.6301 36.6092 30.7265 36.3462 30.7265 36.0723C30.7265 35.7984 30.6301 35.5354 30.458 35.3399C30.2827 35.1478 30.0468 35.0401 29.801 35.0401C29.5552 35.0401 29.3192 35.1478 29.144 35.3399C28.786 35.8728 28.786 36.4056 29.144 36.8047ZM20.544 65.8329C20.7192 66.025 20.9552 66.1327 21.201 66.1327C21.4468 66.1327 21.6827 66.025 21.858 65.8329C22.0301 65.6374 22.1265 65.3744 22.1265 65.1005C22.1265 64.8266 22.0301 64.5636 21.858 64.3681C21.6827 64.176 21.4468 64.0683 21.201 64.0683C20.9552 64.0683 20.7192 64.176 20.544 64.3681C20.3716 64.5635 20.2751 64.8265 20.2751 65.1005C20.2751 65.3745 20.3716 65.6375 20.544 65.8329ZM16.124 61.0395C16.2994 61.2313 16.5353 61.3388 16.781 61.3388C17.0267 61.3388 17.2626 61.2313 17.438 61.0395C17.6103 60.8441 17.7069 60.5811 17.7069 60.3071C17.7069 60.0331 17.6103 59.77 17.438 59.5747C17.2627 59.3825 17.0268 59.2749 16.781 59.2749C16.5352 59.2749 16.2992 59.3825 16.124 59.5747C15.9516 59.77 15.8551 60.0331 15.8551 60.3071C15.8551 60.5811 15.9516 60.8441 16.124 61.0395ZM24.844 61.0395C25.0192 61.2316 25.2552 61.3392 25.501 61.3392C25.7468 61.3392 25.9827 61.2316 26.158 61.0395C26.3303 60.8441 26.4269 60.5811 26.4269 60.3071C26.4269 60.0331 26.3303 59.77 26.158 59.5747C25.9827 59.3825 25.7468 59.2749 25.501 59.2749C25.2552 59.2749 25.0192 59.3825 24.844 59.5747C24.6716 59.77 24.5751 60.0331 24.5751 60.3071C24.5751 60.5811 24.6716 60.8441 24.844 61.0395ZM20.544 56.246C20.7192 56.4381 20.9552 56.5458 21.201 56.5458C21.4468 56.5458 21.6827 56.4381 21.858 56.246C22.0303 56.0507 22.1269 55.7876 22.1269 55.5136C22.1269 55.2396 22.0303 54.9766 21.858 54.7812C21.6827 54.5891 21.4468 54.4814 21.201 54.4814C20.9552 54.4814 20.7192 54.5891 20.544 54.7812C20.3716 54.9766 20.2751 55.2396 20.2751 55.5136C20.2751 55.7876 20.3716 56.0507 20.544 56.246ZM16.124 56.246C16.2992 56.4381 16.5352 56.5458 16.781 56.5458C17.0268 56.5458 17.2627 56.4381 17.438 56.246C17.6103 56.0507 17.7069 55.7876 17.7069 55.5136C17.7069 55.2396 17.6103 54.9766 17.438 54.7812C17.2627 54.5891 17.0268 54.4814 16.781 54.4814C16.5352 54.4814 16.2992 54.5891 16.124 54.7812C15.9516 54.9766 15.8551 55.2396 15.8551 55.5136C15.8551 55.7876 15.9516 56.0507 16.124 56.246ZM20.544 61.0395C20.7192 61.2316 20.9552 61.3392 21.201 61.3392C21.4468 61.3392 21.6827 61.2316 21.858 61.0395C22.0303 60.8441 22.1269 60.5811 22.1269 60.3071C22.1269 60.0331 22.0303 59.77 21.858 59.5747C21.6827 59.3825 21.4468 59.2749 21.201 59.2749C20.9552 59.2749 20.7192 59.3825 20.544 59.5747C20.3716 59.77 20.2751 60.0331 20.2751 60.3071C20.2751 60.5811 20.3716 60.8441 20.544 61.0395ZM20.544 51.3188C20.7192 51.5109 20.9552 51.6186 21.201 51.6186C21.4468 51.6186 21.6827 51.5109 21.858 51.3188C22.0301 51.1233 22.1265 50.8603 22.1265 50.5864C22.1265 50.3125 22.0301 50.0495 21.858 49.854C21.6827 49.6619 21.4468 49.5542 21.201 49.5542C20.9552 49.5542 20.7192 49.6619 20.544 49.854C20.3716 50.0494 20.2751 50.3124 20.2751 50.5864C20.2751 50.8604 20.3716 51.1234 20.544 51.3188ZM24.844 56.246C25.0192 56.4381 25.2552 56.5458 25.501 56.5458C25.7468 56.5458 25.9827 56.4381 26.158 56.246C26.3303 56.0507 26.4269 55.7876 26.4269 55.5136C26.4269 55.2396 26.3303 54.9766 26.158 54.7812C25.9827 54.5891 25.7468 54.4814 25.501 54.4814C25.2552 54.4814 25.0192 54.5891 24.844 54.7812C24.6716 54.9766 24.5751 55.2396 24.5751 55.5136C24.5751 55.7876 24.6716 56.0507 24.844 56.246ZM11.824 56.246C11.9992 56.4381 12.2352 56.5458 12.481 56.5458C12.7268 56.5458 12.9627 56.4381 13.138 56.246C13.3103 56.0507 13.4069 55.7876 13.4069 55.5136C13.4069 55.2396 13.3103 54.9766 13.138 54.7812C12.9627 54.5891 12.7268 54.4814 12.481 54.4814C12.2352 54.4814 11.9992 54.5891 11.824 54.7812C11.6516 54.9766 11.5551 55.2396 11.5551 55.5136C11.5551 55.7876 11.6516 56.0507 11.824 56.246ZM16.124 51.3188C16.2994 51.5107 16.5353 51.6181 16.781 51.6181C17.0267 51.6181 17.2626 51.5107 17.438 51.3188C17.6101 51.1233 17.7065 50.8603 17.7065 50.5864C17.7065 50.3125 17.6101 50.0495 17.438 49.854C17.2626 49.6622 17.0267 49.5547 16.781 49.5547C16.5353 49.5547 16.2994 49.6622 16.124 49.854C15.9519 50.0495 15.8555 50.3125 15.8555 50.5864C15.8555 50.8603 15.9519 51.1233 16.124 51.3188ZM29.144 56.246C29.3192 56.4381 29.5552 56.5458 29.801 56.5458C30.0468 56.5458 30.2827 56.4381 30.458 56.246C30.6303 56.0507 30.7269 55.7876 30.7269 55.5136C30.7269 55.2396 30.6303 54.9766 30.458 54.7812C30.2827 54.5891 30.0468 54.4814 29.801 54.4814C29.5552 54.4814 29.3192 54.5891 29.144 54.7812C28.9716 54.9766 28.8751 55.2396 28.8751 55.5136C28.8751 55.7876 28.9716 56.0507 29.144 56.246ZM24.844 51.3188C25.0192 51.5109 25.2552 51.6186 25.501 51.6186C25.7468 51.6186 25.9827 51.5109 26.158 51.3188C26.3303 51.1234 26.4269 50.8604 26.4269 50.5864C26.4269 50.3124 26.3303 50.0494 26.158 49.854C25.9827 49.6619 25.7468 49.5542 25.501 49.5542C25.2552 49.5542 25.0192 49.6619 24.844 49.854C24.6719 50.0495 24.5755 50.3125 24.5755 50.5864C24.5755 50.8603 24.6719 51.1233 24.844 51.3188ZM20.544 46.5254C20.7192 46.7175 20.9552 46.8251 21.201 46.8251C21.4468 46.8251 21.6827 46.7175 21.858 46.5254C22.0301 46.3299 22.1265 46.0669 22.1265 45.793C22.1265 45.5191 22.0301 45.2561 21.858 45.0606C21.6827 44.8685 21.4468 44.7608 21.201 44.7608C20.9552 44.7608 20.7192 44.8685 20.544 45.0606C20.3716 45.2559 20.2751 45.519 20.2751 45.793C20.2751 46.067 20.3716 46.33 20.544 46.5254ZM46.584 17.4972C46.7592 17.6893 46.9952 17.797 47.241 17.797C47.4868 17.797 47.7227 17.6893 47.898 17.4972C48.0703 17.3018 48.1669 17.0388 48.1669 16.7648C48.1669 16.4908 48.0703 16.2277 47.898 16.0324C47.7227 15.8403 47.4868 15.7326 47.241 15.7326C46.9952 15.7326 46.7592 15.8403 46.584 16.0324C46.226 16.4315 46.106 17.0981 46.584 17.4972ZM42.164 12.7037C42.3392 12.8958 42.5752 13.0035 42.821 13.0035C43.0668 13.0035 43.3027 12.8958 43.478 12.7037C43.6503 12.5084 43.7469 12.2453 43.7469 11.9713C43.7469 11.6973 43.6503 11.4343 43.478 11.2389C43.3027 11.0468 43.0668 10.9391 42.821 10.9391C42.5752 10.9391 42.3392 11.0468 42.164 11.2389C41.9919 11.4344 41.8955 11.6974 41.8955 11.9713C41.8955 12.2452 41.9919 12.5082 42.164 12.7037ZM50.884 12.7037C51.0594 12.8956 51.2953 13.0031 51.541 13.0031C51.7867 13.0031 52.0226 12.8956 52.198 12.7037C52.3703 12.5084 52.4669 12.2453 52.4669 11.9713C52.4669 11.6973 52.3703 11.4343 52.198 11.2389C52.0226 11.0471 51.7867 10.9396 51.541 10.9396C51.2953 10.9396 51.0594 11.0471 50.884 11.2389C50.7119 11.4344 50.6155 11.6974 50.6155 11.9713C50.6155 12.2452 50.7119 12.5082 50.884 12.7037ZM46.584 7.91028C46.7592 8.1024 46.9952 8.21007 47.241 8.21007C47.4868 8.21007 47.7227 8.1024 47.898 7.91028C48.0703 7.71492 48.1669 7.45189 48.1669 7.17789C48.1669 6.90388 48.0703 6.64085 47.898 6.44549C47.7227 6.25337 47.4868 6.1457 47.241 6.1457C46.9952 6.1457 46.7592 6.25337 46.584 6.44549C46.106 6.84457 46.106 7.51008 46.584 7.91028ZM42.164 7.91028C42.3392 8.1024 42.5752 8.21007 42.821 8.21007C43.0668 8.21007 43.3027 8.1024 43.478 7.91028C43.6503 7.71492 43.7469 7.45189 43.7469 7.17789C43.7469 6.90388 43.6503 6.64085 43.478 6.44549C43.3027 6.25337 43.0668 6.1457 42.821 6.1457C42.5752 6.1457 42.3392 6.25337 42.164 6.44549C41.9916 6.64085 41.8951 6.90388 41.8951 7.17789C41.8951 7.45189 41.9916 7.71492 42.164 7.91028ZM46.584 12.7037C46.7592 12.8958 46.9952 13.0035 47.241 13.0035C47.4868 13.0035 47.7227 12.8958 47.898 12.7037C48.0703 12.5084 48.1669 12.2453 48.1669 11.9713C48.1669 11.6973 48.0703 11.4343 47.898 11.2389C47.7227 11.0468 47.4868 10.9391 47.241 10.9391C46.9952 10.9391 46.7592 11.0468 46.584 11.2389C46.106 11.638 46.106 12.3035 46.584 12.7037ZM46.584 2.98307C46.7592 3.17519 46.9952 3.28286 47.241 3.28286C47.4868 3.28286 47.7227 3.17519 47.898 2.98307C48.0703 2.78771 48.1669 2.52468 48.1669 2.25067C48.1669 1.97667 48.0703 1.71364 47.898 1.51828C47.7227 1.32616 47.4868 1.21849 47.241 1.21849C46.9952 1.21849 46.7592 1.32616 46.584 1.51828C46.106 2.05113 46.106 2.58399 46.584 2.98307ZM50.884 7.91028C51.0594 8.10214 51.2953 8.20962 51.541 8.20962C51.7867 8.20962 52.0226 8.10214 52.198 7.91028C52.3703 7.71492 52.4669 7.45189 52.4669 7.17789C52.4669 6.90388 52.3703 6.64085 52.198 6.44549C52.0226 6.25364 51.7867 6.14615 51.541 6.14615C51.2953 6.14615 51.0594 6.25364 50.884 6.44549C50.7116 6.64085 50.6151 6.90388 50.6151 7.17789C50.6151 7.45189 50.7116 7.71492 50.884 7.91028ZM37.864 7.91028C38.0392 8.1024 38.2752 8.21007 38.521 8.21007C38.7668 8.21007 39.0027 8.1024 39.178 7.91028C39.3503 7.71492 39.4469 7.45189 39.4469 7.17789C39.4469 6.90388 39.3503 6.64085 39.178 6.44549C39.0027 6.25337 38.7668 6.1457 38.521 6.1457C38.2752 6.1457 38.0392 6.25337 37.864 6.44549C37.6916 6.64085 37.5951 6.90388 37.5951 7.17789C37.5951 7.45189 37.6916 7.71492 37.864 7.91028ZM42.164 2.98307C42.3392 3.17519 42.5752 3.28286 42.821 3.28286C43.0668 3.28286 43.3027 3.17519 43.478 2.98307C43.6503 2.78771 43.7469 2.52468 43.7469 2.25067C43.7469 1.97667 43.6503 1.71364 43.478 1.51828C43.3027 1.32616 43.0668 1.21849 42.821 1.21849C42.5752 1.21849 42.3392 1.32616 42.164 1.51828C41.806 2.05113 41.806 2.58399 42.164 2.98307ZM55.184 7.91028C55.3592 8.1024 55.5952 8.21007 55.841 8.21007C56.0868 8.21007 56.3227 8.1024 56.498 7.91028C56.6703 7.71492 56.7669 7.45189 56.7669 7.17789C56.7669 6.90388 56.6703 6.64085 56.498 6.44549C56.3228 6.25371 56.087 6.14625 55.8415 6.14625C55.5959 6.14625 55.3602 6.25371 55.185 6.44549C55.0126 6.64085 54.9161 6.90388 54.9161 7.17789C54.9161 7.45189 55.0126 7.71492 55.185 7.91028H55.184ZM50.884 2.98307C51.0594 3.17492 51.2953 3.28241 51.541 3.28241C51.7867 3.28241 52.0226 3.17492 52.198 2.98307C52.3703 2.78771 52.4669 2.52468 52.4669 2.25067C52.4669 1.97667 52.3703 1.71364 52.198 1.51828C52.0226 1.32642 51.7867 1.21894 51.541 1.21894C51.2953 1.21894 51.0594 1.32642 50.884 1.51828C50.526 2.05113 50.526 2.58399 50.884 2.98307ZM46.584 -1.81038C46.7592 -1.61825 46.9952 -1.51059 47.241 -1.51059C47.4868 -1.51059 47.7227 -1.61825 47.898 -1.81038C48.0703 -2.00574 48.1669 -2.26877 48.1669 -2.54277C48.1669 -2.81677 48.0703 -3.0798 47.898 -3.27516C47.7227 -3.46729 47.4868 -3.57495 47.241 -3.57495C46.9952 -3.57495 46.7592 -3.46729 46.584 -3.27516C46.226 -2.87608 46.106 -2.21057 46.584 -1.81038ZM37.864 27.2178C38.0392 27.4099 38.2752 27.5176 38.521 27.5176C38.7668 27.5176 39.0027 27.4099 39.178 27.2178C39.3503 27.0225 39.4469 26.7594 39.4469 26.4854C39.4469 26.2114 39.3503 25.9484 39.178 25.753C39.0027 25.5609 38.7668 25.4532 38.521 25.4532C38.2752 25.4532 38.0392 25.5609 37.864 25.753C37.6916 25.9484 37.5951 26.2114 37.5951 26.4854C37.5951 26.7594 37.6916 27.0225 37.864 27.2178ZM33.564 22.4244C33.7392 22.6165 33.9752 22.7242 34.221 22.7242C34.4668 22.7242 34.7027 22.6165 34.878 22.4244C35.0503 22.229 35.1469 21.966 35.1469 21.692C35.1469 21.418 35.0503 21.155 34.878 20.9596C34.7027 20.7675 34.4668 20.6598 34.221 20.6598C33.9752 20.6598 33.7392 20.7675 33.564 20.9596C33.3916 21.155 33.2951 21.418 33.2951 21.692C33.2951 21.966 33.3916 22.229 33.564 22.4244ZM42.164 22.4244C42.3392 22.6165 42.5752 22.7242 42.821 22.7242C43.0668 22.7242 43.3027 22.6165 43.478 22.4244C43.6503 22.229 43.7469 21.966 43.7469 21.692C43.7469 21.418 43.6503 21.155 43.478 20.9596C43.3027 20.7675 43.0668 20.6598 42.821 20.6598C42.5752 20.6598 42.3392 20.7675 42.164 20.9596C41.9916 21.155 41.8951 21.418 41.8951 21.692C41.8951 21.966 41.9916 22.229 42.164 22.4244ZM37.864 17.4972C38.0392 17.6893 38.2752 17.797 38.521 17.797C38.7668 17.797 39.0027 17.6893 39.178 17.4972C39.3501 17.3017 39.4465 17.0387 39.4465 16.7648C39.4465 16.4909 39.3501 16.2279 39.178 16.0324C39.0027 15.8403 38.7668 15.7326 38.521 15.7326C38.2752 15.7326 38.0392 15.8403 37.864 16.0324C37.6916 16.2277 37.5951 16.4908 37.5951 16.7648C37.5951 17.0388 37.6916 17.3018 37.864 17.4972ZM33.564 17.4972C33.7394 17.689 33.9753 17.7965 34.221 17.7965C34.4667 17.7965 34.7026 17.689 34.878 17.4972C35.0503 17.3018 35.1469 17.0388 35.1469 16.7648C35.1469 16.4908 35.0503 16.2277 34.878 16.0324C34.7026 15.8405 34.4667 15.733 34.221 15.733C33.9753 15.733 33.7394 15.8405 33.564 16.0324C33.3916 16.2277 33.2951 16.4908 33.2951 16.7648C33.2951 17.0388 33.3916 17.3018 33.564 17.4972ZM37.864 22.4244C38.0392 22.6165 38.2752 22.7242 38.521 22.7242C38.7668 22.7242 39.0027 22.6165 39.178 22.4244C39.3503 22.229 39.4469 21.966 39.4469 21.692C39.4469 21.418 39.3503 21.155 39.178 20.9596C39.0027 20.7675 38.7668 20.6598 38.521 20.6598C38.2752 20.6598 38.0392 20.7675 37.864 20.9596C37.6916 21.155 37.5951 21.418 37.5951 21.692C37.5951 21.966 37.6916 22.229 37.864 22.4244ZM37.864 12.7037C38.0392 12.8958 38.2752 13.0035 38.521 13.0035C38.7668 13.0035 39.0027 12.8958 39.178 12.7037C39.3501 12.5082 39.4465 12.2452 39.4465 11.9713C39.4465 11.6974 39.3501 11.4344 39.178 11.2389C39.0027 11.0468 38.7668 10.9391 38.521 10.9391C38.2752 10.9391 38.0392 11.0468 37.864 11.2389C37.6916 11.4343 37.5951 11.6973 37.5951 11.9713C37.5951 12.2453 37.6916 12.5084 37.864 12.7037ZM42.164 17.4972C42.3392 17.6893 42.5752 17.797 42.821 17.797C43.0668 17.797 43.3027 17.6893 43.478 17.4972C43.6503 17.3018 43.7469 17.0388 43.7469 16.7648C43.7469 16.4908 43.6503 16.2277 43.478 16.0324C43.3027 15.8403 43.0668 15.7326 42.821 15.7326C42.5752 15.7326 42.3392 15.8403 42.164 16.0324C41.9919 16.2279 41.8955 16.4909 41.8955 16.7648C41.8955 17.0387 41.9919 17.3017 42.164 17.4972ZM29.144 17.4972C29.3192 17.6893 29.5552 17.797 29.801 17.797C30.0468 17.797 30.2827 17.6893 30.458 17.4972C30.6301 17.3017 30.7265 17.0387 30.7265 16.7648C30.7265 16.4909 30.6301 16.2279 30.458 16.0324C30.2827 15.8403 30.0468 15.7326 29.801 15.7326C29.5552 15.7326 29.3192 15.8403 29.144 16.0324C28.9716 16.2277 28.8751 16.4908 28.8751 16.7648C28.8751 17.0388 28.9716 17.3018 29.144 17.4972ZM33.564 12.7037C33.7394 12.8956 33.9753 13.0031 34.221 13.0031C34.4667 13.0031 34.7026 12.8956 34.878 12.7037C35.0503 12.5084 35.1469 12.2453 35.1469 11.9713C35.1469 11.6973 35.0503 11.4343 34.878 11.2389C34.7027 11.0468 34.4668 10.9391 34.221 10.9391C33.9752 10.9391 33.7392 11.0468 33.564 11.2389C33.3916 11.4343 33.2951 11.6973 33.2951 11.9713C33.2951 12.2453 33.3916 12.5084 33.564 12.7037Z" fill="#0A3B3C"/>
<path d="M46.584 17.4972C46.7593 17.6893 46.9952 17.797 47.241 17.797C47.4868 17.797 47.7228 17.6893 47.898 17.4972C48.0704 17.3019 48.167 17.0388 48.167 16.7648C48.167 16.4908 48.0704 16.2278 47.898 16.0324C47.7228 15.8403 47.4868 15.7326 47.241 15.7326C46.9952 15.7326 46.7593 15.8403 46.584 16.0324C46.226 16.4315 46.106 17.0981 46.584 17.4972ZM42.164 12.7038C42.3393 12.8959 42.5752 13.0036 42.821 13.0036C43.0668 13.0036 43.3028 12.8959 43.478 12.7038C43.6504 12.5084 43.747 12.2454 43.747 11.9714C43.747 11.6974 43.6504 11.4343 43.478 11.239C43.3028 11.0469 43.0668 10.9392 42.821 10.9392C42.5752 10.9392 42.3393 11.0469 42.164 11.239C41.9919 11.4345 41.8955 11.6975 41.8955 11.9714C41.8955 12.2453 41.9919 12.5083 42.164 12.7038ZM37.864 7.91033C38.0393 8.10245 38.2752 8.21012 38.521 8.21012C38.7668 8.21012 39.0028 8.10245 39.178 7.91033C39.3504 7.71497 39.447 7.45194 39.447 7.17793C39.447 6.90393 39.3504 6.6409 39.178 6.44554C39.0028 6.25342 38.7668 6.14575 38.521 6.14575C38.2752 6.14575 38.0393 6.25342 37.864 6.44554C37.6917 6.6409 37.5951 6.90393 37.5951 7.17793C37.5951 7.45194 37.6917 7.71497 37.864 7.91033ZM29.144 36.8048C29.3193 36.9969 29.5552 37.1045 29.801 37.1045C30.0468 37.1045 30.2828 36.9969 30.458 36.8048C30.6301 36.6093 30.7266 36.3463 30.7266 36.0724C30.7266 35.7984 30.6301 35.5355 30.458 35.34C30.2828 35.1478 30.0468 35.0402 29.801 35.0402C29.5552 35.0402 29.3193 35.1478 29.144 35.34C28.786 35.8728 28.786 36.4057 29.144 36.8048ZM24.844 32.0113C25.0193 32.2034 25.2552 32.3111 25.501 32.3111C25.7468 32.3111 25.9828 32.2034 26.158 32.0113C26.3304 31.8159 26.427 31.5529 26.427 31.2789C26.427 31.0049 26.3304 30.7419 26.158 30.5465C25.9828 30.3544 25.7468 30.2467 25.501 30.2467C25.2552 30.2467 25.0193 30.3544 24.844 30.5465C24.6719 30.742 24.5755 31.005 24.5755 31.2789C24.5755 31.5528 24.6719 31.8158 24.844 32.0113ZM33.564 32.0113C33.7394 32.2032 33.9753 32.3107 34.221 32.3107C34.4668 32.3107 34.7027 32.2032 34.878 32.0113C35.0504 31.8159 35.147 31.5529 35.147 31.2789C35.147 31.0049 35.0504 30.7419 34.878 30.5465C34.7027 30.3547 34.4668 30.2472 34.221 30.2472C33.9753 30.2472 33.7394 30.3547 33.564 30.5465C33.3917 30.7419 33.2951 31.0049 33.2951 31.2789C33.2951 31.5529 33.3917 31.8159 33.564 32.0113ZM29.144 27.2179C29.3193 27.41 29.5552 27.5177 29.801 27.5177C30.0468 27.5177 30.2828 27.41 30.458 27.2179C30.6304 27.0225 30.727 26.7595 30.727 26.4855C30.727 26.2115 30.6304 25.9484 30.458 25.7531C30.2828 25.561 30.0468 25.4533 29.801 25.4533C29.5552 25.4533 29.3193 25.561 29.144 25.7531C28.9717 25.9484 28.8751 26.2115 28.8751 26.4855C28.8751 26.7595 28.9717 27.0225 29.144 27.2179ZM24.844 27.2179C25.0193 27.41 25.2552 27.5177 25.501 27.5177C25.7468 27.5177 25.9828 27.41 26.158 27.2179C26.3304 27.0225 26.427 26.7595 26.427 26.4855C26.427 26.2115 26.3304 25.9484 26.158 25.7531C25.9828 25.561 25.7468 25.4533 25.501 25.4533C25.2552 25.4533 25.0193 25.561 24.844 25.7531C24.6717 25.9484 24.5751 26.2115 24.5751 26.4855C24.5751 26.7595 24.6717 27.0225 24.844 27.2179ZM29.144 32.0113C29.3193 32.2034 29.5552 32.3111 29.801 32.3111C30.0468 32.3111 30.2828 32.2034 30.458 32.0113C30.6301 31.8158 30.7266 31.5528 30.7266 31.2789C30.7266 31.005 30.6301 30.742 30.458 30.5465C30.2828 30.3544 30.0468 30.2467 29.801 30.2467C29.5552 30.2467 29.3193 30.3544 29.144 30.5465C28.9717 30.7419 28.8751 31.0049 28.8751 31.2789C28.8751 31.5529 28.9717 31.8159 29.144 32.0113ZM29.144 22.4244C29.3193 22.6165 29.5552 22.7242 29.801 22.7242C30.0468 22.7242 30.2828 22.6165 30.458 22.4244C30.6304 22.2291 30.727 21.966 30.727 21.692C30.727 21.418 30.6304 21.155 30.458 20.9596C30.2828 20.7675 30.0468 20.6598 29.801 20.6598C29.5552 20.6598 29.3193 20.7675 29.144 20.9596C28.9717 21.155 28.8751 21.418 28.8751 21.692C28.8751 21.966 28.9717 22.2291 29.144 22.4244ZM33.564 27.2179C33.7394 27.4097 33.9753 27.5172 34.221 27.5172C34.4668 27.5172 34.7027 27.4097 34.878 27.2179C35.0504 27.0225 35.147 26.7595 35.147 26.4855C35.147 26.2115 35.0504 25.9484 34.878 25.7531C34.7028 25.561 34.4668 25.4533 34.221 25.4533C33.9752 25.4533 33.7393 25.561 33.564 25.7531C33.3917 25.9484 33.2951 26.2115 33.2951 26.4855C33.2951 26.7595 33.3917 27.0225 33.564 27.2179ZM20.544 27.2179C20.7193 27.41 20.9552 27.5177 21.201 27.5177C21.4468 27.5177 21.6828 27.41 21.858 27.2179C22.0304 27.0225 22.127 26.7595 22.127 26.4855C22.127 26.2115 22.0304 25.9484 21.858 25.7531C21.6828 25.561 21.4468 25.4533 21.201 25.4533C20.9552 25.4533 20.7193 25.561 20.544 25.7531C20.3717 25.9484 20.2751 26.2115 20.2751 26.4855C20.2751 26.7595 20.3717 27.0225 20.544 27.2179ZM24.844 22.4244C25.0193 22.6165 25.2552 22.7242 25.501 22.7242C25.7468 22.7242 25.9828 22.6165 26.158 22.4244C26.3304 22.2291 26.427 21.966 26.427 21.692C26.427 21.418 26.3304 21.155 26.158 20.9596C25.9828 20.7675 25.7468 20.6598 25.501 20.6598C25.2552 20.6598 25.0193 20.7675 24.844 20.9596C24.6717 21.155 24.5751 21.418 24.5751 21.692C24.5751 21.966 24.6717 22.2291 24.844 22.4244ZM37.864 27.2179C38.0393 27.41 38.2752 27.5177 38.521 27.5177C38.7668 27.5177 39.0028 27.41 39.178 27.2179C39.3504 27.0225 39.447 26.7595 39.447 26.4855C39.447 26.2115 39.3504 25.9484 39.178 25.7531C39.0028 25.561 38.7668 25.4533 38.521 25.4533C38.2752 25.4533 38.0393 25.561 37.864 25.7531C37.6917 25.9484 37.5951 26.2115 37.5951 26.4855C37.5951 26.7595 37.6917 27.0225 37.864 27.2179ZM33.564 22.4244C33.7393 22.6165 33.9752 22.7242 34.221 22.7242C34.4668 22.7242 34.7028 22.6165 34.878 22.4244C35.0504 22.2291 35.147 21.966 35.147 21.692C35.147 21.418 35.0504 21.155 34.878 20.9596C34.7028 20.7675 34.4668 20.6598 34.221 20.6598C33.9752 20.6598 33.7393 20.7675 33.564 20.9596C33.3917 21.155 33.2951 21.418 33.2951 21.692C33.2951 21.966 33.3917 22.2291 33.564 22.4244ZM29.144 17.4972C29.3193 17.6893 29.5552 17.797 29.801 17.797C30.0468 17.797 30.2828 17.6893 30.458 17.4972C30.6301 17.3017 30.7266 17.0387 30.7266 16.7648C30.7266 16.4909 30.6301 16.2279 30.458 16.0324C30.2828 15.8403 30.0468 15.7326 29.801 15.7326C29.5552 15.7326 29.3193 15.8403 29.144 16.0324C28.9717 16.2278 28.8751 16.4908 28.8751 16.7648C28.8751 17.0388 28.9717 17.3019 29.144 17.4972ZM20.544 46.5254C20.7193 46.7175 20.9552 46.8252 21.201 46.8252C21.4468 46.8252 21.6828 46.7175 21.858 46.5254C22.0301 46.3299 22.1266 46.0669 22.1266 45.793C22.1266 45.5191 22.0301 45.2561 21.858 45.0606C21.6828 44.8685 21.4468 44.7608 21.201 44.7608C20.9552 44.7608 20.7193 44.8685 20.544 45.0606C20.3717 45.256 20.2751 45.519 20.2751 45.793C20.2751 46.067 20.3717 46.33 20.544 46.5254ZM16.124 41.732C16.2993 41.9241 16.5352 42.0318 16.781 42.0318C17.0268 42.0318 17.2628 41.9241 17.438 41.732C17.6104 41.5366 17.707 41.2736 17.707 40.9996C17.707 40.7256 17.6104 40.4625 17.438 40.2672C17.2628 40.0751 17.0268 39.9674 16.781 39.9674C16.5352 39.9674 16.2993 40.0751 16.124 40.2672C15.9517 40.4625 15.8551 40.7256 15.8551 40.9996C15.8551 41.2736 15.9517 41.5366 16.124 41.732ZM24.844 41.732C25.0193 41.9241 25.2552 42.0318 25.501 42.0318C25.7468 42.0318 25.9828 41.9241 26.158 41.732C26.3304 41.5366 26.427 41.2736 26.427 40.9996C26.427 40.7256 26.3304 40.4625 26.158 40.2672C25.9828 40.0751 25.7468 39.9674 25.501 39.9674C25.2552 39.9674 25.0193 40.0751 24.844 40.2672C24.6717 40.4625 24.5751 40.7256 24.5751 40.9996C24.5751 41.2736 24.6717 41.5366 24.844 41.732ZM20.544 36.8048C20.7193 36.9969 20.9552 37.1045 21.201 37.1045C21.4468 37.1045 21.6828 36.9969 21.858 36.8048C22.0301 36.6093 22.1266 36.3463 22.1266 36.0724C22.1266 35.7984 22.0301 35.5355 21.858 35.34C21.6828 35.1478 21.4468 35.0402 21.201 35.0402C20.9552 35.0402 20.7193 35.1478 20.544 35.34C20.186 35.8728 20.186 36.4057 20.544 36.8048ZM16.124 36.8048C16.2994 36.9966 16.5353 37.1041 16.781 37.1041C17.0268 37.1041 17.2627 36.9966 17.438 36.8048C17.6101 36.6093 17.7066 36.3463 17.7066 36.0724C17.7066 35.7984 17.6101 35.5355 17.438 35.34C17.2627 35.1481 17.0268 35.0406 16.781 35.0406C16.5353 35.0406 16.2994 35.1481 16.124 35.34C15.766 35.8728 15.766 36.4057 16.124 36.8048ZM20.544 41.732C20.7193 41.9241 20.9552 42.0318 21.201 42.0318C21.4468 42.0318 21.6828 41.9241 21.858 41.732C22.0304 41.5366 22.127 41.2736 22.127 40.9996C22.127 40.7256 22.0304 40.4625 21.858 40.2672C21.6828 40.0751 21.4468 39.9674 21.201 39.9674C20.9552 39.9674 20.7193 40.0751 20.544 40.2672C20.3717 40.4625 20.2751 40.7256 20.2751 40.9996C20.2751 41.2736 20.3717 41.5366 20.544 41.732ZM20.544 32.0113C20.7193 32.2034 20.9552 32.3111 21.201 32.3111C21.4468 32.3111 21.6828 32.2034 21.858 32.0113C22.0301 31.8158 22.1266 31.5528 22.1266 31.2789C22.1266 31.005 22.0301 30.742 21.858 30.5465C21.6828 30.3544 21.4468 30.2467 21.201 30.2467C20.9552 30.2467 20.7193 30.3544 20.544 30.5465C20.3717 30.7419 20.2751 31.0049 20.2751 31.2789C20.2751 31.5529 20.3717 31.8159 20.544 32.0113ZM24.844 36.8048C25.0193 36.9969 25.2552 37.1045 25.501 37.1045C25.7468 37.1045 25.9828 36.9969 26.158 36.8048C26.3304 36.6094 26.427 36.3464 26.427 36.0724C26.427 35.7984 26.3304 35.5353 26.158 35.34C25.9828 35.1478 25.7468 35.0402 25.501 35.0402C25.2552 35.0402 25.0193 35.1478 24.844 35.34C24.486 35.8728 24.486 36.4057 24.844 36.8048ZM11.824 36.8048C11.9993 36.9969 12.2352 37.1045 12.481 37.1045C12.7268 37.1045 12.9628 36.9969 13.138 36.8048C13.3101 36.6093 13.4066 36.3463 13.4066 36.0724C13.4066 35.7984 13.3101 35.5355 13.138 35.34C12.9628 35.1478 12.7268 35.0402 12.481 35.0402C12.2352 35.0402 11.9993 35.1478 11.824 35.34C11.466 35.8728 11.466 36.4057 11.824 36.8048ZM16.124 32.0113C16.2994 32.2032 16.5353 32.3107 16.781 32.3107C17.0268 32.3107 17.2627 32.2032 17.438 32.0113C17.6101 31.8158 17.7066 31.5528 17.7066 31.2789C17.7066 31.005 17.6101 30.742 17.438 30.5465C17.2627 30.3547 17.0268 30.2472 16.781 30.2472C16.5353 30.2472 16.2994 30.3547 16.124 30.5465C15.9519 30.742 15.8555 31.005 15.8555 31.2789C15.8555 31.5528 15.9519 31.8158 16.124 32.0113Z" fill="#0A3B3C"/>
<path d="M29.144 36.8047C29.3192 36.9968 29.5552 37.1045 29.801 37.1045C30.0467 37.1045 30.2827 36.9968 30.458 36.8047C30.6301 36.6092 30.7265 36.3462 30.7265 36.0723C30.7265 35.7984 30.6301 35.5354 30.458 35.3399C30.2827 35.1478 30.0467 35.0401 29.801 35.0401C29.5552 35.0401 29.3192 35.1478 29.144 35.3399C28.786 35.8728 28.786 36.4056 29.144 36.8047ZM24.844 32.0113C25.0192 32.2034 25.2552 32.3111 25.501 32.3111C25.7467 32.3111 25.9827 32.2034 26.158 32.0113C26.3303 31.8159 26.4269 31.5529 26.4269 31.2789C26.4269 31.0049 26.3303 30.7418 26.158 30.5465C25.9827 30.3544 25.7467 30.2467 25.501 30.2467C25.2552 30.2467 25.0192 30.3544 24.844 30.5465C24.6718 30.742 24.5754 31.005 24.5754 31.2789C24.5754 31.5528 24.6718 31.8158 24.844 32.0113ZM20.544 27.2178C20.7192 27.4099 20.9552 27.5176 21.201 27.5176C21.4467 27.5176 21.6827 27.4099 21.858 27.2178C22.0303 27.0225 22.1269 26.7594 22.1269 26.4854C22.1269 26.2114 22.0303 25.9484 21.858 25.753C21.6827 25.5609 21.4467 25.4532 21.201 25.4532C20.9552 25.4532 20.7192 25.5609 20.544 25.753C20.3716 25.9484 20.275 26.2114 20.275 26.4854C20.275 26.7594 20.3716 27.0225 20.544 27.2178ZM29.144 17.4972C29.3192 17.6893 29.5552 17.797 29.801 17.797C30.0467 17.797 30.2827 17.6893 30.458 17.4972C30.6301 17.3017 30.7265 17.0387 30.7265 16.7648C30.7265 16.4909 30.6301 16.2279 30.458 16.0324C30.2827 15.8403 30.0467 15.7326 29.801 15.7326C29.5552 15.7326 29.3192 15.8403 29.144 16.0324C28.9716 16.2277 28.875 16.4908 28.875 16.7648C28.875 17.0388 28.9716 17.3018 29.144 17.4972ZM24.844 12.7037C25.0192 12.8958 25.2552 13.0035 25.501 13.0035C25.7467 13.0035 25.9827 12.8958 26.158 12.7037C26.3303 12.5084 26.4269 12.2453 26.4269 11.9713C26.4269 11.6973 26.3303 11.4343 26.158 11.2389C25.9827 11.0468 25.7467 10.9391 25.501 10.9391C25.2552 10.9391 25.0192 11.0468 24.844 11.2389C24.6718 11.4344 24.5754 11.6974 24.5754 11.9713C24.5754 12.2452 24.6718 12.5082 24.844 12.7037ZM33.564 12.7037C33.7393 12.8956 33.9752 13.0031 34.221 13.0031C34.4667 13.0031 34.7026 12.8956 34.878 12.7037C35.0503 12.5084 35.1469 12.2453 35.1469 11.9713C35.1469 11.6973 35.0503 11.4343 34.878 11.2389C34.7027 11.0468 34.4667 10.9391 34.221 10.9391C33.9752 10.9391 33.7392 11.0468 33.564 11.2389C33.3916 11.4343 33.295 11.6973 33.295 11.9713C33.295 12.2453 33.3916 12.5084 33.564 12.7037ZM29.144 7.91028C29.3192 8.1024 29.5552 8.21007 29.801 8.21007C30.0467 8.21007 30.2827 8.1024 30.458 7.91028C30.6303 7.71492 30.7269 7.45189 30.7269 7.17789C30.7269 6.90388 30.6303 6.64085 30.458 6.44549C30.2827 6.25337 30.0467 6.1457 29.801 6.1457C29.5552 6.1457 29.3192 6.25337 29.144 6.44549C28.9716 6.64085 28.875 6.90388 28.875 7.17789C28.875 7.45189 28.9716 7.71492 29.144 7.91028ZM24.844 7.91028C25.0192 8.1024 25.2552 8.21007 25.501 8.21007C25.7467 8.21007 25.9827 8.1024 26.158 7.91028C26.3303 7.71492 26.4269 7.45189 26.4269 7.17789C26.4269 6.90388 26.3303 6.64085 26.158 6.44549C25.9827 6.25337 25.7467 6.1457 25.501 6.1457C25.2552 6.1457 25.0192 6.25337 24.844 6.44549C24.6716 6.64085 24.575 6.90388 24.575 7.17789C24.575 7.45189 24.6716 7.71492 24.844 7.91028ZM29.144 12.7037C29.3192 12.8958 29.5552 13.0035 29.801 13.0035C30.0467 13.0035 30.2827 12.8958 30.458 12.7037C30.6301 12.5082 30.7265 12.2452 30.7265 11.9713C30.7265 11.6974 30.6301 11.4344 30.458 11.2389C30.2827 11.0468 30.0467 10.9391 29.801 10.9391C29.5552 10.9391 29.3192 11.0468 29.144 11.2389C28.9716 11.4343 28.875 11.6973 28.875 11.9713C28.875 12.2453 28.9716 12.5084 29.144 12.7037ZM29.144 2.98307C29.3192 3.17519 29.5552 3.28286 29.801 3.28286C30.0467 3.28286 30.2827 3.17519 30.458 2.98307C30.6303 2.78771 30.7269 2.52468 30.7269 2.25067C30.7269 1.97667 30.6303 1.71364 30.458 1.51828C30.2827 1.32616 30.0467 1.21849 29.801 1.21849C29.5552 1.21849 29.3192 1.32616 29.144 1.51828C28.786 2.05113 28.786 2.58399 29.144 2.98307ZM33.564 7.91028C33.7392 8.1024 33.9752 8.21007 34.221 8.21007C34.4667 8.21007 34.7027 8.1024 34.878 7.91028C35.0503 7.71492 35.1469 7.45189 35.1469 7.17789C35.1469 6.90388 35.0503 6.64085 34.878 6.44549C34.7027 6.25337 34.4667 6.1457 34.221 6.1457C33.9752 6.1457 33.7392 6.25337 33.564 6.44549C33.3916 6.64085 33.295 6.90388 33.295 7.17789C33.295 7.45189 33.3916 7.71492 33.564 7.91028ZM20.544 7.91028C20.7192 8.1024 20.9552 8.21007 21.201 8.21007C21.4467 8.21007 21.6827 8.1024 21.858 7.91028C22.0303 7.71492 22.1269 7.45189 22.1269 7.17789C22.1269 6.90388 22.0303 6.64085 21.858 6.44549C21.6827 6.25337 21.4467 6.1457 21.201 6.1457C20.9552 6.1457 20.7192 6.25337 20.544 6.44549C20.3716 6.64085 20.275 6.90388 20.275 7.17789C20.275 7.45189 20.3716 7.71492 20.544 7.91028ZM24.844 2.98307C25.0192 3.17519 25.2552 3.28286 25.501 3.28286C25.7467 3.28286 25.9827 3.17519 26.158 2.98307C26.3303 2.78771 26.4269 2.52468 26.4269 2.25067C26.4269 1.97667 26.3303 1.71364 26.158 1.51828C25.9827 1.32616 25.7467 1.21849 25.501 1.21849C25.2552 1.21849 25.0192 1.32616 24.844 1.51828C24.486 2.05113 24.486 2.58399 24.844 2.98307ZM37.864 7.91028C38.0392 8.1024 38.2752 8.21007 38.521 8.21007C38.7667 8.21007 39.0027 8.1024 39.178 7.91028C39.3503 7.71492 39.4469 7.45189 39.4469 7.17789C39.4469 6.90388 39.3503 6.64085 39.178 6.44549C39.0027 6.25337 38.7667 6.1457 38.521 6.1457C38.2752 6.1457 38.0392 6.25337 37.864 6.44549C37.6916 6.64085 37.595 6.90388 37.595 7.17789C37.595 7.45189 37.6916 7.71492 37.864 7.91028ZM33.564 2.98307C33.7392 3.17519 33.9752 3.28286 34.221 3.28286C34.4667 3.28286 34.7027 3.17519 34.878 2.98307C35.0503 2.78771 35.1469 2.52468 35.1469 2.25067C35.1469 1.97667 35.0503 1.71364 34.878 1.51828C34.7027 1.32616 34.4667 1.21849 34.221 1.21849C33.9752 1.21849 33.7392 1.32616 33.564 1.51828C33.206 2.05113 33.206 2.58399 33.564 2.98307ZM29.144 -1.81038C29.3192 -1.61825 29.5552 -1.51059 29.801 -1.51059C30.0467 -1.51059 30.2827 -1.61825 30.458 -1.81038C30.6303 -2.00574 30.7269 -2.26877 30.7269 -2.54277C30.7269 -2.81677 30.6303 -3.0798 30.458 -3.27516C30.2827 -3.46729 30.0467 -3.57495 29.801 -3.57495C29.5552 -3.57495 29.3192 -3.46729 29.144 -3.27516C28.9716 -3.0798 28.875 -2.81677 28.875 -2.54277C28.875 -2.26877 28.9716 -2.00574 29.144 -1.81038Z" fill="#0A3B3C"/>
<path d="M20.544 27.2179C20.7192 27.41 20.9552 27.5177 21.201 27.5177C21.4468 27.5177 21.6827 27.41 21.858 27.2179C22.0303 27.0225 22.1269 26.7595 22.1269 26.4855C22.1269 26.2115 22.0303 25.9484 21.858 25.7531C21.6827 25.561 21.4468 25.4533 21.201 25.4533C20.9552 25.4533 20.7192 25.561 20.544 25.7531C20.3716 25.9484 20.2751 26.2115 20.2751 26.4855C20.2751 26.7595 20.3716 27.0225 20.544 27.2179ZM16.124 22.4244C16.2992 22.6165 16.5352 22.7242 16.781 22.7242C17.0268 22.7242 17.2627 22.6165 17.438 22.4244C17.6103 22.2291 17.7069 21.966 17.7069 21.692C17.7069 21.418 17.6103 21.155 17.438 20.9596C17.2627 20.7675 17.0268 20.6598 16.781 20.6598C16.5352 20.6598 16.2992 20.7675 16.124 20.9596C15.9516 21.155 15.8551 21.418 15.8551 21.692C15.8551 21.966 15.9516 22.2291 16.124 22.4244ZM24.844 22.4244C25.0192 22.6165 25.2552 22.7242 25.501 22.7242C25.7468 22.7242 25.9827 22.6165 26.158 22.4244C26.3303 22.2291 26.4269 21.966 26.4269 21.692C26.4269 21.418 26.3303 21.155 26.158 20.9596C25.9827 20.7675 25.7468 20.6598 25.501 20.6598C25.2552 20.6598 25.0192 20.7675 24.844 20.9596C24.6716 21.155 24.5751 21.418 24.5751 21.692C24.5751 21.966 24.6716 22.2291 24.844 22.4244ZM20.544 17.4972C20.7192 17.6893 20.9552 17.797 21.201 17.797C21.4468 17.797 21.6827 17.6893 21.858 17.4972C22.0301 17.3017 22.1265 17.0387 22.1265 16.7648C22.1265 16.4909 22.0301 16.2279 21.858 16.0324C21.6827 15.8403 21.4468 15.7326 21.201 15.7326C20.9552 15.7326 20.7192 15.8403 20.544 16.0324C20.3716 16.2278 20.2751 16.4908 20.2751 16.7648C20.2751 17.0388 20.3716 17.3019 20.544 17.4972ZM16.124 17.4972C16.2994 17.6891 16.5353 17.7966 16.781 17.7966C17.0267 17.7966 17.2626 17.6891 17.438 17.4972C17.6101 17.3017 17.7065 17.0387 17.7065 16.7648C17.7065 16.4909 17.6101 16.2279 17.438 16.0324C17.2626 15.8406 17.0267 15.7331 16.781 15.7331C16.5353 15.7331 16.2994 15.8406 16.124 16.0324C15.9519 16.2279 15.8555 16.4909 15.8555 16.7648C15.8555 17.0387 15.9519 17.3017 16.124 17.4972ZM20.544 22.4244C20.7192 22.6165 20.9552 22.7242 21.201 22.7242C21.4468 22.7242 21.6827 22.6165 21.858 22.4244C22.0303 22.2291 22.1269 21.966 22.1269 21.692C22.1269 21.418 22.0303 21.155 21.858 20.9596C21.6827 20.7675 21.4468 20.6598 21.201 20.6598C20.9552 20.6598 20.7192 20.7675 20.544 20.9596C20.3716 21.155 20.2751 21.418 20.2751 21.692C20.2751 21.966 20.3716 22.2291 20.544 22.4244ZM20.544 12.7038C20.7192 12.8959 20.9552 13.0036 21.201 13.0036C21.4468 13.0036 21.6827 12.8959 21.858 12.7038C22.0301 12.5083 22.1265 12.2453 22.1265 11.9714C22.1265 11.6975 22.0301 11.4345 21.858 11.239C21.6827 11.0469 21.4468 10.9392 21.201 10.9392C20.9552 10.9392 20.7192 11.0469 20.544 11.239C20.3716 11.4343 20.2751 11.6974 20.2751 11.9714C20.2751 12.2454 20.3716 12.5084 20.544 12.7038ZM24.844 17.4972C25.0192 17.6893 25.2552 17.797 25.501 17.797C25.7468 17.797 25.9827 17.6893 26.158 17.4972C26.3303 17.3019 26.4269 17.0388 26.4269 16.7648C26.4269 16.4908 26.3303 16.2278 26.158 16.0324C25.9827 15.8403 25.7468 15.7326 25.501 15.7326C25.2552 15.7326 25.0192 15.8403 24.844 16.0324C24.6719 16.2279 24.5755 16.4909 24.5755 16.7648C24.5755 17.0387 24.6719 17.3017 24.844 17.4972ZM11.824 17.4972C11.9992 17.6893 12.2352 17.797 12.481 17.797C12.7268 17.797 12.9627 17.6893 13.138 17.4972C13.3101 17.3017 13.4065 17.0387 13.4065 16.7648C13.4065 16.4909 13.3101 16.2279 13.138 16.0324C12.9627 15.8403 12.7268 15.7326 12.481 15.7326C12.2352 15.7326 11.9992 15.8403 11.824 16.0324C11.6516 16.2278 11.5551 16.4908 11.5551 16.7648C11.5551 17.0388 11.6516 17.3019 11.824 17.4972ZM16.124 12.7038C16.2994 12.8956 16.5353 13.0031 16.781 13.0031C17.0267 13.0031 17.2626 12.8956 17.438 12.7038C17.6101 12.5083 17.7065 12.2453 17.7065 11.9714C17.7065 11.6975 17.6101 11.4345 17.438 11.239C17.2627 11.0469 17.0268 10.9392 16.781 10.9392C16.5352 10.9392 16.2992 11.0469 16.124 11.239C15.9519 11.4345 15.8555 11.6975 15.8555 11.9714C15.8555 12.2453 15.9519 12.5083 16.124 12.7038ZM29.144 17.4972C29.3192 17.6893 29.5552 17.797 29.801 17.797C30.0468 17.797 30.2827 17.6893 30.458 17.4972C30.6301 17.3017 30.7265 17.0387 30.7265 16.7648C30.7265 16.4909 30.6301 16.2279 30.458 16.0324C30.2827 15.8403 30.0468 15.7326 29.801 15.7326C29.5552 15.7326 29.3192 15.8403 29.144 16.0324C28.9716 16.2278 28.8751 16.4908 28.8751 16.7648C28.8751 17.0388 28.9716 17.3019 29.144 17.4972ZM24.844 12.7038C25.0192 12.8959 25.2552 13.0036 25.501 13.0036C25.7468 13.0036 25.9827 12.8959 26.158 12.7038C26.3303 12.5084 26.4269 12.2454 26.4269 11.9714C26.4269 11.6974 26.3303 11.4343 26.158 11.239C25.9827 11.0469 25.7468 10.9392 25.501 10.9392C25.2552 10.9392 25.0192 11.0469 24.844 11.239C24.6719 11.4345 24.5755 11.6975 24.5755 11.9714C24.5755 12.2453 24.6719 12.5083 24.844 12.7038ZM20.544 7.91033C20.7192 8.10245 20.9552 8.21012 21.201 8.21012C21.4468 8.21012 21.6827 8.10245 21.858 7.91033C22.0303 7.71497 22.1269 7.45194 22.1269 7.17793C22.1269 6.90393 22.0303 6.6409 21.858 6.44554C21.6827 6.25342 21.4468 6.14575 21.201 6.14575C20.9552 6.14575 20.7192 6.25342 20.544 6.44554C20.3716 6.6409 20.2751 6.90393 20.2751 7.17793C20.2751 7.45194 20.3716 7.71497 20.544 7.91033Z" fill="#0A3B3C"/>
<path d="M30.811 17.0703H49.073V57.7845H30.811V17.0703Z" fill="white"/>
<path fill-rule="evenodd" clip-rule="evenodd" d="M30.811 17.407L44.127 22.9741V35.7302C44.127 41.3876 40.761 45.9525 37.65 48.9869C35.7557 50.82 33.6858 52.4148 31.478 53.7424L31.366 53.8071L31.336 53.8249L31.326 53.8305H31.323C31.323 53.8316 31.321 53.8327 30.811 52.6934C30.301 53.8327 30.301 53.8327 30.3 53.8316L30.296 53.8293L30.286 53.8249L30.256 53.8071C30.0809 53.7071 29.9075 53.6034 29.736 53.496C27.6807 52.2184 25.7494 50.7073 23.973 48.9869C20.86 45.9514 17.495 41.3876 17.495 35.7302V22.9752L30.811 17.4081V17.407ZM30.811 52.6945L30.3 53.8316L30.811 54.117L31.321 53.8327L30.811 52.6945ZM30.811 51.252C32.7132 50.0657 34.5013 48.6649 36.147 47.0717C39.122 44.17 41.844 40.2516 41.844 35.7302V24.7376L30.811 20.1248L19.778 24.7365V35.7302C19.778 40.2516 22.5 44.1689 25.475 47.0717C27.1207 48.6649 28.9087 50.0657 30.811 51.252Z" fill="#0B3B3C"/>
</g>
</svg>
