<svg width="62" height="68" viewBox="0 0 62 68" fill="none" xmlns="http://www.w3.org/2000/svg">
<mask id="mask0" style="mask-type:alpha" maskUnits="userSpaceOnUse" x="14" y="15" width="34" height="38">
<path d="M26.513 15.3557L30.317 17.9007H31.078L34.883 15.3557L37.926 16.204L40.209 18.749L45.535 21.294L47.057 26.3829L45.535 32.32L47.057 37.41L45.535 40.8022V45.8922L42.492 50.981L34.882 51.8282L30.317 47.5877L22.709 52.6777L16.621 48.436L15.861 40.8022L14.339 37.41L15.86 34.0167L14.339 27.2312L16.621 21.294L21.948 18.749L22.708 16.204L26.513 15.3568V15.3557Z" fill="#C4C4C4"/>
</mask>
<g mask="url(#mask0)">
<path d="M44.8101 42.3853C44.9208 42.5955 45.1013 42.7488 45.3125 42.812C45.5237 42.8752 45.7488 42.8432 45.9391 42.723C46.1275 42.5994 46.2648 42.3981 46.3213 42.1627C46.3778 41.9272 46.349 41.6765 46.2411 41.4645C46.1302 41.2547 45.9498 41.1019 45.7389 41.0389C45.5279 40.976 45.3031 41.0079 45.1131 41.1278C44.9249 41.2514 44.7878 41.4525 44.7313 41.6877C44.6748 41.9229 44.7035 42.1734 44.8111 42.3853H44.8101ZM38.1231 53.7424C38.234 53.9521 38.4143 54.105 38.6253 54.1679C38.8363 54.2309 39.061 54.199 39.2511 54.079C39.4394 53.9556 39.5767 53.7546 39.6334 53.5194C39.6901 53.2842 39.6616 53.0336 39.5541 52.8216C39.4432 52.6115 39.2626 52.4585 39.0514 52.3955C38.8402 52.3325 38.6152 52.3646 38.4251 52.4849C38.2369 52.6085 38.0998 52.8096 38.0433 53.0448C37.9868 53.28 38.0155 53.5305 38.1231 53.7424ZM42.8051 50.7292C42.916 50.9389 43.0963 51.0918 43.3073 51.1547C43.5183 51.2177 43.743 51.1858 43.9331 51.0658C44.1212 50.9422 44.2583 50.7412 44.3148 50.506C44.3713 50.2708 44.3427 50.0203 44.2351 49.8084C44.1242 49.5986 43.9438 49.4458 43.7329 49.3829C43.5219 49.3199 43.2971 49.3518 43.1071 49.4717C42.9189 49.5954 42.7818 49.7964 42.7253 50.0316C42.6688 50.2668 42.6975 50.5173 42.8051 50.7292ZM39.1131 49.6267C39.2238 49.8366 39.4041 49.9897 39.6151 50.0529C39.8261 50.1161 40.0509 50.0843 40.2411 49.9645C40.4292 49.8409 40.5663 49.6398 40.6228 49.4046C40.6793 49.1694 40.6507 48.9189 40.5431 48.707C40.4323 48.4971 40.2521 48.344 40.0411 48.2808C39.8301 48.2177 39.6053 48.2494 39.4151 48.3693C39.2269 48.4929 39.0898 48.6939 39.0333 48.9291C38.9768 49.1643 39.0055 49.4148 39.1131 49.6267ZM43.8221 46.5009C43.933 46.7107 44.1133 46.8635 44.3243 46.9265C44.5353 46.9894 44.76 46.9575 44.9501 46.8376C45.1382 46.714 45.2753 46.5129 45.3318 46.2777C45.3883 46.0425 45.3597 45.792 45.2521 45.5801C45.1412 45.3704 44.9608 45.2176 44.7498 45.1546C44.5389 45.0916 44.3141 45.1235 44.1241 45.2435C43.9357 45.3669 43.7984 45.5679 43.7418 45.8031C43.6851 46.0383 43.7136 46.2889 43.8211 46.5009H43.8221ZM46.4981 51.8328C46.609 52.0426 46.7893 52.1954 47.0003 52.2583C47.2113 52.3213 47.436 52.2894 47.6261 52.1694C47.8142 52.0458 47.9513 51.8448 48.0078 51.6096C48.0643 51.3744 48.0357 51.1239 47.9281 50.912C47.8172 50.7022 47.6368 50.5494 47.4259 50.4865C47.2149 50.4235 46.9901 50.4554 46.8001 50.5754C46.6119 50.699 46.4748 50.9 46.4183 51.1352C46.3618 51.3704 46.3905 51.6209 46.4981 51.8328ZM35.4201 48.5253C35.5311 48.7349 35.7116 48.8875 35.9225 48.9502C36.1335 49.013 36.3581 48.9809 36.5481 48.8609C36.7362 48.7372 36.8733 48.5362 36.9298 48.301C36.9863 48.0658 36.9577 47.8153 36.8501 47.6034C36.7392 47.3937 36.5588 47.2408 36.3478 47.1779C36.1369 47.1149 35.9121 47.1468 35.7221 47.2668C35.2301 47.4875 35.0921 48.0582 35.4201 48.5242V48.5253ZM40.1301 45.3973C40.241 45.6068 40.4211 45.7594 40.6319 45.8223C40.8426 45.8853 41.0671 45.8536 41.2571 45.734C41.4454 45.6105 41.5827 45.4096 41.6394 45.1744C41.6961 44.9392 41.6676 44.6885 41.5601 44.4765C41.4493 44.2663 41.2689 44.113 41.0576 44.0498C40.8464 43.9866 40.6214 44.0186 40.4311 44.1388C40.2426 44.2624 40.1054 44.4636 40.0489 44.6991C39.9924 44.9346 40.0212 45.1853 40.1291 45.3973H40.1301Z" fill="#0A3B3C"/>
<path d="M44.81 42.3853C44.9207 42.5955 45.1012 42.7488 45.3124 42.812C45.5237 42.8752 45.7487 42.8432 45.939 42.723C46.1274 42.5994 46.2647 42.3981 46.3212 42.1627C46.3777 41.9272 46.3489 41.6765 46.241 41.4645C46.1301 41.2547 45.9497 41.1019 45.7388 41.0389C45.5278 40.976 45.3031 41.0079 45.113 41.1278C44.9247 41.2512 44.7874 41.4522 44.7307 41.6874C44.674 41.9226 44.7025 42.1732 44.81 42.3853ZM34.433 52.6432C34.5439 52.853 34.7242 53.0058 34.9352 53.0688C35.1462 53.1317 35.3709 53.0998 35.561 52.9799C35.7493 52.8564 35.8866 52.6555 35.9433 52.4203C36 52.1851 35.9715 51.9344 35.864 51.7224C35.7533 51.5122 35.5728 51.3589 35.3616 51.2957C35.1503 51.2325 34.9253 51.2645 34.735 51.3847C34.5466 51.5083 34.4093 51.7095 34.3528 51.945C34.2963 52.1805 34.3251 52.4312 34.433 52.6432ZM30.638 51.5084C30.7489 51.7182 30.9292 51.871 31.1402 51.9339C31.3512 51.9969 31.5759 51.965 31.766 51.8451C31.9542 51.7214 32.0912 51.5204 32.1477 51.2852C32.2042 51.05 32.1756 50.7995 32.068 50.5876C31.9571 50.3779 31.7767 50.225 31.5658 50.1621C31.3548 50.0991 31.1301 50.131 30.94 50.251C30.7518 50.3746 30.6147 50.5756 30.5582 50.8108C30.5018 51.046 30.5304 51.2965 30.638 51.5084ZM38.124 53.7446C38.2349 53.9544 38.4152 54.1072 38.6262 54.1701C38.8372 54.2331 39.0619 54.2012 39.252 54.0813C39.4403 53.9578 39.5776 53.7569 39.6343 53.5216C39.691 53.2864 39.6625 53.0358 39.555 52.8238C39.4441 52.6138 39.2636 52.4607 39.0523 52.3977C38.8411 52.3348 38.6162 52.3669 38.426 52.4872C38.2378 52.6108 38.1007 52.8118 38.0443 53.047C37.9878 53.2822 38.0164 53.5327 38.124 53.7446ZM35.422 48.5264C35.5327 48.7364 35.713 48.8894 35.924 48.9526C36.135 49.0158 36.3598 48.984 36.55 48.8642C36.7384 48.7406 36.8757 48.5393 36.9322 48.3039C36.9887 48.0684 36.9599 47.8176 36.852 47.6056C36.7411 47.3959 36.5607 47.2431 36.3498 47.1801C36.1388 47.1171 35.9141 47.1491 35.724 47.269C35.231 47.4897 35.094 48.0605 35.422 48.5264Z" fill="#0A3B3C"/>
<path d="M44.81 42.3829C44.9207 42.5928 45.101 42.7459 45.312 42.8091C45.523 42.8723 45.7478 42.8405 45.938 42.7207C46.1266 42.5972 46.2641 42.3961 46.3208 42.1606C46.3775 41.9251 46.3488 41.6742 46.241 41.4621C46.1301 41.2521 45.9496 41.099 45.7384 41.036C45.5271 40.9731 45.3022 41.0052 45.112 41.1255C44.9238 41.2491 44.7868 41.4501 44.7303 41.6853C44.6738 41.9205 44.7024 42.171 44.81 42.3829ZM42.107 37.1647C42.2179 37.3745 42.3983 37.5273 42.6092 37.5903C42.8202 37.6532 43.0449 37.6213 43.235 37.5014C43.4232 37.3778 43.5603 37.1767 43.6168 36.9415C43.6732 36.7063 43.6446 36.4558 43.537 36.2439C43.4261 36.0342 43.2458 35.8814 43.0348 35.8184C42.8238 35.7554 42.5991 35.7874 42.409 35.9073C42.2208 36.0309 42.0838 36.232 42.0273 36.4671C41.9708 36.7023 41.9994 36.9529 42.107 37.1647ZM46.817 34.0378C46.9279 34.2476 47.1083 34.4004 47.3192 34.4634C47.5302 34.5264 47.7549 34.4944 47.945 34.3745C48.1332 34.2509 48.2703 34.0498 48.3267 33.8146C48.3832 33.5795 48.3546 33.3289 48.247 33.1171C48.1361 32.9073 47.9558 32.7545 47.7448 32.6915C47.5338 32.6285 47.3091 32.6605 47.119 32.7804C46.702 33.146 46.592 33.6031 46.817 34.0378ZM43.124 32.9342C43.2349 33.144 43.4153 33.2968 43.6262 33.3598C43.8372 33.4228 44.0619 33.3908 44.252 33.2709C44.4402 33.1473 44.5773 32.9462 44.6338 32.711C44.6902 32.4759 44.6616 32.2253 44.554 32.0135C44.4431 31.8037 44.2628 31.6509 44.0518 31.5879C43.8408 31.5249 43.6161 31.5569 43.426 31.6768C43.008 32.0413 42.898 32.4995 43.124 32.9342ZM45.8 38.2683C45.9109 38.4781 46.0913 38.6309 46.3022 38.6939C46.5132 38.7569 46.7379 38.7249 46.928 38.605C47.1162 38.4814 47.2533 38.2803 47.3098 38.0451C47.3662 37.8099 47.3376 37.5594 47.23 37.3476C47.1191 37.1378 46.9388 36.985 46.7278 36.922C46.5168 36.859 46.2921 36.891 46.102 37.0109C45.9138 37.1345 45.7768 37.3356 45.7203 37.5708C45.6638 37.8059 45.6924 38.0565 45.8 38.2683ZM39.433 31.8317C39.5439 32.0415 39.7243 32.1943 39.9352 32.2573C40.1462 32.3203 40.3709 32.2883 40.561 32.1684C40.7492 32.0448 40.8863 31.8437 40.9428 31.6085C40.9992 31.3734 40.9706 31.1228 40.863 30.911C40.7523 30.701 40.572 30.548 40.361 30.4848C40.15 30.4216 39.9252 30.4533 39.735 30.5732C39.345 30.8251 39.105 31.3647 39.433 31.8317ZM44.114 28.8186C44.2247 29.0288 44.4052 29.1821 44.6164 29.2453C44.8277 29.3085 45.0527 29.2765 45.243 29.1563C45.4312 29.0327 45.5683 28.8317 45.6248 28.5965C45.6812 28.3613 45.6526 28.1108 45.545 27.8989C45.4343 27.6889 45.254 27.5359 45.043 27.4727C44.832 27.4095 44.6072 27.4413 44.417 27.5611C44.2287 27.6846 44.0914 27.8855 44.0347 28.1207C43.978 28.3559 44.0065 28.6066 44.114 28.8186ZM35.42 48.5252C35.5311 48.7348 35.7115 48.8874 35.9225 48.9501C36.1334 49.0129 36.3581 48.9808 36.548 48.8607C36.7362 48.7371 36.8733 48.5361 36.9298 48.3009C36.9862 48.0657 36.9576 47.8152 36.85 47.6033C36.7391 47.3935 36.5588 47.2407 36.3478 47.1777C36.1368 47.1148 35.9121 47.1467 35.722 47.2666C35.23 47.4874 35.092 48.0581 35.42 48.5241V48.5252ZM32.643 43.161C32.7539 43.3708 32.9343 43.5236 33.1452 43.5865C33.3562 43.6495 33.5809 43.6176 33.771 43.4977C33.9593 43.3742 34.0966 43.1733 34.1533 42.938C34.21 42.7028 34.1815 42.4522 34.074 42.2402C33.9633 42.0303 33.783 41.8772 33.572 41.814C33.361 41.7508 33.1362 41.7826 32.946 41.9024C32.7574 42.0259 32.6199 42.227 32.5632 42.4625C32.5065 42.698 32.5352 42.9489 32.643 43.161ZM40.13 45.3972C40.2409 45.607 40.4213 45.7598 40.6322 45.8227C40.8432 45.8857 41.0679 45.8538 41.258 45.7338C41.4462 45.6102 41.5833 45.4092 41.6398 45.174C41.6962 44.9388 41.6676 44.6883 41.56 44.4764C41.4493 44.2665 41.269 44.1134 41.058 44.0502C40.847 43.987 40.6222 44.0188 40.432 44.1386C40.2434 44.2621 40.1059 44.4632 40.0492 44.6987C39.9925 44.9342 40.0212 45.1851 40.129 45.3972H40.13ZM37.427 40.179C37.5379 40.3888 37.7183 40.5416 37.9292 40.6046C38.1402 40.6675 38.3649 40.6356 38.555 40.5157C38.7432 40.3921 38.8803 40.191 38.9368 39.9558C38.9932 39.7206 38.9646 39.4701 38.857 39.2582C38.7461 39.0485 38.5658 38.8957 38.3548 38.8327C38.1438 38.7697 37.9191 38.8016 37.729 38.9216C37.236 39.1412 37.099 39.7131 37.427 40.179ZM33.632 39.0431C33.7427 39.253 33.923 39.4061 34.134 39.4693C34.345 39.5325 34.5698 39.5007 34.76 39.3809C34.9484 39.2572 35.0857 39.056 35.1422 38.8205C35.1987 38.5851 35.1699 38.3343 35.062 38.1223C34.9511 37.9125 34.7708 37.7597 34.5598 37.6968C34.3488 37.6338 34.1241 37.6657 33.934 37.7857C33.7458 37.9093 33.6088 38.1103 33.5523 38.3455C33.4958 38.5807 33.5244 38.8312 33.632 39.0431ZM36.437 44.2936C36.5477 44.5035 36.728 44.6566 36.939 44.7198C37.15 44.783 37.3748 44.7512 37.565 44.6314C37.7534 44.5077 37.8907 44.3065 37.9472 44.071C38.0037 43.8356 37.9749 43.5848 37.867 43.3728C37.7561 43.163 37.5758 43.0102 37.3648 42.9472C37.1538 42.8843 36.9291 42.9162 36.739 43.0361C36.247 43.2569 36.109 43.8276 36.437 44.2936ZM38.416 36.0622C38.5269 36.272 38.7073 36.4248 38.9182 36.4878C39.1292 36.5508 39.3539 36.5188 39.544 36.3989C39.7323 36.2755 39.8696 36.0745 39.9263 35.8393C39.983 35.6041 39.9545 35.3535 39.847 35.1415C39.7363 34.9312 39.5558 34.7779 39.3446 34.7147C39.1334 34.6515 38.9083 34.6835 38.718 34.8037C38.226 35.0244 38.088 35.5963 38.416 36.0622ZM41.119 41.2815C41.2299 41.4913 41.4103 41.6441 41.6212 41.7071C41.8322 41.77 42.0569 41.7381 42.247 41.6182C42.4352 41.4946 42.5723 41.2935 42.6288 41.0583C42.6852 40.8231 42.6566 40.5726 42.549 40.3607C42.4381 40.151 42.2578 39.9982 42.0468 39.9352C41.8358 39.8722 41.6111 39.9041 41.421 40.0241C41.2328 40.1477 41.0958 40.3487 41.0393 40.5839C40.9828 40.8191 41.0114 41.0696 41.119 41.2815ZM29.94 37.9417C30.0509 38.1512 30.2311 38.3038 30.4418 38.3667C30.6525 38.4297 30.877 38.398 31.067 38.2784C31.2553 38.1549 31.3926 37.954 31.4493 37.7188C31.506 37.4836 31.4775 37.2329 31.37 37.0209C31.2591 36.8112 31.0788 36.6583 30.8678 36.5954C30.6568 36.5324 30.4321 36.5643 30.242 36.6843C30.0537 36.8077 29.9164 37.0087 29.8597 37.2439C29.803 37.4791 29.8315 37.7297 29.939 37.9417H29.94ZM34.62 34.9308C34.7309 35.1408 34.9114 35.2939 35.1227 35.3568C35.3339 35.4198 35.5588 35.3877 35.749 35.2674C35.9372 35.1438 36.0743 34.9428 36.1308 34.7076C36.1872 34.4724 36.1586 34.2219 36.051 34.01C35.9401 33.8002 35.7598 33.6474 35.5488 33.5844C35.3378 33.5215 35.1131 33.5534 34.923 33.6733C34.7348 33.7969 34.5978 33.998 34.5413 34.2332C34.4848 34.4684 34.5134 34.7189 34.621 34.9308H34.62Z" fill="#0A3B3C"/>
<path d="M44.812 42.3853C44.9228 42.5952 45.1031 42.7483 45.314 42.8114C45.525 42.8746 45.7499 42.8429 45.94 42.723C46.1286 42.5996 46.2661 42.3984 46.3228 42.1629C46.3795 41.9275 46.3509 41.6766 46.243 41.4645C46.1322 41.2544 45.9516 41.1014 45.7404 41.0384C45.5292 40.9754 45.3042 41.0075 45.114 41.1278C44.9259 41.2514 44.7888 41.4525 44.7323 41.6877C44.6758 41.9229 44.7045 42.1734 44.812 42.3853ZM42.109 37.166C42.2198 37.3759 42.4001 37.529 42.611 37.5922C42.822 37.6553 43.0469 37.6236 43.237 37.5037C43.4252 37.3801 43.5623 37.1791 43.6188 36.9439C43.6753 36.7087 43.6466 36.4582 43.539 36.2463C43.4283 36.0364 43.248 35.8833 43.037 35.8201C42.8261 35.7569 42.6012 35.7887 42.411 35.9085C42.2226 36.0322 42.0853 36.2334 42.0288 36.4689C41.9723 36.7043 42.0011 36.9551 42.109 37.1671V37.166ZM39.433 31.833C39.5438 32.0429 39.7241 32.196 39.935 32.2592C40.146 32.3224 40.3709 32.2906 40.561 32.1708C40.7497 32.0473 40.8871 31.8462 40.9438 31.6107C41.0005 31.3752 40.9719 31.1243 40.864 30.9122C40.7531 30.7021 40.5726 30.5491 40.3614 30.4861C40.1502 30.4231 39.9252 30.4553 39.735 30.5755C39.345 30.8275 39.105 31.367 39.433 31.833ZM23.252 49.3001C23.3628 49.5103 23.5432 49.6636 23.7545 49.7268C23.9657 49.79 24.1908 49.758 24.381 49.6378C24.5692 49.5142 24.7063 49.3132 24.7628 49.078C24.8193 48.8428 24.7906 48.5923 24.683 48.3804C24.5723 48.1705 24.392 48.0174 24.181 47.9542C23.9701 47.891 23.7452 47.9228 23.555 48.0426C23.3667 48.1661 23.2294 48.367 23.1727 48.6022C23.1161 48.8374 23.1445 49.0881 23.252 49.3001ZM30.637 51.5062C30.7479 51.7159 30.9283 51.8688 31.1393 51.9317C31.3503 51.9947 31.575 51.9628 31.765 51.8428C31.9534 51.7194 32.0907 51.5184 32.1474 51.2832C32.204 51.048 32.1756 50.7974 32.068 50.5854C31.9572 50.3756 31.7768 50.2228 31.5658 50.1598C31.3548 50.0969 31.1301 50.1288 30.94 50.2487C30.7517 50.3722 30.6144 50.5731 30.5577 50.8083C30.5011 51.0435 30.5295 51.2942 30.637 51.5062ZM27.934 46.2869C28.0448 46.4968 28.2251 46.6499 28.436 46.7131C28.647 46.7763 28.8719 46.7445 29.062 46.6247C29.2505 46.501 29.3878 46.2998 29.4443 46.0643C29.5008 45.8289 29.4719 45.5781 29.364 45.3661C29.2532 45.1563 29.0728 45.0035 28.8618 44.9406C28.6508 44.8776 28.4261 44.9095 28.236 45.0295C28.0479 45.1531 27.9108 45.3541 27.8543 45.5893C27.7978 45.8245 27.8265 46.075 27.934 46.2869ZM24.242 45.1855C24.3529 45.3953 24.5333 45.5481 24.7443 45.6111C24.9552 45.674 25.18 45.6421 25.37 45.5222C25.5584 45.3987 25.6957 45.1978 25.7524 44.9626C25.809 44.7274 25.7806 44.4767 25.673 44.2647C25.5622 44.0547 25.3816 43.9016 25.1704 43.8387C24.9592 43.7757 24.7342 43.8078 24.544 43.9281C24.3559 44.0517 24.2188 44.2527 24.1623 44.4879C24.1058 44.7231 24.1345 44.9736 24.242 45.1855ZM26.945 50.4048C27.0559 50.6149 27.2365 50.7679 27.4477 50.8309C27.6589 50.8939 27.8839 50.8617 28.074 50.7415C28.2622 50.6178 28.3993 50.4168 28.4558 50.1816C28.5123 49.9464 28.4836 49.6959 28.376 49.484C28.2653 49.2741 28.085 49.121 27.874 49.0578C27.6631 48.9946 27.4382 49.0264 27.248 49.1462C27.0594 49.2697 26.922 49.4708 26.8653 49.7063C26.8086 49.9418 26.8372 50.1927 26.945 50.4048ZM28.95 42.0597C29.0609 42.2698 29.2415 42.4228 29.4527 42.4858C29.6639 42.5488 29.8889 42.5167 30.079 42.3964C30.2672 42.2728 30.4043 42.0717 30.4608 41.8365C30.5173 41.6014 30.4886 41.3508 30.381 41.139C30.2703 40.929 30.09 40.776 29.879 40.7128C29.6681 40.6496 29.4432 40.6813 29.253 40.8012C29.0649 40.9248 28.9278 41.1259 28.8713 41.361C28.8148 41.5962 28.8435 41.8467 28.951 42.0586L28.95 42.0597ZM31.627 47.3916C31.7379 47.6014 31.9183 47.7542 32.1293 47.8172C32.3403 47.8801 32.565 47.8482 32.755 47.7283C32.9432 47.6047 33.0803 47.4036 33.1368 47.1684C33.1933 46.9332 33.1646 46.6827 33.057 46.4708C32.9463 46.2609 32.766 46.1078 32.555 46.0446C32.3441 45.9815 32.1192 46.0132 31.929 46.1331C31.7406 46.2567 31.6033 46.4579 31.5468 46.6934C31.4903 46.9288 31.5191 47.1796 31.627 47.3916ZM20.445 44.0529C20.5558 44.2629 20.7361 44.4159 20.947 44.4791C21.158 44.5423 21.3829 44.5105 21.573 44.3907C21.7614 44.2673 21.8987 44.0663 21.9554 43.8311C22.012 43.5959 21.9836 43.3453 21.876 43.1333C21.7653 42.923 21.5849 42.7697 21.3736 42.7065C21.1624 42.6433 20.9373 42.6753 20.747 42.7955C20.5589 42.9191 20.4218 43.1201 20.3653 43.3553C20.3088 43.5905 20.3375 43.841 20.445 44.0529ZM25.256 40.9573C25.3669 41.1673 25.5475 41.3203 25.7587 41.3833C25.9699 41.4463 26.1949 41.4142 26.385 41.2939C26.5732 41.1703 26.7103 40.9692 26.7668 40.7341C26.8233 40.4989 26.7946 40.2484 26.687 40.0365C26.5762 39.8267 26.3958 39.6739 26.1848 39.6109C25.9738 39.548 25.7491 39.5799 25.559 39.6998C25.3707 39.8232 25.2334 40.0242 25.1767 40.2594C25.1201 40.4946 25.1485 40.7452 25.256 40.9573ZM35.42 48.5253C35.5311 48.7349 35.7115 48.8875 35.9225 48.9502C36.1335 49.013 36.3581 48.9809 36.548 48.8609C36.7362 48.7372 36.8733 48.5362 36.9298 48.301C36.9863 48.0658 36.9576 47.8153 36.85 47.6034C36.7392 47.3937 36.5588 47.2408 36.3478 47.1779C36.1368 47.1149 35.9121 47.1468 35.722 47.2668C35.23 47.4875 35.092 48.0582 35.42 48.5242V48.5253ZM32.642 43.1611C32.7529 43.3709 32.9333 43.5237 33.1443 43.5867C33.3552 43.6496 33.58 43.6177 33.77 43.4978C33.9582 43.3742 34.0953 43.1731 34.1518 42.9379C34.2083 42.7027 34.1796 42.4522 34.072 42.2403C33.9613 42.0304 33.781 41.8773 33.57 41.8142C33.3591 41.751 33.1342 41.7827 32.944 41.9026C32.7556 42.0262 32.6183 42.2274 32.5618 42.4629C32.5053 42.6984 32.5341 42.9491 32.642 43.1611ZM29.94 37.9418C30.0509 38.1516 30.2313 38.3044 30.4423 38.3674C30.6532 38.4304 30.878 38.3984 31.068 38.2785C31.2562 38.1549 31.3933 37.9538 31.4498 37.7186C31.5063 37.4835 31.4776 37.2329 31.37 37.0211C31.2592 36.8113 31.0788 36.6585 30.8678 36.5955C30.6568 36.5325 30.4321 36.5645 30.242 36.6844C30.0539 36.808 29.9168 37.0091 29.8603 37.2443C29.8038 37.4795 29.8325 37.73 29.94 37.9418ZM18.47 52.2854C18.5808 52.495 18.7609 52.6479 18.9716 52.711C19.1824 52.7742 19.4069 52.7427 19.597 52.6232C19.7857 52.4997 19.9231 52.2985 19.9798 52.0631C20.0365 51.8276 20.0079 51.5767 19.9 51.3646C19.7892 51.1548 19.6088 51.002 19.3978 50.9391C19.1868 50.8761 18.9621 50.908 18.772 51.0279C18.5837 51.1514 18.4464 51.3523 18.3897 51.5875C18.3331 51.8228 18.3615 52.0734 18.469 52.2854H18.47ZM14.776 51.1818C14.8869 51.3915 15.0673 51.5444 15.2783 51.6073C15.4893 51.6703 15.714 51.6384 15.904 51.5184C16.0924 51.395 16.2297 51.194 16.2864 50.9588C16.343 50.7236 16.3146 50.473 16.207 50.261C16.0962 50.0512 15.9158 49.8984 15.7048 49.8354C15.4938 49.7725 15.2691 49.8044 15.079 49.9243C14.8907 50.0478 14.7534 50.2487 14.6967 50.4839C14.6401 50.7191 14.6685 50.9698 14.776 51.1818ZM19.458 48.1708C19.5689 48.3806 19.7493 48.5334 19.9603 48.5964C20.1713 48.6593 20.396 48.6274 20.586 48.5075C20.7742 48.3839 20.9113 48.1828 20.9678 47.9476C21.0243 47.7124 20.9956 47.4619 20.888 47.25C20.7772 47.0403 20.5968 46.8875 20.3858 46.8245C20.1748 46.7615 19.9501 46.7934 19.76 46.9134C19.5719 47.037 19.4348 47.2381 19.3783 47.4732C19.3218 47.7084 19.3505 47.9589 19.458 48.1708ZM22.264 53.4191C22.3748 53.629 22.5551 53.7821 22.766 53.8453C22.977 53.9085 23.2019 53.8767 23.392 53.7569C23.5802 53.6332 23.7173 53.4322 23.7738 53.197C23.8303 52.9618 23.8016 52.7113 23.694 52.4994C23.5832 52.2897 23.4028 52.1368 23.1918 52.0739C22.9808 52.0109 22.7561 52.0428 22.566 52.1628C22.3779 52.2864 22.2408 52.4874 22.1843 52.7226C22.1278 52.9578 22.1565 53.2083 22.264 53.4202V53.4191ZM15.765 47.0661C15.8758 47.2761 16.0561 47.4291 16.267 47.4923C16.478 47.5555 16.7029 47.5237 16.893 47.4039C17.0812 47.2803 17.2183 47.0792 17.2748 46.844C17.3313 46.6088 17.3026 46.3583 17.195 46.1464C17.0843 45.9365 16.904 45.7834 16.693 45.7203C16.4821 45.6571 16.2572 45.6888 16.067 45.8087C15.8789 45.9323 15.7418 46.1333 15.6853 46.3685C15.6288 46.6037 15.6575 46.8542 15.765 47.0661Z" fill="#0A3B3C"/>
<path d="M23.2521 49.3022C23.3628 49.5125 23.5433 49.6657 23.7545 49.7289C23.9657 49.7921 24.1908 49.7602 24.3811 49.64C24.5692 49.5164 24.7063 49.3153 24.7628 49.0801C24.8193 48.8449 24.7907 48.5944 24.6831 48.3825C24.5724 48.1726 24.3921 48.0195 24.1811 47.9564C23.9701 47.8932 23.7453 47.9249 23.5551 48.0448C23.3667 48.1682 23.2294 48.3692 23.1728 48.6044C23.1161 48.8396 23.1446 49.0902 23.2521 49.3022ZM20.4471 44.0528C20.5578 44.2628 20.7381 44.4159 20.9491 44.479C21.1601 44.5422 21.3849 44.5105 21.5751 44.3906C21.7632 44.267 21.9003 44.0659 21.9568 43.8308C22.0133 43.5956 21.9847 43.3451 21.8771 43.1332C21.7664 42.9232 21.5861 42.7702 21.3751 42.707C21.1641 42.6438 20.9393 42.6756 20.7491 42.7954C20.5609 42.919 20.4238 43.1201 20.3673 43.3553C20.3108 43.5904 20.3395 43.841 20.4471 44.0528ZM46.0911 20.5873C46.202 20.797 46.3823 20.9499 46.5933 21.0128C46.8043 21.0758 47.029 21.0439 47.2191 20.9239C47.4074 20.8005 47.5447 20.5995 47.6014 20.3643C47.6581 20.1291 47.6296 19.8785 47.5221 19.6665C47.4112 19.4564 47.2306 19.3034 47.0194 19.2404C46.8082 19.1774 46.5832 19.2095 46.3931 19.3298C46.2049 19.4534 46.0678 19.6545 46.0113 19.8897C45.9548 20.1249 45.9835 20.3754 46.0911 20.5873ZM47.1081 16.3568C47.219 16.5665 47.3993 16.7194 47.6103 16.7823C47.8213 16.8453 48.046 16.8134 48.2361 16.6934C48.4242 16.5698 48.5613 16.3688 48.6178 16.1336C48.6743 15.8984 48.6457 15.6479 48.5381 15.436C48.4273 15.226 48.2471 15.073 48.0361 15.0098C47.8251 14.9466 47.6003 14.9784 47.4101 15.0982C47.2216 15.2218 47.0844 15.4231 47.0279 15.6586C46.9714 15.894 47.0002 16.1448 47.1081 16.3568ZM43.4151 15.2532C43.5258 15.4631 43.7061 15.6162 43.9171 15.6794C44.1281 15.7425 44.3529 15.7108 44.5431 15.5909C44.7317 15.4675 44.8692 15.2663 44.9259 15.0309C44.9825 14.7954 44.9539 14.5445 44.8461 14.3324C44.7352 14.1226 44.5548 13.9698 44.3438 13.9068C44.1329 13.8439 43.9081 13.8758 43.7181 13.9957C43.3281 14.2477 43.0881 14.7872 43.4151 15.2532ZM39.4341 31.8318C39.545 32.0416 39.7253 32.1944 39.9363 32.2573C40.1473 32.3203 40.372 32.2884 40.5621 32.1685C40.7504 32.045 40.8877 31.8441 40.9444 31.6088C41.0011 31.3736 40.9726 31.123 40.8651 30.911C40.7543 30.7008 40.5739 30.5475 40.3626 30.4843C40.1514 30.4211 39.9264 30.453 39.7361 30.5732C39.3461 30.8252 39.1061 31.3647 39.4341 31.8318ZM36.6291 26.5824C36.7398 26.7924 36.9201 26.9454 37.1311 27.0086C37.3421 27.0718 37.5669 27.04 37.7571 26.9202C37.9452 26.7966 38.0823 26.5955 38.1388 26.3603C38.1953 26.1251 38.1667 25.8746 38.0591 25.6627C37.9483 25.4528 37.7681 25.2997 37.5571 25.2366C37.3461 25.1734 37.1213 25.2051 36.9311 25.325C36.7429 25.4486 36.6058 25.6496 36.5493 25.8848C36.4928 26.12 36.5215 26.3705 36.6291 26.5824ZM44.1151 28.8186C44.2258 29.0286 44.4061 29.1816 44.6171 29.2448C44.8281 29.308 45.0529 29.2762 45.2431 29.1564C45.4312 29.0328 45.5683 28.8317 45.6248 28.5965C45.6813 28.3613 45.6527 28.1108 45.5451 27.8989C45.4343 27.689 45.2541 27.5359 45.0431 27.4728C44.8321 27.4096 44.6073 27.4413 44.4171 27.5612C44.2289 27.6848 44.0918 27.8858 44.0353 28.121C43.9788 28.3562 44.0075 28.6067 44.1151 28.8186ZM41.4121 23.6016C41.523 23.8113 41.7033 23.9641 41.9143 24.0271C42.1253 24.0901 42.35 24.0582 42.5401 23.9382C42.7284 23.8148 42.8657 23.6138 42.9224 23.3786C42.9791 23.1434 42.9506 22.8928 42.8431 22.6808C42.7322 22.471 42.5518 22.3182 42.3409 22.2552C42.1299 22.1923 41.9051 22.2242 41.7151 22.3441C41.2221 22.5637 41.0851 23.1356 41.4121 23.6016ZM37.6171 22.4656C37.7278 22.6759 37.9083 22.8291 38.1195 22.8923C38.3307 22.9555 38.5558 22.9236 38.7461 22.8034C38.9345 22.6798 39.0718 22.4785 39.1283 22.2431C39.1848 22.0076 39.156 21.7568 39.0481 21.5448C38.9372 21.3351 38.7568 21.1823 38.5458 21.1193C38.3349 21.0563 38.1101 21.0883 37.9201 21.2082C37.7317 21.3316 37.5944 21.5326 37.5378 21.7678C37.4811 22.003 37.5096 22.2536 37.6171 22.4656ZM40.4231 27.7161C40.5338 27.9261 40.7141 28.0791 40.9251 28.1423C41.1361 28.2055 41.3609 28.1737 41.5511 28.0539C41.7395 27.9303 41.8768 27.729 41.9333 27.4936C41.9898 27.2581 41.961 27.0073 41.8531 26.7953C41.7422 26.5856 41.5618 26.4328 41.3508 26.3698C41.1399 26.3068 40.9151 26.3387 40.7251 26.4587C40.2321 26.6794 40.0951 27.2502 40.4231 27.7161ZM42.4021 19.4848C42.513 19.6945 42.6933 19.8474 42.9043 19.9103C43.1153 19.9733 43.34 19.9414 43.5301 19.8214C43.7182 19.6978 43.8553 19.4968 43.9118 19.2616C43.9683 19.0264 43.9397 18.7759 43.8321 18.564C43.7213 18.354 43.5411 18.201 43.3301 18.1378C43.1191 18.0746 42.8943 18.1064 42.7041 18.2262C42.2111 18.4469 42.0741 19.0177 42.4021 19.4837V19.4848ZM45.1041 24.7041C45.215 24.9141 45.3955 25.0672 45.6067 25.1301C45.8179 25.1931 46.0429 25.161 46.2331 25.0407C46.4212 24.9171 46.5583 24.7161 46.6148 24.4809C46.6713 24.2457 46.6427 23.9952 46.5351 23.7833C46.4242 23.5735 46.2438 23.4207 46.0328 23.3577C45.8219 23.2948 45.5971 23.3267 45.4071 23.4466C45.2187 23.57 45.0814 23.771 45.0248 24.0062C44.9681 24.2414 44.9966 24.492 45.1041 24.7041ZM33.9251 21.3643C34.036 21.574 34.2163 21.7268 34.4273 21.7898C34.6383 21.8528 34.863 21.8208 35.0531 21.7009C35.2412 21.5773 35.3783 21.3762 35.4348 21.1411C35.4913 20.9059 35.4627 20.6554 35.3551 20.4435C35.2442 20.2337 35.0638 20.0809 34.8528 20.0179C34.6419 19.955 34.4171 19.9869 34.2271 20.1068C34.0389 20.2304 33.9018 20.4315 33.8453 20.6667C33.7888 20.9019 33.8175 21.1524 33.9251 21.3643ZM38.6061 18.3533C38.717 18.5631 38.8973 18.7159 39.1083 18.7789C39.3193 18.8418 39.544 18.8099 39.7341 18.69C39.9224 18.5665 40.0597 18.3656 40.1164 18.1304C40.1731 17.8951 40.1446 17.6445 40.0371 17.4325C39.9262 17.2228 39.7458 17.0699 39.5348 17.007C39.3239 16.944 39.0991 16.9759 38.9091 17.0959C38.7207 17.2193 38.5834 17.4203 38.5268 17.6555C38.4701 17.8907 38.4986 18.1413 38.6061 18.3533Z" fill="#0A3B3C"/>
<path d="M46.094 20.5894C46.2049 20.7992 46.3853 20.952 46.5962 21.015C46.8072 21.078 47.0319 21.046 47.222 20.9261C47.4102 20.8025 47.5473 20.6014 47.6038 20.3662C47.6602 20.131 47.6316 19.8805 47.524 19.6686C47.4133 19.4587 47.233 19.3056 47.022 19.2425C46.811 19.1793 46.5862 19.211 46.396 19.3309C46.2076 19.4545 46.0703 19.6558 46.0138 19.8912C45.9573 20.1267 45.9861 20.3774 46.094 20.5894ZM43.418 15.2553C43.5287 15.4653 43.709 15.6183 43.92 15.6815C44.131 15.7447 44.3558 15.713 44.546 15.5931C44.7344 15.4697 44.8717 15.2687 44.9283 15.0335C44.985 14.7983 44.9565 14.5477 44.849 14.3357C44.7383 14.1257 44.558 13.9727 44.347 13.9095C44.136 13.8463 43.9112 13.8781 43.721 13.9979C43.331 14.2487 43.091 14.7894 43.418 15.2553ZM29.94 37.9417C30.0509 38.1515 30.2313 38.3043 30.4422 38.3673C30.6532 38.4302 30.8779 38.3983 31.068 38.2784C31.2562 38.1547 31.3933 37.9537 31.4498 37.7185C31.5062 37.4833 31.4776 37.2328 31.37 37.0209C31.2591 36.8112 31.0788 36.6583 30.8678 36.5954C30.6568 36.5324 30.4321 36.5643 30.242 36.6843C30.0538 36.8079 29.9168 37.0089 29.8603 37.2441C29.8038 37.4793 29.8324 37.7298 29.94 37.9417ZM27.236 32.7224C27.3467 32.9327 27.5272 33.0859 27.7384 33.1491C27.9497 33.2123 28.1747 33.1804 28.365 33.0602C28.5532 32.9366 28.6903 32.7355 28.7468 32.5003C28.8032 32.2651 28.7746 32.0146 28.667 31.8027C28.5563 31.5928 28.376 31.4397 28.165 31.3766C27.954 31.3134 27.7292 31.3451 27.539 31.465C27.3507 31.5884 27.2134 31.7894 27.1567 32.0246C27.1 32.2598 27.1285 32.5104 27.236 32.7224ZM34.621 34.9285C34.7319 35.1386 34.9124 35.2916 35.1237 35.3546C35.3349 35.4176 35.5599 35.3855 35.75 35.2652C35.9382 35.1416 36.0753 34.9405 36.1318 34.7053C36.1882 34.4701 36.1596 34.2196 36.052 34.0077C35.9411 33.798 35.7608 33.6452 35.5498 33.5822C35.3388 33.5192 35.1141 33.5511 34.924 33.6711C34.7357 33.7945 34.5984 33.9955 34.5417 34.2307C34.485 34.4659 34.5135 34.7165 34.621 34.9285ZM31.947 29.5966C32.0579 29.8064 32.2383 29.9592 32.4492 30.0222C32.6602 30.0852 32.8849 30.0532 33.075 29.9333C33.2632 29.8097 33.4003 29.6086 33.4568 29.3735C33.5132 29.1383 33.4846 28.8877 33.377 28.6759C33.2661 28.4661 33.0858 28.3133 32.8748 28.2503C32.6638 28.1873 32.4391 28.2193 32.249 28.3392C31.831 28.7037 31.721 29.1619 31.946 29.5966H31.947ZM28.253 28.493C28.3639 28.7031 28.5444 28.8561 28.7557 28.9191C28.9669 28.9821 29.1919 28.95 29.382 28.8297C29.5702 28.7061 29.7073 28.505 29.7638 28.2698C29.8202 28.0347 29.7916 27.7841 29.684 27.5723C29.5733 27.3623 29.393 27.2093 29.182 27.1461C28.971 27.0829 28.7462 27.1146 28.556 27.2345C28.138 27.6001 28.028 28.0572 28.253 28.4919V28.493ZM30.93 33.8271C31.0409 34.0369 31.2213 34.1897 31.4322 34.2527C31.6432 34.3157 31.8679 34.2837 32.058 34.1638C32.2462 34.0402 32.3833 33.8391 32.4398 33.6039C32.4962 33.3688 32.4676 33.1182 32.36 32.9064C32.2493 32.6964 32.069 32.5434 31.858 32.4802C31.647 32.417 31.4222 32.4487 31.232 32.5686C31.0436 32.6922 30.9063 32.8935 30.8498 33.1289C30.7933 33.3644 30.8221 33.6152 30.93 33.8271ZM32.935 25.481C33.0459 25.6907 33.2263 25.8436 33.4372 25.9065C33.6482 25.9695 33.8729 25.9376 34.063 25.8176C34.2512 25.694 34.3883 25.493 34.4448 25.2578C34.5012 25.0226 34.4726 24.7721 34.365 24.5602C34.2541 24.3504 34.0738 24.1976 33.8628 24.1346C33.6518 24.0717 33.4271 24.1036 33.237 24.2235C33.0488 24.3471 32.9118 24.5482 32.8553 24.7834C32.7988 25.0186 32.8274 25.2691 32.935 25.481ZM35.638 30.698C35.7489 30.9081 35.9294 31.0611 36.1407 31.1241C36.3519 31.1871 36.5768 31.155 36.767 31.0347C36.9552 30.9111 37.0923 30.71 37.1488 30.4748C37.2052 30.2396 37.1766 29.9891 37.069 29.7772C36.9581 29.5675 36.7778 29.4147 36.5668 29.3517C36.3558 29.2887 36.1311 29.3206 35.941 29.4406C35.523 29.8062 35.413 30.2633 35.638 30.698ZM24.458 27.3582C24.5689 27.5683 24.7494 27.7213 24.9607 27.7843C25.1719 27.8473 25.3969 27.8152 25.587 27.6949C25.7752 27.5713 25.9123 27.3702 25.9688 27.135C26.0252 26.8998 25.9966 26.6493 25.889 26.4374C25.7781 26.2277 25.5978 26.0749 25.3868 26.0119C25.1758 25.9489 24.9511 25.9808 24.761 26.1008C24.343 26.4653 24.233 26.9235 24.458 27.3582ZM29.242 24.3774C29.3529 24.5874 29.5334 24.7405 29.7447 24.8034C29.9559 24.8664 30.1809 24.8343 30.371 24.714C30.5592 24.5904 30.6963 24.3894 30.7528 24.1542C30.8092 23.919 30.7806 23.6685 30.673 23.4566C30.5621 23.2468 30.3818 23.094 30.1708 23.031C29.9598 22.9681 29.7351 23 29.545 23.1199C29.3567 23.2434 29.2194 23.4443 29.1627 23.6795C29.106 23.9147 29.1345 24.1654 29.242 24.3774ZM39.433 31.8317C39.5439 32.0415 39.7243 32.1943 39.9352 32.2573C40.1462 32.3202 40.3709 32.2883 40.561 32.1684C40.7494 32.045 40.8867 31.844 40.9433 31.6088C41 31.3736 40.9715 31.123 40.864 30.9109C40.7533 30.7007 40.5728 30.5474 40.3616 30.4842C40.1504 30.421 39.9253 30.453 39.735 30.5732C39.345 30.8251 39.105 31.3647 39.433 31.8317ZM36.627 26.5824C36.7377 26.7923 36.918 26.9454 37.129 27.0085C37.34 27.0717 37.5648 27.04 37.755 26.9201C37.9434 26.7967 38.0807 26.5957 38.1373 26.3605C38.194 26.1253 38.1655 25.8747 38.058 25.6627C37.9473 25.4527 37.767 25.2997 37.556 25.2365C37.345 25.1733 37.1202 25.2051 36.93 25.3249C36.7417 25.4483 36.6044 25.6493 36.5477 25.8845C36.491 26.1197 36.5195 26.3703 36.627 26.5824ZM33.925 21.3642C34.0359 21.574 34.2163 21.7268 34.4272 21.7897C34.6382 21.8527 34.8629 21.8208 35.053 21.7008C35.2412 21.5772 35.3783 21.3762 35.4348 21.141C35.4912 20.9058 35.4626 20.6553 35.355 20.4434C35.2441 20.2336 35.0638 20.0808 34.8528 20.0179C34.6418 19.9549 34.4171 19.9868 34.227 20.1067C34.0388 20.2304 33.9018 20.4314 33.8453 20.6666C33.7888 20.9018 33.8174 21.1523 33.925 21.3642ZM20.448 44.0517C20.5589 44.2617 20.7394 44.4148 20.9507 44.4777C21.1619 44.5407 21.3869 44.5086 21.577 44.3883C21.7652 44.2647 21.9023 44.0637 21.9588 43.8285C22.0152 43.5933 21.9866 43.3428 21.879 43.1309C21.7683 42.9209 21.588 42.7679 21.377 42.7047C21.166 42.6415 20.9412 42.6733 20.751 42.7931C20.5624 42.9165 20.4249 43.1177 20.3682 43.3532C20.3115 43.5887 20.3402 43.8395 20.448 44.0517ZM17.773 38.7187C17.8837 38.9286 18.064 39.0817 18.275 39.1449C18.486 39.2081 18.7108 39.1763 18.901 39.0565C19.0896 38.933 19.2271 38.7318 19.2838 38.4964C19.3405 38.2609 19.3118 38.01 19.204 37.7979C19.0931 37.5881 18.9128 37.4353 18.7018 37.3723C18.4908 37.3094 18.2661 37.3413 18.076 37.4612C17.8877 37.5847 17.7504 37.7856 17.6937 38.0208C17.637 38.2561 17.6655 38.5067 17.773 38.7187ZM25.26 40.956C25.3711 41.1656 25.5515 41.3182 25.7625 41.3809C25.9734 41.4437 26.1981 41.4116 26.388 41.2915C26.5762 41.1679 26.7133 40.9669 26.7698 40.7317C26.8262 40.4965 26.7976 40.246 26.69 40.0341C26.5791 39.8243 26.3988 39.6715 26.1878 39.6085C25.9768 39.5456 25.7521 39.5775 25.562 39.6974C25.3737 39.8209 25.2364 40.0218 25.1797 40.257C25.123 40.4923 25.1515 40.7429 25.259 40.9549L25.26 40.956ZM22.455 35.7055C22.5659 35.9153 22.7463 36.0681 22.9572 36.1311C23.1682 36.194 23.3929 36.1621 23.583 36.0422C23.7712 35.9185 23.9083 35.7175 23.9648 35.4823C24.0212 35.2471 23.9926 34.9966 23.885 34.7847C23.7741 34.575 23.5938 34.4221 23.3828 34.3592C23.1718 34.2962 22.9471 34.3281 22.757 34.4481C22.5688 34.5717 22.4318 34.7727 22.3753 35.0079C22.3188 35.2431 22.3474 35.4936 22.455 35.7055ZM18.762 34.6019C18.8729 34.8117 19.0533 34.9645 19.2642 35.0274C19.4752 35.0904 19.6999 35.0585 19.89 34.9386C20.0782 34.8149 20.2153 34.6139 20.2718 34.3787C20.3282 34.1435 20.2996 33.893 20.192 33.6811C20.0811 33.4713 19.9008 33.3185 19.6898 33.2556C19.4788 33.1926 19.2541 33.2245 19.064 33.3445C18.8758 33.4681 18.7388 33.6691 18.6823 33.9043C18.6258 34.1395 18.6544 34.39 18.762 34.6019ZM21.465 39.8201C21.5757 40.03 21.756 40.1831 21.967 40.2462C22.178 40.3094 22.4028 40.2777 22.593 40.1578C22.7814 40.0344 22.9187 39.8334 22.9753 39.5982C23.032 39.363 23.0035 39.1124 22.896 38.9004C22.7853 38.6904 22.605 38.5374 22.394 38.4742C22.183 38.411 21.9582 38.4428 21.768 38.5626C21.5797 38.686 21.4424 38.887 21.3857 39.1222C21.329 39.3574 21.3575 39.608 21.465 39.8201ZM23.443 31.5909C23.5539 31.8007 23.7343 31.9535 23.9452 32.0165C24.1562 32.0795 24.3809 32.0475 24.571 31.9276C24.7594 31.8042 24.8967 31.6032 24.9533 31.368C25.01 31.1328 24.9815 30.8822 24.874 30.6702C24.7631 30.4604 24.5828 30.3076 24.3718 30.2446C24.1608 30.1816 23.9361 30.2136 23.746 30.3335C23.5577 30.4569 23.4204 30.6579 23.3637 30.8931C23.307 31.1283 23.3355 31.3789 23.443 31.5909ZM26.25 36.8403C26.3609 37.0501 26.5413 37.2029 26.7522 37.2659C26.9632 37.3288 27.1879 37.2969 27.378 37.177C27.5662 37.0534 27.7033 36.8523 27.7598 36.6171C27.8162 36.3819 27.7876 36.1314 27.68 35.9195C27.5693 35.7096 27.389 35.5565 27.178 35.4933C26.967 35.4302 26.7422 35.4619 26.552 35.5818C26.3634 35.7052 26.2259 35.9064 26.1692 36.1418C26.1125 36.3773 26.1412 36.6282 26.249 36.8403H26.25ZM15.07 33.5005C15.1809 33.7103 15.3613 33.8631 15.5722 33.9261C15.7832 33.989 16.0079 33.9571 16.198 33.8372C16.3862 33.7136 16.5233 33.5125 16.5798 33.2773C16.6362 33.0421 16.6076 32.7916 16.5 32.5797C16.3891 32.37 16.2088 32.2172 15.9978 32.1542C15.7868 32.0912 15.5621 32.1231 15.372 32.2431C15.1837 32.3665 15.0464 32.5675 14.9897 32.8027C14.933 33.0379 14.9615 33.2885 15.069 33.5005H15.07ZM19.75 30.4885C19.8607 30.6987 20.0412 30.852 20.2524 30.9152C20.4637 30.9784 20.6887 30.9464 20.879 30.8262C21.0672 30.7026 21.2043 30.5016 21.2608 30.2664C21.3172 30.0312 21.2886 29.7807 21.181 29.5688C21.0703 29.3588 20.89 29.2058 20.679 29.1426C20.468 29.0794 20.2432 29.1112 20.053 29.231C19.8648 29.3546 19.7278 29.5557 19.6713 29.7909C19.6148 30.0261 19.6434 30.2766 19.751 30.4885H19.75Z" fill="#0A3B3C"/>
<path d="M29.94 37.9439C30.0509 38.154 30.2314 38.307 30.4427 38.37C30.6539 38.433 30.8789 38.4009 31.069 38.2806C31.2572 38.157 31.3943 37.9559 31.4508 37.7207C31.5072 37.4855 31.4786 37.235 31.371 37.0231C31.2601 36.8134 31.0798 36.6606 30.8688 36.5976C30.6578 36.5346 30.4331 36.5665 30.243 36.6865C30.0548 36.8101 29.9178 37.0112 29.8613 37.2463C29.8048 37.4815 29.8334 37.732 29.941 37.9439H29.94ZM27.238 32.7246C27.3487 32.9346 27.529 33.0877 27.74 33.1508C27.951 33.214 28.1758 33.1823 28.366 33.0624C28.5544 32.939 28.6917 32.738 28.7483 32.5028C28.805 32.2676 28.7765 32.017 28.669 31.805C28.5583 31.5947 28.3778 31.4415 28.1666 31.3783C27.9554 31.3151 27.7303 31.347 27.54 31.4672C27.3518 31.5908 27.2148 31.7919 27.1583 32.0271C27.1018 32.2623 27.1304 32.5128 27.238 32.7246ZM24.46 27.3605C24.5709 27.5702 24.7513 27.723 24.9622 27.786C25.1732 27.849 25.3979 27.817 25.588 27.6971C25.7762 27.5735 25.9133 27.3724 25.9698 27.1373C26.0262 26.9021 25.9976 26.6515 25.89 26.4397C25.7791 26.2299 25.5988 26.0771 25.3878 26.0141C25.1768 25.9511 24.9521 25.9831 24.762 26.103C24.344 26.4675 24.234 26.9257 24.46 27.3605ZM15.766 47.0648C15.8769 47.2746 16.0573 47.4274 16.2682 47.4904C16.4792 47.5534 16.7039 47.5214 16.894 47.4015C17.0824 47.2781 17.2197 47.0771 17.2763 46.8419C17.333 46.6067 17.3045 46.3561 17.197 46.1441C17.0863 45.9341 16.906 45.781 16.695 45.7179C16.484 45.6547 16.2592 45.6864 16.069 45.8063C15.8804 45.9297 15.7429 46.1309 15.6862 46.3664C15.6295 46.6018 15.6582 46.8527 15.766 47.0648ZM13.064 41.8456C13.1749 42.0553 13.3553 42.2081 13.5662 42.2711C13.7772 42.3341 14.0019 42.3022 14.192 42.1822C14.3804 42.0588 14.5177 41.8578 14.5743 41.6226C14.631 41.3874 14.6025 41.1368 14.495 40.9248C14.3841 40.7147 14.2036 40.5617 13.9924 40.4987C13.7811 40.4357 13.5562 40.4678 13.366 40.5881C13.1778 40.7117 13.0408 40.9128 12.9843 41.148C12.9278 41.3832 12.9564 41.6337 13.064 41.8456ZM14.08 37.6173C14.1909 37.8271 14.3713 37.9799 14.5822 38.0429C14.7932 38.1058 15.0179 38.0739 15.208 37.954C15.3962 37.8303 15.5333 37.6293 15.5898 37.3941C15.6462 37.1589 15.6176 36.9084 15.51 36.6965C15.3991 36.4868 15.2188 36.3339 15.0078 36.271C14.7968 36.208 14.5721 36.2399 14.382 36.3599C14.1938 36.4835 14.0568 36.6845 14.0003 36.9197C13.9438 37.1549 13.9724 37.4054 14.08 37.6173ZM16.756 42.9492C16.8667 43.1591 17.047 43.3122 17.258 43.3754C17.469 43.4385 17.6938 43.4068 17.884 43.2869C18.0725 43.1633 18.2097 42.9621 18.2662 42.7266C18.3227 42.4912 18.2939 42.2404 18.186 42.0284C18.0751 41.8186 17.8948 41.6658 17.6838 41.6028C17.4728 41.5399 17.2481 41.5718 17.058 41.6917C16.8698 41.8153 16.7328 42.0164 16.6763 42.2516C16.6198 42.4868 16.6484 42.7373 16.756 42.9492ZM20.447 44.0517C20.5579 44.2614 20.7383 44.4142 20.9492 44.4772C21.1602 44.5402 21.3849 44.5083 21.575 44.3883C21.7634 44.2649 21.9007 44.0639 21.9573 43.8287C22.014 43.5935 21.9855 43.3429 21.878 43.1309C21.7673 42.9209 21.587 42.7679 21.376 42.7047C21.165 42.6415 20.9402 42.6733 20.75 42.7931C20.5614 42.9165 20.4239 43.1177 20.3672 43.3532C20.3105 43.5887 20.3392 43.8395 20.447 44.0517ZM17.772 38.7187C17.8827 38.9286 18.063 39.0817 18.274 39.1449C18.485 39.208 18.7098 39.1763 18.9 39.0565C19.0885 38.9328 19.2257 38.7316 19.2822 38.4961C19.3387 38.2607 19.3099 38.0099 19.202 37.7979C19.0911 37.5881 18.9108 37.4353 18.6998 37.3723C18.4888 37.3094 18.2641 37.3413 18.074 37.4612C17.8858 37.5849 17.7488 37.7859 17.6923 38.0211C17.6358 38.2563 17.6644 38.5068 17.772 38.7187ZM15.07 33.5005C15.1809 33.7103 15.3613 33.8631 15.5722 33.9261C15.7832 33.989 16.0079 33.9571 16.198 33.8372C16.3862 33.7136 16.5233 33.5125 16.5798 33.2773C16.6362 33.0421 16.6076 32.7916 16.5 32.5797C16.3891 32.37 16.2088 32.2171 15.9978 32.1542C15.7868 32.0912 15.5621 32.1231 15.372 32.2431C15.1837 32.3665 15.0464 32.5675 14.9897 32.8027C14.933 33.0379 14.9615 33.2885 15.069 33.5005H15.07ZM43.418 15.2553C43.5287 15.4653 43.709 15.6183 43.92 15.6815C44.131 15.7447 44.3558 15.713 44.546 15.5931C44.7342 15.4695 44.8713 15.2684 44.9278 15.0333C44.9842 14.7981 44.9556 14.5475 44.848 14.3357C44.7373 14.1257 44.557 13.9727 44.346 13.9095C44.135 13.8463 43.9102 13.8781 43.72 13.9979C43.33 14.2487 43.09 14.7894 43.418 15.2553ZM33.925 21.3642C34.0359 21.5742 34.2164 21.7273 34.4277 21.7903C34.6389 21.8532 34.8639 21.8211 35.054 21.7008C35.2422 21.5772 35.3793 21.3762 35.4358 21.141C35.4922 20.9058 35.4636 20.6553 35.356 20.4434C35.2451 20.2336 35.0648 20.0808 34.8538 20.0179C34.6428 19.9549 34.4181 19.9868 34.228 20.1067C34.0397 20.2302 33.9024 20.4311 33.8457 20.6664C33.789 20.9016 33.8175 21.1522 33.925 21.3642ZM31.222 16.1449C31.3327 16.3549 31.513 16.5079 31.724 16.5711C31.935 16.6343 32.1598 16.6025 32.35 16.4827C32.5386 16.3592 32.6761 16.1581 32.7328 15.9226C32.7895 15.6871 32.7608 15.4362 32.653 15.2241C32.5421 15.0141 32.3616 14.861 32.1504 14.798C31.9391 14.7351 31.7142 14.7672 31.524 14.8875C31.3358 15.0111 31.1988 15.2121 31.1423 15.4473C31.0858 15.6825 31.1144 15.933 31.222 16.1449ZM38.607 18.351C38.7179 18.5608 38.8983 18.7136 39.1092 18.7766C39.3202 18.8395 39.5449 18.8076 39.735 18.6877C39.9234 18.5642 40.0607 18.3633 40.1173 18.1281C40.174 17.8929 40.1455 17.6422 40.038 17.4302C39.9271 17.2202 39.7466 17.0671 39.5354 17.0041C39.3241 16.9412 39.0992 16.9733 38.909 17.0936C38.7208 17.2172 38.5838 17.4182 38.5273 17.6534C38.4708 17.8886 38.4994 18.1391 38.607 18.351ZM34.915 17.2485C35.0257 17.4585 35.206 17.6115 35.417 17.6747C35.628 17.7379 35.8528 17.7061 36.043 17.5863C36.2314 17.4629 36.3687 17.2619 36.4253 17.0267C36.482 16.7915 36.4535 16.5409 36.346 16.3288C36.2353 16.1189 36.055 15.9658 35.844 15.9027C35.633 15.8395 35.4082 15.8712 35.218 15.9911C35.0297 16.1145 34.8924 16.3155 34.8357 16.5507C34.779 16.7859 34.8075 17.0365 34.915 17.2485Z" fill="#0A3B3C"/>
<path d="M43.4171 15.2554C43.5278 15.4654 43.7081 15.6184 43.9191 15.6816C44.13 15.7448 44.3549 15.713 44.5451 15.5932C44.7332 15.4696 44.8703 15.2685 44.9268 15.0333C44.9833 14.7981 44.9546 14.5476 44.8471 14.3357C44.7363 14.1258 44.5561 13.9727 44.3451 13.9095C44.1341 13.8464 43.9092 13.8781 43.7191 13.998C43.3291 14.2488 43.0891 14.7894 43.4171 15.2554ZM24.4581 27.3627C24.5689 27.5725 24.7493 27.7253 24.9603 27.7883C25.1713 27.8513 25.396 27.8193 25.5861 27.6994C25.7744 27.576 25.9117 27.375 25.9684 27.1398C26.025 26.9046 25.9966 26.654 25.8891 26.442C25.7782 26.2322 25.5978 26.0794 25.3868 26.0164C25.1759 25.9534 24.9511 25.9854 24.7611 26.1053C24.3431 26.4698 24.2331 26.928 24.4581 27.3627ZM21.7561 22.1435C21.8669 22.3532 22.0473 22.506 22.2583 22.569C22.4693 22.632 22.694 22.6001 22.8841 22.4801C23.0722 22.3565 23.2093 22.1555 23.2658 21.9203C23.3223 21.6851 23.2936 21.4346 23.1861 21.2227C23.0752 21.0129 22.8948 20.8601 22.6838 20.7971C22.4729 20.7342 22.2481 20.7661 22.0581 20.886C21.8699 21.0096 21.7328 21.2107 21.6763 21.4459C21.6198 21.6811 21.6485 21.9316 21.7561 22.1435ZM29.2421 24.3797C29.3529 24.5894 29.5333 24.7422 29.7443 24.8052C29.9553 24.8682 30.18 24.8363 30.3701 24.7163C30.5584 24.5929 30.6957 24.3919 30.7524 24.1567C30.809 23.9215 30.7806 23.6709 30.6731 23.4589C30.5622 23.2488 30.3816 23.0958 30.1704 23.0328C29.9592 22.9698 29.7342 23.0019 29.5441 23.1222C29.3559 23.2458 29.2188 23.4469 29.1623 23.6821C29.1058 23.9173 29.1345 24.1678 29.2421 24.3797ZM26.4371 19.1303C26.548 19.3403 26.7285 19.4934 26.9397 19.5564C27.1509 19.6193 27.3759 19.5872 27.5661 19.4669C27.7542 19.3433 27.8913 19.1423 27.9478 18.9071C28.0043 18.6719 27.9756 18.4214 27.8681 18.2095C27.7572 17.9997 27.5768 17.8469 27.3658 17.784C27.1549 17.721 26.9301 17.7529 26.7401 17.8728C26.5517 17.9963 26.4144 18.1972 26.3577 18.4324C26.3011 18.6677 26.3295 18.9183 26.4371 19.1303ZM22.7451 18.0256C22.8558 18.2355 23.0361 18.3886 23.2471 18.4518C23.458 18.5149 23.6829 18.4832 23.8731 18.3633C24.0612 18.2397 24.1983 18.0387 24.2548 17.8035C24.3113 17.5683 24.2826 17.3178 24.1751 17.1059C24.0642 16.8961 23.8838 16.7433 23.6728 16.6803C23.4619 16.6174 23.2371 16.6493 23.0471 16.7692C22.8589 16.8929 22.7218 17.0939 22.6653 17.3291C22.6088 17.5643 22.6375 17.8148 22.7451 18.0267V18.0256ZM25.4481 23.2448C25.5588 23.4548 25.7391 23.6079 25.9501 23.671C26.161 23.7342 26.3859 23.7025 26.5761 23.5826C26.7645 23.459 26.9018 23.2577 26.9583 23.0223C27.0148 22.7868 26.986 22.536 26.8781 22.3241C26.7672 22.1143 26.5868 21.9615 26.3758 21.8985C26.1649 21.8355 25.9401 21.8675 25.7501 21.9874C25.5619 22.111 25.4248 22.3121 25.3683 22.5473C25.3118 22.7824 25.3405 23.033 25.4481 23.2448ZM27.4261 15.0157C27.5369 15.2255 27.7173 15.3783 27.9283 15.4413C28.1393 15.5042 28.364 15.4723 28.5541 15.3524C28.7422 15.2288 28.8793 15.0277 28.9358 14.7925C28.9923 14.5573 28.9636 14.3068 28.8561 14.0949C28.7453 13.885 28.5651 13.7319 28.3541 13.6688C28.1431 13.6056 27.9182 13.6373 27.7281 13.7572C27.5396 13.8808 27.4023 14.082 27.3458 14.3175C27.2893 14.553 27.3182 14.8037 27.4261 15.0157ZM30.2321 20.2651C30.3429 20.4749 30.5233 20.6277 30.7343 20.6907C30.9453 20.7536 31.17 20.7217 31.3601 20.6018C31.5482 20.4781 31.6853 20.2771 31.7418 20.0419C31.7983 19.8067 31.7696 19.5562 31.6621 19.3443C31.5513 19.1344 31.371 18.9813 31.1601 18.9181C30.9491 18.855 30.7242 18.8867 30.5341 19.0065C30.3456 19.1302 30.2083 19.3314 30.1518 19.5669C30.0953 19.8023 30.1242 20.0531 30.2321 20.2651ZM19.0521 16.922C19.1628 17.1319 19.3431 17.285 19.5541 17.3481C19.765 17.4113 19.9899 17.3796 20.1801 17.2597C20.3684 17.1363 20.5057 16.9353 20.5624 16.7001C20.619 16.4649 20.5906 16.2143 20.4831 16.0023C20.3723 15.7923 20.1921 15.6393 19.9811 15.5761C19.7701 15.5129 19.5452 15.5447 19.3551 15.6645C19.1665 15.788 19.029 15.9891 18.9723 16.2246C18.9156 16.4601 18.9442 16.711 19.0521 16.9231V16.922ZM33.9251 21.3665C34.0359 21.5762 34.2163 21.7291 34.4273 21.792C34.6383 21.855 34.863 21.8231 35.0531 21.7031C35.2412 21.5795 35.3783 21.3785 35.4348 21.1433C35.4913 20.9081 35.4626 20.6576 35.3551 20.4457C35.2442 20.2359 35.0638 20.0831 34.8528 20.0201C34.6419 19.9572 34.4171 19.9891 34.2271 20.109C34.0389 20.2327 33.9018 20.4337 33.8453 20.6689C33.7888 20.9041 33.8175 21.1546 33.9251 21.3665ZM31.2221 16.1472C31.3328 16.3572 31.5131 16.5102 31.7241 16.5734C31.935 16.6366 32.1599 16.6048 32.3501 16.485C32.5385 16.3614 32.6758 16.1601 32.7323 15.9246C32.7888 15.6892 32.76 15.4384 32.6521 15.2264C32.5412 15.0167 32.3608 14.8638 32.1498 14.8009C31.9389 14.7379 31.7141 14.7698 31.5241 14.8898C31.3359 15.0134 31.1988 15.2144 31.1423 15.4496C31.0858 15.6848 31.1145 15.9353 31.2221 16.1472ZM15.0681 33.5006C15.1789 33.7103 15.3593 33.8632 15.5703 33.9261C15.7813 33.9891 16.006 33.9572 16.1961 33.8372C16.3844 33.7138 16.5217 33.5128 16.5784 33.2776C16.635 33.0424 16.6066 32.7918 16.4991 32.5798C16.3882 32.37 16.2078 32.2172 15.9968 32.1542C15.7859 32.0913 15.5611 32.1232 15.3711 32.2431C15.1827 32.3666 15.0454 32.5675 14.9887 32.8027C14.9321 33.038 14.9605 33.2886 15.0681 33.5006ZM19.7501 30.4874C19.8609 30.6972 20.0413 30.85 20.2523 30.913C20.4633 30.9759 20.688 30.944 20.8781 30.8241C21.0662 30.7004 21.2033 30.4994 21.2598 30.2642C21.3163 30.029 21.2876 29.7785 21.1801 29.5666C21.0693 29.3567 20.8891 29.2036 20.6781 29.1404C20.4671 29.0772 20.2422 29.109 20.0521 29.2288C19.8636 29.3525 19.7263 29.5537 19.6698 29.7892C19.6133 30.0246 19.6422 30.2754 19.7501 30.4874ZM17.0751 25.1544C17.1858 25.3644 17.3661 25.5174 17.5771 25.5806C17.788 25.6438 18.0129 25.612 18.2031 25.4922C18.3915 25.3686 18.5288 25.1673 18.5853 24.9319C18.6418 24.6964 18.613 24.4456 18.5051 24.2336C18.3942 24.0239 18.2138 23.8711 18.0028 23.8081C17.7919 23.7451 17.5671 23.777 17.3771 23.897C16.9601 24.2626 16.8501 24.7197 17.0751 25.1544ZM13.2801 24.0207C13.3909 24.2305 13.5713 24.3833 13.7823 24.4463C13.9933 24.5092 14.218 24.4773 14.4081 24.3574C14.5962 24.2338 14.7333 24.0327 14.7898 23.7975C14.8463 23.5623 14.8176 23.3118 14.7101 23.0999C14.5993 22.89 14.4191 22.7369 14.2081 22.6737C13.9971 22.6106 13.7722 22.6423 13.5821 22.7622C13.1641 23.1278 13.0541 23.586 13.2791 24.0207H13.2801ZM16.0581 29.3849C16.1688 29.5949 16.3491 29.7479 16.5601 29.8111C16.771 29.8743 16.9959 29.8425 17.1861 29.7227C17.3745 29.5991 17.5118 29.3978 17.5683 29.1623C17.6248 28.9269 17.596 28.6761 17.4881 28.4641C17.3772 28.2544 17.1968 28.1015 16.9858 28.0386C16.7749 27.9756 16.5501 28.0075 16.3601 28.1275C16.1719 28.2511 16.0348 28.4521 15.9783 28.6873C15.9218 28.9225 15.9505 29.173 16.0581 29.3849ZM18.0631 21.0399C18.174 21.2499 18.3545 21.403 18.5657 21.4659C18.7769 21.5289 19.0019 21.4968 19.1921 21.3765C19.3802 21.2529 19.5173 21.0519 19.5738 20.8167C19.6303 20.5815 19.6016 20.331 19.4941 20.1191C19.3832 19.9093 19.2028 19.7565 18.9918 19.6935C18.7809 19.6306 18.5561 19.6625 18.3661 19.7824C18.1777 19.9058 18.0404 20.1068 17.9837 20.342C17.9271 20.5772 17.9555 20.8278 18.0631 21.0399ZM20.7671 26.2569C20.8779 26.4667 21.0583 26.6195 21.2693 26.6825C21.4803 26.7454 21.705 26.7135 21.8951 26.5936C22.0832 26.47 22.2203 26.2689 22.2768 26.0337C22.3333 25.7985 22.3046 25.548 22.1971 25.3361C22.0863 25.1262 21.906 24.9731 21.6951 24.9099C21.4841 24.8468 21.2592 24.8785 21.0691 24.9984C20.6511 25.364 20.5421 25.821 20.7671 26.2569ZM14.2681 19.9073C14.3789 20.117 14.5593 20.2699 14.7703 20.3328C14.9813 20.3958 15.206 20.3639 15.3961 20.2439C15.5842 20.1203 15.7213 19.9193 15.7778 19.6841C15.8343 19.4489 15.8056 19.1984 15.6981 18.9865C15.5872 18.7767 15.4068 18.6239 15.1958 18.5609C14.9849 18.498 14.7601 18.5299 14.5701 18.6498C14.3819 18.7734 14.2448 18.9745 14.1883 19.2097C14.1318 19.4449 14.1605 19.6954 14.2681 19.9073Z" fill="#0A3B3C"/>
<path d="M24.4601 27.3604C24.5709 27.5699 24.7511 27.7225 24.9619 27.7854C25.1726 27.8484 25.3971 27.8166 25.5871 27.6971C25.7754 27.5736 25.9127 27.3727 25.9694 27.1374C26.0261 26.9022 25.9976 26.6516 25.8901 26.4396C25.7792 26.2299 25.5988 26.077 25.3878 26.0141C25.1769 25.9511 24.9521 25.983 24.7621 26.103C24.3441 26.4675 24.2341 26.9256 24.4591 27.3604H24.4601ZM21.7561 22.1411C21.867 22.3509 22.0473 22.5037 22.2583 22.5667C22.4693 22.6296 22.694 22.5977 22.8841 22.4778C23.0722 22.3542 23.2093 22.1531 23.2658 21.9179C23.3223 21.6827 23.2937 21.4322 23.1861 21.2203C23.0752 21.0106 22.8948 20.8578 22.6838 20.7948C22.4729 20.7318 22.2481 20.7637 22.0581 20.8837C21.8699 21.0073 21.7328 21.2083 21.6763 21.4435C21.6198 21.6787 21.6485 21.9292 21.7561 22.1411ZM19.0541 16.9218C19.1648 17.1318 19.3451 17.2848 19.5561 17.348C19.7671 17.4112 19.9919 17.3795 20.1821 17.2596C20.3702 17.136 20.5073 16.9349 20.5638 16.6998C20.6203 16.4646 20.5917 16.2141 20.4841 16.0022C20.3733 15.7922 20.1931 15.6392 19.9821 15.576C19.7711 15.5128 19.5463 15.5446 19.3561 15.6644C19.1676 15.788 19.0304 15.9893 18.9739 16.2247C18.9174 16.4602 18.9462 16.711 19.0541 16.923V16.9218Z" fill="#0A3B3C"/>
<path d="M19.053 16.9218C19.1637 17.1318 19.344 17.2848 19.555 17.348C19.766 17.4112 19.9908 17.3795 20.181 17.2596C20.3691 17.136 20.5062 16.9349 20.5627 16.6998C20.6192 16.4646 20.5906 16.2141 20.483 16.0022C20.3722 15.7922 20.192 15.6392 19.981 15.576C19.77 15.5128 19.5452 15.5446 19.355 15.6644C19.1665 15.788 19.0293 15.9893 18.9728 16.2247C18.9163 16.4602 18.9451 16.711 19.053 16.923V16.9218Z" fill="#0A3B3C"/>
<mask id="mask1" style="mask-type:alpha" maskUnits="userSpaceOnUse" x="16" y="37" width="33" height="34">
<path d="M42.543 42.3339C44.837 43.0184 46.509 44.5824 47.588 46.9133C48.348 48.4405 48.523 50.2665 48.498 52.5049C48.206 55.8458 46.97 58.4321 44.561 60.7853C42.544 62.7841 40.198 64.4473 37.252 66.0503C34.306 67.6522 31.127 68.9487 27.592 70.0199C27.496 69.9921 27.496 69.9921 27.469 70.1024C27.374 70.0734 27.374 70.0734 27.305 69.9352C24.092 66.2565 22.111 63.4184 20.347 60.5267C19.12 58.3875 17.782 55.8603 16.862 52.8672C16.124 50.4003 16.08 48.0236 16.568 45.5678C17.056 43.1131 18.308 40.8858 20.271 39.1089C22.061 37.6341 24.019 37.1548 26.174 37.5628L26.939 37.7913C28.659 38.3041 29.987 39.1736 31.017 40.4277C31.649 41.208 32.063 42.0407 32.382 42.8445L32.452 42.9838L33.607 45.2033L35.44 43.7586C37.377 42.0909 39.554 41.5591 42.16 42.2202L42.543 42.3339Z" fill="#C4C4C4"/>
</mask>
<g mask="url(#mask1)">
<path d="M46.579 51.4881C46.6897 51.6981 46.87 51.8511 47.081 51.9143C47.292 51.9775 47.5168 51.9457 47.707 51.8259C47.8956 51.7025 48.0331 51.5013 48.0898 51.2658C48.1465 51.0303 48.1178 50.7795 48.01 50.5673C47.8991 50.3573 47.7185 50.2042 47.5073 50.1413C47.2961 50.0783 47.0711 50.1104 46.881 50.2307C46.6928 50.3543 46.5557 50.5553 46.4992 50.7905C46.4428 51.0257 46.4714 51.2762 46.579 51.4881ZM42.887 50.3845C42.9979 50.5943 43.1782 50.7471 43.3892 50.8101C43.6002 50.873 43.8249 50.8411 44.015 50.7212C44.2031 50.5976 44.3402 50.3965 44.3967 50.1613C44.4532 49.9261 44.4246 49.6756 44.317 49.4637C44.2061 49.254 44.0257 49.1012 43.8148 49.0382C43.6038 48.9752 43.3791 49.0071 43.189 49.1271C43.0008 49.2507 42.8637 49.4517 42.8072 49.6869C42.7508 49.9221 42.7794 50.1726 42.887 50.3845ZM38.206 53.3977C38.3169 53.6075 38.4972 53.7603 38.7082 53.8232C38.9192 53.8862 39.1439 53.8543 39.334 53.7344C39.5223 53.6109 39.6596 53.41 39.7163 53.1748C39.773 52.9395 39.7445 52.6889 39.637 52.4769C39.5261 52.2669 39.3456 52.1138 39.1343 52.0508C38.9231 51.9879 38.6981 52.02 38.508 52.1403C38.3198 52.2639 38.1827 52.4649 38.1262 52.7001C38.0698 52.9353 38.0984 53.1858 38.206 53.3977Z" fill="#0A3B3C"/>
<path d="M42.887 50.387C42.9979 50.597 43.1784 50.7501 43.3897 50.813C43.6009 50.876 43.8258 50.8439 44.016 50.7236C44.2042 50.6 44.3413 50.399 44.3977 50.1638C44.4542 49.9286 44.4256 49.6781 44.318 49.4662C44.2071 49.2564 44.0268 49.1036 43.8158 49.0406C43.6048 48.9777 43.3801 49.0096 43.19 49.1295C43.0017 49.2529 42.8644 49.4539 42.8077 49.6891C42.751 49.9243 42.7795 50.1749 42.887 50.387Z" fill="#0A3B3C"/>
<path d="M42.886 50.3846C42.9969 50.5944 43.1773 50.7472 43.3882 50.8102C43.5992 50.8732 43.8239 50.8412 44.014 50.7213C44.2024 50.5979 44.3397 50.3969 44.3963 50.1617C44.453 49.9265 44.4245 49.6759 44.317 49.4639C44.2061 49.2538 44.0256 49.1008 43.8144 49.0378C43.6032 48.9748 43.3782 49.0069 43.188 49.1272C42.9999 49.2508 42.8628 49.4519 42.8063 49.687C42.7498 49.9222 42.7784 50.1728 42.886 50.3846ZM40.183 45.1654C40.2937 45.3753 40.474 45.5284 40.685 45.5915C40.896 45.6547 41.1208 45.623 41.311 45.5031C41.4992 45.3795 41.6363 45.1785 41.6928 44.9433C41.7492 44.7081 41.7206 44.4576 41.613 44.2457C41.5023 44.0357 41.322 43.8827 41.111 43.8195C40.9 43.7563 40.6752 43.7881 40.485 43.9079C40.2969 44.0315 40.1598 44.2326 40.1033 44.4678C40.0468 44.703 40.0754 44.9535 40.183 45.1654ZM44.893 42.0396C45.0039 42.2494 45.1843 42.4022 45.3952 42.4651C45.6062 42.5281 45.8309 42.4962 46.021 42.3762C46.2092 42.2526 46.3463 42.0516 46.4028 41.8164C46.4592 41.5812 46.4306 41.3307 46.323 41.1188C46.2121 40.909 46.0318 40.7562 45.8208 40.6933C45.6098 40.6303 45.3851 40.6622 45.195 40.7821C45.0069 40.9058 44.8698 41.1068 44.8133 41.342C44.7568 41.5772 44.7854 41.8277 44.893 42.0396ZM41.2 40.9349C41.3107 41.1448 41.491 41.2979 41.702 41.3611C41.913 41.4242 42.1378 41.3925 42.328 41.2726C42.5162 41.149 42.6533 40.948 42.7098 40.7128C42.7662 40.4776 42.7376 40.2271 42.63 40.0152C42.5193 39.8052 42.339 39.6522 42.128 39.589C41.917 39.5258 41.6922 39.5576 41.502 39.6774C41.3139 39.801 41.1768 40.0021 41.1203 40.2373C41.0638 40.4725 41.0924 40.723 41.2 40.9349ZM43.876 46.2701C43.9869 46.4798 44.1673 46.6327 44.3782 46.6956C44.5892 46.7586 44.8139 46.7267 45.004 46.6067C45.1922 46.4831 45.3293 46.2821 45.3858 46.0469C45.4422 45.8117 45.4136 45.5612 45.306 45.3493C45.1951 45.1395 45.0148 44.9867 44.8038 44.9237C44.5928 44.8608 44.3681 44.8927 44.178 45.0126C43.9899 45.1363 43.8528 45.3373 43.7963 45.5725C43.7398 45.8077 43.7684 46.0582 43.876 46.2701ZM45.881 37.9239C45.9917 38.1339 46.172 38.2869 46.383 38.3501C46.594 38.4133 46.8188 38.3815 47.009 38.2617C47.1976 38.1383 47.3351 37.9371 47.3918 37.7016C47.4485 37.4661 47.4198 37.2153 47.312 37.0031C47.2011 36.7934 47.0208 36.6406 46.8098 36.5776C46.5988 36.5146 46.3741 36.5465 46.184 36.6665C45.9957 36.7899 45.8584 36.9909 45.8017 37.2261C45.745 37.4613 45.7735 37.7119 45.881 37.9239ZM37.507 39.8324C37.6177 40.0423 37.798 40.1954 38.009 40.2586C38.22 40.3217 38.4448 40.29 38.635 40.1701C38.8236 40.0467 38.9611 39.8455 39.0178 39.6101C39.0745 39.3746 39.0458 39.1237 38.938 38.9116C38.8271 38.7015 38.6466 38.5485 38.4354 38.4855C38.2241 38.4225 37.9992 38.4546 37.809 38.5749C37.419 38.8258 37.179 39.3664 37.507 39.8324ZM42.189 36.8203C42.2999 37.0301 42.4803 37.1829 42.6912 37.2459C42.9022 37.3088 43.1269 37.2769 43.317 37.157C43.5052 37.0334 43.6423 36.8323 43.6988 36.5971C43.7552 36.3619 43.7266 36.1114 43.619 35.8995C43.5081 35.6898 43.3278 35.5369 43.1168 35.474C42.9058 35.411 42.6811 35.4429 42.491 35.5629C42.3029 35.6865 42.1658 35.8875 42.1093 36.1227C42.0528 36.3579 42.0814 36.6084 42.189 36.8203ZM30.72 51.1616C30.8307 51.3719 31.0112 51.5251 31.2224 51.5883C31.4337 51.6515 31.6587 51.6196 31.849 51.4994C32.0375 51.3758 32.1747 51.1745 32.2312 50.9391C32.2877 50.7036 32.2589 50.4528 32.151 50.2408C32.0401 50.0311 31.8598 49.8783 31.6488 49.8153C31.4378 49.7523 31.2131 49.7842 31.023 49.9042C30.8347 50.0276 30.6974 50.2286 30.6407 50.4638C30.584 50.699 30.6125 50.9496 30.72 51.1616ZM38.207 53.3978C38.3179 53.6076 38.4983 53.7604 38.7092 53.8234C38.9202 53.8863 39.1449 53.8544 39.335 53.7345C39.5232 53.6109 39.6603 53.4098 39.7168 53.1746C39.7732 52.9394 39.7446 52.6889 39.637 52.477C39.5261 52.2673 39.3458 52.1144 39.1348 52.0515C38.9238 51.9885 38.6991 52.0204 38.509 52.1404C38.3209 52.264 38.1838 52.465 38.1273 52.7002C38.0708 52.9354 38.0994 53.1859 38.207 53.3978ZM35.504 48.1797C35.6147 48.3896 35.795 48.5427 36.006 48.6058C36.217 48.669 36.4418 48.6373 36.632 48.5174C36.8204 48.394 36.9577 48.193 37.0143 47.9578C37.071 47.7226 37.0425 47.472 36.935 47.26C36.8243 47.0497 36.6438 46.8965 36.4326 46.8333C36.2214 46.7701 35.9963 46.802 35.806 46.9222C35.314 47.1429 35.176 47.7148 35.504 48.1808V48.1797ZM31.71 47.0448C31.8209 47.2543 32.0011 47.4069 32.2118 47.4699C32.4226 47.5328 32.647 47.5011 32.837 47.3815C33.0254 47.2581 33.1627 47.0571 33.2193 46.8219C33.276 46.5867 33.2475 46.3361 33.14 46.124C33.0291 45.914 32.8486 45.761 32.6374 45.698C32.4261 45.635 32.2012 45.6671 32.011 45.7874C31.8229 45.911 31.6858 46.1121 31.6293 46.3472C31.5728 46.5824 31.6014 46.8329 31.709 47.0448H31.71ZM34.514 52.2953C34.6249 52.5051 34.8053 52.6579 35.0162 52.7209C35.2272 52.7838 35.4519 52.7519 35.642 52.632C35.8304 52.5086 35.9677 52.3076 36.0243 52.0724C36.081 51.8372 36.0525 51.5866 35.945 51.3745C35.8341 51.1648 35.6538 51.012 35.4428 50.949C35.2318 50.886 35.0071 50.9179 34.817 51.0379C34.324 51.2586 34.187 51.8294 34.514 52.2953ZM36.494 44.0629C36.6047 44.2728 36.785 44.4259 36.996 44.4891C37.207 44.5522 37.4318 44.5205 37.622 44.4006C37.8105 44.277 37.9477 44.0758 38.0042 43.8403C38.0607 43.6048 38.0319 43.3541 37.924 43.1421C37.8131 42.9323 37.6328 42.7795 37.4218 42.7165C37.2108 42.6536 36.9861 42.6855 36.796 42.8054C36.303 43.0261 36.166 43.5969 36.494 44.0629ZM39.196 49.2833C39.3069 49.4933 39.4875 49.6464 39.6987 49.7093C39.9099 49.7723 40.1349 49.7402 40.325 49.6199C40.5132 49.4963 40.6503 49.2953 40.7068 49.0601C40.7632 48.8249 40.7346 48.5744 40.627 48.3625C40.5161 48.1524 40.3356 47.9994 40.1244 47.9364C39.9131 47.8734 39.6882 47.9055 39.498 48.0258C39.3099 48.1494 39.1728 48.3505 39.1163 48.5857C39.0598 48.8209 39.0884 49.0714 39.196 49.2833ZM28.017 45.9435C28.1279 46.1532 28.3083 46.306 28.5192 46.369C28.7302 46.432 28.9549 46.4 29.145 46.2801C29.3332 46.1565 29.4703 45.9554 29.5268 45.7203C29.5832 45.4851 29.5546 45.2346 29.447 45.0227C29.3361 44.8129 29.1558 44.6601 28.9448 44.5971C28.7338 44.5342 28.5091 44.5661 28.319 44.686C28.1309 44.8096 27.9938 45.0107 27.9373 45.2459C27.8808 45.4811 27.9094 45.7316 28.017 45.9435ZM32.698 42.9325C32.8089 43.1423 32.9893 43.2951 33.2002 43.3581C33.4112 43.421 33.6359 43.3891 33.826 43.2692C34.0144 43.1457 34.1517 42.9448 34.2083 42.7096C34.265 42.4743 34.2365 42.2237 34.129 42.0117C34.0183 41.8018 33.838 41.6487 33.627 41.5855C33.416 41.5224 33.1912 41.5541 33.001 41.6739C32.8124 41.7974 32.6749 41.9986 32.6182 42.234C32.5615 42.4695 32.5902 42.7204 32.698 42.9325Z" fill="#0A3B3C"/>
<path d="M42.89 50.387C43.0009 50.5967 43.1812 50.7496 43.3922 50.8125C43.6032 50.8755 43.8279 50.8436 44.018 50.7236C44.2061 50.6 44.3432 50.399 44.3997 50.1638C44.4562 49.9286 44.4276 49.6781 44.32 49.4662C44.2091 49.2564 44.0287 49.1036 43.8177 49.0406C43.6068 48.9777 43.382 49.0096 43.192 49.1295C43.0038 49.2531 42.8667 49.4542 42.8102 49.6894C42.7537 49.9246 42.7824 50.1751 42.89 50.387ZM40.185 45.1677C40.2957 45.378 40.4762 45.5312 40.6874 45.5944C40.8986 45.6576 41.1237 45.6257 41.314 45.5055C41.5021 45.3819 41.6392 45.1808 41.6957 44.9456C41.7522 44.7104 41.7236 44.4599 41.616 44.248C41.5052 44.0381 41.325 43.885 41.114 43.8218C40.903 43.7587 40.6782 43.7904 40.488 43.9103C40.2996 44.0337 40.1623 44.2347 40.1057 44.4699C40.049 44.7051 40.0775 44.9557 40.185 45.1677ZM37.51 39.8347C37.6209 40.0445 37.8012 40.1973 38.0122 40.2603C38.2232 40.3232 38.4479 40.2913 38.638 40.1714C38.8261 40.0478 38.9632 39.8467 39.0197 39.6115C39.0762 39.3763 39.0476 39.1258 38.94 38.9139C38.8291 38.7042 38.6487 38.5513 38.4377 38.4884C38.2268 38.4254 38.002 38.4573 37.812 38.5773C37.422 38.8281 37.182 39.3688 37.51 39.8347ZM26.038 54.176C26.1489 54.3858 26.3292 54.5386 26.5402 54.6016C26.7512 54.6645 26.9759 54.6326 27.166 54.5127C27.3543 54.3893 27.4916 54.1883 27.5483 53.9531C27.605 53.7179 27.5765 53.4673 27.469 53.2552C27.3582 53.0453 27.178 52.8922 26.967 52.8291C26.756 52.7659 26.5312 52.7976 26.341 52.9175C25.923 53.2831 25.813 53.7402 26.038 54.176ZM22.345 53.0713C22.4557 53.2813 22.636 53.4343 22.847 53.4975C23.058 53.5607 23.2828 53.5289 23.473 53.4091C23.6616 53.2856 23.7991 53.0845 23.8558 52.849C23.9124 52.6135 23.8838 52.3626 23.776 52.1505C23.6651 51.9405 23.4845 51.7874 23.2733 51.7244C23.0621 51.6615 22.8371 51.6936 22.647 51.8139C22.23 52.1795 22.12 52.6366 22.345 53.0713ZM27.027 50.0604C27.1379 50.2701 27.3182 50.4229 27.5292 50.4859C27.7402 50.5489 27.9649 50.517 28.155 50.397C28.3431 50.2734 28.4802 50.0723 28.5367 49.8372C28.5932 49.602 28.5646 49.3515 28.457 49.1396C28.3461 48.9298 28.1657 48.777 27.9547 48.714C27.7438 48.6511 27.519 48.683 27.329 48.8029C27.1408 48.9265 27.0037 49.1276 26.9472 49.3628C26.8907 49.598 26.9194 49.8485 27.027 50.0604ZM18.55 51.9365C18.6607 52.1464 18.841 52.2995 19.052 52.3627C19.263 52.4259 19.4878 52.3941 19.678 52.2743C19.8663 52.1508 20.0036 51.9499 20.0603 51.7147C20.117 51.4794 20.0885 51.2288 19.981 51.0168C19.8702 50.8066 19.6898 50.6533 19.4785 50.5901C19.2673 50.5269 19.0423 50.5589 18.852 50.679C18.435 51.0447 18.325 51.5017 18.55 51.9376V51.9365ZM23.334 48.9568C23.4449 49.1665 23.6252 49.3193 23.8362 49.3823C24.0472 49.4453 24.2719 49.4133 24.462 49.2934C24.6503 49.17 24.7876 48.969 24.8443 48.7338C24.901 48.4986 24.8725 48.248 24.765 48.036C24.6541 47.8262 24.4737 47.6734 24.2627 47.6104C24.0518 47.5474 23.827 47.5794 23.637 47.6993C23.4486 47.8227 23.3113 48.0237 23.2547 48.2589C23.198 48.4941 23.2265 48.7447 23.334 48.9568ZM30.72 51.1617C30.8307 51.3714 31.0108 51.5242 31.2215 51.5874C31.4323 51.6506 31.6569 51.619 31.847 51.4995C32.0356 51.3761 32.1731 51.1749 32.2298 50.9394C32.2864 50.7039 32.2578 50.4531 32.15 50.2409C32.0391 50.0312 31.8587 49.8784 31.6477 49.8154C31.4368 49.7524 31.212 49.7844 31.022 49.9043C30.8336 50.0277 30.6963 50.2287 30.6397 50.4639C30.583 50.6991 30.6115 50.9497 30.719 51.1617H30.72ZM28.017 45.9436C28.1279 46.1533 28.3082 46.3062 28.5192 46.3691C28.7302 46.4321 28.9549 46.4002 29.145 46.2802C29.3331 46.1566 29.4702 45.9556 29.5267 45.7204C29.5832 45.4852 29.5546 45.2347 29.447 45.0228C29.3361 44.813 29.1557 44.6602 28.9447 44.5972C28.7338 44.5343 28.509 44.5662 28.319 44.6861C28.1308 44.8097 27.9937 45.0108 27.9372 45.246C27.8807 45.4812 27.9094 45.7317 28.017 45.9436Z" fill="#0A3B3C"/>
<path d="M18.551 51.9397C18.6619 52.1495 18.8423 52.3023 19.0533 52.3653C19.2642 52.4282 19.489 52.3963 19.679 52.2764C19.8674 52.1529 20.0047 51.952 20.0613 51.7168C20.118 51.4816 20.0895 51.2309 19.982 51.0189C19.8713 50.809 19.691 50.6559 19.48 50.5927C19.269 50.5296 19.0442 50.5613 18.854 50.6812C18.436 51.0468 18.326 51.505 18.551 51.9397ZM37.51 39.8346C37.6209 40.0444 37.8013 40.1972 38.0123 40.2602C38.2232 40.3231 38.448 40.2912 38.638 40.1713C38.8262 40.0476 38.9633 39.8466 39.0198 39.6114C39.0763 39.3762 39.0476 39.1257 38.94 38.9138C38.8291 38.7041 38.6488 38.5512 38.4378 38.4883C38.2268 38.4253 38.0021 38.4572 37.812 38.5772C37.422 38.828 37.182 39.3686 37.51 39.8346ZM42.19 36.8203C42.3009 37.0304 42.4815 37.1834 42.6927 37.2464C42.9039 37.3094 43.1289 37.2773 43.319 37.157C43.5072 37.0334 43.6443 36.8323 43.7008 36.5971C43.7573 36.3619 43.7286 36.1114 43.621 35.8995C43.5101 35.6898 43.3298 35.5369 43.1188 35.474C42.9078 35.411 42.6831 35.4429 42.493 35.5629C42.3049 35.6865 42.1678 35.8875 42.1113 36.1227C42.0548 36.3579 42.0834 36.6084 42.191 36.8203H42.19ZM28.017 45.9435C28.1279 46.1532 28.3083 46.306 28.5193 46.369C28.7302 46.432 28.955 46.4001 29.145 46.2801C29.3334 46.1567 29.4707 45.9557 29.5273 45.7205C29.584 45.4853 29.5555 45.2347 29.448 45.0227C29.3371 44.8129 29.1568 44.6601 28.9458 44.5971C28.7348 44.5342 28.5101 44.5661 28.32 44.686C28.1317 44.8094 27.9944 45.0104 27.9377 45.2456C27.881 45.4808 27.9095 45.7314 28.017 45.9435ZM25.314 40.7242C25.4249 40.9339 25.6053 41.0868 25.8163 41.1497C26.0272 41.2127 26.252 41.1808 26.442 41.0608C26.6302 40.9372 26.7673 40.7362 26.8238 40.501C26.8803 40.2658 26.8516 40.0153 26.744 39.8034C26.6331 39.5936 26.4528 39.4408 26.2418 39.3778C26.0308 39.3149 25.8061 39.3468 25.616 39.4667C25.4279 39.5904 25.2908 39.7914 25.2343 40.0266C25.1778 40.2618 25.2064 40.5123 25.314 40.7242ZM32.699 42.9292C32.8098 43.1391 32.99 43.2922 33.201 43.3554C33.412 43.4185 33.6368 43.3868 33.827 43.2669C34.0152 43.1433 34.1523 42.9423 34.2088 42.7071C34.2653 42.4719 34.2366 42.2214 34.129 42.0095C34.0183 41.7995 33.838 41.6465 33.627 41.5833C33.416 41.5201 33.1912 41.5519 33.001 41.6717C32.8126 41.7953 32.6753 41.9966 32.6188 42.2321C32.5623 42.4675 32.5911 42.7183 32.699 42.9303V42.9292ZM30.024 37.5973C30.1348 37.8072 30.315 37.9603 30.526 38.0235C30.737 38.0867 30.9618 38.0549 31.152 37.9351C31.3405 37.8114 31.4777 37.6102 31.5342 37.3747C31.5907 37.1393 31.5619 36.8885 31.454 36.6765C31.3431 36.4667 31.1628 36.3139 30.9518 36.251C30.7408 36.188 30.5161 36.2199 30.326 36.3399C30.1379 36.4635 30.0008 36.6645 29.9443 36.8997C29.8878 37.1349 29.9164 37.3854 30.024 37.5973ZM29.007 41.8278C29.1178 42.0377 29.298 42.1908 29.509 42.254C29.72 42.3172 29.9448 42.2854 30.135 42.1656C30.3235 42.0419 30.4607 41.8407 30.5172 41.6052C30.5737 41.3698 30.5449 41.119 30.437 40.907C30.3261 40.6972 30.1458 40.5444 29.9348 40.4815C29.7238 40.4185 29.4991 40.4504 29.309 40.5703C29.1209 40.694 28.9838 40.895 28.9273 41.1302C28.8708 41.3654 28.8994 41.6159 29.007 41.8278ZM33.716 38.6998C33.8269 38.9095 34.0073 39.0624 34.2183 39.1253C34.4292 39.1883 34.654 39.1564 34.844 39.0364C35.0322 38.9128 35.1693 38.7118 35.2258 38.4766C35.2823 38.2414 35.2536 37.9909 35.146 37.779C35.0353 37.569 34.855 37.416 34.644 37.3528C34.433 37.2896 34.2082 37.3214 34.018 37.4412C33.8296 37.5649 33.6923 37.7661 33.6358 38.0016C33.5793 38.237 33.6081 38.4878 33.716 38.6998Z" fill="#0A3B3C"/>
<path d="M37.509 39.8346C37.6199 40.0444 37.8002 40.1972 38.0112 40.2602C38.2222 40.3231 38.4469 40.2912 38.637 40.1713C38.8252 40.0477 38.9622 39.8466 39.0187 39.6114C39.0752 39.3762 39.0466 39.1257 38.939 38.9138C38.8281 38.7041 38.6477 38.5513 38.4368 38.4883C38.2258 38.4253 38.0011 38.4572 37.811 38.5772C37.421 38.828 37.181 39.3687 37.509 39.8346ZM18.55 51.942C18.6609 52.1517 18.8412 52.3046 19.0522 52.3675C19.2632 52.4305 19.4879 52.3986 19.678 52.2786C19.8662 52.155 20.0032 51.954 20.0597 51.7188C20.1162 51.4836 20.0876 51.2331 19.98 51.0212C19.8693 50.8112 19.689 50.6582 19.478 50.595C19.267 50.5318 19.0422 50.5636 18.852 50.6834C18.435 51.0491 18.325 51.5072 18.55 51.942ZM15.848 46.7227C15.9589 46.9325 16.1392 47.0853 16.3502 47.1482C16.5612 47.2112 16.7859 47.1793 16.976 47.0593C17.1642 46.9357 17.3012 46.7347 17.3577 46.4995C17.4142 46.2643 17.3856 46.0138 17.278 45.8019C17.1671 45.5921 16.9867 45.4393 16.7758 45.3764C16.5648 45.3134 16.3401 45.3453 16.15 45.4653C15.9618 45.5889 15.8247 45.7899 15.7683 46.0251C15.7118 46.2603 15.7404 46.5108 15.848 46.7227ZM23.334 48.9589C23.4449 49.1686 23.6252 49.3215 23.8362 49.3844C24.0472 49.4474 24.2719 49.4155 24.462 49.2955C24.6503 49.1721 24.7876 48.9711 24.8443 48.7359C24.901 48.5007 24.8725 48.2501 24.765 48.0381C24.6541 47.828 24.4736 47.675 24.2623 47.612C24.0511 47.549 23.8262 47.5812 23.636 47.7014C23.4478 47.8251 23.3107 48.0261 23.2542 48.2613C23.1978 48.4965 23.2264 48.747 23.334 48.9589ZM20.53 43.7095C20.6409 43.919 20.821 44.0716 21.0318 44.1345C21.2425 44.1975 21.467 44.1658 21.657 44.0462C21.8453 43.9227 21.9826 43.7218 22.0393 43.4866C22.096 43.2514 22.0675 43.0007 21.96 42.7887C21.8491 42.5787 21.6686 42.4256 21.4573 42.3627C21.2461 42.2997 21.0212 42.3318 20.831 42.4521C20.6428 42.5757 20.5057 42.7767 20.4493 43.0119C20.3928 43.2471 20.4214 43.4976 20.529 43.7095H20.53ZM16.836 42.6059C16.9469 42.816 17.1274 42.969 17.3386 43.032C17.5499 43.095 17.7748 43.0628 17.965 42.9426C18.1532 42.8189 18.2903 42.6179 18.3467 42.3827C18.4032 42.1475 18.3746 41.897 18.267 41.6851C18.1563 41.4752 17.976 41.3221 17.765 41.2589C17.554 41.1958 17.3292 41.2275 17.139 41.3473C16.9504 41.4708 16.8129 41.672 16.7562 41.9074C16.6995 42.1429 16.7282 42.3938 16.836 42.6059ZM19.54 47.8241C19.6509 48.0338 19.8312 48.1867 20.0422 48.2496C20.2532 48.3126 20.4779 48.2807 20.668 48.1607C20.8562 48.0371 20.9932 47.8361 21.0497 47.6009C21.1062 47.3657 21.0776 47.1152 20.97 46.9033C20.8591 46.6935 20.6788 46.5407 20.4678 46.4777C20.2568 46.4148 20.0321 46.4467 19.842 46.5666C19.6538 46.6902 19.5167 46.8913 19.4603 47.1265C19.4038 47.3617 19.4324 47.6122 19.54 47.8241ZM21.518 39.5938C21.6287 39.8038 21.809 39.9568 22.02 40.02C22.231 40.0832 22.4558 40.0515 22.646 39.9316C22.8342 39.808 22.9712 39.6069 23.0277 39.3718C23.0842 39.1366 23.0556 38.8861 22.948 38.6742C22.8373 38.4642 22.657 38.3112 22.446 38.248C22.235 38.1848 22.0102 38.2166 21.82 38.3364C21.6318 38.46 21.4947 38.6611 21.4383 38.8963C21.3818 39.1314 21.4104 39.382 21.518 39.5938ZM24.324 44.8432C24.4347 45.0532 24.615 45.2062 24.826 45.2694C25.037 45.3326 25.2618 45.3008 25.452 45.181C25.6402 45.0574 25.7772 44.8563 25.8337 44.6211C25.8902 44.3859 25.8616 44.1354 25.754 43.9235C25.6433 43.7136 25.463 43.5605 25.252 43.4974C25.041 43.4342 24.8162 43.4659 24.626 43.5858C24.4378 43.7094 24.3007 43.9104 24.2443 44.1456C24.1878 44.3808 24.2164 44.6313 24.324 44.8432ZM17.825 38.4902C17.9357 38.7002 18.116 38.8532 18.327 38.9164C18.538 38.9796 18.7628 38.9478 18.953 38.828C19.1416 38.7046 19.2791 38.5034 19.3358 38.2679C19.3925 38.0324 19.3638 37.7816 19.256 37.5694C19.1451 37.3597 18.9647 37.2069 18.7538 37.1439C18.5428 37.0809 18.3181 37.1129 18.128 37.2328C17.9397 37.3562 17.8024 37.5572 17.7457 37.7924C17.689 38.0276 17.7175 38.2782 17.825 38.4902ZM28.017 45.9457C28.1279 46.1555 28.3082 46.3083 28.5192 46.3713C28.7302 46.4342 28.9549 46.4023 29.145 46.2824C29.3332 46.1588 29.4702 45.9577 29.5267 45.7225C29.5832 45.4873 29.5546 45.2368 29.447 45.0249C29.3363 44.815 29.156 44.6619 28.945 44.5987C28.734 44.5356 28.5092 44.5673 28.319 44.6872C28.1306 44.8108 27.9933 45.012 27.9368 45.2475C27.8803 45.4829 27.9091 45.7337 28.017 45.9457ZM25.313 40.7264C25.4239 40.9365 25.6044 41.0895 25.8156 41.1525C26.0269 41.2155 26.2518 41.1834 26.442 41.0631C26.6302 40.9395 26.7672 40.7384 26.8237 40.5032C26.8802 40.268 26.8516 40.0175 26.744 39.8056C26.6331 39.5959 26.4528 39.4431 26.2418 39.3801C26.0308 39.3171 25.8061 39.349 25.616 39.469C25.4277 39.5924 25.2904 39.7934 25.2337 40.0286C25.177 40.2638 25.2055 40.5144 25.313 40.7264ZM14.859 50.835C14.9697 51.045 15.15 51.198 15.361 51.2612C15.572 51.3244 15.7968 51.2926 15.987 51.1728C16.1754 51.0492 16.3127 50.8479 16.3692 50.6125C16.4257 50.377 16.3969 50.1262 16.289 49.9142C16.1781 49.7045 15.9977 49.5517 15.7868 49.4887C15.5758 49.4257 15.3511 49.4576 15.161 49.5776C14.743 49.9432 14.633 50.4003 14.859 50.835Z" fill="#0A3B3C"/>
<path d="M18.551 51.9398C18.6618 52.1495 18.8422 52.3024 19.0532 52.3653C19.2642 52.4283 19.4889 52.3964 19.679 52.2764C19.8671 52.1528 20.0042 51.9518 20.0607 51.7166C20.1172 51.4814 20.0885 51.2309 19.981 51.019C19.8702 50.809 19.6899 50.656 19.479 50.5928C19.268 50.5296 19.0431 50.5614 18.853 50.6812C18.436 51.0469 18.326 51.505 18.551 51.9398ZM15.848 46.7205C15.9588 46.9303 16.1392 47.0831 16.3502 47.146C16.5612 47.209 16.7859 47.1771 16.976 47.0572C17.1641 46.9335 17.3012 46.7325 17.3577 46.4973C17.4142 46.2621 17.3855 46.0116 17.278 45.7997C17.1671 45.5899 16.9867 45.4371 16.7757 45.3742C16.5647 45.3112 16.34 45.3431 16.15 45.4631C15.9618 45.5867 15.8247 45.7877 15.7682 46.0229C15.7117 46.2581 15.7404 46.5086 15.848 46.7205ZM17.826 38.488C17.9368 38.6978 18.1172 38.8506 18.3282 38.9136C18.5392 38.9766 18.7639 38.9446 18.954 38.8247C19.1421 38.7011 19.2792 38.5 19.3357 38.2648C19.3922 38.0296 19.3635 37.7791 19.256 37.5673C19.1451 37.3575 18.9647 37.2047 18.7537 37.1417C18.5427 37.0787 18.318 37.1107 18.128 37.2306C17.9398 37.3542 17.8027 37.5553 17.7462 37.7905C17.6897 38.0256 17.7184 38.2762 17.826 38.488Z" fill="#0A3B3C"/>
</g>
<mask id="mask2" style="mask-type:alpha" maskUnits="userSpaceOnUse" x="-14" y="28" width="34" height="34">
<path d="M13.144 33.5507C15.438 34.2352 17.111 35.7992 18.189 38.1312C18.949 39.6584 19.125 41.4833 19.099 43.7217C18.808 47.0626 17.572 49.6489 15.162 52.0032C13.145 54.0009 10.799 55.6641 7.85302 57.2671C4.90802 58.869 1.72802 60.1654 -1.80698 61.2378C-1.90298 61.2089 -1.90298 61.2089 -1.92898 61.3192C-2.02498 61.2902 -2.02498 61.2902 -2.09398 61.152C-5.30698 57.4733 -7.28798 54.6352 -9.05198 51.7435C-10.278 49.6043 -11.617 47.0771 -12.537 44.084C-13.275 41.6171 -13.318 39.2404 -12.831 36.7857C-12.343 34.3299 -11.091 32.1037 -9.12698 30.3257C-7.33898 28.8509 -5.37998 28.3715 -3.22398 28.7795L-2.45998 29.0081C-0.739979 29.5209 0.588021 30.3904 1.61802 31.6445C2.25002 32.4248 2.66502 33.2575 2.98302 34.0613L3.05302 34.2006L4.20802 36.4201L6.04202 34.9754C7.97902 33.3077 10.155 32.7759 12.762 33.437L13.144 33.5507Z" fill="#C4C4C4"/>
</mask>
<g mask="url(#mask2)">
<path d="M18.997 52.0723C19.1079 52.282 19.2882 52.4348 19.4992 52.4978C19.7102 52.5608 19.9349 52.5289 20.125 52.4089C20.3132 52.2853 20.4502 52.0843 20.5067 51.8491C20.5632 51.6139 20.5346 51.3634 20.427 51.1515C20.3161 50.9417 20.1357 50.7889 19.9248 50.7259C19.7138 50.663 19.4891 50.6949 19.299 50.8148C18.882 51.1793 18.772 51.6375 18.997 52.0723Z" fill="#0A3B3C"/>
<path d="M18.996 52.0724C19.1069 52.2822 19.2872 52.435 19.4982 52.498C19.7092 52.5609 19.9339 52.529 20.124 52.4091C20.3123 52.2856 20.4496 52.0847 20.5063 51.8495C20.563 51.6143 20.5345 51.3636 20.427 51.1516C20.3161 50.9419 20.1357 50.789 19.9247 50.7261C19.7138 50.6631 19.489 50.695 19.299 50.815C18.881 51.1795 18.771 51.6377 18.996 52.0724ZM16.192 46.823C16.3029 47.0328 16.4832 47.1856 16.6942 47.2486C16.9052 47.3115 17.1299 47.2796 17.32 47.1597C17.5081 47.0361 17.6452 46.835 17.7017 46.5998C17.7582 46.3646 17.7296 46.1141 17.622 45.9022C17.5111 45.6925 17.3307 45.5397 17.1197 45.4767C16.9088 45.4137 16.684 45.4457 16.494 45.5656C16.3058 45.6892 16.1687 45.8903 16.1122 46.1254C16.0557 46.3606 16.0844 46.6111 16.192 46.823ZM17.18 42.7062C17.2909 42.916 17.4712 43.0688 17.6822 43.1318C17.8932 43.1948 18.1179 43.1628 18.308 43.0429C18.4966 42.9195 18.6341 42.7183 18.6908 42.4828C18.7474 42.2473 18.7188 41.9965 18.611 41.7843C18.5001 41.5746 18.3197 41.4218 18.1087 41.3588C17.8978 41.2958 17.673 41.3278 17.483 41.4477C17.2946 41.5711 17.1573 41.7721 17.1007 42.0073C17.044 42.2425 17.0725 42.4931 17.18 42.7051V42.7062ZM13.488 41.6026C13.599 41.8122 13.7794 41.9648 13.9904 42.0276C14.2014 42.0903 14.426 42.0582 14.616 41.9382C14.8041 41.8146 14.9412 41.6135 14.9977 41.3783C15.0542 41.1431 15.0256 40.8926 14.918 40.6807C14.8071 40.471 14.6267 40.3182 14.4157 40.2552C14.2048 40.1922 13.98 40.2241 13.79 40.3441C13.6018 40.4677 13.4647 40.6687 13.4082 40.9039C13.3517 41.1391 13.3804 41.3896 13.488 41.6015V41.6026ZM18.17 38.5906C18.2808 38.8 18.461 38.9526 18.6718 39.0156C18.8825 39.0786 19.107 39.0468 19.297 38.9272C19.4853 38.8038 19.6226 38.6028 19.6793 38.3676C19.736 38.1324 19.7075 37.8818 19.6 37.6698C19.4891 37.46 19.3087 37.3072 19.0977 37.2442C18.8868 37.1813 18.662 37.2132 18.472 37.3331C18.2836 37.4566 18.1463 37.6575 18.0897 37.8927C18.033 38.1279 18.0615 38.3786 18.169 38.5906H18.17ZM15.202 50.9354C15.3127 51.1453 15.493 51.2984 15.704 51.3615C15.915 51.4247 16.1398 51.393 16.33 51.2731C16.5184 51.1495 16.6557 50.9483 16.7122 50.7128C16.7687 50.4773 16.7399 50.2266 16.632 50.0146C16.5211 49.8048 16.3407 49.652 16.1297 49.589C15.9188 49.5261 15.694 49.558 15.504 49.6779C15.086 50.0436 14.977 50.5006 15.202 50.9354Z" fill="#0A3B3C"/>
<path d="M18.9969 52.0702C19.1078 52.2802 19.2884 52.4333 19.4996 52.4963C19.7108 52.5592 19.9358 52.5271 20.1259 52.4068C20.3141 52.2832 20.4512 52.0822 20.5077 51.847C20.5642 51.6118 20.5355 51.3613 20.4279 51.1494C20.3171 50.9396 20.1367 50.7868 19.9257 50.7239C19.7147 50.6609 19.49 50.6928 19.2999 50.8127C18.8819 51.1773 18.7719 51.6354 18.9969 52.0702ZM16.1919 46.8197C16.3027 47.0296 16.4829 47.1827 16.6939 47.2459C16.9049 47.3091 17.1298 47.2773 17.3199 47.1575C17.5081 47.0339 17.6452 46.8328 17.7017 46.5976C17.7582 46.3624 17.7295 46.1119 17.6219 45.9C17.5111 45.6903 17.3307 45.5374 17.1197 45.4745C16.9087 45.4115 16.684 45.4434 16.4939 45.5634C16.3058 45.687 16.1687 45.888 16.1122 46.1232C16.0557 46.3584 16.0844 46.6089 16.1919 46.8208V46.8197ZM13.4889 41.6038C13.5998 41.8135 13.7802 41.9663 13.9912 42.0293C14.2021 42.0923 14.4269 42.0604 14.6169 41.9404C14.8051 41.8168 14.9422 41.6158 14.9987 41.3806C15.0552 41.1454 15.0265 40.8949 14.9189 40.683C14.8081 40.4732 14.6277 40.3204 14.4167 40.2574C14.2057 40.1945 13.981 40.2264 13.7909 40.3463C13.6028 40.4699 13.4657 40.671 13.4092 40.9062C13.3527 41.1414 13.3814 41.3919 13.4889 41.6038Z" fill="#0A3B3C"/>
<path d="M13.488 41.6025C13.599 41.8121 13.7794 41.9647 13.9904 42.0275C14.2014 42.0902 14.426 42.0581 14.616 41.9381C14.8041 41.8145 14.9412 41.6134 14.9977 41.3782C15.0542 41.143 15.0256 40.8925 14.918 40.6806C14.8071 40.4709 14.6267 40.3181 14.4157 40.2551C14.2048 40.1921 13.98 40.224 13.79 40.344C13.6018 40.4676 13.4647 40.6686 13.4082 40.9038C13.3517 41.139 13.3804 41.3895 13.488 41.6014V41.6025ZM18.17 38.5882C18.2808 38.7977 18.461 38.9503 18.6718 39.0133C18.8825 39.0762 19.107 39.0445 19.297 38.9249C19.4853 38.8015 19.6226 38.6005 19.6793 38.3653C19.736 38.1301 19.7075 37.8795 19.6 37.6675C19.4891 37.4574 19.3085 37.3044 19.0973 37.2414C18.8861 37.1784 18.6611 37.2105 18.471 37.3308C18.2828 37.4544 18.1457 37.6555 18.0892 37.8907C18.0327 38.1258 18.0614 38.3764 18.169 38.5882H18.17ZM15.494 33.2564C15.6049 33.4661 15.7852 33.619 15.9962 33.6819C16.2072 33.7449 16.4319 33.713 16.622 33.593C16.8101 33.4694 16.9472 33.2684 17.0037 33.0332C17.0602 32.798 17.0316 32.5475 16.924 32.3356C16.8131 32.1258 16.6327 31.973 16.4217 31.91C16.2108 31.8471 15.986 31.879 15.796 31.9989C15.6078 32.1225 15.4707 32.3236 15.4142 32.5588C15.3577 32.794 15.3864 33.0445 15.494 33.2564ZM14.477 37.4869C14.5879 37.6966 14.7682 37.8494 14.9792 37.9124C15.1902 37.9754 15.4149 37.9435 15.605 37.8235C15.7933 37.7001 15.9306 37.4991 15.9873 37.2639C16.044 37.0287 16.0155 36.7781 15.908 36.5661C15.7971 36.3563 15.6167 36.2035 15.4057 36.1405C15.1948 36.0776 14.97 36.1095 14.78 36.2294C14.5916 36.3529 14.4543 36.5538 14.3977 36.789C14.341 37.0242 14.3695 37.2748 14.477 37.4869ZM16.483 29.1407C16.5937 29.3507 16.774 29.5037 16.985 29.5669C17.196 29.6301 17.4208 29.5983 17.611 29.4785C17.7991 29.3549 17.9362 29.1538 17.9927 28.9186C18.0492 28.6834 18.0206 28.4329 17.913 28.221C17.8022 28.0111 17.622 27.858 17.411 27.7948C17.2 27.7317 16.9752 27.7634 16.785 27.8833C16.5968 28.0069 16.4597 28.2079 16.4032 28.4431C16.3467 28.6783 16.3754 28.9288 16.483 29.1407ZM19.186 34.3578C19.2969 34.5675 19.4772 34.7203 19.6882 34.7833C19.8992 34.8463 20.1239 34.8143 20.314 34.6944C20.5021 34.5708 20.6392 34.3697 20.6957 34.1346C20.7522 33.8994 20.7236 33.6488 20.616 33.437C20.5051 33.2272 20.3247 33.0744 20.1137 33.0114C19.9028 32.9484 19.678 32.9804 19.488 33.1003C19.2998 33.2239 19.1627 33.425 19.1062 33.6602C19.0497 33.8954 19.0784 34.1459 19.186 34.3578ZM12.79 28.0371C12.9009 28.2472 13.0814 28.4002 13.2926 28.4632C13.5038 28.5262 13.7288 28.494 13.919 28.3737C14.1071 28.2501 14.2442 28.0491 14.3007 27.8139C14.3572 27.5787 14.3286 27.3282 14.221 27.1163C14.1101 26.9062 13.9295 26.7532 13.7183 26.6902C13.5071 26.6272 13.2821 26.6594 13.092 26.7797C12.9038 26.9033 12.7667 27.1043 12.7102 27.3395C12.6537 27.5747 12.6824 27.8252 12.79 28.0371Z" fill="#0A3B3C"/>
<path d="M13.4899 41.6037C13.6008 41.8137 13.7814 41.9667 13.9926 42.0297C14.2038 42.0927 14.4288 42.0606 14.6189 41.9403C14.8071 41.8167 14.9442 41.6156 15.0007 41.3805C15.0571 41.1453 15.0285 40.8947 14.9209 40.6829C14.81 40.4731 14.6297 40.3203 14.4187 40.2573C14.2077 40.1944 13.983 40.2263 13.7929 40.3462C13.6048 40.4698 13.4677 40.6709 13.4112 40.9061C13.3547 41.1413 13.3833 41.3918 13.4909 41.6037H13.4899ZM12.7919 28.0371C12.9028 28.2469 13.0832 28.3997 13.2941 28.4626C13.5051 28.5256 13.7298 28.4937 13.9199 28.3737C14.1083 28.2503 14.2456 28.0494 14.3022 27.8141C14.3589 27.5789 14.3304 27.3283 14.2229 27.1163C14.112 26.9062 13.9315 26.7532 13.7203 26.6902C13.5091 26.6272 13.2841 26.6594 13.0939 26.7797C12.9058 26.9033 12.7687 27.1043 12.7122 27.3395C12.6557 27.5747 12.6843 27.8252 12.7919 28.0371Z" fill="#0A3B3C"/>
</g>
<path fill-rule="evenodd" clip-rule="evenodd" d="M31.078 3.02779C15.725 3.02779 3.27905 16.902 3.27905 34.018C3.27905 51.1317 15.725 65.0059 31.0791 65.0059C46.431 65.0059 58.877 51.1317 58.877 34.0168C58.877 16.902 46.431 3.02779 31.078 3.02779ZM1.05005 34.018C1.05005 15.5286 14.494 0.540771 31.078 0.540771C47.663 0.540771 61.1081 15.5286 61.1081 34.0168C61.1081 52.5039 47.663 67.4907 31.078 67.4907C14.494 67.4918 1.05005 52.505 1.05005 34.0168V34.018Z" fill="#0B3B3D"/>
<path fill-rule="evenodd" clip-rule="evenodd" d="M21.294 17.4527C21.7636 16.436 22.4758 15.5835 23.3522 14.9893C24.2286 14.3951 25.2352 14.0821 26.261 14.085C29.352 14.085 31.887 16.9098 31.887 20.3566C31.887 20.6941 31.7668 21.0177 31.5527 21.2564C31.3386 21.495 31.0483 21.6291 30.7455 21.6291C30.4428 21.6291 30.1524 21.495 29.9384 21.2564C29.7243 21.0177 29.604 20.6941 29.604 20.3566C29.5988 19.3699 29.2449 18.4253 28.6191 17.7275C27.9934 17.0297 27.1461 16.635 26.261 16.6288C25.5704 16.6268 24.8966 16.8664 24.3346 17.314C23.7727 17.7616 23.351 18.3946 23.129 19.1237C22.971 19.6365 22.537 19.982 22.049 19.982H21.777C20.1076 19.9844 18.5072 20.7247 17.3267 22.0406C16.1463 23.3566 15.4821 25.1406 15.48 27.0016C15.48 28.9012 16.17 30.6134 17.257 31.9311C17.3714 32.0696 17.4568 32.2347 17.507 32.4144C17.5572 32.5942 17.571 32.7841 17.5474 32.9706C17.5238 33.157 17.4633 33.3352 17.3704 33.4925C17.2774 33.6497 17.1544 33.7819 17.01 33.8797C16.09 34.5039 15.48 35.6176 15.48 36.9999C15.48 38.2607 16.041 39.352 16.916 40.0487C17.316 40.3675 17.488 40.9349 17.344 41.4589C17.146 42.1723 17.011 42.9571 17.011 43.6438C17.0129 45.5049 17.6769 47.2891 18.8574 48.6051C20.0379 49.9211 21.6385 50.6613 23.308 50.6634C24.9772 50.661 26.5774 49.9208 27.7576 48.6051C28.9379 47.2894 29.6019 45.5056 29.604 43.6449V31.2076C29.604 30.8701 29.7243 30.5465 29.9384 30.3078C30.1524 30.0692 30.4428 29.9351 30.7455 29.9351C31.0483 29.9351 31.3386 30.0692 31.5527 30.3078C31.7668 30.5465 31.887 30.8701 31.887 31.2076V43.6449C31.887 48.9199 28.04 53.2084 23.307 53.2084C18.576 53.2084 14.729 48.9199 14.729 43.6438C14.729 42.9337 14.823 42.2102 14.961 41.5425C14.4038 40.9602 13.9596 40.2566 13.6562 39.4752C13.3528 38.6938 13.1965 37.8513 13.197 36.9999C13.197 35.253 13.804 33.7069 14.809 32.5921C13.818 31.0226 13.197 29.1096 13.197 27.0016C13.197 21.9072 16.786 17.7325 21.294 17.4527Z" fill="#0B3B3D"/>
<path fill-rule="evenodd" clip-rule="evenodd" d="M35.23 16.6288C34.3449 16.635 33.4977 17.0297 32.8719 17.7275C32.2461 18.4253 31.8923 19.3699 31.887 20.3566C31.887 20.6941 31.7668 21.0177 31.5527 21.2564C31.3386 21.495 31.0483 21.6291 30.7455 21.6291C30.4428 21.6291 30.1524 21.495 29.9384 21.2564C29.7243 21.0177 29.604 20.6941 29.604 20.3566C29.604 16.9098 32.139 14.085 35.23 14.085C36.2557 14.0822 37.2621 14.3952 38.1384 14.9894C39.0146 15.5836 39.7267 16.436 40.196 17.4527C44.705 17.7313 48.294 21.9061 48.294 27.0016C48.294 29.1119 47.672 31.0259 46.68 32.5977C47.7179 33.7703 48.298 35.3526 48.294 36.9999C48.2946 37.8513 48.1383 38.6938 47.8348 39.4752C47.5314 40.2566 47.0873 40.9602 46.53 41.5425C46.668 42.2113 46.762 42.9337 46.762 43.6449C46.762 48.9199 42.915 53.2084 38.183 53.2084C33.451 53.2084 29.604 48.9199 29.604 43.6438C29.604 43.3063 29.7243 42.9827 29.9384 42.744C30.1524 42.5054 30.4428 42.3713 30.7455 42.3713C31.0483 42.3713 31.3386 42.5054 31.5527 42.744C31.7668 42.9827 31.887 43.3063 31.887 43.6438C31.8889 45.5047 32.5528 47.2888 33.7331 48.6047C34.9134 49.9207 36.5137 50.661 38.183 50.6634C39.8524 50.6613 41.4528 49.9213 42.6333 48.6055C43.8138 47.2898 44.4779 45.5058 44.48 43.6449C44.48 42.9571 44.344 42.1734 44.147 41.4589C44.003 40.9349 44.175 40.3664 44.575 40.0487C45.45 39.352 46.011 38.2607 46.011 36.9999C46.011 35.67 45.394 34.4995 44.481 33.8797C44.3369 33.7819 44.2139 33.6497 44.1211 33.4926C44.0283 33.3355 43.9679 33.1573 43.9443 32.9711C43.9206 32.7848 43.9344 32.595 43.9845 32.4153C44.0346 32.2357 44.1198 32.0707 44.234 31.9322C45.321 30.6134 46.011 28.9012 46.011 27.0016C46.0092 25.1406 45.3452 23.3563 44.1646 22.0403C42.9841 20.7243 41.3835 19.9841 39.714 19.982H39.442C38.954 19.982 38.52 19.6365 38.362 19.1237C38.1401 18.3946 37.7184 17.7616 37.1564 17.314C36.5945 16.8664 35.9207 16.6268 35.23 16.6288ZM15.57 31.8151C15.678 31.6992 15.8054 31.6081 15.945 31.5471C16.0846 31.4861 16.2336 31.4564 16.3835 31.4596C16.5334 31.4628 16.6812 31.4989 16.8186 31.5658C16.9559 31.6328 17.0801 31.7292 17.184 31.8497C17.7776 32.5394 18.4907 33.0874 19.2801 33.4605C20.0695 33.8336 20.9186 34.024 21.776 34.0201C22.0786 34.0201 22.3689 34.1541 22.5828 34.3927C22.7968 34.6312 22.917 34.9547 22.917 35.2921C22.917 35.6294 22.7968 35.9529 22.5828 36.1915C22.3689 36.43 22.0786 36.564 21.776 36.564C20.6115 36.5679 19.4583 36.3085 18.3862 35.8013C17.3142 35.2941 16.3456 34.5497 15.539 33.6132C15.4351 33.4928 15.3535 33.3507 15.2988 33.1951C15.2442 33.0394 15.2176 32.8733 15.2206 32.7062C15.2235 32.5392 15.256 32.3743 15.3162 32.2213C15.3763 32.0682 15.4629 31.9298 15.571 31.814L15.57 31.8151Z" fill="#0B3B3D"/>
<path fill-rule="evenodd" clip-rule="evenodd" d="M45.92 31.815C46.0281 31.9307 46.1146 32.069 46.1746 32.2221C46.2346 32.3751 46.267 32.5398 46.2699 32.7068C46.2728 32.8738 46.2461 33.0398 46.1914 33.1953C46.1367 33.3508 46.055 33.4928 45.951 33.6131C45.1445 34.5496 44.1759 35.2939 43.1038 35.8011C42.0318 36.3083 40.8786 36.5678 39.714 36.5638C39.4114 36.5638 39.1212 36.4298 38.9072 36.1913C38.6932 35.9527 38.573 35.6292 38.573 35.2919C38.573 34.9545 38.6932 34.631 38.9072 34.3925C39.1212 34.154 39.4114 34.0199 39.714 34.0199C40.5714 34.0238 41.4206 33.8334 42.2099 33.4603C42.9993 33.0872 43.7124 32.5392 44.306 31.8495C44.5157 31.6064 44.8034 31.4661 45.1059 31.4594C45.4084 31.4527 45.7008 31.5802 45.919 31.8138L45.92 31.815ZM30.745 19.0845C31.375 19.0845 31.887 19.653 31.887 20.3553C31.887 23.8445 29.423 26.3839 26.37 26.3839C26.0673 26.3839 25.7769 26.2498 25.5629 26.0112C25.3488 25.7725 25.2285 25.4489 25.2285 25.1114C25.2285 24.7739 25.3488 24.4502 25.5629 24.2116C25.7769 23.973 26.0673 23.8389 26.37 23.8389C28.24 23.8389 29.604 22.354 29.604 20.3553C29.604 19.653 30.115 19.0845 30.746 19.0845H30.745Z" fill="#0B3B3D"/>
<path fill-rule="evenodd" clip-rule="evenodd" d="M30.745 19.0846C31.375 19.0846 31.887 19.6531 31.887 20.3554C31.887 22.3542 33.251 23.839 35.12 23.839C35.4227 23.839 35.7131 23.9731 35.9271 24.2117C36.1412 24.4504 36.2615 24.774 36.2615 25.1115C36.2615 25.449 36.1412 25.7727 35.9271 26.0113C35.7131 26.25 35.4227 26.384 35.12 26.384C32.068 26.384 29.604 23.8446 29.604 20.3565C29.604 19.6543 30.115 19.0835 30.745 19.0835V19.0846ZM24.14 30.7026C24.571 31.2154 24.548 32.0202 24.088 32.5018C23.418 33.2019 22.972 34.2185 22.972 35.292C22.972 36.8973 23.878 38.2941 25.155 38.7834C25.2967 38.8377 25.4274 38.9226 25.5396 39.0333C25.6519 39.1439 25.7435 39.2781 25.8093 39.4282C25.875 39.5783 25.9136 39.7413 25.9228 39.908C25.932 40.0748 25.9117 40.2419 25.863 40.3998C25.8142 40.5578 25.7381 40.7035 25.6389 40.8286C25.5396 40.9538 25.4192 41.0559 25.2846 41.1292C25.15 41.2025 25.0037 41.2455 24.8541 41.2558C24.7046 41.2661 24.5547 41.2434 24.413 41.1891C22.19 40.3374 20.689 37.9552 20.689 35.292C20.689 33.4404 21.447 31.7739 22.527 30.6446C22.6363 30.5303 22.7647 30.4412 22.905 30.3822C23.0452 30.3233 23.1944 30.2957 23.3442 30.3011C23.494 30.3065 23.6414 30.3447 23.7779 30.4136C23.9145 30.4825 24.0375 30.5807 24.14 30.7026ZM37.35 30.7026C37.4524 30.5807 37.5755 30.4825 37.712 30.4136C37.8485 30.3447 37.9959 30.3065 38.1457 30.3011C38.2955 30.2957 38.4448 30.3233 38.585 30.3822C38.7252 30.4412 38.8537 30.5303 38.963 30.6446C40.043 31.7739 40.801 33.4404 40.801 35.292C40.801 37.9552 39.3 40.3374 37.077 41.1891C36.7908 41.2988 36.4773 41.2772 36.2053 41.1292C35.9334 40.9812 35.7254 40.7188 35.627 40.3998C35.5286 40.0808 35.5479 39.7313 35.6807 39.4282C35.8134 39.125 36.0488 38.8931 36.335 38.7834C37.613 38.2929 38.518 36.8962 38.518 35.292C38.518 34.2174 38.072 33.2019 37.402 32.5018C37.2925 32.3875 37.2043 32.2503 37.1424 32.098C37.0805 31.9457 37.0462 31.7813 37.0413 31.6142C37.0365 31.4471 37.0613 31.2806 37.1142 31.1241C37.1672 30.9677 37.2473 30.8245 37.35 30.7026Z" fill="#0B3B3D"/>
</g>
</svg>
