<svg width="62" height="68" viewBox="0 0 62 68" fill="none" xmlns="http://www.w3.org/2000/svg">
<path fill-rule="evenodd" clip-rule="evenodd" d="M31.467 3.57512C16.417 3.57512 4.21602 17.1751 4.21602 33.9533C4.21602 50.7303 16.416 64.3303 31.466 64.3303C46.516 64.3303 58.717 50.7303 58.717 33.9533C58.717 17.1762 46.517 3.57623 31.467 3.57623V3.57512ZM2.09302 33.9533C2.09302 15.8686 15.243 1.2085 31.467 1.2085C47.689 1.2085 60.841 15.8686 60.841 33.9533C60.841 52.0379 47.689 66.6981 31.467 66.6981C15.244 66.6981 2.09302 52.0379 2.09302 33.9533Z" fill="#0B3B3D"/>
<mask id="mask0" style="mask-type:alpha" maskUnits="userSpaceOnUse" x="16" y="25" width="30" height="29">
<path d="M42.736 27.3069C38.912 23.9682 34.614 26.3716 30.971 26.3716C27.329 26.3716 23.029 23.9682 19.207 27.308C15.7 30.3691 14.536 39.6651 19.267 47.8797C23.805 55.761 28.381 53.0889 30.971 53.0889C33.561 53.0889 38.138 55.761 42.676 47.8797C47.406 39.6651 46.242 30.3691 42.736 27.3069Z" fill="#C4C4C4"/>
</mask>
<g mask="url(#mask0)">
<path d="M45.3409 53.5259C45.4967 53.6967 45.7064 53.7923 45.9249 53.7923C46.1434 53.7923 46.3531 53.6967 46.5089 53.5259C46.6621 53.3522 46.7479 53.1185 46.7479 52.8749C46.7479 52.6314 46.6621 52.3976 46.5089 52.2239C46.3531 52.0531 46.1434 51.9575 45.9249 51.9575C45.7064 51.9575 45.4967 52.0531 45.3409 52.2239C45.1877 52.3976 45.1019 52.6314 45.1019 52.8749C45.1019 53.1185 45.1877 53.3522 45.3409 53.5259ZM45.3409 49.2653C45.4967 49.4361 45.7064 49.5318 45.9249 49.5318C46.1434 49.5318 46.3531 49.4361 46.5089 49.2653C46.6621 49.0917 46.7479 48.8579 46.7479 48.6143C46.7479 48.3708 46.6621 48.137 46.5089 47.9633C46.3531 47.7926 46.1434 47.6969 45.9249 47.6969C45.7064 47.6969 45.4967 47.7926 45.3409 47.9633C45.1877 48.137 45.1019 48.3708 45.1019 48.6143C45.1019 48.8579 45.1877 49.0917 45.3409 49.2653ZM41.5179 49.2653C41.6737 49.4361 41.8834 49.5318 42.1019 49.5318C42.3204 49.5318 42.5301 49.4361 42.6859 49.2653C42.8391 49.0917 42.9249 48.8579 42.9249 48.6143C42.9249 48.3708 42.8391 48.137 42.6859 47.9633C42.5301 47.7926 42.3204 47.6969 42.1019 47.6969C41.8834 47.6969 41.6737 47.7926 41.5179 47.9633C41.3647 48.137 41.2789 48.3708 41.2789 48.6143C41.2789 48.8579 41.3647 49.0917 41.5179 49.2653ZM45.3409 45.0047C45.4967 45.1755 45.7064 45.2712 45.9249 45.2712C46.1434 45.2712 46.3531 45.1755 46.5089 45.0047C46.6621 44.8311 46.7479 44.5973 46.7479 44.3537C46.7479 44.1102 46.6621 43.8764 46.5089 43.7027C46.3531 43.532 46.1434 43.4363 45.9249 43.4363C45.7064 43.4363 45.4967 43.532 45.3409 43.7027C45.1877 43.8764 45.1019 44.1102 45.1019 44.3537C45.1019 44.5973 45.1877 44.8311 45.3409 45.0047ZM41.5179 53.5282C41.6737 53.6989 41.8834 53.7946 42.1019 53.7946C42.3204 53.7946 42.5301 53.6989 42.6859 53.5282C42.8391 53.3545 42.9249 53.1207 42.9249 52.8771C42.9249 52.6336 42.8391 52.3998 42.6859 52.2261C42.5301 52.0554 42.3204 51.9597 42.1019 51.9597C41.8834 51.9597 41.6737 52.0554 41.5179 52.2261C41.3647 52.3998 41.2789 52.6336 41.2789 52.8771C41.2789 53.1207 41.3647 53.3545 41.5179 53.5282ZM37.6959 53.5282C37.8517 53.6992 38.0617 53.7951 38.2804 53.7951C38.4991 53.7951 38.7091 53.6992 38.8649 53.5282C39.0181 53.3545 39.1039 53.1207 39.1039 52.8771C39.1039 52.6336 39.0181 52.3998 38.8649 52.2261C38.7091 52.055 38.4991 51.9591 38.2804 51.9591C38.0617 51.9591 37.8517 52.055 37.6959 52.2261C37.5427 52.3998 37.4569 52.6336 37.4569 52.8771C37.4569 53.1207 37.5427 53.3545 37.6959 53.5282Z" fill="#0A3B3C"/>
<path d="M45.3409 53.5282C45.4967 53.6989 45.7065 53.7946 45.9249 53.7946C46.1434 53.7946 46.3531 53.6989 46.5089 53.5282C46.6621 53.3545 46.7479 53.1207 46.7479 52.8771C46.7479 52.6336 46.6621 52.3998 46.5089 52.2261C46.3531 52.0554 46.1434 51.9597 45.9249 51.9597C45.7065 51.9597 45.4967 52.0554 45.3409 52.2261C45.1878 52.3998 45.1019 52.6336 45.1019 52.8771C45.1019 53.1207 45.1878 53.3545 45.3409 53.5282ZM41.5189 49.2676C41.6747 49.4383 41.8845 49.534 42.1029 49.534C42.3214 49.534 42.5311 49.4383 42.6869 49.2676C42.8401 49.0939 42.9259 48.8601 42.9259 48.6166C42.9259 48.373 42.8401 48.1392 42.6869 47.9655C42.5311 47.7948 42.3214 47.6991 42.1029 47.6991C41.8845 47.6991 41.6747 47.7948 41.5189 47.9655C41.3658 48.1392 41.2799 48.373 41.2799 48.6166C41.2799 48.8601 41.3658 49.0939 41.5189 49.2676ZM45.3409 36.3654C45.4967 36.5362 45.7065 36.6318 45.9249 36.6318C46.1434 36.6318 46.3531 36.5362 46.5089 36.3654C46.6621 36.1917 46.7479 35.9579 46.7479 35.7144C46.7479 35.4708 46.6621 35.2371 46.5089 35.0634C46.3531 34.8926 46.1434 34.797 45.9249 34.797C45.7065 34.797 45.4967 34.8926 45.3409 35.0634C45.1878 35.2371 45.1019 35.4708 45.1019 35.7144C45.1019 35.9579 45.1878 36.1917 45.3409 36.3654ZM45.3409 32.1048C45.4967 32.2756 45.7065 32.3713 45.9249 32.3713C46.1434 32.3713 46.3531 32.2756 46.5089 32.1048C46.6624 31.9311 46.7484 31.6971 46.7484 31.4533C46.7484 31.2094 46.6624 30.9754 46.5089 30.8017C46.3531 30.6309 46.1434 30.5352 45.9249 30.5352C45.7065 30.5352 45.4967 30.6309 45.3409 30.8017C45.1878 30.9753 45.1019 31.2091 45.1019 31.4527C45.1019 31.6962 45.1878 31.93 45.3409 32.1037V32.1048ZM41.5179 32.1048C41.6737 32.2756 41.8835 32.3713 42.1019 32.3713C42.3204 32.3713 42.5301 32.2756 42.6859 32.1048C42.8394 31.9311 42.9254 31.6971 42.9254 31.4533C42.9254 31.2094 42.8394 30.9754 42.6859 30.8017C42.5301 30.6309 42.3204 30.5352 42.1019 30.5352C41.8835 30.5352 41.6737 30.6309 41.5179 30.8017C41.3648 30.9753 41.2789 31.2091 41.2789 31.4527C41.2789 31.6962 41.3648 31.93 41.5179 32.1037V32.1048ZM45.3409 27.8431C45.4967 28.0139 45.7065 28.1095 45.9249 28.1095C46.1434 28.1095 46.3531 28.0139 46.5089 27.8431C46.6621 27.6694 46.7479 27.4357 46.7479 27.1921C46.7479 26.9486 46.6621 26.7148 46.5089 26.5411C46.3531 26.3703 46.1434 26.2747 45.9249 26.2747C45.7065 26.2747 45.4967 26.3703 45.3409 26.5411C45.1878 26.7148 45.1019 26.9486 45.1019 27.1921C45.1019 27.4357 45.1878 27.6694 45.3409 27.8431Z" fill="#0A3B3C"/>
<path d="M41.5209 49.2677C41.6767 49.4385 41.8864 49.5342 42.1049 49.5342C42.3234 49.5342 42.5331 49.4385 42.6889 49.2677C42.8421 49.0941 42.9279 48.8603 42.9279 48.6167C42.9279 48.3732 42.8421 48.1394 42.6889 47.9657C42.5331 47.795 42.3234 47.6993 42.1049 47.6993C41.8864 47.6993 41.6767 47.795 41.5209 47.9657C41.3677 48.1394 41.2819 48.3732 41.2819 48.6167C41.2819 48.8603 41.3677 49.0941 41.5209 49.2677ZM37.6989 45.0049C37.8547 45.1757 38.0644 45.2713 38.2829 45.2713C38.5014 45.2713 38.7111 45.1757 38.8669 45.0049C39.0201 44.8312 39.1059 44.5974 39.1059 44.3539C39.1059 44.1103 39.0201 43.8765 38.8669 43.7029C38.7111 43.5321 38.5014 43.4364 38.2829 43.4364C38.0644 43.4364 37.8547 43.5321 37.6989 43.7029C37.5457 43.8765 37.4599 44.1103 37.4599 44.3539C37.4599 44.5974 37.5457 44.8312 37.6989 45.0049ZM45.3439 45.0049C45.4997 45.1757 45.7094 45.2713 45.9279 45.2713C46.1464 45.2713 46.3561 45.1757 46.5119 45.0049C46.6651 44.8312 46.7509 44.5974 46.7509 44.3539C46.7509 44.1103 46.6651 43.8765 46.5119 43.7029C46.3561 43.5321 46.1464 43.4364 45.9279 43.4364C45.7094 43.4364 45.4997 43.5321 45.3439 43.7029C45.1907 43.8765 45.1049 44.1103 45.1049 44.3539C45.1049 44.5974 45.1907 44.8312 45.3439 45.0049ZM41.5209 40.6262C41.6767 40.7969 41.8864 40.8926 42.1049 40.8926C42.3234 40.8926 42.5331 40.7969 42.6889 40.6262C42.8421 40.4525 42.9279 40.2187 42.9279 39.9751C42.9279 39.7316 42.8421 39.4978 42.6889 39.3241C42.5331 39.1534 42.3234 39.0577 42.1049 39.0577C41.8864 39.0577 41.6767 39.1534 41.5209 39.3241C41.2029 39.7979 41.2029 40.2717 41.5209 40.6262ZM37.6989 40.6262C37.8547 40.7969 38.0644 40.8926 38.2829 40.8926C38.5014 40.8926 38.7111 40.7969 38.8669 40.6262C39.0201 40.4525 39.1059 40.2187 39.1059 39.9751C39.1059 39.7316 39.0201 39.4978 38.8669 39.3241C38.7111 39.1534 38.5014 39.0577 38.2829 39.0577C38.0644 39.0577 37.8547 39.1534 37.6989 39.3241C37.3799 39.7979 37.3799 40.2717 37.6989 40.6262ZM41.5209 45.0049C41.6767 45.1757 41.8864 45.2713 42.1049 45.2713C42.3234 45.2713 42.5331 45.1757 42.6889 45.0049C42.8421 44.8312 42.9279 44.5974 42.9279 44.3539C42.9279 44.1103 42.8421 43.8765 42.6889 43.7029C42.5331 43.5321 42.3234 43.4364 42.1049 43.4364C41.8864 43.4364 41.6767 43.5321 41.5209 43.7029C41.3677 43.8765 41.2819 44.1103 41.2819 44.3539C41.2819 44.5974 41.3677 44.8312 41.5209 45.0049ZM41.5209 36.3656C41.6767 36.5363 41.8864 36.632 42.1049 36.632C42.3234 36.632 42.5331 36.5363 42.6889 36.3656C42.8421 36.1919 42.9279 35.9581 42.9279 35.7145C42.9279 35.471 42.8421 35.2372 42.6889 35.0635C42.5331 34.8928 42.3234 34.7971 42.1049 34.7971C41.8864 34.7971 41.6767 34.8928 41.5209 35.0635C41.3677 35.2372 41.2819 35.471 41.2819 35.7145C41.2819 35.9581 41.3677 36.1919 41.5209 36.3656ZM45.3439 40.6262C45.4997 40.7969 45.7094 40.8926 45.9279 40.8926C46.1464 40.8926 46.3561 40.7969 46.5119 40.6262C46.6651 40.4525 46.7509 40.2187 46.7509 39.9751C46.7509 39.7316 46.6651 39.4978 46.5119 39.3241C46.3561 39.1534 46.1464 39.0577 45.9279 39.0577C45.7094 39.0577 45.4997 39.1534 45.3439 39.3241C45.0249 39.7979 45.0249 40.2717 45.3439 40.6262ZM33.8759 40.6262C34.0317 40.7969 34.2414 40.8926 34.4599 40.8926C34.6784 40.8926 34.8881 40.7969 35.0439 40.6262C35.1971 40.4525 35.2829 40.2187 35.2829 39.9751C35.2829 39.7316 35.1971 39.4978 35.0439 39.3241C34.8881 39.1534 34.6784 39.0577 34.4599 39.0577C34.2414 39.0577 34.0317 39.1534 33.8759 39.3241C33.5569 39.6786 33.4509 40.2717 33.8759 40.6262ZM37.6989 36.3656C37.8547 36.5363 38.0644 36.632 38.2829 36.632C38.5014 36.632 38.7111 36.5363 38.8669 36.3656C39.0201 36.1919 39.1059 35.9581 39.1059 35.7145C39.1059 35.471 39.0201 35.2372 38.8669 35.0635C38.7111 34.8928 38.5014 34.7971 38.2829 34.7971C38.0644 34.7971 37.8547 34.8928 37.6989 35.0635C37.5457 35.2372 37.4599 35.471 37.4599 35.7145C37.4599 35.9581 37.5457 36.1919 37.6989 36.3656ZM45.3419 36.3656C45.4977 36.5363 45.7074 36.632 45.9259 36.632C46.1444 36.632 46.3541 36.5363 46.5099 36.3656C46.6631 36.1919 46.7489 35.9581 46.7489 35.7145C46.7489 35.471 46.6631 35.2372 46.5099 35.0635C46.3541 34.8928 46.1444 34.7971 45.9259 34.7971C45.7074 34.7971 45.4977 34.8928 45.3419 35.0635C45.1887 35.2372 45.1029 35.471 45.1029 35.7145C45.1029 35.9581 45.1887 36.1919 45.3419 36.3656ZM41.5199 32.105C41.6757 32.2757 41.8854 32.3714 42.1039 32.3714C42.3224 32.3714 42.5321 32.2757 42.6879 32.105C42.8414 31.9313 42.9274 31.6972 42.9274 31.4534C42.9274 31.2096 42.8414 30.9755 42.6879 30.8018C42.5321 30.6311 42.3224 30.5354 42.1039 30.5354C41.8854 30.5354 41.6757 30.6311 41.5199 30.8018C41.3667 30.9755 41.2809 31.2093 41.2809 31.4528C41.2809 31.6964 41.3667 31.9302 41.5199 32.1039V32.105ZM29.9459 53.5261C30.1017 53.6968 30.3114 53.7925 30.5299 53.7925C30.7484 53.7925 30.9581 53.6968 31.1139 53.5261C31.2671 53.3524 31.3529 53.1186 31.3529 52.8751C31.3529 52.6315 31.2671 52.3977 31.1139 52.2241C30.9581 52.0533 30.7484 51.9576 30.5299 51.9576C30.3114 51.9576 30.1017 52.0533 29.9459 52.2241C29.7927 52.3977 29.7069 52.6315 29.7069 52.8751C29.7069 53.1186 29.7927 53.3524 29.9459 53.5261ZM37.6969 53.5261C37.8527 53.6968 38.0624 53.7925 38.2809 53.7925C38.4994 53.7925 38.7091 53.6968 38.8649 53.5261C39.0181 53.3524 39.1039 53.1186 39.1039 52.8751C39.1039 52.6315 39.0181 52.3977 38.8649 52.2241C38.7091 52.0533 38.4994 51.9576 38.2809 51.9576C38.0624 51.9576 37.8527 52.0533 37.6969 52.2241C37.5437 52.3977 37.4579 52.6315 37.4579 52.8751C37.4579 53.1186 37.5437 53.3524 37.6969 53.5261ZM33.8739 49.2655C34.0297 49.4362 34.2394 49.5319 34.4579 49.5319C34.6764 49.5319 34.8861 49.4362 35.0419 49.2655C35.1951 49.0918 35.2809 48.858 35.2809 48.6145C35.2809 48.3709 35.1951 48.1371 35.0419 47.9635C34.8861 47.7927 34.6764 47.697 34.4579 47.697C34.2394 47.697 34.0297 47.7927 33.8739 47.9635C33.4499 48.318 33.4499 48.911 33.8739 49.2655ZM29.9459 49.2655C30.1017 49.4362 30.3114 49.5319 30.5299 49.5319C30.7484 49.5319 30.9581 49.4362 31.1139 49.2655C31.2671 49.0918 31.3529 48.858 31.3529 48.6145C31.3529 48.3709 31.2671 48.1371 31.1139 47.9635C30.9581 47.7927 30.7484 47.697 30.5299 47.697C30.3114 47.697 30.1017 47.7927 29.9459 47.9635C29.7927 48.1371 29.7069 48.3709 29.7069 48.6145C29.7069 48.858 29.7927 49.0918 29.9459 49.2655ZM33.8739 53.5261C34.0297 53.6968 34.2394 53.7925 34.4579 53.7925C34.6764 53.7925 34.8861 53.6968 35.0419 53.5261C35.1951 53.3524 35.2809 53.1186 35.2809 52.8751C35.2809 52.6315 35.1951 52.3977 35.0419 52.2241C34.8861 52.0533 34.6764 51.9576 34.4579 51.9576C34.2394 51.9576 34.0297 52.0533 33.8739 52.2241C33.4499 52.5797 33.4499 53.1716 33.8739 53.5261ZM33.8739 45.0049C34.0297 45.1757 34.2394 45.2713 34.4579 45.2713C34.6764 45.2713 34.8861 45.1757 35.0419 45.0049C35.1951 44.8312 35.2809 44.5974 35.2809 44.3539C35.2809 44.1103 35.1951 43.8765 35.0419 43.7029C34.8861 43.5321 34.6764 43.4364 34.4579 43.4364C34.2394 43.4364 34.0297 43.5321 33.8739 43.7029C33.4499 44.0574 33.4499 44.6504 33.8739 45.0049ZM37.6969 49.2655C37.8527 49.4362 38.0624 49.5319 38.2809 49.5319C38.4994 49.5319 38.7091 49.4362 38.8649 49.2655C39.0181 49.0918 39.1039 48.858 39.1039 48.6145C39.1039 48.3709 39.0181 48.1371 38.8649 47.9635C38.7091 47.7927 38.4994 47.697 38.2809 47.697C38.0624 47.697 37.8527 47.7927 37.6969 47.9635C37.5437 48.1371 37.4579 48.3709 37.4579 48.6145C37.4579 48.858 37.5437 49.0918 37.6969 49.2655ZM26.1229 49.2655C26.2787 49.4362 26.4884 49.5319 26.7069 49.5319C26.9254 49.5319 27.1351 49.4362 27.2909 49.2655C27.4441 49.0918 27.5299 48.858 27.5299 48.6145C27.5299 48.3709 27.4441 48.1371 27.2909 47.9635C27.1351 47.7927 26.9254 47.697 26.7069 47.697C26.4884 47.697 26.2787 47.7927 26.1229 47.9635C25.9697 48.1371 25.8839 48.3709 25.8839 48.6145C25.8839 48.858 25.9697 49.0918 26.1229 49.2655ZM29.9459 45.0049C30.1017 45.1757 30.3114 45.2713 30.5299 45.2713C30.7484 45.2713 30.9581 45.1757 31.1139 45.0049C31.2671 44.8312 31.3529 44.5974 31.3529 44.3539C31.3529 44.1103 31.2671 43.8765 31.1139 43.7029C30.9581 43.5321 30.7484 43.4364 30.5299 43.4364C30.3114 43.4364 30.1017 43.5321 29.9459 43.7029C29.7927 43.8765 29.7069 44.1103 29.7069 44.3539C29.7069 44.5974 29.7927 44.8312 29.9459 45.0049Z" fill="#0A3B3C"/>
<path d="M41.5179 49.2653C41.6737 49.4361 41.8834 49.5318 42.1019 49.5318C42.3204 49.5318 42.5301 49.4361 42.6859 49.2653C42.8391 49.0917 42.9249 48.8579 42.9249 48.6143C42.9249 48.3708 42.8391 48.137 42.6859 47.9633C42.5301 47.7926 42.3204 47.6969 42.1019 47.6969C41.8834 47.6969 41.6737 47.7926 41.5179 47.9633C41.3647 48.137 41.2789 48.3708 41.2789 48.6143C41.2789 48.8579 41.3647 49.0917 41.5179 49.2653ZM37.6959 45.0048C37.8518 45.1758 38.0617 45.2717 38.2804 45.2717C38.4991 45.2717 38.7091 45.1758 38.8649 45.0048C39.0181 44.8311 39.1039 44.5973 39.1039 44.3537C39.1039 44.1102 39.0181 43.8764 38.8649 43.7027C38.7091 43.5316 38.4991 43.4357 38.2804 43.4357C38.0617 43.4357 37.8518 43.5316 37.6959 43.7027C37.5427 43.8764 37.4569 44.1102 37.4569 44.3537C37.4569 44.5973 37.5427 44.8311 37.6959 45.0048ZM33.8739 40.626C34.0297 40.7968 34.2394 40.8924 34.4579 40.8924C34.6764 40.8924 34.8861 40.7968 35.0419 40.626C35.1951 40.4523 35.2809 40.2185 35.2809 39.975C35.2809 39.7314 35.1951 39.4976 35.0419 39.324C34.8861 39.1532 34.6764 39.0575 34.4579 39.0575C34.2394 39.0575 34.0297 39.1532 33.8739 39.324C33.5549 39.6785 33.4489 40.2715 33.8739 40.626ZM26.1229 53.5282C26.2787 53.6989 26.4884 53.7946 26.7069 53.7946C26.9254 53.7946 27.1351 53.6989 27.2909 53.5282C27.4441 53.3545 27.5299 53.1207 27.5299 52.8771C27.5299 52.6336 27.4441 52.3998 27.2909 52.2261C27.1351 52.0554 26.9254 51.9597 26.7069 51.9597C26.4884 51.9597 26.2787 52.0554 26.1229 52.2261C25.9697 52.3998 25.8839 52.6336 25.8839 52.8771C25.8839 53.1207 25.9697 53.3545 26.1229 53.5282ZM22.2999 53.5282C22.4557 53.6989 22.6654 53.7946 22.8839 53.7946C23.1024 53.7946 23.3121 53.6989 23.4679 53.5282C23.6211 53.3545 23.7069 53.1207 23.7069 52.8771C23.7069 52.6336 23.6211 52.3998 23.4679 52.2261C23.3121 52.0554 23.1024 51.9597 22.8839 51.9597C22.6654 51.9597 22.4557 52.0554 22.2999 52.2261C22.1467 52.3998 22.0609 52.6336 22.0609 52.8771C22.0609 53.1207 22.1467 53.3545 22.2999 53.5282ZM29.9449 53.5282C30.1007 53.6989 30.3104 53.7946 30.5289 53.7946C30.7474 53.7946 30.9571 53.6989 31.1129 53.5282C31.2661 53.3545 31.3519 53.1207 31.3519 52.8771C31.3519 52.6336 31.2661 52.3998 31.1129 52.2261C30.9571 52.0554 30.7474 51.9597 30.5289 51.9597C30.3104 51.9597 30.1007 52.0554 29.9449 52.2261C29.7917 52.3998 29.7059 52.6336 29.7059 52.8771C29.7059 53.1207 29.7917 53.3545 29.9449 53.5282ZM26.1229 49.2676C26.2787 49.4383 26.4884 49.534 26.7069 49.534C26.9254 49.534 27.1351 49.4383 27.2909 49.2676C27.4441 49.0939 27.5299 48.8601 27.5299 48.6166C27.5299 48.373 27.4441 48.1392 27.2909 47.9655C27.1351 47.7948 26.9254 47.6991 26.7069 47.6991C26.4884 47.6991 26.2787 47.7948 26.1229 47.9655C25.9697 48.1392 25.8839 48.373 25.8839 48.6166C25.8839 48.8601 25.9697 49.0939 26.1229 49.2676ZM41.5209 32.1059C41.6767 32.2767 41.8864 32.3724 42.1049 32.3724C42.3234 32.3724 42.5331 32.2767 42.6889 32.1059C42.8421 31.9323 42.9279 31.6985 42.9279 31.4549C42.9279 31.2114 42.8421 30.9776 42.6889 30.8039C42.5331 30.6332 42.3234 30.5375 42.1049 30.5375C41.8864 30.5375 41.6767 30.6332 41.5209 30.8039C41.3677 30.9776 41.2819 31.2114 41.2819 31.4549C41.2819 31.6985 41.3677 31.9323 41.5209 32.1059ZM37.6989 27.8431C37.8547 28.0139 38.0644 28.1095 38.2829 28.1095C38.5014 28.1095 38.7111 28.0139 38.8669 27.8431C39.0201 27.6694 39.1059 27.4357 39.1059 27.1921C39.1059 26.9486 39.0201 26.7148 38.8669 26.5411C38.7111 26.3703 38.5014 26.2747 38.2829 26.2747C38.0644 26.2747 37.8547 26.3703 37.6989 26.5411C37.5457 26.7148 37.4599 26.9486 37.4599 27.1921C37.4599 27.4357 37.5457 27.6694 37.6989 27.8431ZM45.3439 27.8431C45.4997 28.0139 45.7094 28.1095 45.9279 28.1095C46.1464 28.1095 46.3561 28.0139 46.5119 27.8431C46.6651 27.6694 46.7509 27.4357 46.7509 27.1921C46.7509 26.9486 46.6651 26.7148 46.5119 26.5411C46.3561 26.3703 46.1464 26.2747 45.9279 26.2747C45.7094 26.2747 45.4997 26.3703 45.3439 26.5411C45.1907 26.7148 45.1049 26.9486 45.1049 27.1921C45.1049 27.4357 45.1907 27.6694 45.3439 27.8431ZM41.5209 27.8431C41.6767 28.0139 41.8864 28.1095 42.1049 28.1095C42.3234 28.1095 42.5331 28.0139 42.6889 27.8431C42.8421 27.6694 42.9279 27.4357 42.9279 27.1921C42.9279 26.9486 42.8421 26.7148 42.6889 26.5411C42.5331 26.3703 42.3234 26.2747 42.1049 26.2747C41.8864 26.2747 41.6767 26.3703 41.5209 26.5411C41.3677 26.7148 41.2819 26.9486 41.2819 27.1921C41.2819 27.4357 41.3677 27.6694 41.5209 27.8431Z" fill="#0A3B3C"/>
<path d="M33.8739 40.6261C34.0297 40.7968 34.2395 40.8925 34.4579 40.8925C34.6764 40.8925 34.8861 40.7968 35.0419 40.6261C35.1951 40.4524 35.2809 40.2186 35.2809 39.975C35.2809 39.7315 35.1951 39.4977 35.0419 39.324C34.8861 39.1533 34.6764 39.0576 34.4579 39.0576C34.2395 39.0576 34.0297 39.1533 33.8739 39.324C33.5559 39.6785 33.4489 40.2716 33.8739 40.6261ZM29.9459 36.3655C30.1017 36.5362 30.3115 36.6319 30.5299 36.6319C30.7484 36.6319 30.9581 36.5362 31.1139 36.3655C31.2671 36.1918 31.3529 35.958 31.3529 35.7145C31.3529 35.4709 31.2671 35.2371 31.1139 35.0634C30.9581 34.8927 30.7484 34.797 30.5299 34.797C30.3115 34.797 30.1017 34.8927 29.9459 35.0634C29.7928 35.2371 29.7069 35.4709 29.7069 35.7145C29.7069 35.958 29.7928 36.1918 29.9459 36.3655ZM37.6969 36.3655C37.8527 36.5362 38.0625 36.6319 38.2809 36.6319C38.4994 36.6319 38.7092 36.5362 38.8649 36.3655C39.0181 36.1918 39.1039 35.958 39.1039 35.7145C39.1039 35.4709 39.0181 35.2371 38.8649 35.0634C38.7092 34.8927 38.4994 34.797 38.2809 34.797C38.0625 34.797 37.8527 34.8927 37.6969 35.0634C37.5438 35.2371 37.4579 35.4709 37.4579 35.7145C37.4579 35.958 37.5438 36.1918 37.6969 36.3655ZM33.8739 32.1049C34.0297 32.2756 34.2395 32.3713 34.4579 32.3713C34.6764 32.3713 34.8861 32.2756 35.0419 32.1049C35.1954 31.9312 35.2814 31.6971 35.2814 31.4533C35.2814 31.2095 35.1954 30.9755 35.0419 30.8017C34.8861 30.631 34.6764 30.5353 34.4579 30.5353C34.2395 30.5353 34.0297 30.631 33.8739 30.8017C33.4499 31.1573 33.4499 31.7493 33.8739 32.1038V32.1049ZM29.9459 32.1049C30.1017 32.2756 30.3115 32.3713 30.5299 32.3713C30.7484 32.3713 30.9581 32.2756 31.1139 32.1049C31.2674 31.9312 31.3534 31.6971 31.3534 31.4533C31.3534 31.2095 31.2674 30.9755 31.1139 30.8017C30.9581 30.631 30.7484 30.5353 30.5299 30.5353C30.3115 30.5353 30.1017 30.631 29.9459 30.8017C29.7928 30.9754 29.7069 31.2092 29.7069 31.4528C29.7069 31.6963 29.7928 31.9301 29.9459 32.1038V32.1049ZM33.8739 36.3655C34.0297 36.5362 34.2395 36.6319 34.4579 36.6319C34.6764 36.6319 34.8861 36.5362 35.0419 36.3655C35.1951 36.1918 35.2809 35.958 35.2809 35.7145C35.2809 35.4709 35.1951 35.2371 35.0419 35.0634C34.8861 34.8927 34.6764 34.797 34.4579 34.797C34.2395 34.797 34.0297 34.8927 33.8739 35.0634C33.4499 35.4179 33.4499 36.011 33.8739 36.3655ZM33.8739 27.8432C34.0297 28.0139 34.2395 28.1096 34.4579 28.1096C34.6764 28.1096 34.8861 28.0139 35.0419 27.8432C35.1951 27.6695 35.2809 27.4357 35.2809 27.1922C35.2809 26.9486 35.1951 26.7148 35.0419 26.5411C34.8861 26.3704 34.6764 26.2747 34.4579 26.2747C34.2395 26.2747 34.0297 26.3704 33.8739 26.5411C33.4499 26.8968 33.4499 27.4887 33.8739 27.8432ZM37.6969 32.1049C37.8527 32.2756 38.0625 32.3713 38.2809 32.3713C38.4994 32.3713 38.7092 32.2756 38.8649 32.1049C39.0184 31.9312 39.1044 31.6971 39.1044 31.4533C39.1044 31.2095 39.0184 30.9755 38.8649 30.8017C38.7092 30.631 38.4994 30.5353 38.2809 30.5353C38.0625 30.5353 37.8527 30.631 37.6969 30.8017C37.5438 30.9754 37.4579 31.2092 37.4579 31.4528C37.4579 31.6963 37.5438 31.9301 37.6969 32.1038V32.1049ZM26.1229 32.1049C26.2787 32.2756 26.4885 32.3713 26.7069 32.3713C26.9254 32.3713 27.1351 32.2756 27.2909 32.1049C27.4444 31.9312 27.5304 31.6971 27.5304 31.4533C27.5304 31.2095 27.4444 30.9755 27.2909 30.8017C27.1351 30.631 26.9254 30.5353 26.7069 30.5353C26.4885 30.5353 26.2787 30.631 26.1229 30.8017C25.9698 30.9754 25.8839 31.2092 25.8839 31.4528C25.8839 31.6963 25.9698 31.9301 26.1229 32.1038V32.1049ZM29.9459 27.8432C30.1017 28.0139 30.3115 28.1096 30.5299 28.1096C30.7484 28.1096 30.9581 28.0139 31.1139 27.8432C31.2671 27.6695 31.3529 27.4357 31.3529 27.1922C31.3529 26.9486 31.2671 26.7148 31.1139 26.5411C30.9581 26.3704 30.7484 26.2747 30.5299 26.2747C30.3115 26.2747 30.1017 26.3704 29.9459 26.5411C29.7928 26.7148 29.7069 26.9486 29.7069 27.1922C29.7069 27.4357 29.7928 27.6695 29.9459 27.8432ZM41.5179 32.1049C41.6737 32.2756 41.8835 32.3713 42.1019 32.3713C42.3204 32.3713 42.5301 32.2756 42.6859 32.1049C42.8394 31.9312 42.9254 31.6971 42.9254 31.4533C42.9254 31.2095 42.8394 30.9755 42.6859 30.8017C42.5301 30.631 42.3204 30.5353 42.1019 30.5353C41.8835 30.5353 41.6737 30.631 41.5179 30.8017C41.3648 30.9754 41.2789 31.2092 41.2789 31.4528C41.2789 31.6963 41.3648 31.9301 41.5179 32.1038V32.1049ZM37.6959 27.8432C37.8518 28.0143 38.0617 28.1102 38.2804 28.1102C38.4992 28.1102 38.7091 28.0143 38.8649 27.8432C39.0181 27.6695 39.1039 27.4357 39.1039 27.1922C39.1039 26.9486 39.0181 26.7148 38.8649 26.5411C38.7091 26.3701 38.4992 26.2742 38.2804 26.2742C38.0617 26.2742 37.8518 26.3701 37.6959 26.5411C37.5428 26.7148 37.4569 26.9486 37.4569 27.1922C37.4569 27.4357 37.5428 27.6695 37.6959 27.8432ZM26.1229 49.2676C26.2787 49.4384 26.4885 49.5341 26.7069 49.5341C26.9254 49.5341 27.1351 49.4384 27.2909 49.2676C27.4441 49.094 27.5299 48.8602 27.5299 48.6166C27.5299 48.3731 27.4441 48.1393 27.2909 47.9656C27.1351 47.7949 26.9254 47.6992 26.7069 47.6992C26.4885 47.6992 26.2787 47.7949 26.1229 47.9656C25.9698 48.1393 25.8839 48.3731 25.8839 48.6166C25.8839 48.8602 25.9698 49.094 26.1229 49.2676ZM22.2999 45.0048C22.4557 45.1756 22.6655 45.2712 22.8839 45.2712C23.1024 45.2712 23.3121 45.1756 23.4679 45.0048C23.6211 44.8312 23.7069 44.5973 23.7069 44.3538C23.7069 44.1103 23.6211 43.8765 23.4679 43.7028C23.3121 43.532 23.1024 43.4364 22.8839 43.4364C22.6655 43.4364 22.4557 43.532 22.2999 43.7028C22.1468 43.8765 22.0609 44.1103 22.0609 44.3538C22.0609 44.5973 22.1468 44.8312 22.2999 45.0048ZM29.9449 45.0048C30.1007 45.1756 30.3105 45.2712 30.5289 45.2712C30.7474 45.2712 30.9571 45.1756 31.1129 45.0048C31.2661 44.8312 31.3519 44.5973 31.3519 44.3538C31.3519 44.1103 31.2661 43.8765 31.1129 43.7028C30.9571 43.532 30.7474 43.4364 30.5289 43.4364C30.3105 43.4364 30.1007 43.532 29.9449 43.7028C29.7918 43.8765 29.7059 44.1103 29.7059 44.3538C29.7059 44.5973 29.7918 44.8312 29.9449 45.0048ZM26.1229 40.6261C26.2787 40.7968 26.4885 40.8925 26.7069 40.8925C26.9254 40.8925 27.1351 40.7968 27.2909 40.6261C27.4441 40.4524 27.5299 40.2186 27.5299 39.975C27.5299 39.7315 27.4441 39.4977 27.2909 39.324C27.1351 39.1533 26.9254 39.0576 26.7069 39.0576C26.4885 39.0576 26.2787 39.1533 26.1229 39.324C25.8039 39.7978 25.8039 40.2716 26.1229 40.6261ZM22.2999 40.6261C22.4557 40.7968 22.6655 40.8925 22.8839 40.8925C23.1024 40.8925 23.3121 40.7968 23.4679 40.6261C23.6211 40.4524 23.7069 40.2186 23.7069 39.975C23.7069 39.7315 23.6211 39.4977 23.4679 39.324C23.3121 39.1533 23.1024 39.0576 22.8839 39.0576C22.6655 39.0576 22.4557 39.1533 22.2999 39.324C21.9819 39.7978 21.9819 40.2716 22.2999 40.6261ZM26.1229 45.0048C26.2787 45.1756 26.4885 45.2712 26.7069 45.2712C26.9254 45.2712 27.1351 45.1756 27.2909 45.0048C27.4441 44.8312 27.5299 44.5973 27.5299 44.3538C27.5299 44.1103 27.4441 43.8765 27.2909 43.7028C27.1351 43.532 26.9254 43.4364 26.7069 43.4364C26.4885 43.4364 26.2787 43.532 26.1229 43.7028C25.9698 43.8765 25.8839 44.1103 25.8839 44.3538C25.8839 44.5973 25.9698 44.8312 26.1229 45.0048ZM26.1229 36.3655C26.2787 36.5362 26.4885 36.6319 26.7069 36.6319C26.9254 36.6319 27.1351 36.5362 27.2909 36.3655C27.4441 36.1918 27.5299 35.958 27.5299 35.7145C27.5299 35.4709 27.4441 35.2371 27.2909 35.0634C27.1351 34.8927 26.9254 34.797 26.7069 34.797C26.4885 34.797 26.2787 34.8927 26.1229 35.0634C25.9698 35.2371 25.8839 35.4709 25.8839 35.7145C25.8839 35.958 25.9698 36.1918 26.1229 36.3655ZM29.9449 40.6261C30.1007 40.7968 30.3105 40.8925 30.5289 40.8925C30.7474 40.8925 30.9571 40.7968 31.1129 40.6261C31.2661 40.4524 31.3519 40.2186 31.3519 39.975C31.3519 39.7315 31.2661 39.4977 31.1129 39.324C30.9571 39.1533 30.7474 39.0576 30.5289 39.0576C30.3105 39.0576 30.1007 39.1533 29.9449 39.324C29.6269 39.7978 29.6269 40.2716 29.9449 40.6261ZM18.3719 40.6261C18.5277 40.7968 18.7375 40.8925 18.9559 40.8925C19.1744 40.8925 19.3841 40.7968 19.5399 40.6261C19.6931 40.4524 19.7789 40.2186 19.7789 39.975C19.7789 39.7315 19.6931 39.4977 19.5399 39.324C19.3841 39.1533 19.1744 39.0576 18.9559 39.0576C18.7375 39.0576 18.5277 39.1533 18.3719 39.324C18.0529 39.7978 18.0529 40.2716 18.3719 40.6261ZM22.2999 36.3655C22.4557 36.5362 22.6655 36.6319 22.8839 36.6319C23.1024 36.6319 23.3121 36.5362 23.4679 36.3655C23.6211 36.1918 23.7069 35.958 23.7069 35.7145C23.7069 35.4709 23.6211 35.2371 23.4679 35.0634C23.3121 34.8927 23.1024 34.797 22.8839 34.797C22.6655 34.797 22.4557 34.8927 22.2999 35.0634C22.1468 35.2371 22.0609 35.4709 22.0609 35.7145C22.0609 35.958 22.1468 36.1918 22.2999 36.3655Z" fill="#0A3B3C"/>
<path d="M33.8739 40.6262C34.0297 40.7969 34.2395 40.8926 34.4579 40.8926C34.6764 40.8926 34.8861 40.7969 35.0419 40.6262C35.1951 40.4525 35.2809 40.2187 35.2809 39.9751C35.2809 39.7316 35.1951 39.4978 35.0419 39.3241C34.8861 39.1534 34.6764 39.0577 34.4579 39.0577C34.2395 39.0577 34.0297 39.1534 33.8739 39.3241C33.5549 39.6786 33.4489 40.2717 33.8739 40.6262ZM29.9449 36.3656C30.1007 36.5363 30.3105 36.632 30.5289 36.632C30.7474 36.632 30.9571 36.5363 31.1129 36.3656C31.2661 36.1919 31.3519 35.9581 31.3519 35.7145C31.3519 35.471 31.2661 35.2372 31.1129 35.0635C30.9571 34.8928 30.7474 34.7971 30.5289 34.7971C30.3105 34.7971 30.1007 34.8928 29.9449 35.0635C29.7918 35.2372 29.7059 35.471 29.7059 35.7145C29.7059 35.9581 29.7918 36.1919 29.9449 36.3656ZM26.1229 32.105C26.2787 32.2757 26.4885 32.3714 26.7069 32.3714C26.9254 32.3714 27.1351 32.2757 27.2909 32.105C27.4444 31.9313 27.5304 31.6972 27.5304 31.4534C27.5304 31.2096 27.4444 30.9755 27.2909 30.8018C27.1351 30.6311 26.9254 30.5354 26.7069 30.5354C26.4885 30.5354 26.2787 30.6311 26.1229 30.8018C25.9698 30.9755 25.8839 31.2093 25.8839 31.4528C25.8839 31.6964 25.9698 31.9302 26.1229 32.1039V32.105ZM22.2999 53.5261C22.4558 53.6972 22.6657 53.7931 22.8844 53.7931C23.1032 53.7931 23.3131 53.6972 23.4689 53.5261C23.6221 53.3524 23.7079 53.1186 23.7079 52.8751C23.7079 52.6315 23.6221 52.3977 23.4689 52.2241C23.3131 52.0533 23.1034 51.9576 22.8849 51.9576C22.6665 51.9576 22.4567 52.0533 22.3009 52.2241C22.1478 52.3977 22.0619 52.6315 22.0619 52.8751C22.0619 53.1186 22.1478 53.3524 22.3009 53.5261H22.2999ZM18.3719 49.2655C18.5277 49.4362 18.7375 49.5319 18.9559 49.5319C19.1744 49.5319 19.3841 49.4362 19.5399 49.2655C19.6931 49.0918 19.7789 48.858 19.7789 48.6145C19.7789 48.3709 19.6931 48.1371 19.5399 47.9635C19.3841 47.7927 19.1744 47.697 18.9559 47.697C18.7375 47.697 18.5277 47.7927 18.3719 47.9635C18.2188 48.1371 18.1329 48.3709 18.1329 48.6145C18.1329 48.858 18.2188 49.0918 18.3719 49.2655ZM18.3719 53.5261C18.5277 53.6968 18.7375 53.7925 18.9559 53.7925C19.1744 53.7925 19.3841 53.6968 19.5399 53.5261C19.6931 53.3524 19.7789 53.1186 19.7789 52.8751C19.7789 52.6315 19.6931 52.3977 19.5399 52.2241C19.3841 52.0533 19.1744 51.9576 18.9559 51.9576C18.7375 51.9576 18.5277 52.0533 18.3719 52.2241C18.2188 52.3977 18.1329 52.6315 18.1329 52.8751C18.1329 53.1186 18.2188 53.3524 18.3719 53.5261ZM18.3719 45.0049C18.5277 45.1757 18.7375 45.2713 18.9559 45.2713C19.1744 45.2713 19.3841 45.1757 19.5399 45.0049C19.6931 44.8312 19.7789 44.5974 19.7789 44.3539C19.7789 44.1103 19.6931 43.8765 19.5399 43.7029C19.3841 43.5321 19.1744 43.4364 18.9559 43.4364C18.7375 43.4364 18.5277 43.5321 18.3719 43.7029C18.2188 43.8765 18.1329 44.1103 18.1329 44.3539C18.1329 44.5974 18.2188 44.8312 18.3719 45.0049ZM22.2999 49.2655C22.4558 49.4366 22.6657 49.5325 22.8844 49.5325C23.1032 49.5325 23.3131 49.4366 23.4689 49.2655C23.6221 49.0918 23.7079 48.858 23.7079 48.6145C23.7079 48.3709 23.6221 48.1371 23.4689 47.9635C23.3131 47.7927 23.1034 47.697 22.8849 47.697C22.6665 47.697 22.4567 47.7927 22.3009 47.9635C22.1478 48.1371 22.0619 48.3709 22.0619 48.6145C22.0619 48.858 22.1478 49.0918 22.3009 49.2655H22.2999ZM26.1239 49.2655C26.2797 49.4362 26.4895 49.5319 26.7079 49.5319C26.9264 49.5319 27.1361 49.4362 27.2919 49.2655C27.4451 49.0918 27.5309 48.858 27.5309 48.6145C27.5309 48.3709 27.4451 48.1371 27.2919 47.9635C27.1361 47.7927 26.9264 47.697 26.7079 47.697C26.4895 47.697 26.2797 47.7927 26.1239 47.9635C25.9708 48.1371 25.8849 48.3709 25.8849 48.6145C25.8849 48.858 25.9708 49.0918 26.1239 49.2655ZM22.3009 45.0049C22.4568 45.176 22.6667 45.2719 22.8854 45.2719C23.1042 45.2719 23.3141 45.176 23.4699 45.0049C23.6231 44.8312 23.7089 44.5974 23.7089 44.3539C23.7089 44.1103 23.6231 43.8765 23.4699 43.7029C23.3141 43.5318 23.1042 43.4359 22.8854 43.4359C22.6667 43.4359 22.4568 43.5318 22.3009 43.7029C22.1478 43.8765 22.0619 44.1103 22.0619 44.3539C22.0619 44.5974 22.1478 44.8312 22.3009 45.0049ZM18.3729 40.6262C18.5287 40.7969 18.7385 40.8926 18.9569 40.8926C19.1754 40.8926 19.3851 40.7969 19.5409 40.6262C19.6941 40.4525 19.7799 40.2187 19.7799 39.9751C19.7799 39.7316 19.6941 39.4978 19.5409 39.3241C19.3851 39.1534 19.1754 39.0577 18.9569 39.0577C18.7385 39.0577 18.5287 39.1534 18.3729 39.3241C18.0549 39.7979 18.0549 40.2717 18.3729 40.6262Z" fill="#0A3B3C"/>
<path d="M26.1229 32.1059C26.2787 32.2767 26.4885 32.3724 26.7069 32.3724C26.9254 32.3724 27.1351 32.2767 27.2909 32.1059C27.4441 31.9323 27.5299 31.6985 27.5299 31.4549C27.5299 31.2114 27.4441 30.9776 27.2909 30.8039C27.1351 30.6332 26.9254 30.5375 26.7069 30.5375C26.4885 30.5375 26.2787 30.6332 26.1229 30.8039C25.9698 30.9776 25.8839 31.2114 25.8839 31.4549C25.8839 31.6985 25.9698 31.9323 26.1229 32.1059ZM22.2999 27.8465C22.4557 28.0172 22.6655 28.1129 22.8839 28.1129C23.1024 28.1129 23.3121 28.0172 23.4679 27.8465C23.6214 27.6727 23.7074 27.4387 23.7074 27.1949C23.7074 26.9511 23.6214 26.717 23.4679 26.5433C23.3121 26.3726 23.1024 26.2769 22.8839 26.2769C22.6655 26.2769 22.4557 26.3726 22.2999 26.5433C22.1468 26.717 22.0609 26.9508 22.0609 27.1943C22.0609 27.4379 22.1468 27.6717 22.2999 27.8453V27.8465ZM29.9449 27.8465C30.1007 28.0172 30.3105 28.1129 30.5289 28.1129C30.7474 28.1129 30.9571 28.0172 31.1129 27.8465C31.2664 27.6727 31.3524 27.4387 31.3524 27.1949C31.3524 26.9511 31.2664 26.717 31.1129 26.5433C30.9571 26.3726 30.7474 26.2769 30.5289 26.2769C30.3105 26.2769 30.1007 26.3726 29.9449 26.5433C29.7918 26.717 29.7059 26.9508 29.7059 27.1943C29.7059 27.4379 29.7918 27.6717 29.9449 27.8453V27.8465ZM26.1229 27.8465C26.2787 28.0172 26.4885 28.1129 26.7069 28.1129C26.9254 28.1129 27.1351 28.0172 27.2909 27.8465C27.4444 27.6727 27.5304 27.4387 27.5304 27.1949C27.5304 26.9511 27.4444 26.717 27.2909 26.5433C27.1351 26.3726 26.9254 26.2769 26.7069 26.2769C26.4885 26.2769 26.2787 26.3726 26.1229 26.5433C25.9698 26.717 25.8839 26.9508 25.8839 27.1943C25.8839 27.4379 25.9698 27.6717 26.1229 27.8453V27.8465ZM18.3719 40.626C18.5277 40.7967 18.7375 40.8924 18.9559 40.8924C19.1744 40.8924 19.3841 40.7967 19.5399 40.626C19.6931 40.4523 19.7789 40.2185 19.7789 39.975C19.7789 39.7314 19.6931 39.4976 19.5399 39.324C19.3841 39.1532 19.1744 39.0575 18.9559 39.0575C18.7375 39.0575 18.5277 39.1532 18.3719 39.324C18.0539 39.7977 18.0539 40.2715 18.3719 40.626ZM22.2999 36.3654C22.4558 36.5365 22.6657 36.6324 22.8844 36.6324C23.1032 36.6324 23.3131 36.5365 23.4689 36.3654C23.6221 36.1917 23.7079 35.9579 23.7079 35.7144C23.7079 35.4708 23.6221 35.2371 23.4689 35.0634C23.3131 34.8926 23.1034 34.797 22.8849 34.797C22.6665 34.797 22.4567 34.8926 22.3009 35.0634C22.1478 35.2371 22.0619 35.4708 22.0619 35.7144C22.0619 35.9579 22.1478 36.1917 22.3009 36.3654H22.2999ZM18.3719 32.1048C18.5277 32.2756 18.7375 32.3713 18.9559 32.3713C19.1744 32.3713 19.3841 32.2756 19.5399 32.1048C19.6934 31.9311 19.7794 31.6971 19.7794 31.4532C19.7794 31.2094 19.6934 30.9754 19.5399 30.8017C19.3841 30.6309 19.1744 30.5352 18.9559 30.5352C18.7375 30.5352 18.5277 30.6309 18.3719 30.8017C18.2188 30.9753 18.1329 31.2091 18.1329 31.4527C18.1329 31.6962 18.2188 31.93 18.3719 32.1037V32.1048ZM18.3719 36.3654C18.5277 36.5362 18.7375 36.6318 18.9559 36.6318C19.1744 36.6318 19.3841 36.5362 19.5399 36.3654C19.6931 36.1917 19.7789 35.9579 19.7789 35.7144C19.7789 35.4708 19.6931 35.2371 19.5399 35.0634C19.3841 34.8926 19.1744 34.797 18.9559 34.797C18.7375 34.797 18.5277 34.8926 18.3719 35.0634C18.2188 35.2371 18.1329 35.4708 18.1329 35.7144C18.1329 35.9579 18.2188 36.1917 18.3719 36.3654ZM18.3719 27.8431C18.5277 28.0139 18.7375 28.1095 18.9559 28.1095C19.1744 28.1095 19.3841 28.0139 19.5399 27.8431C19.6931 27.6694 19.7789 27.4357 19.7789 27.1921C19.7789 26.9486 19.6931 26.7148 19.5399 26.5411C19.3841 26.3703 19.1744 26.2747 18.9559 26.2747C18.7375 26.2747 18.5277 26.3703 18.3719 26.5411C18.2188 26.7148 18.1329 26.9486 18.1329 27.1921C18.1329 27.4357 18.2188 27.6694 18.3719 27.8431ZM22.2999 32.1048C22.4558 32.2759 22.6657 32.3718 22.8844 32.3718C23.1032 32.3718 23.3131 32.2759 23.4689 32.1048C23.6224 31.9311 23.7084 31.6971 23.7084 31.4532C23.7084 31.2094 23.6224 30.9754 23.4689 30.8017C23.3131 30.6309 23.1034 30.5352 22.8849 30.5352C22.6665 30.5352 22.4567 30.6309 22.3009 30.8017C22.1478 30.9753 22.0619 31.2091 22.0619 31.4527C22.0619 31.6962 22.1478 31.93 22.3009 32.1037L22.2999 32.1048Z" fill="#0A3B3C"/>
<path d="M26.1239 32.1049C26.2797 32.2756 26.4895 32.3713 26.7079 32.3713C26.9264 32.3713 27.1361 32.2756 27.2919 32.1049C27.4454 31.9312 27.5314 31.6971 27.5314 31.4533C27.5314 31.2095 27.4454 30.9755 27.2919 30.8017C27.1361 30.631 26.9264 30.5353 26.7079 30.5353C26.4895 30.5353 26.2797 30.631 26.1239 30.8017C25.9708 30.9754 25.8849 31.2092 25.8849 31.4528C25.8849 31.6963 25.9708 31.9301 26.1239 32.1038V32.1049ZM22.3009 27.8432C22.4568 28.0143 22.6667 28.1102 22.8854 28.1102C23.1042 28.1102 23.3141 28.0143 23.4699 27.8432C23.6231 27.6695 23.7089 27.4357 23.7089 27.1922C23.7089 26.9486 23.6231 26.7148 23.4699 26.5411C23.3141 26.3701 23.1042 26.2742 22.8854 26.2742C22.6667 26.2742 22.4568 26.3701 22.3009 26.5411C22.1478 26.7148 22.0619 26.9486 22.0619 27.1922C22.0619 27.4357 22.1478 27.6695 22.3009 27.8432ZM18.3719 40.6261C18.5277 40.7968 18.7375 40.8925 18.9559 40.8925C19.1744 40.8925 19.3841 40.7968 19.5399 40.6261C19.6931 40.4524 19.7789 40.2186 19.7789 39.975C19.7789 39.7315 19.6931 39.4977 19.5399 39.324C19.3841 39.1533 19.1744 39.0576 18.9559 39.0576C18.7375 39.0576 18.5277 39.1533 18.3719 39.324C18.0529 39.7978 18.0529 40.2716 18.3719 40.6261Z" fill="#0A3B3C"/>
<path d="M42.736 27.3069C38.912 23.9682 34.614 26.3716 30.971 26.3716C27.329 26.3716 23.029 23.9682 19.207 27.308C15.7 30.3691 14.536 39.6651 19.267 47.8797C23.805 55.761 28.381 53.0889 30.971 53.0889C33.561 53.0889 38.138 55.761 42.676 47.8797C47.406 39.6651 46.242 30.3691 42.736 27.3069V27.3069Z" stroke="#0B3B3D" stroke-width="1.902" stroke-miterlimit="10" stroke-linecap="square"/>
<path fill-rule="evenodd" clip-rule="evenodd" d="M39.34 15.0091C37.598 15.2421 35.99 16.0012 34.764 17.1606C33.281 18.564 32.493 20.4179 32.493 22.2973V24.188C34.236 23.955 35.844 23.1958 37.069 22.0365C38.553 20.6319 39.341 18.7792 39.341 16.8997V15.0091H39.34ZM33.287 15.2209C35.223 13.3893 37.813 12.3894 40.482 12.3894H41.624V16.8997C41.624 19.6019 40.487 22.1402 38.546 23.9762C36.611 25.8066 34.021 26.8076 31.352 26.8076H30.21V22.2973C30.21 19.5952 31.346 17.0558 33.288 15.2209H33.287Z" fill="#0B3B3D"/>
<path fill-rule="evenodd" clip-rule="evenodd" d="M24.171 16.9009C24.214 16.7409 24.2849 16.5919 24.3797 16.4624C24.4744 16.333 24.591 16.2256 24.723 16.1464C24.855 16.0672 24.9996 16.0177 25.1487 16.0009C25.2978 15.984 25.4484 16.0001 25.592 16.0481C27.579 16.7125 29.201 18.3334 30.313 20.1983C31.425 22.0633 32.105 24.3029 32.105 26.3741C32.105 26.7116 31.9847 27.0352 31.7706 27.2739C31.5566 27.5125 31.2662 27.6466 30.9635 27.6466C30.6607 27.6466 30.3704 27.5125 30.1563 27.2739C29.9422 27.0352 29.822 26.7116 29.822 26.3741C29.822 24.8825 29.317 23.1257 28.412 21.6063C27.506 20.0869 26.279 18.9342 24.936 18.485C24.6463 18.388 24.403 18.1668 24.2595 17.87C24.1161 17.5732 24.0842 17.225 24.171 16.902V16.9009Z" fill="#0B3B3D"/>
</g>
</svg>
