<svg width="62" height="68" viewBox="0 0 62 68" fill="none" xmlns="http://www.w3.org/2000/svg">
<path fill-rule="evenodd" clip-rule="evenodd" d="M31.268 3.5492C15.915 3.5492 3.46801 17.1997 3.46801 34.0384C3.46801 50.8772 15.915 64.5276 31.268 64.5276C46.621 64.5276 59.067 50.8772 59.067 34.0373C59.067 17.1997 46.621 3.5492 31.267 3.5492H31.268ZM1.23901 34.0384C1.23901 15.8484 14.683 1.10229 31.268 1.10229C47.852 1.10229 61.297 15.8484 61.297 34.0384C61.297 52.2273 47.852 66.9724 31.267 66.9724C14.683 66.9724 1.23901 52.2273 1.23901 34.0384Z" fill="#0B3B3D"/>
<path d="M39.233 21.2643C41.608 21.2643 43.587 22.2755 45.17 24.185C46.258 25.421 46.851 27.1068 47.346 29.2411C47.841 32.4985 47.247 35.3063 45.466 38.2281C43.982 40.7002 42.102 42.9464 39.629 45.3055C37.156 47.6647 34.385 49.799 31.219 51.8204C31.12 51.8204 31.12 51.8204 31.12 51.9334C31.021 51.9334 31.021 51.9334 30.922 51.8215C26.965 49.2375 24.392 47.1032 22.018 44.857C20.336 43.1712 18.456 41.1499 16.873 38.5648C15.587 36.4305 14.993 34.1843 14.894 31.7121C14.796 29.2411 15.488 26.769 16.972 24.5228C18.357 22.6122 20.138 21.6021 22.315 21.3772H23.106C24.887 21.3772 26.371 21.8269 27.657 22.7252C28.449 23.2867 29.043 23.9612 29.537 24.6346L29.637 24.7476L31.267 26.5288L32.703 24.6346C34.187 22.5003 36.166 21.3772 38.837 21.2643H39.233ZM39.233 19.0181H38.838C35.672 19.1299 33.099 20.5908 31.219 23.1748C30.626 22.2755 29.735 21.3761 28.845 20.7027C27.163 19.5796 25.283 19.0181 23.205 19.0181H22.215C19.445 19.3548 17.17 20.8157 15.488 23.0619C13.708 25.6459 12.916 28.5677 13.015 31.7121C13.113 34.5199 13.905 37.2179 15.29 39.689C16.873 42.4967 18.95 44.744 20.732 46.4286C23.304 49.0126 26.272 51.2599 30.032 53.731C30.428 53.9558 30.725 54.0677 31.12 54.0677H31.22C31.615 54.0677 31.813 53.9558 32.209 53.731C35.3309 51.793 38.279 49.5361 41.014 46.9902C43.685 44.5192 45.565 42.16 47.148 39.4641C49.226 35.9819 49.918 32.4996 49.325 28.7925C48.83 26.3204 48.039 24.1861 46.753 22.6133C44.675 20.2541 42.201 19.0181 39.233 19.0181Z" fill="#0B3B3D"/>
<mask id="mask0" style="mask-type:alpha" maskUnits="userSpaceOnUse" x="14" y="21" width="34" height="31">
<path d="M39.233 21.2654C41.607 21.2654 43.586 22.2766 45.169 24.1861C46.258 25.4222 46.851 27.1068 47.346 29.2422C47.841 32.4996 47.246 35.3074 45.466 38.2281C43.982 40.7002 42.102 42.9464 39.629 45.3056C37.155 47.6647 34.385 49.7991 31.219 51.8215C31.119 51.8215 31.119 51.8215 31.119 51.9334C31.021 51.9334 31.021 51.9334 30.922 51.8215C26.965 49.2375 24.392 47.1032 22.018 44.857C20.336 43.1713 18.456 41.1499 16.873 38.5659C15.587 36.4316 14.993 34.1843 14.894 31.7133C14.795 29.2411 15.488 26.7701 16.972 24.5228C18.357 22.6133 20.138 21.6021 22.314 21.3773H23.106C24.886 21.3773 26.371 21.8269 27.657 22.7263C28.449 23.2867 29.042 23.9613 29.537 24.6347L29.636 24.7476L31.267 26.5288L32.703 24.6358C34.187 22.5003 36.166 21.3783 38.837 21.2654H39.233Z" fill="#C4C4C4"/>
</mask>
<g mask="url(#mask0)">
<path d="M45.258 49.8977C45.4137 50.0654 45.6232 50.1593 45.8415 50.1593C46.0597 50.1593 46.2692 50.0654 46.425 49.8977C46.5781 49.7269 46.664 49.4968 46.664 49.2572C46.664 49.0176 46.5781 48.7876 46.425 48.6167C46.2692 48.449 46.0597 48.3551 45.8415 48.3551C45.6232 48.3551 45.4137 48.449 45.258 48.6167C45.1048 48.7876 45.019 49.0176 45.019 49.2572C45.019 49.4968 45.1048 49.7269 45.258 49.8977ZM45.258 45.7048C45.4137 45.8724 45.6232 45.9664 45.8415 45.9664C46.0597 45.9664 46.2692 45.8724 46.425 45.7048C46.5778 45.5339 46.6635 45.3041 46.6635 45.0648C46.6635 44.8254 46.5778 44.5956 46.425 44.4248C46.2692 44.2572 46.0597 44.1632 45.8415 44.1632C45.6232 44.1632 45.4137 44.2572 45.258 44.4248C45.1051 44.5956 45.0195 44.8254 45.0195 45.0648C45.0195 45.3041 45.1051 45.5339 45.258 45.7048ZM41.435 45.7048C41.5908 45.8728 41.8005 45.9669 42.019 45.9669C42.2374 45.9669 42.4472 45.8728 42.603 45.7048C42.7558 45.5339 42.8415 45.3041 42.8415 45.0648C42.8415 44.8254 42.7558 44.5956 42.603 44.4248C42.4472 44.2568 42.2374 44.1627 42.019 44.1627C41.8005 44.1627 41.5908 44.2568 41.435 44.4248C41.2821 44.5956 41.1965 44.8254 41.1965 45.0648C41.1965 45.3041 41.2821 45.5339 41.435 45.7048ZM45.257 41.5129C45.4128 41.6809 45.6225 41.775 45.841 41.775C46.0594 41.775 46.2692 41.6809 46.425 41.5129C46.5781 41.342 46.664 41.112 46.664 40.8724C46.664 40.6328 46.5781 40.4027 46.425 40.2319C46.2692 40.0639 46.0594 39.9697 45.841 39.9697C45.6225 39.9697 45.4128 40.0639 45.257 40.2319C45.1038 40.4027 45.018 40.6328 45.018 40.8724C45.018 41.112 45.1038 41.342 45.257 41.5129ZM41.435 49.8999C41.5908 50.0679 41.8005 50.1621 42.019 50.1621C42.2374 50.1621 42.4472 50.0679 42.603 49.8999C42.7561 49.7291 42.842 49.499 42.842 49.2594C42.842 49.0198 42.7561 48.7898 42.603 48.6189C42.4472 48.4509 42.2374 48.3568 42.019 48.3568C41.8005 48.3568 41.5908 48.4509 41.435 48.6189C41.2818 48.7898 41.196 49.0198 41.196 49.2594C41.196 49.499 41.2818 49.7291 41.435 49.8999ZM37.613 49.8999C37.7688 50.0679 37.9785 50.1621 38.197 50.1621C38.4154 50.1621 38.6252 50.0679 38.781 49.8999C38.9341 49.7291 39.02 49.499 39.02 49.2594C39.02 49.0198 38.9341 48.7898 38.781 48.6189C38.6252 48.4509 38.4154 48.3568 38.197 48.3568C37.9785 48.3568 37.7688 48.4509 37.613 48.6189C37.4598 48.7898 37.374 49.0198 37.374 49.2594C37.374 49.499 37.4598 49.7291 37.613 49.8999Z" fill="#0A3B3C"/>
<path d="M45.258 49.8996C45.4138 50.0676 45.6235 50.1618 45.842 50.1618C46.0605 50.1618 46.2702 50.0676 46.426 49.8996C46.5792 49.7288 46.665 49.4987 46.665 49.2591C46.665 49.0195 46.5792 48.7895 46.426 48.6186C46.2702 48.4506 46.0605 48.3565 45.842 48.3565C45.6235 48.3565 45.4138 48.4506 45.258 48.6186C45.1048 48.7895 45.019 49.0195 45.019 49.2591C45.019 49.4987 45.1048 49.7288 45.258 49.8996ZM41.435 45.7067C41.5908 45.8747 41.8005 45.9688 42.019 45.9688C42.2375 45.9688 42.4472 45.8747 42.603 45.7067C42.7559 45.5358 42.8415 45.306 42.8415 45.0667C42.8415 44.8273 42.7559 44.5975 42.603 44.4267C42.4472 44.2587 42.2375 44.1646 42.019 44.1646C41.8005 44.1646 41.5908 44.2587 41.435 44.4267C41.2821 44.5975 41.1965 44.8273 41.1965 45.0667C41.1965 45.306 41.2821 45.5358 41.435 45.7067ZM45.258 33.0126C45.4137 33.1803 45.6233 33.2742 45.8415 33.2742C46.0597 33.2742 46.2692 33.1803 46.425 33.0126C46.5782 32.8417 46.664 32.6117 46.664 32.3721C46.664 32.1325 46.5782 31.9024 46.425 31.7316C46.2692 31.5639 46.0597 31.47 45.8415 31.47C45.6233 31.47 45.4137 31.5639 45.258 31.7316C45.1048 31.9024 45.019 32.1325 45.019 32.3721C45.019 32.6117 45.1048 32.8417 45.258 33.0126ZM45.258 28.8207C45.4137 28.9884 45.6233 29.0823 45.8415 29.0823C46.0597 29.0823 46.2692 28.9884 46.425 28.8207C46.5782 28.6499 46.664 28.4198 46.664 28.1802C46.664 27.9406 46.5782 27.7106 46.425 27.5397C46.2692 27.372 46.0597 27.2781 45.8415 27.2781C45.6233 27.2781 45.4137 27.372 45.258 27.5397C45.1048 27.7106 45.019 27.9406 45.019 28.1802C45.019 28.4198 45.1048 28.6499 45.258 28.8207ZM41.435 28.8207C41.5908 28.9887 41.8005 29.0829 42.019 29.0829C42.2375 29.0829 42.4472 28.9887 42.603 28.8207C42.7562 28.6499 42.842 28.4198 42.842 28.1802C42.842 27.9406 42.7562 27.7106 42.603 27.5397C42.4472 27.3717 42.2375 27.2776 42.019 27.2776C41.8005 27.2776 41.5908 27.3717 41.435 27.5397C41.2818 27.7106 41.196 27.9406 41.196 28.1802C41.196 28.4198 41.2818 28.6499 41.435 28.8207ZM45.257 24.6289C45.4128 24.7968 45.6225 24.891 45.841 24.891C46.0595 24.891 46.2692 24.7968 46.425 24.6289C46.5782 24.458 46.664 24.228 46.664 23.9883C46.664 23.7487 46.5782 23.5187 46.425 23.3478C46.2692 23.1798 46.0595 23.0857 45.841 23.0857C45.6225 23.0857 45.4128 23.1798 45.257 23.3478C45.1038 23.5187 45.018 23.7487 45.018 23.9883C45.018 24.228 45.1038 24.458 45.257 24.6289Z" fill="#0A3B3C"/>
<path d="M41.437 45.7069C41.5928 45.8749 41.8025 45.9691 42.021 45.9691C42.2394 45.9691 42.4492 45.8749 42.605 45.7069C42.7578 45.5361 42.8435 45.3063 42.8435 45.067C42.8435 44.8276 42.7578 44.5978 42.605 44.427C42.4492 44.259 42.2394 44.1649 42.021 44.1649C41.8025 44.1649 41.5928 44.259 41.437 44.427C41.2841 44.5978 41.1985 44.8276 41.1985 45.067C41.1985 45.3063 41.2841 45.5361 41.437 45.7069ZM37.615 41.5129C37.7708 41.6809 37.9805 41.775 38.199 41.775C38.4174 41.775 38.6272 41.6809 38.783 41.5129C38.9361 41.342 39.022 41.112 39.022 40.8723C39.022 40.6327 38.9361 40.4027 38.783 40.2318C38.6272 40.0638 38.4174 39.9697 38.199 39.9697C37.9805 39.9697 37.7708 40.0638 37.615 40.2318C37.4618 40.4027 37.376 40.6327 37.376 40.8723C37.376 41.112 37.4618 41.342 37.615 41.5129ZM45.26 41.5129C45.4158 41.6809 45.6255 41.775 45.844 41.775C46.0624 41.775 46.2722 41.6809 46.428 41.5129C46.5811 41.342 46.667 41.112 46.667 40.8723C46.667 40.6327 46.5811 40.4027 46.428 40.2318C46.2722 40.0638 46.0624 39.9697 45.844 39.9697C45.6255 39.9697 45.4158 40.0638 45.26 40.2318C45.1068 40.4027 45.021 40.6327 45.021 40.8723C45.021 41.112 45.1068 41.342 45.26 41.5129ZM41.437 37.2047C41.5928 37.3727 41.8025 37.4669 42.021 37.4669C42.2394 37.4669 42.4492 37.3727 42.605 37.2047C42.7578 37.0339 42.8435 36.8041 42.8435 36.5648C42.8435 36.3254 42.7578 36.0956 42.605 35.9248C42.4492 35.7568 42.2394 35.6627 42.021 35.6627C41.8025 35.6627 41.5928 35.7568 41.437 35.9248C41.119 36.3898 41.119 36.856 41.437 37.2047ZM37.615 37.2047C37.7708 37.3727 37.9805 37.4669 38.199 37.4669C38.4174 37.4669 38.6272 37.3727 38.783 37.2047C38.9358 37.0339 39.0215 36.8041 39.0215 36.5648C39.0215 36.3254 38.9358 36.0956 38.783 35.9248C38.6272 35.7568 38.4174 35.6627 38.199 35.6627C37.9805 35.6627 37.7708 35.7568 37.615 35.9248C37.296 36.3898 37.296 36.856 37.615 37.2047ZM41.437 41.5129C41.5928 41.6809 41.8025 41.775 42.021 41.775C42.2394 41.775 42.4492 41.6809 42.605 41.5129C42.7581 41.342 42.844 41.112 42.844 40.8723C42.844 40.6327 42.7581 40.4027 42.605 40.2318C42.4492 40.0638 42.2394 39.9697 42.021 39.9697C41.8025 39.9697 41.5928 40.0638 41.437 40.2318C41.2838 40.4027 41.198 40.6327 41.198 40.8723C41.198 41.112 41.2838 41.342 41.437 41.5129ZM41.437 33.0129C41.5928 33.1809 41.8025 33.275 42.021 33.275C42.2394 33.275 42.4492 33.1809 42.605 33.0129C42.7581 32.842 42.844 32.612 42.844 32.3724C42.844 32.1327 42.7581 31.9027 42.605 31.7318C42.4492 31.5638 42.2394 31.4697 42.021 31.4697C41.8025 31.4697 41.5928 31.5638 41.437 31.7318C41.2838 31.9027 41.198 32.1327 41.198 32.3724C41.198 32.612 41.2838 32.842 41.437 33.0129ZM45.26 37.2047C45.4158 37.3727 45.6255 37.4669 45.844 37.4669C46.0624 37.4669 46.2722 37.3727 46.428 37.2047C46.5808 37.0339 46.6665 36.8041 46.6665 36.5648C46.6665 36.3254 46.5808 36.0956 46.428 35.9248C46.2722 35.7568 46.0624 35.6627 45.844 35.6627C45.6255 35.6627 45.4158 35.7568 45.26 35.9248C44.941 36.3898 44.941 36.856 45.26 37.2047ZM33.792 37.2047C33.9478 37.3727 34.1575 37.4669 34.376 37.4669C34.5944 37.4669 34.8042 37.3727 34.96 37.2047C35.1128 37.0339 35.1985 36.8041 35.1985 36.5648C35.1985 36.3254 35.1128 36.0956 34.96 35.9248C34.8042 35.7568 34.5944 35.6627 34.376 35.6627C34.1575 35.6627 33.9478 35.7568 33.792 35.9248C33.474 36.2736 33.367 36.856 33.792 37.2047ZM37.615 33.0129C37.7708 33.1809 37.9805 33.275 38.199 33.275C38.4174 33.275 38.6272 33.1809 38.783 33.0129C38.9361 32.842 39.022 32.612 39.022 32.3724C39.022 32.1327 38.9361 31.9027 38.783 31.7318C38.6272 31.5638 38.4174 31.4697 38.199 31.4697C37.9805 31.4697 37.7708 31.5638 37.615 31.7318C37.4618 31.9027 37.376 32.1327 37.376 32.3724C37.376 32.612 37.4618 32.842 37.615 33.0129ZM45.258 33.0129C45.4138 33.1809 45.6235 33.275 45.842 33.275C46.0604 33.275 46.2702 33.1809 46.426 33.0129C46.5791 32.842 46.665 32.612 46.665 32.3724C46.665 32.1327 46.5791 31.9027 46.426 31.7318C46.2702 31.5638 46.0604 31.4697 45.842 31.4697C45.6235 31.4697 45.4138 31.5638 45.258 31.7318C45.1048 31.9027 45.019 32.1327 45.019 32.3724C45.019 32.612 45.1048 32.842 45.258 33.0129ZM41.437 28.821C41.5928 28.989 41.8025 29.0831 42.021 29.0831C42.2394 29.0831 42.4492 28.989 42.605 28.821C42.7581 28.6501 42.844 28.4201 42.844 28.1805C42.844 27.9409 42.7581 27.7108 42.605 27.54C42.4492 27.372 42.2394 27.2778 42.021 27.2778C41.8025 27.2778 41.5928 27.372 41.437 27.54C41.2838 27.7108 41.198 27.9409 41.198 28.1805C41.198 28.4201 41.2838 28.6501 41.437 28.821ZM29.862 49.8977C30.0178 50.0657 30.2275 50.1598 30.446 50.1598C30.6644 50.1598 30.8742 50.0657 31.03 49.8977C31.1831 49.7268 31.269 49.4968 31.269 49.2572C31.269 49.0176 31.1831 48.7875 31.03 48.6167C30.8742 48.4487 30.6644 48.3545 30.446 48.3545C30.2275 48.3545 30.0178 48.4487 29.862 48.6167C29.7088 48.7875 29.623 49.0176 29.623 49.2572C29.623 49.4968 29.7088 49.7268 29.862 49.8977ZM37.613 49.8977C37.7688 50.0657 37.9785 50.1598 38.197 50.1598C38.4154 50.1598 38.6252 50.0657 38.781 49.8977C38.9341 49.7268 39.02 49.4968 39.02 49.2572C39.02 49.0176 38.9341 48.7875 38.781 48.6167C38.6252 48.4487 38.4154 48.3545 38.197 48.3545C37.9785 48.3545 37.7688 48.4487 37.613 48.6167C37.4598 48.7875 37.374 49.0176 37.374 49.2572C37.374 49.4968 37.4598 49.7268 37.613 49.8977ZM33.79 45.7047C33.9458 45.8731 34.1557 45.9674 34.3745 45.9674C34.5932 45.9674 34.8031 45.8731 34.959 45.7047C35.1118 45.5339 35.1975 45.3041 35.1975 45.0648C35.1975 44.8254 35.1118 44.5956 34.959 44.4248C34.8032 44.2568 34.5934 44.1627 34.375 44.1627C34.1565 44.1627 33.9468 44.2568 33.791 44.4248C33.366 44.7736 33.366 45.356 33.791 45.7047H33.79ZM29.862 45.7047C30.0178 45.8727 30.2275 45.9669 30.446 45.9669C30.6644 45.9669 30.8742 45.8727 31.03 45.7047C31.1828 45.5339 31.2685 45.3041 31.2685 45.0648C31.2685 44.8254 31.1828 44.5956 31.03 44.4248C30.8742 44.2568 30.6644 44.1627 30.446 44.1627C30.2275 44.1627 30.0178 44.2568 29.862 44.4248C29.7091 44.5956 29.6235 44.8254 29.6235 45.0648C29.6235 45.3041 29.7091 45.5339 29.862 45.7047ZM33.79 49.8977C33.9458 50.066 34.1557 50.1604 34.3745 50.1604C34.5932 50.1604 34.8031 50.066 34.959 49.8977C35.1121 49.7268 35.198 49.4968 35.198 49.2572C35.198 49.0176 35.1121 48.7875 34.959 48.6167C34.8032 48.4487 34.5934 48.3545 34.375 48.3545C34.1565 48.3545 33.9468 48.4487 33.791 48.6167C33.366 48.9654 33.366 49.5489 33.791 49.8977H33.79ZM33.79 41.5129C33.9458 41.6812 34.1557 41.7755 34.3745 41.7755C34.5932 41.7755 34.8031 41.6812 34.959 41.5129C35.1121 41.342 35.198 41.112 35.198 40.8723C35.198 40.6327 35.1121 40.4027 34.959 40.2318C34.8032 40.0638 34.5934 39.9697 34.375 39.9697C34.1565 39.9697 33.9468 40.0638 33.791 40.2318C33.366 40.5817 33.366 41.1641 33.791 41.5129H33.79ZM37.613 45.7047C37.7688 45.8727 37.9785 45.9669 38.197 45.9669C38.4154 45.9669 38.6252 45.8727 38.781 45.7047C38.9338 45.5339 39.0195 45.3041 39.0195 45.0648C39.0195 44.8254 38.9338 44.5956 38.781 44.4248C38.6252 44.2568 38.4154 44.1627 38.197 44.1627C37.9785 44.1627 37.7688 44.2568 37.613 44.4248C37.4601 44.5956 37.3745 44.8254 37.3745 45.0648C37.3745 45.3041 37.4601 45.5339 37.613 45.7047ZM26.04 45.7047C26.1958 45.8727 26.4055 45.9669 26.624 45.9669C26.8424 45.9669 27.0522 45.8727 27.208 45.7047C27.3608 45.5339 27.4465 45.3041 27.4465 45.0648C27.4465 44.8254 27.3608 44.5956 27.208 44.4248C27.0522 44.2568 26.8424 44.1627 26.624 44.1627C26.4055 44.1627 26.1958 44.2568 26.04 44.4248C25.8871 44.5956 25.8015 44.8254 25.8015 45.0648C25.8015 45.3041 25.8871 45.5339 26.04 45.7047ZM29.862 41.5129C30.0178 41.6809 30.2275 41.775 30.446 41.775C30.6644 41.775 30.8742 41.6809 31.03 41.5129C31.1831 41.342 31.269 41.112 31.269 40.8723C31.269 40.6327 31.1831 40.4027 31.03 40.2318C30.8742 40.0638 30.6644 39.9697 30.446 39.9697C30.2275 39.9697 30.0178 40.0638 29.862 40.2318C29.7088 40.4027 29.623 40.6327 29.623 40.8723C29.623 41.112 29.7088 41.342 29.862 41.5129Z" fill="#0A3B3C"/>
<path d="M41.435 45.7045C41.5908 45.8725 41.8005 45.9666 42.019 45.9666C42.2375 45.9666 42.4472 45.8725 42.603 45.7045C42.7559 45.5337 42.8415 45.3039 42.8415 45.0645C42.8415 44.8251 42.7559 44.5954 42.603 44.4245C42.4472 44.2565 42.2375 44.1624 42.019 44.1624C41.8005 44.1624 41.5908 44.2565 41.435 44.4245C41.2821 44.5954 41.1965 44.8251 41.1965 45.0645C41.1965 45.3039 41.2821 45.5337 41.435 45.7045ZM37.613 41.5126C37.7688 41.6806 37.9785 41.7747 38.197 41.7747C38.4155 41.7747 38.6252 41.6806 38.781 41.5126C38.9342 41.3417 39.02 41.1117 39.02 40.8721C39.02 40.6325 38.9342 40.4024 38.781 40.2316C38.6252 40.0636 38.4155 39.9694 38.197 39.9694C37.9785 39.9694 37.7688 40.0636 37.613 40.2316C37.4598 40.4024 37.374 40.6325 37.374 40.8721C37.374 41.1117 37.4598 41.3417 37.613 41.5126ZM33.79 37.2045C33.9458 37.3725 34.1555 37.4666 34.374 37.4666C34.5925 37.4666 34.8022 37.3725 34.958 37.2045C35.1109 37.0337 35.1965 36.8039 35.1965 36.5645C35.1965 36.3252 35.1109 36.0954 34.958 35.9245C34.8022 35.7565 34.5925 35.6624 34.374 35.6624C34.1555 35.6624 33.9458 35.7565 33.79 35.9245C33.472 36.2733 33.365 36.8557 33.79 37.2045ZM26.039 49.8996C26.1948 50.0676 26.4045 50.1618 26.623 50.1618C26.8415 50.1618 27.0512 50.0676 27.207 49.8996C27.3602 49.7288 27.446 49.4987 27.446 49.2591C27.446 49.0195 27.3602 48.7895 27.207 48.6186C27.0512 48.4506 26.8415 48.3565 26.623 48.3565C26.4045 48.3565 26.1948 48.4506 26.039 48.6186C25.8858 48.7895 25.8 49.0195 25.8 49.2591C25.8 49.4987 25.8858 49.7288 26.039 49.8996ZM22.216 49.8996C22.3718 50.0676 22.5815 50.1618 22.8 50.1618C23.0185 50.1618 23.2282 50.0676 23.384 49.8996C23.5372 49.7288 23.623 49.4987 23.623 49.2591C23.623 49.0195 23.5372 48.7895 23.384 48.6186C23.2282 48.4506 23.0185 48.3565 22.8 48.3565C22.5815 48.3565 22.3718 48.4506 22.216 48.6186C22.0628 48.7895 21.977 49.0195 21.977 49.2591C21.977 49.4987 22.0628 49.7288 22.216 49.8996ZM29.862 49.8996C30.0178 50.0676 30.2275 50.1618 30.446 50.1618C30.6645 50.1618 30.8742 50.0676 31.03 49.8996C31.1832 49.7288 31.269 49.4987 31.269 49.2591C31.269 49.0195 31.1832 48.7895 31.03 48.6186C30.8742 48.4506 30.6645 48.3565 30.446 48.3565C30.2275 48.3565 30.0178 48.4506 29.862 48.6186C29.7088 48.7895 29.623 49.0195 29.623 49.2591C29.623 49.4987 29.7088 49.7288 29.862 49.8996ZM26.04 45.7067C26.1957 45.8743 26.4053 45.9683 26.6235 45.9683C26.8417 45.9683 27.0512 45.8743 27.207 45.7067C27.3599 45.5358 27.4455 45.306 27.4455 45.0667C27.4455 44.8273 27.3599 44.5975 27.207 44.4267C27.0512 44.2587 26.8415 44.1646 26.623 44.1646C26.4045 44.1646 26.1948 44.2587 26.039 44.4267C25.8861 44.5975 25.8005 44.8273 25.8005 45.0667C25.8005 45.306 25.8861 45.5358 26.039 45.7067H26.04ZM41.437 28.8229C41.5928 28.9909 41.8025 29.0851 42.021 29.0851C42.2395 29.0851 42.4492 28.9909 42.605 28.8229C42.7582 28.6521 42.844 28.422 42.844 28.1824C42.844 27.9428 42.7582 27.7128 42.605 27.5419C42.4492 27.3739 42.2395 27.2798 42.021 27.2798C41.8025 27.2798 41.5928 27.3739 41.437 27.5419C41.2838 27.7128 41.198 27.9428 41.198 28.1824C41.198 28.422 41.2838 28.6521 41.437 28.8229ZM37.615 24.6289C37.7708 24.7968 37.9805 24.891 38.199 24.891C38.4175 24.891 38.6272 24.7968 38.783 24.6289C38.9362 24.458 39.022 24.228 39.022 23.9883C39.022 23.7487 38.9362 23.5187 38.783 23.3478C38.6272 23.1798 38.4175 23.0857 38.199 23.0857C37.9805 23.0857 37.7708 23.1798 37.615 23.3478C37.4618 23.5187 37.376 23.7487 37.376 23.9883C37.376 24.228 37.4618 24.458 37.615 24.6289ZM45.26 24.6289C45.4158 24.7968 45.6255 24.891 45.844 24.891C46.0625 24.891 46.2722 24.7968 46.428 24.6289C46.5812 24.458 46.667 24.228 46.667 23.9883C46.667 23.7487 46.5812 23.5187 46.428 23.3478C46.2722 23.1798 46.0625 23.0857 45.844 23.0857C45.6255 23.0857 45.4158 23.1798 45.26 23.3478C45.1068 23.5187 45.021 23.7487 45.021 23.9883C45.021 24.228 45.1068 24.458 45.26 24.6289ZM41.437 24.6289C41.5928 24.7968 41.8025 24.891 42.021 24.891C42.2395 24.891 42.4492 24.7968 42.605 24.6289C42.7582 24.458 42.844 24.228 42.844 23.9883C42.844 23.7487 42.7582 23.5187 42.605 23.3478C42.4492 23.1798 42.2395 23.0857 42.021 23.0857C41.8025 23.0857 41.5928 23.1798 41.437 23.3478C41.2838 23.5187 41.198 23.7487 41.198 23.9883C41.198 24.228 41.2838 24.458 41.437 24.6289Z" fill="#0A3B3C"/>
<path d="M33.79 37.2045C33.9458 37.3725 34.1555 37.4666 34.374 37.4666C34.5925 37.4666 34.8022 37.3725 34.958 37.2045C35.1109 37.0336 35.1965 36.8039 35.1965 36.5645C35.1965 36.3251 35.1109 36.0954 34.958 35.9245C34.8022 35.7565 34.5925 35.6624 34.374 35.6624C34.1555 35.6624 33.9458 35.7565 33.79 35.9245C33.472 36.2733 33.366 36.8557 33.79 37.2045ZM29.862 33.0126C30.0178 33.1806 30.2275 33.2747 30.446 33.2747C30.6645 33.2747 30.8742 33.1806 31.03 33.0126C31.1832 32.8417 31.269 32.6117 31.269 32.3721C31.269 32.1325 31.1832 31.9024 31.03 31.7316C30.8742 31.5636 30.6645 31.4694 30.446 31.4694C30.2275 31.4694 30.0178 31.5636 29.862 31.7316C29.7088 31.9024 29.623 32.1325 29.623 32.3721C29.623 32.6117 29.7088 32.8417 29.862 33.0126ZM37.613 33.0126C37.7688 33.1806 37.9785 33.2747 38.197 33.2747C38.4155 33.2747 38.6252 33.1806 38.781 33.0126C38.9342 32.8417 39.02 32.6117 39.02 32.3721C39.02 32.1325 38.9342 31.9024 38.781 31.7316C38.6252 31.5636 38.4155 31.4694 38.197 31.4694C37.9785 31.4694 37.7688 31.5636 37.613 31.7316C37.4598 31.9024 37.374 32.1325 37.374 32.3721C37.374 32.6117 37.4598 32.8417 37.613 33.0126ZM33.79 28.8207C33.9459 28.9891 34.1558 29.0834 34.3745 29.0834C34.5932 29.0834 34.8032 28.9891 34.959 28.8207C35.1122 28.6499 35.198 28.4198 35.198 28.1802C35.198 27.9406 35.1122 27.7106 34.959 27.5397C34.8032 27.3717 34.5935 27.2776 34.375 27.2776C34.1565 27.2776 33.9468 27.3717 33.791 27.5397C33.366 27.8896 33.366 28.472 33.791 28.8207H33.79ZM29.862 28.8207C30.0178 28.9887 30.2275 29.0829 30.446 29.0829C30.6645 29.0829 30.8742 28.9887 31.03 28.8207C31.1832 28.6499 31.269 28.4198 31.269 28.1802C31.269 27.9406 31.1832 27.7106 31.03 27.5397C30.8742 27.3717 30.6645 27.2776 30.446 27.2776C30.2275 27.2776 30.0178 27.3717 29.862 27.5397C29.7088 27.7106 29.623 27.9406 29.623 28.1802C29.623 28.4198 29.7088 28.6499 29.862 28.8207ZM33.79 33.0126C33.9459 33.1809 34.1558 33.2753 34.3745 33.2753C34.5932 33.2753 34.8032 33.1809 34.959 33.0126C35.1122 32.8417 35.198 32.6117 35.198 32.3721C35.198 32.1325 35.1122 31.9024 34.959 31.7316C34.8032 31.5636 34.5935 31.4694 34.375 31.4694C34.1565 31.4694 33.9468 31.5636 33.791 31.7316C33.366 32.0814 33.366 32.6638 33.791 33.0126H33.79ZM33.79 24.6289C33.9459 24.7972 34.1558 24.8915 34.3745 24.8915C34.5932 24.8915 34.8032 24.7972 34.959 24.6289C35.1122 24.458 35.198 24.228 35.198 23.9883C35.198 23.7487 35.1122 23.5187 34.959 23.3478C34.8032 23.1798 34.5935 23.0857 34.375 23.0857C34.1565 23.0857 33.9468 23.1798 33.791 23.3478C33.366 23.6966 33.366 24.2801 33.791 24.6289H33.79ZM37.613 28.8207C37.7688 28.9887 37.9785 29.0829 38.197 29.0829C38.4155 29.0829 38.6252 28.9887 38.781 28.8207C38.9342 28.6499 39.02 28.4198 39.02 28.1802C39.02 27.9406 38.9342 27.7106 38.781 27.5397C38.6252 27.3717 38.4155 27.2776 38.197 27.2776C37.9785 27.2776 37.7688 27.3717 37.613 27.5397C37.4598 27.7106 37.374 27.9406 37.374 28.1802C37.374 28.4198 37.4598 28.6499 37.613 28.8207ZM26.04 28.8207C26.1958 28.9887 26.4055 29.0829 26.624 29.0829C26.8425 29.0829 27.0522 28.9887 27.208 28.8207C27.3612 28.6499 27.447 28.4198 27.447 28.1802C27.447 27.9406 27.3612 27.7106 27.208 27.5397C27.0522 27.3717 26.8425 27.2776 26.624 27.2776C26.4055 27.2776 26.1958 27.3717 26.04 27.5397C25.8868 27.7106 25.801 27.9406 25.801 28.1802C25.801 28.4198 25.8868 28.6499 26.04 28.8207ZM29.862 24.6289C30.0178 24.7968 30.2275 24.891 30.446 24.891C30.6645 24.891 30.8742 24.7968 31.03 24.6289C31.1832 24.458 31.269 24.228 31.269 23.9883C31.269 23.7487 31.1832 23.5187 31.03 23.3478C30.8742 23.1798 30.6645 23.0857 30.446 23.0857C30.2275 23.0857 30.0178 23.1798 29.862 23.3478C29.7088 23.5187 29.623 23.7487 29.623 23.9883C29.623 24.228 29.7088 24.458 29.862 24.6289ZM41.435 28.8207C41.5908 28.9887 41.8005 29.0829 42.019 29.0829C42.2375 29.0829 42.4472 28.9887 42.603 28.8207C42.7562 28.6499 42.842 28.4198 42.842 28.1802C42.842 27.9406 42.7562 27.7106 42.603 27.5397C42.4472 27.3717 42.2375 27.2776 42.019 27.2776C41.8005 27.2776 41.5908 27.3717 41.435 27.5397C41.2818 27.7106 41.196 27.9406 41.196 28.1802C41.196 28.4198 41.2818 28.6499 41.435 28.8207ZM37.613 24.6289C37.7688 24.7968 37.9785 24.891 38.197 24.891C38.4155 24.891 38.6252 24.7968 38.781 24.6289C38.9342 24.458 39.02 24.228 39.02 23.9883C39.02 23.7487 38.9342 23.5187 38.781 23.3478C38.6252 23.1798 38.4155 23.0857 38.197 23.0857C37.9785 23.0857 37.7688 23.1798 37.613 23.3478C37.4598 23.5187 37.374 23.7487 37.374 23.9883C37.374 24.228 37.4598 24.458 37.613 24.6289ZM26.039 45.7067C26.1948 45.8747 26.4045 45.9688 26.623 45.9688C26.8415 45.9688 27.0512 45.8747 27.207 45.7067C27.3599 45.5358 27.4455 45.306 27.4455 45.0667C27.4455 44.8273 27.3599 44.5975 27.207 44.4267C27.0512 44.2587 26.8415 44.1646 26.623 44.1646C26.4045 44.1646 26.1948 44.2587 26.039 44.4267C25.8861 44.5975 25.8005 44.8273 25.8005 45.0667C25.8005 45.306 25.8861 45.5358 26.039 45.7067ZM22.216 41.5126C22.3718 41.6806 22.5815 41.7747 22.8 41.7747C23.0185 41.7747 23.2282 41.6806 23.384 41.5126C23.5372 41.3417 23.623 41.1117 23.623 40.8721C23.623 40.6325 23.5372 40.4024 23.384 40.2316C23.2282 40.0636 23.0185 39.9694 22.8 39.9694C22.5815 39.9694 22.3718 40.0636 22.216 40.2316C22.0628 40.4024 21.977 40.6325 21.977 40.8721C21.977 41.1117 22.0628 41.3417 22.216 41.5126ZM29.861 41.5126C30.0168 41.6806 30.2265 41.7747 30.445 41.7747C30.6635 41.7747 30.8732 41.6806 31.029 41.5126C31.1822 41.3417 31.268 41.1117 31.268 40.8721C31.268 40.6325 31.1822 40.4024 31.029 40.2316C30.8732 40.0636 30.6635 39.9694 30.445 39.9694C30.2265 39.9694 30.0168 40.0636 29.861 40.2316C29.7078 40.4024 29.622 40.6325 29.622 40.8721C29.622 41.1117 29.7078 41.3417 29.861 41.5126ZM26.039 37.2045C26.1948 37.3725 26.4045 37.4666 26.623 37.4666C26.8415 37.4666 27.0512 37.3725 27.207 37.2045C27.3599 37.0336 27.4455 36.8039 27.4455 36.5645C27.4455 36.3251 27.3599 36.0954 27.207 35.9245C27.0512 35.7565 26.8415 35.6624 26.623 35.6624C26.4045 35.6624 26.1948 35.7565 26.039 35.9245C25.72 36.3896 25.72 36.8557 26.039 37.2045ZM22.216 37.2045C22.3718 37.3725 22.5815 37.4666 22.8 37.4666C23.0185 37.4666 23.2282 37.3725 23.384 37.2045C23.5369 37.0336 23.6225 36.8039 23.6225 36.5645C23.6225 36.3251 23.5369 36.0954 23.384 35.9245C23.2282 35.7565 23.0185 35.6624 22.8 35.6624C22.5815 35.6624 22.3718 35.7565 22.216 35.9245C21.898 36.3896 21.898 36.8557 22.216 37.2045ZM26.039 41.5126C26.1948 41.6806 26.4045 41.7747 26.623 41.7747C26.8415 41.7747 27.0512 41.6806 27.207 41.5126C27.3602 41.3417 27.446 41.1117 27.446 40.8721C27.446 40.6325 27.3602 40.4024 27.207 40.2316C27.0512 40.0636 26.8415 39.9694 26.623 39.9694C26.4045 39.9694 26.1948 40.0636 26.039 40.2316C25.8858 40.4024 25.8 40.6325 25.8 40.8721C25.8 41.1117 25.8858 41.3417 26.039 41.5126ZM26.039 33.0126C26.1948 33.1806 26.4045 33.2747 26.623 33.2747C26.8415 33.2747 27.0512 33.1806 27.207 33.0126C27.3602 32.8417 27.446 32.6117 27.446 32.3721C27.446 32.1325 27.3602 31.9024 27.207 31.7316C27.0512 31.5636 26.8415 31.4694 26.623 31.4694C26.4045 31.4694 26.1948 31.5636 26.039 31.7316C25.8858 31.9024 25.8 32.1325 25.8 32.3721C25.8 32.6117 25.8858 32.8417 26.039 33.0126ZM29.861 37.2045C30.0168 37.3725 30.2265 37.4666 30.445 37.4666C30.6635 37.4666 30.8732 37.3725 31.029 37.2045C31.1819 37.0336 31.2675 36.8039 31.2675 36.5645C31.2675 36.3251 31.1819 36.0954 31.029 35.9245C30.8732 35.7565 30.6635 35.6624 30.445 35.6624C30.2265 35.6624 30.0168 35.7565 29.861 35.9245C29.543 36.3896 29.543 36.8557 29.861 37.2045ZM18.288 37.2045C18.4438 37.3725 18.6535 37.4666 18.872 37.4666C19.0905 37.4666 19.3002 37.3725 19.456 37.2045C19.6089 37.0336 19.6945 36.8039 19.6945 36.5645C19.6945 36.3251 19.6089 36.0954 19.456 35.9245C19.3002 35.7565 19.0905 35.6624 18.872 35.6624C18.6535 35.6624 18.4438 35.7565 18.288 35.9245C17.969 36.3896 17.969 36.8557 18.288 37.2045ZM22.216 33.0126C22.3718 33.1806 22.5815 33.2747 22.8 33.2747C23.0185 33.2747 23.2282 33.1806 23.384 33.0126C23.5372 32.8417 23.623 32.6117 23.623 32.3721C23.623 32.1325 23.5372 31.9024 23.384 31.7316C23.2282 31.5636 23.0185 31.4694 22.8 31.4694C22.5815 31.4694 22.3718 31.5636 22.216 31.7316C22.0628 31.9024 21.977 32.1325 21.977 32.3721C21.977 32.6117 22.0628 32.8417 22.216 33.0126Z" fill="#0A3B3C"/>
<path d="M33.79 37.2047C33.9458 37.3727 34.1555 37.4669 34.374 37.4669C34.5925 37.4669 34.8022 37.3727 34.958 37.2047C35.1109 37.0339 35.1965 36.8041 35.1965 36.5648C35.1965 36.3254 35.1109 36.0956 34.958 35.9248C34.8022 35.7568 34.5925 35.6627 34.374 35.6627C34.1555 35.6627 33.9458 35.7568 33.79 35.9248C33.472 36.2736 33.365 36.856 33.79 37.2047ZM29.862 33.0129C30.0178 33.1809 30.2275 33.275 30.446 33.275C30.6645 33.275 30.8742 33.1809 31.03 33.0129C31.1832 32.842 31.269 32.612 31.269 32.3724C31.269 32.1327 31.1832 31.9027 31.03 31.7318C30.8742 31.5638 30.6645 31.4697 30.446 31.4697C30.2275 31.4697 30.0178 31.5638 29.862 31.7318C29.7088 31.9027 29.623 32.1327 29.623 32.3724C29.623 32.612 29.7088 32.842 29.862 33.0129ZM26.04 28.821C26.1957 28.9887 26.4053 29.0826 26.6235 29.0826C26.8417 29.0826 27.0512 28.9887 27.207 28.821C27.3602 28.6501 27.446 28.4201 27.446 28.1805C27.446 27.9409 27.3602 27.7108 27.207 27.54C27.0512 27.372 26.8415 27.2778 26.623 27.2778C26.4045 27.2778 26.1948 27.372 26.039 27.54C25.8858 27.7108 25.8 27.9409 25.8 28.1805C25.8 28.4201 25.8858 28.6501 26.039 28.821H26.04ZM14.466 49.8977C14.6218 50.0657 14.8315 50.1598 15.05 50.1598C15.2685 50.1598 15.4782 50.0657 15.634 49.8977C15.7872 49.7268 15.873 49.4968 15.873 49.2572C15.873 49.0176 15.7872 48.7875 15.634 48.6167C15.4782 48.4487 15.2685 48.3545 15.05 48.3545C14.8315 48.3545 14.6218 48.4487 14.466 48.6167C14.3128 48.7875 14.227 49.0176 14.227 49.2572C14.227 49.4968 14.3128 49.7268 14.466 49.8977ZM22.217 49.8977C22.3728 50.0657 22.5825 50.1598 22.801 50.1598C23.0195 50.1598 23.2292 50.0657 23.385 49.8977C23.5382 49.7268 23.624 49.4968 23.624 49.2572C23.624 49.0176 23.5382 48.7875 23.385 48.6167C23.2292 48.4487 23.0195 48.3545 22.801 48.3545C22.5825 48.3545 22.3728 48.4487 22.217 48.6167C22.0638 48.7875 21.978 49.0176 21.978 49.2572C21.978 49.4968 22.0638 49.7268 22.217 49.8977ZM18.289 45.7047C18.4448 45.8727 18.6545 45.9669 18.873 45.9669C19.0915 45.9669 19.3012 45.8727 19.457 45.7047C19.6099 45.5339 19.6955 45.3041 19.6955 45.0648C19.6955 44.8254 19.6099 44.5956 19.457 44.4248C19.3012 44.2568 19.0915 44.1627 18.873 44.1627C18.6545 44.1627 18.4448 44.2568 18.289 44.4248C18.1361 44.5956 18.0505 44.8254 18.0505 45.0648C18.0505 45.3041 18.1361 45.5339 18.289 45.7047ZM14.466 45.7047C14.6218 45.8727 14.8315 45.9669 15.05 45.9669C15.2685 45.9669 15.4782 45.8727 15.634 45.7047C15.7869 45.5339 15.8725 45.3041 15.8725 45.0648C15.8725 44.8254 15.7869 44.5956 15.634 44.4248C15.4782 44.2568 15.2685 44.1627 15.05 44.1627C14.8315 44.1627 14.6218 44.2568 14.466 44.4248C14.3131 44.5956 14.2275 44.8254 14.2275 45.0648C14.2275 45.3041 14.3131 45.5339 14.466 45.7047ZM18.289 49.8977C18.4448 50.0657 18.6545 50.1598 18.873 50.1598C19.0915 50.1598 19.3012 50.0657 19.457 49.8977C19.6102 49.7268 19.696 49.4968 19.696 49.2572C19.696 49.0176 19.6102 48.7875 19.457 48.6167C19.3012 48.4487 19.0915 48.3545 18.873 48.3545C18.6545 48.3545 18.4448 48.4487 18.289 48.6167C18.1358 48.7875 18.05 49.0176 18.05 49.2572C18.05 49.4968 18.1358 49.7268 18.289 49.8977ZM18.289 41.5129C18.4448 41.6809 18.6545 41.775 18.873 41.775C19.0915 41.775 19.3012 41.6809 19.457 41.5129C19.6102 41.342 19.696 41.112 19.696 40.8724C19.696 40.6327 19.6102 40.4027 19.457 40.2318C19.3012 40.0638 19.0915 39.9697 18.873 39.9697C18.6545 39.9697 18.4448 40.0638 18.289 40.2318C18.1358 40.4027 18.05 40.6327 18.05 40.8724C18.05 41.112 18.1358 41.342 18.289 41.5129ZM22.217 45.7047C22.3728 45.8727 22.5825 45.9669 22.801 45.9669C23.0195 45.9669 23.2292 45.8727 23.385 45.7047C23.5379 45.5339 23.6235 45.3041 23.6235 45.0648C23.6235 44.8254 23.5379 44.5956 23.385 44.4248C23.2292 44.2568 23.0195 44.1627 22.801 44.1627C22.5825 44.1627 22.3728 44.2568 22.217 44.4248C22.0641 44.5956 21.9785 44.8254 21.9785 45.0648C21.9785 45.3041 22.0641 45.5339 22.217 45.7047ZM14.467 41.5129C14.6228 41.6809 14.8325 41.775 15.051 41.775C15.2695 41.775 15.4792 41.6809 15.635 41.5129C15.7882 41.342 15.874 41.112 15.874 40.8724C15.874 40.6327 15.7882 40.4027 15.635 40.2318C15.4792 40.0638 15.2695 39.9697 15.051 39.9697C14.8325 39.9697 14.6228 40.0638 14.467 40.2318C14.3138 40.4027 14.228 40.6327 14.228 40.8724C14.228 41.112 14.3138 41.342 14.467 41.5129ZM26.04 45.7047C26.1958 45.8727 26.4055 45.9669 26.624 45.9669C26.8425 45.9669 27.0522 45.8727 27.208 45.7047C27.3609 45.5339 27.4465 45.3041 27.4465 45.0648C27.4465 44.8254 27.3609 44.5956 27.208 44.4248C27.0522 44.2568 26.8425 44.1627 26.624 44.1627C26.4055 44.1627 26.1958 44.2568 26.04 44.4248C25.8871 44.5956 25.8015 44.8254 25.8015 45.0648C25.8015 45.3041 25.8871 45.5339 26.04 45.7047ZM22.218 41.5129C22.3738 41.6809 22.5835 41.775 22.802 41.775C23.0205 41.775 23.2302 41.6809 23.386 41.5129C23.5392 41.342 23.625 41.112 23.625 40.8724C23.625 40.6327 23.5392 40.4027 23.386 40.2318C23.2302 40.0638 23.0205 39.9697 22.802 39.9697C22.5835 39.9697 22.3738 40.0638 22.218 40.2318C22.0648 40.4027 21.979 40.6327 21.979 40.8724C21.979 41.112 22.0648 41.342 22.218 41.5129ZM18.29 37.2047C18.4457 37.3724 18.6553 37.4663 18.8735 37.4663C19.0917 37.4663 19.3012 37.3724 19.457 37.2047C19.6099 37.0339 19.6955 36.8041 19.6955 36.5648C19.6955 36.3254 19.6099 36.0956 19.457 35.9248C19.3012 35.7568 19.0915 35.6627 18.873 35.6627C18.6545 35.6627 18.4448 35.7568 18.289 35.9248C17.971 36.3898 17.971 36.856 18.289 37.2047H18.29Z" fill="#0A3B3C"/>
<path d="M14.466 49.8996C14.6218 50.0676 14.8315 50.1618 15.05 50.1618C15.2685 50.1618 15.4782 50.0676 15.634 49.8996C15.7872 49.7288 15.873 49.4987 15.873 49.2591C15.873 49.0195 15.7872 48.7895 15.634 48.6186C15.4782 48.4506 15.2685 48.3565 15.05 48.3565C14.8315 48.3565 14.6218 48.4506 14.466 48.6186C14.3128 48.7895 14.227 49.0195 14.227 49.2591C14.227 49.4987 14.3128 49.7288 14.466 49.8996ZM26.039 28.8229C26.1948 28.9909 26.4045 29.0851 26.623 29.0851C26.8415 29.0851 27.0512 28.9909 27.207 28.8229C27.3602 28.6521 27.446 28.422 27.446 28.1824C27.446 27.9428 27.3602 27.7128 27.207 27.5419C27.0512 27.3739 26.8415 27.2798 26.623 27.2798C26.4045 27.2798 26.1948 27.3739 26.039 27.5419C25.8858 27.7128 25.8 27.9428 25.8 28.1824C25.8 28.422 25.8858 28.6521 26.039 28.8229ZM22.216 24.6311C22.3718 24.799 22.5815 24.8932 22.8 24.8932C23.0185 24.8932 23.2282 24.799 23.384 24.6311C23.5372 24.4602 23.623 24.2302 23.623 23.9905C23.623 23.7509 23.5372 23.5209 23.384 23.35C23.2282 23.182 23.0185 23.0879 22.8 23.0879C22.5815 23.0879 22.3718 23.182 22.216 23.35C22.0628 23.5209 21.977 23.7509 21.977 23.9905C21.977 24.2302 22.0628 24.4602 22.216 24.6311ZM29.861 24.6311C30.0168 24.799 30.2265 24.8932 30.445 24.8932C30.6635 24.8932 30.8732 24.799 31.029 24.6311C31.1822 24.4602 31.268 24.2302 31.268 23.9905C31.268 23.7509 31.1822 23.5209 31.029 23.35C30.8732 23.182 30.6635 23.0879 30.445 23.0879C30.2265 23.0879 30.0168 23.182 29.861 23.35C29.7078 23.5209 29.622 23.7509 29.622 23.9905C29.622 24.2302 29.7078 24.4602 29.861 24.6311ZM26.039 24.6311C26.1948 24.799 26.4045 24.8932 26.623 24.8932C26.8415 24.8932 27.0512 24.799 27.207 24.6311C27.3602 24.4602 27.446 24.2302 27.446 23.9905C27.446 23.7509 27.3602 23.5209 27.207 23.35C27.0512 23.182 26.8415 23.0879 26.623 23.0879C26.4045 23.0879 26.1948 23.182 26.039 23.35C25.8858 23.5209 25.8 23.7509 25.8 23.9905C25.8 24.2302 25.8858 24.4602 26.039 24.6311ZM18.289 37.2045C18.4448 37.3725 18.6545 37.4666 18.873 37.4666C19.0915 37.4666 19.3012 37.3725 19.457 37.2045C19.6099 37.0337 19.6955 36.8039 19.6955 36.5645C19.6955 36.3252 19.6099 36.0954 19.457 35.9245C19.3012 35.7565 19.0915 35.6624 18.873 35.6624C18.6545 35.6624 18.4448 35.7565 18.289 35.9245C17.97 36.3896 17.97 36.8557 18.289 37.2045ZM14.466 33.0126C14.6218 33.1806 14.8315 33.2747 15.05 33.2747C15.2685 33.2747 15.4782 33.1806 15.634 33.0126C15.7872 32.8417 15.873 32.6117 15.873 32.3721C15.873 32.1325 15.7872 31.9024 15.634 31.7316C15.4782 31.5636 15.2685 31.4694 15.05 31.4694C14.8315 31.4694 14.6218 31.5636 14.466 31.7316C14.3128 31.9024 14.227 32.1325 14.227 32.3721C14.227 32.6117 14.3128 32.8417 14.466 33.0126ZM22.217 33.0126C22.3728 33.1806 22.5825 33.2747 22.801 33.2747C23.0195 33.2747 23.2292 33.1806 23.385 33.0126C23.5382 32.8417 23.624 32.6117 23.624 32.3721C23.624 32.1325 23.5382 31.9024 23.385 31.7316C23.2292 31.5636 23.0195 31.4694 22.801 31.4694C22.5825 31.4694 22.3728 31.5636 22.217 31.7316C22.0638 31.9024 21.978 32.1325 21.978 32.3721C21.978 32.6117 22.0638 32.8417 22.217 33.0126ZM18.289 28.8207C18.4448 28.9887 18.6545 29.0829 18.873 29.0829C19.0915 29.0829 19.3012 28.9887 19.457 28.8207C19.6102 28.6499 19.696 28.4198 19.696 28.1802C19.696 27.9406 19.6102 27.7106 19.457 27.5397C19.3012 27.3717 19.0915 27.2776 18.873 27.2776C18.6545 27.2776 18.4448 27.3717 18.289 27.5397C18.1358 27.7106 18.05 27.9406 18.05 28.1802C18.05 28.4198 18.1358 28.6499 18.289 28.8207ZM14.466 28.8207C14.6218 28.9887 14.8315 29.0829 15.05 29.0829C15.2685 29.0829 15.4782 28.9887 15.634 28.8207C15.7872 28.6499 15.873 28.4198 15.873 28.1802C15.873 27.9406 15.7872 27.7106 15.634 27.5397C15.4782 27.3717 15.2685 27.2776 15.05 27.2776C14.8315 27.2776 14.6218 27.3717 14.466 27.5397C14.3128 27.7106 14.227 27.9406 14.227 28.1802C14.227 28.4198 14.3128 28.6499 14.466 28.8207ZM18.289 33.0126C18.4448 33.1806 18.6545 33.2747 18.873 33.2747C19.0915 33.2747 19.3012 33.1806 19.457 33.0126C19.6102 32.8417 19.696 32.6117 19.696 32.3721C19.696 32.1325 19.6102 31.9024 19.457 31.7316C19.3012 31.5636 19.0915 31.4694 18.873 31.4694C18.6545 31.4694 18.4448 31.5636 18.289 31.7316C18.1358 31.9024 18.05 32.1325 18.05 32.3721C18.05 32.6117 18.1358 32.8417 18.289 33.0126ZM18.289 24.6289C18.4448 24.7968 18.6545 24.891 18.873 24.891C19.0915 24.891 19.3012 24.7968 19.457 24.6289C19.6102 24.458 19.696 24.228 19.696 23.9883C19.696 23.7487 19.6102 23.5187 19.457 23.3478C19.3012 23.1798 19.0915 23.0857 18.873 23.0857C18.6545 23.0857 18.4448 23.1798 18.289 23.3478C18.1358 23.5187 18.05 23.7487 18.05 23.9883C18.05 24.228 18.1358 24.458 18.289 24.6289ZM22.217 28.8207C22.3728 28.9887 22.5825 29.0829 22.801 29.0829C23.0195 29.0829 23.2292 28.9887 23.385 28.8207C23.5382 28.6499 23.624 28.4198 23.624 28.1802C23.624 27.9406 23.5382 27.7106 23.385 27.5397C23.2292 27.3717 23.0195 27.2776 22.801 27.2776C22.5825 27.2776 22.3728 27.3717 22.217 27.5397C22.0638 27.7106 21.978 27.9406 21.978 28.1802C21.978 28.4198 22.0638 28.6499 22.217 28.8207ZM14.467 24.6289C14.6228 24.7968 14.8325 24.891 15.051 24.891C15.2695 24.891 15.4792 24.7968 15.635 24.6289C15.7882 24.458 15.874 24.228 15.874 23.9883C15.874 23.7487 15.7882 23.5187 15.635 23.3478C15.4792 23.1798 15.2695 23.0857 15.051 23.0857C14.8325 23.0857 14.6228 23.1798 14.467 23.3478C14.3138 23.5187 14.228 23.7487 14.228 23.9883C14.228 24.228 14.3138 24.458 14.467 24.6289Z" fill="#0A3B3C"/>
<path d="M26.04 28.821C26.1958 28.989 26.4055 29.0831 26.624 29.0831C26.8425 29.0831 27.0522 28.989 27.208 28.821C27.3612 28.6501 27.447 28.4201 27.447 28.1805C27.447 27.9408 27.3612 27.7108 27.208 27.5399C27.0522 27.3719 26.8425 27.2778 26.624 27.2778C26.4055 27.2778 26.1958 27.3719 26.04 27.5399C25.8868 27.7108 25.801 27.9408 25.801 28.1805C25.801 28.4201 25.8868 28.6501 26.04 28.821ZM22.218 24.6291C22.3738 24.7971 22.5835 24.8912 22.802 24.8912C23.0205 24.8912 23.2302 24.7971 23.386 24.6291C23.5392 24.4582 23.625 24.2282 23.625 23.9886C23.625 23.749 23.5392 23.5189 23.386 23.3481C23.2302 23.1801 23.0205 23.0859 22.802 23.0859C22.5835 23.0859 22.3738 23.1801 22.218 23.3481C22.0648 23.5189 21.979 23.749 21.979 23.9886C21.979 24.2282 22.0648 24.4582 22.218 24.6291ZM14.466 41.5128C14.6218 41.6808 14.8315 41.775 15.05 41.775C15.2685 41.775 15.4782 41.6808 15.634 41.5128C15.7872 41.342 15.873 41.1119 15.873 40.8723C15.873 40.6327 15.7872 40.4027 15.634 40.2318C15.4782 40.0638 15.2685 39.9697 15.05 39.9697C14.8315 39.9697 14.6218 40.0638 14.466 40.2318C14.3128 40.4027 14.227 40.6327 14.227 40.8723C14.227 41.1119 14.3128 41.342 14.466 41.5128ZM14.466 37.2047C14.6218 37.3727 14.8315 37.4668 15.05 37.4668C15.2685 37.4668 15.4782 37.3727 15.634 37.2047C15.7869 37.0339 15.8725 36.8041 15.8725 36.5647C15.8725 36.3254 15.7869 36.0956 15.634 35.9248C15.4782 35.7568 15.2685 35.6626 15.05 35.6626C14.8315 35.6626 14.6218 35.7568 14.466 35.9248C14.148 36.3898 14.148 36.8559 14.466 37.2047ZM18.288 37.2047C18.4438 37.3727 18.6535 37.4668 18.872 37.4668C19.0905 37.4668 19.3002 37.3727 19.456 37.2047C19.6089 37.0339 19.6945 36.8041 19.6945 36.5647C19.6945 36.3254 19.6089 36.0956 19.456 35.9248C19.3002 35.7568 19.0905 35.6626 18.872 35.6626C18.6535 35.6626 18.4438 35.7568 18.288 35.9248C17.969 36.3898 17.969 36.8559 18.288 37.2047ZM14.466 33.0128C14.6218 33.1808 14.8315 33.275 15.05 33.275C15.2685 33.275 15.4782 33.1808 15.634 33.0128C15.7872 32.842 15.873 32.6119 15.873 32.3723C15.873 32.1327 15.7872 31.9027 15.634 31.7318C15.4782 31.5638 15.2685 31.4697 15.05 31.4697C14.8315 31.4697 14.6218 31.5638 14.466 31.7318C14.3128 31.9027 14.227 32.1327 14.227 32.3723C14.227 32.6119 14.3128 32.842 14.466 33.0128ZM14.466 24.6269C14.6218 24.7949 14.8315 24.889 15.05 24.889C15.2685 24.889 15.4782 24.7949 15.634 24.6269C15.7872 24.456 15.873 24.226 15.873 23.9864C15.873 23.7468 15.7872 23.5167 15.634 23.3459C15.4782 23.1779 15.2685 23.0837 15.05 23.0837C14.8315 23.0837 14.6218 23.1779 14.466 23.3459C14.3128 23.5167 14.227 23.7468 14.227 23.9864C14.227 24.226 14.3128 24.456 14.466 24.6269Z" fill="#0A3B3C"/>
</g>
</svg>
