<svg width="62" height="68" viewBox="0 0 62 68" fill="none" xmlns="http://www.w3.org/2000/svg">
<path d="M32.3099 24.6335C32.3568 27.1874 32.1941 29.7407 31.8239 32.2626C31.1249 35.6264 28.0799 39.1361 27.5269 40.676C24.5369 36.8241 14.1069 32.4732 7.69694 36.1288C3.28694 39.225 2.41494 38.5757 2.92494 42.3837C3.26494 44.9205 6.33494 52.4674 8.25194 53.9798C11.9979 56.3675 9.77294 57.3853 18.1179 57.3853C23.0639 57.5202 26.6339 56.962 28.1879 56.1153C30.7549 56.4728 36.1759 56.4311 38.3909 53.9798C39.9109 52.2985 43.0149 42.6491 41.1539 32.3548C39.1779 21.4901 35.8839 12.3408 32.3239 12.3408C30.5809 12.3408 27.7469 12.4033 26.4249 13.5692C25.1029 14.7351 26.0529 18.2151 26.4679 18.6911C26.0232 19.0771 25.729 19.634 25.6449 20.2491C25.5607 20.8642 25.693 21.4914 26.0149 22.0034C27.0926 23.3351 28.4897 24.308 30.0469 24.8111C30.804 24.9274 31.5749 24.8664 32.3089 24.6324L32.3099 24.6335Z" fill="white"/>
<mask id="mask0" style="mask-type:alpha" maskUnits="userSpaceOnUse" x="27" y="25" width="8" height="21">
<path d="M31.078 45.7213L27.274 41.5492C29.709 41.5492 31.839 30.9785 32.6 25.6931C36.861 37.0425 33.361 43.7745 31.078 45.7213Z" fill="#C4C4C4"/>
</mask>
<g mask="url(#mask0)">
<path d="M42.532 28.1498L24.386 21.9915L17.988 44.6684L36.134 50.8278L42.532 28.1498Z" fill="white"/>
<path d="M27.549 41.7796C27.4827 41.8169 27.4056 41.8243 27.3344 41.8001C27.2632 41.7759 27.2034 41.7221 27.168 41.6501C27.1338 41.5775 27.1269 41.4931 27.1488 41.415C27.1707 41.3369 27.2196 41.2713 27.285 41.2323C27.3514 41.1946 27.4287 41.187 27.5002 41.2112C27.5716 41.2354 27.6315 41.2895 27.667 41.3617C27.773 41.5229 27.72 41.7127 27.549 41.7796ZM27.672 46.3213C27.6057 46.3587 27.5286 46.3661 27.4574 46.3419C27.3862 46.3177 27.3264 46.2638 27.291 46.1919C27.2569 46.1191 27.2502 46.0347 27.2722 45.9565C27.2943 45.8784 27.3434 45.8129 27.409 45.774C27.4753 45.7366 27.5523 45.7293 27.6236 45.7534C27.6948 45.7776 27.7545 45.8315 27.79 45.9034C27.851 46.0899 27.808 46.2434 27.672 46.3213ZM28.058 44.9525C27.9917 44.9899 27.9146 44.9973 27.8434 44.9731C27.7722 44.9489 27.7124 44.8951 27.677 44.8231C27.6429 44.7504 27.6362 44.6659 27.6582 44.5878C27.6803 44.5096 27.7294 44.4441 27.795 44.4052C27.8613 44.3679 27.9383 44.3605 28.0096 44.3847C28.0808 44.4089 28.1405 44.4627 28.176 44.5347C28.2098 44.6073 28.2163 44.6915 28.1943 44.7694C28.1722 44.8472 28.1233 44.9126 28.058 44.9514V44.9525ZM27.162 43.1483C27.0957 43.1857 27.0186 43.1931 26.9474 43.1689C26.8762 43.1447 26.8164 43.0909 26.781 43.0189C26.7472 42.9463 26.7407 42.8621 26.7627 42.7842C26.7847 42.7063 26.8337 42.641 26.899 42.6021C26.9652 42.5647 27.0421 42.5571 27.1133 42.5811C27.1846 42.6051 27.2444 42.6587 27.28 42.7305C27.3141 42.8032 27.3208 42.8877 27.2987 42.9658C27.2767 43.0439 27.2276 43.1095 27.162 43.1483ZM29.307 45.377C29.2407 45.4144 29.1636 45.4217 29.0924 45.3975C29.0212 45.3734 28.9614 45.3195 28.926 45.2476C28.8916 45.1747 28.8847 45.09 28.9068 45.0116C28.9288 44.9332 28.9781 44.8675 29.044 44.8286C29.1103 44.7912 29.1873 44.7838 29.2586 44.808C29.3298 44.8322 29.3895 44.8861 29.425 44.958C29.4594 45.0309 29.4663 45.1156 29.4442 45.194C29.4221 45.2724 29.3728 45.3381 29.307 45.377ZM28.445 43.5838C28.3788 43.6208 28.302 43.628 28.231 43.6038C28.16 43.5796 28.1004 43.526 28.065 43.4543C28.0308 43.3817 28.0239 43.2973 28.0458 43.2192C28.0677 43.1411 28.1166 43.0755 28.182 43.0365C28.2483 42.9991 28.3253 42.9917 28.3966 43.0159C28.4678 43.0401 28.5275 43.0939 28.563 43.1659C28.5968 43.2385 28.6033 43.3227 28.5813 43.4006C28.5592 43.4785 28.5103 43.5438 28.445 43.5827V43.5838Z" fill="#0A3B3C"/>
<path d="M27.549 41.7795C27.4827 41.8169 27.4057 41.8243 27.3344 41.8001C27.2632 41.7759 27.2035 41.722 27.168 41.6501C27.1339 41.5775 27.127 41.4931 27.1489 41.415C27.1707 41.3369 27.2196 41.2713 27.285 41.2322C27.3514 41.1945 27.4287 41.1869 27.5002 41.2111C27.5717 41.2354 27.6316 41.2894 27.667 41.3616C27.773 41.5229 27.72 41.7126 27.549 41.7795ZM27.391 32.6456C27.3247 32.683 27.2477 32.6903 27.1764 32.6661C27.1052 32.6419 27.0455 32.5881 27.01 32.5162C26.9759 32.4434 26.9692 32.3589 26.9913 32.2808C27.0133 32.2027 27.0624 32.1372 27.128 32.0983C27.1943 32.0609 27.2714 32.0535 27.3426 32.0777C27.4138 32.1019 27.4736 32.1558 27.509 32.2277C27.5431 32.3004 27.5498 32.3849 27.5278 32.463C27.5057 32.5412 27.4566 32.6067 27.391 32.6456ZM27.47 37.2136C27.4036 37.2509 27.3265 37.2582 27.2552 37.2337C27.184 37.2093 27.1243 37.1553 27.089 37.0831C27.0549 37.0104 27.0482 36.9259 27.0703 36.8478C27.0923 36.7697 27.1414 36.7041 27.207 36.6653C27.2733 36.6279 27.3504 36.6205 27.4216 36.6447C27.4928 36.6689 27.5526 36.7227 27.588 36.7947C27.6221 36.8674 27.6288 36.9519 27.6068 37.03C27.5847 37.1081 27.5356 37.1737 27.47 37.2125V37.2136ZM27.867 35.8054C27.8007 35.8428 27.7237 35.8501 27.6524 35.8259C27.5812 35.8018 27.5215 35.7479 27.486 35.676C27.4519 35.6032 27.4452 35.5187 27.4673 35.4406C27.4893 35.3625 27.5384 35.297 27.604 35.2581C27.6703 35.2207 27.7474 35.2133 27.8186 35.2375C27.8898 35.2617 27.9496 35.3156 27.985 35.3875C28.046 35.574 28.003 35.7275 27.867 35.8054ZM29.114 36.2298C29.0477 36.2672 28.9707 36.2746 28.8994 36.2504C28.8282 36.2262 28.7685 36.1724 28.733 36.1004C28.6986 36.0276 28.6917 35.9428 28.7138 35.8644C28.7359 35.786 28.7852 35.7203 28.851 35.6814C28.9173 35.6441 28.9944 35.6367 29.0656 35.6609C29.1368 35.6851 29.1966 35.7389 29.232 35.8109C29.304 35.96 29.285 36.1618 29.114 36.2298ZM28.253 34.4366C28.1866 34.4743 28.1093 34.4819 28.0379 34.4577C27.9664 34.4335 27.9065 34.3794 27.871 34.3072C27.8369 34.2344 27.8302 34.15 27.8523 34.0718C27.8743 33.9937 27.9234 33.9282 27.989 33.8893C28.0554 33.8516 28.1327 33.844 28.2042 33.8682C28.2757 33.8924 28.3356 33.9465 28.371 34.0187C28.4051 34.0915 28.4118 34.176 28.3898 34.2541C28.3677 34.3322 28.3186 34.3977 28.253 34.4366Z" fill="#0A3B3C"/>
<path d="M27.391 32.6434C27.3247 32.6808 27.2477 32.6881 27.1765 32.6639C27.1052 32.6398 27.0455 32.5859 27.01 32.514C26.976 32.4412 26.9692 32.3567 26.9913 32.2786C27.0133 32.2005 27.0624 32.135 27.128 32.0961C27.1944 32.0587 27.2714 32.0513 27.3426 32.0755C27.4139 32.0997 27.4736 32.1536 27.509 32.2255C27.5431 32.2982 27.5499 32.3827 27.5278 32.4609C27.5057 32.539 27.4566 32.6045 27.391 32.6434ZM27.548 41.7795C27.4817 41.8169 27.4047 41.8243 27.3335 41.8001C27.2622 41.7759 27.2025 41.722 27.167 41.6501C27.133 41.5773 27.1262 41.4929 27.1483 41.4147C27.1703 41.3366 27.2194 41.2711 27.285 41.2322C27.3514 41.1948 27.4284 41.1875 27.4996 41.2116C27.5709 41.2358 27.6306 41.2897 27.666 41.3616C27.773 41.5229 27.719 41.7126 27.548 41.7795ZM29.228 40.81C29.1616 40.8477 29.0843 40.8553 29.0129 40.831C28.9414 40.8068 28.8815 40.7528 28.846 40.6805C28.8117 40.6077 28.8047 40.5229 28.8268 40.4446C28.8489 40.3662 28.8982 40.3005 28.964 40.2616C29.0305 40.2239 29.1077 40.2163 29.1792 40.2405C29.2507 40.2647 29.3106 40.3188 29.346 40.391C29.3804 40.4638 29.3873 40.5486 29.3653 40.627C29.3432 40.7054 29.2939 40.7711 29.228 40.81ZM28.331 39.0058C28.2647 39.0431 28.1877 39.0505 28.1165 39.0263C28.0452 39.0021 27.9855 38.9483 27.95 38.8763C27.916 38.8036 27.9092 38.7191 27.9313 38.641C27.9533 38.5629 28.0024 38.4974 28.068 38.4585C28.1342 38.421 28.2112 38.4135 28.2824 38.4374C28.3536 38.4614 28.4134 38.515 28.449 38.5868C28.556 38.748 28.502 38.9378 28.331 39.0058ZM29.614 39.4401C29.5478 39.4776 29.4709 39.4851 29.3997 39.4611C29.3285 39.4371 29.2687 39.3835 29.233 39.3118C29.1987 39.2389 29.1917 39.1542 29.2138 39.0758C29.2359 38.9974 29.2852 38.9317 29.351 38.8928C29.4173 38.8558 29.4941 38.8486 29.565 38.8727C29.636 38.8969 29.6956 38.9506 29.731 39.0222C29.7655 39.0949 29.7726 39.1796 29.7507 39.258C29.7288 39.3363 29.6797 39.4021 29.614 39.4412V39.4401ZM27.945 40.3745C27.8787 40.4119 27.8017 40.4193 27.7305 40.3951C27.6592 40.3709 27.5995 40.3171 27.564 40.2451C27.53 40.1724 27.5232 40.0879 27.5453 40.0098C27.5673 39.9317 27.6164 39.8661 27.682 39.8272C27.7484 39.7899 27.8254 39.7825 27.8966 39.8067C27.9679 39.8309 28.0276 39.8847 28.063 39.9567C28.17 40.1179 28.116 40.3076 27.945 40.3734V40.3745ZM28.718 37.637C28.6516 37.6747 28.5743 37.6823 28.5029 37.6581C28.4314 37.6339 28.3715 37.5798 28.336 37.5076C28.3017 37.4347 28.2947 37.35 28.3168 37.2716C28.3389 37.1932 28.3882 37.1275 28.454 37.0886C28.5204 37.0512 28.5974 37.0438 28.6686 37.068C28.7399 37.0922 28.7996 37.1461 28.835 37.218C28.942 37.3792 28.888 37.569 28.718 37.637ZM27.083 38.5813C27.0167 38.6187 26.9397 38.6261 26.8685 38.6019C26.7972 38.5777 26.7375 38.5238 26.702 38.4519C26.668 38.3792 26.6612 38.2947 26.6833 38.2165C26.7054 38.1384 26.7544 38.0729 26.82 38.034C26.8864 37.9966 26.9634 37.9893 27.0346 38.0135C27.1059 38.0376 27.1656 38.0915 27.201 38.1634C27.2351 38.2362 27.2419 38.3207 27.2198 38.3988C27.1977 38.4769 27.1486 38.5424 27.083 38.5813ZM30.861 39.8645C30.7947 39.9019 30.7177 39.9093 30.6465 39.8851C30.5752 39.8609 30.5155 39.8071 30.48 39.7351C30.446 39.6624 30.4392 39.5779 30.4613 39.4998C30.4833 39.4217 30.5324 39.3561 30.598 39.3172C30.6644 39.2799 30.7414 39.2725 30.8126 39.2967C30.8839 39.3209 30.9436 39.3747 30.979 39.4467C31.0131 39.5194 31.0199 39.6039 30.9978 39.682C30.9757 39.7601 30.9266 39.8257 30.861 39.8645ZM30 38.0713C29.9336 38.109 29.8563 38.1166 29.7849 38.0924C29.7134 38.0682 29.6535 38.0141 29.618 37.9419C29.5843 37.8693 29.5777 37.785 29.5998 37.7072C29.6218 37.6293 29.6707 37.564 29.736 37.5251C29.8023 37.4873 29.8795 37.4796 29.951 37.5036C30.0224 37.5276 30.0824 37.5814 30.118 37.6534C30.1521 37.7262 30.1589 37.8107 30.1368 37.8888C30.1147 37.9669 30.0656 38.0324 30 38.0713ZM27.47 37.2136C27.4035 37.2513 27.3261 37.2587 27.2547 37.2343C27.1832 37.2098 27.1233 37.1555 27.088 37.0831C27.054 37.0104 27.0472 36.9259 27.0693 36.8478C27.0914 36.7697 27.1404 36.7041 27.206 36.6652C27.2725 36.6275 27.3497 36.62 27.4212 36.6442C27.4927 36.6684 27.5526 36.7224 27.588 36.7947C27.6221 36.8674 27.6289 36.9519 27.6068 37.03C27.5847 37.1081 27.5356 37.1737 27.47 37.2125V37.2136ZM29.114 36.2298C29.0477 36.2672 28.9707 36.2746 28.8995 36.2504C28.8282 36.2262 28.7685 36.1724 28.733 36.1004C28.6987 36.0276 28.6917 35.9428 28.7138 35.8644C28.7359 35.786 28.7852 35.7203 28.851 35.6814C28.9174 35.6441 28.9944 35.6367 29.0656 35.6609C29.1369 35.6851 29.1966 35.7389 29.232 35.8109C29.304 35.96 29.285 36.1618 29.114 36.2298ZM29.306 45.3769C29.2398 45.414 29.163 45.4212 29.092 45.397C29.0211 45.3728 28.9615 45.3192 28.926 45.2475C28.8916 45.1748 28.8845 45.0901 28.9064 45.0118C28.9283 44.9334 28.9774 44.8676 29.043 44.8285C29.1094 44.7912 29.1864 44.7838 29.2576 44.808C29.3289 44.8322 29.3886 44.886 29.424 44.958C29.4585 45.0307 29.4656 45.1153 29.4437 45.1937C29.4218 45.2721 29.3727 45.3379 29.307 45.3769H29.306ZM30.94 44.4315C30.8737 44.4689 30.7967 44.4763 30.7255 44.4521C30.6542 44.4279 30.5945 44.374 30.559 44.3021C30.525 44.2294 30.5182 44.1449 30.5403 44.0667C30.5623 43.9886 30.6114 43.9231 30.677 43.8842C30.7434 43.8468 30.8204 43.8395 30.8916 43.8636C30.9629 43.8878 31.0226 43.9417 31.058 44.0136C31.0921 44.0864 31.0989 44.1709 31.0768 44.249C31.0547 44.3271 31.0056 44.3926 30.94 44.4315ZM28.444 43.5837C28.3778 43.6207 28.301 43.6279 28.23 43.6038C28.1591 43.5796 28.0995 43.5259 28.064 43.4543C28.0299 43.3817 28.023 43.2973 28.0449 43.2192C28.0667 43.1411 28.1156 43.0755 28.181 43.0364C28.2474 42.999 28.3244 42.9916 28.3956 43.0158C28.4669 43.04 28.5266 43.0939 28.562 43.1658C28.5958 43.2385 28.6024 43.3227 28.5803 43.4005C28.5583 43.4784 28.5094 43.5437 28.444 43.5826V43.5837ZM30.078 42.6394C30.0118 42.6764 29.935 42.6836 29.864 42.6594C29.7931 42.6353 29.7335 42.5816 29.698 42.51C29.6636 42.4372 29.6565 42.3526 29.6784 42.2742C29.7003 42.1959 29.7494 42.1301 29.815 42.091C29.8814 42.0536 29.9584 42.0462 30.0296 42.0704C30.1009 42.0946 30.1606 42.1485 30.196 42.2204C30.2304 42.2933 30.2373 42.378 30.2153 42.4564C30.1932 42.5348 30.1439 42.6005 30.078 42.6394ZM31.326 43.0627C31.2597 43.1001 31.1827 43.1075 31.1115 43.0833C31.0402 43.0591 30.9805 43.0053 30.945 42.9333C30.911 42.8606 30.9042 42.7761 30.9263 42.698C30.9483 42.6198 30.9974 42.5543 31.063 42.5154C31.1294 42.4781 31.2064 42.4707 31.2776 42.4949C31.3489 42.5191 31.4086 42.5729 31.444 42.6449C31.4781 42.7176 31.4849 42.8021 31.4628 42.8802C31.4407 42.9583 31.3916 43.0239 31.326 43.0627ZM29.692 44.0082C29.6257 44.0455 29.5487 44.0529 29.4775 44.0287C29.4062 44.0045 29.3465 43.9507 29.311 43.8787C29.2767 43.8059 29.2697 43.7211 29.2918 43.6428C29.3139 43.5644 29.3632 43.4986 29.429 43.4598C29.4954 43.4224 29.5724 43.415 29.6436 43.4392C29.7149 43.4634 29.7746 43.5172 29.81 43.5892C29.8444 43.662 29.8513 43.7468 29.8293 43.8252C29.8072 43.9035 29.7579 43.9693 29.692 44.0082ZM30.475 41.2311C30.4088 41.2682 30.332 41.2754 30.261 41.2512C30.1901 41.227 30.1305 41.1734 30.095 41.1017C30.0612 41.0292 30.0545 40.9451 30.0763 40.8672C30.0982 40.7894 30.1469 40.724 30.212 40.6849C30.2782 40.6475 30.3552 40.6399 30.4264 40.6639C30.4976 40.6879 30.5574 40.7415 30.593 40.8133C30.6271 40.886 30.6339 40.9705 30.6118 41.0486C30.5897 41.1267 30.5406 41.1922 30.475 41.2311ZM28.83 42.2149C28.7638 42.252 28.687 42.2592 28.616 42.235C28.5451 42.2108 28.4855 42.1572 28.45 42.0855C28.4159 42.0129 28.409 41.9285 28.4309 41.8504C28.4527 41.7723 28.5016 41.7067 28.567 41.6676C28.6332 41.6302 28.7102 41.6226 28.7814 41.6466C28.8526 41.6706 28.9124 41.7242 28.948 41.796C28.9824 41.8688 28.9893 41.9536 28.9673 42.0319C28.9452 42.1103 28.8959 42.176 28.83 42.2149ZM32.609 43.4982C32.5426 43.5359 32.4653 43.5434 32.3939 43.5192C32.3224 43.495 32.2625 43.441 32.227 43.3687C32.1927 43.2959 32.1857 43.2111 32.2078 43.1328C32.2299 43.0544 32.2792 42.9886 32.345 42.9498C32.4116 42.9121 32.489 42.9047 32.5604 42.9291C32.6319 42.9536 32.6918 43.0079 32.727 43.0803C32.7608 43.1529 32.7674 43.2371 32.7453 43.315C32.7233 43.3929 32.6744 43.4582 32.609 43.4971V43.4982ZM31.723 41.6556C31.6567 41.693 31.5797 41.7003 31.5085 41.6761C31.4372 41.6519 31.3775 41.5981 31.342 41.5262C31.308 41.4534 31.3012 41.3689 31.3233 41.2908C31.3453 41.2127 31.3944 41.1472 31.46 41.1083C31.5264 41.0709 31.6034 41.0635 31.6746 41.0877C31.7459 41.1119 31.8056 41.1658 31.841 41.2377C31.8751 41.3104 31.8819 41.3949 31.8598 41.473C31.8377 41.5512 31.7886 41.6167 31.723 41.6556Z" fill="#0A3B3C"/>
<path d="M27.548 41.7796C27.4816 41.8173 27.4044 41.8249 27.3329 41.8006C27.2614 41.7764 27.2015 41.7224 27.166 41.6501C27.132 41.5774 27.1252 41.4929 27.1473 41.4148C27.1694 41.3367 27.2185 41.2712 27.284 41.2323C27.3505 41.1946 27.4277 41.187 27.4992 41.2112C27.5707 41.2354 27.6306 41.2895 27.666 41.3617C27.772 41.5229 27.718 41.7127 27.548 41.7796ZM29.228 40.8078C29.1616 40.8455 29.0844 40.8531 29.0129 40.8289C28.9414 40.8047 28.8815 40.7506 28.846 40.6784C28.8117 40.6056 28.8048 40.5208 28.8268 40.4424C28.8489 40.364 28.8982 40.2983 28.964 40.2594C29.0305 40.2217 29.1077 40.2141 29.1792 40.2384C29.2507 40.2626 29.3106 40.3166 29.346 40.3889C29.3804 40.4617 29.3873 40.5465 29.3653 40.6248C29.3432 40.7032 29.2939 40.7689 29.228 40.8078ZM30.862 39.8624C30.7956 39.9001 30.7184 39.9077 30.6469 39.8835C30.5754 39.8593 30.5155 39.8052 30.48 39.733C30.446 39.6602 30.4392 39.5758 30.4613 39.4976C30.4834 39.4195 30.5324 39.354 30.598 39.3151C30.6645 39.2774 30.7417 39.2698 30.8132 39.294C30.8847 39.3182 30.9446 39.3723 30.98 39.4445C31.0141 39.5173 31.0209 39.6018 30.9988 39.6799C30.9767 39.758 30.9276 39.8235 30.862 39.8624ZM31.837 46.2336C31.7707 46.2709 31.6937 46.2783 31.6225 46.2541C31.5512 46.2299 31.4915 46.1761 31.456 46.1041C31.4219 46.0315 31.415 45.9472 31.4369 45.8691C31.4587 45.7909 31.5076 45.7253 31.573 45.6863C31.6395 45.6486 31.7167 45.641 31.7882 45.6652C31.8597 45.6894 31.9196 45.7435 31.955 45.8157C31.9888 45.8883 31.9954 45.9725 31.9733 46.0504C31.9513 46.1283 31.9024 46.1936 31.837 46.2325V46.2336ZM32.223 44.8648C32.1567 44.9022 32.0797 44.9096 32.0085 44.8854C31.9372 44.8612 31.8775 44.8073 31.842 44.7354C31.808 44.6626 31.8012 44.5781 31.8233 44.5C31.8454 44.4219 31.8944 44.3564 31.96 44.3175C32.0264 44.2801 32.1034 44.2727 32.1746 44.2969C32.2459 44.3211 32.3056 44.375 32.341 44.4469C32.3748 44.5195 32.3814 44.6038 32.3593 44.6816C32.3373 44.7595 32.2884 44.8248 32.223 44.8637V44.8648ZM30.554 45.7981C30.4877 45.8355 30.4107 45.8429 30.3395 45.8187C30.2682 45.7945 30.2085 45.7407 30.173 45.6687C30.1393 45.5961 30.1327 45.5119 30.1548 45.434C30.1768 45.3562 30.2257 45.2908 30.291 45.252C30.3572 45.2145 30.4342 45.2069 30.5054 45.2309C30.5766 45.2549 30.6364 45.3085 30.672 45.3803C30.7061 45.453 30.7129 45.5375 30.6908 45.6156C30.6687 45.6937 30.6196 45.7593 30.554 45.7981ZM33.472 45.2892C33.4057 45.3266 33.3287 45.334 33.2575 45.3098C33.1862 45.2856 33.1265 45.2318 33.091 45.1598C33.0567 45.087 33.0498 45.0022 33.0718 44.9238C33.0939 44.8455 33.1432 44.7797 33.209 44.7409C33.2754 44.7035 33.3524 44.6961 33.4236 44.7203C33.4949 44.7445 33.5546 44.7983 33.59 44.8703C33.6244 44.9431 33.6313 45.0279 33.6093 45.1063C33.5872 45.1846 33.5379 45.2504 33.472 45.2892ZM29.307 45.3737C29.2407 45.4115 29.1636 45.4192 29.0921 45.3952C29.0207 45.3712 28.9607 45.3174 28.925 45.2454C28.8907 45.1725 28.8838 45.0878 28.9058 45.0094C28.9279 44.931 28.9772 44.8653 29.043 44.8264C29.1095 44.7887 29.1867 44.7811 29.2582 44.8053C29.3297 44.8295 29.3896 44.8836 29.425 44.9558C29.4594 45.0287 29.4663 45.1134 29.4443 45.1918C29.4222 45.2702 29.3729 45.3359 29.307 45.3748V45.3737ZM30.94 44.4305C30.8737 44.4674 30.7968 44.4745 30.7258 44.4501C30.6548 44.4257 30.5953 44.3718 30.56 44.3C30.5262 44.2275 30.5195 44.1433 30.5413 44.0655C30.5632 43.9876 30.6119 43.9222 30.677 43.8832C30.7433 43.8454 30.8205 43.8376 30.892 43.8616C30.9634 43.8856 31.0234 43.9395 31.059 44.0115C31.0931 44.0842 31.0999 44.1687 31.0778 44.2468C31.0557 44.325 31.0066 44.3905 30.941 44.4294L30.94 44.4305ZM32.61 43.4982C32.5436 43.5359 32.4663 43.5435 32.3949 43.5193C32.3234 43.4951 32.2635 43.441 32.228 43.3688C32.1937 43.2959 32.1868 43.2112 32.2088 43.1328C32.2309 43.0544 32.2802 42.9887 32.346 42.9498C32.4126 42.9122 32.49 42.9048 32.5614 42.9292C32.6329 42.9536 32.6928 43.0079 32.728 43.0803C32.7617 43.1531 32.7682 43.2374 32.7459 43.3153C32.7237 43.3932 32.6746 43.4584 32.6091 43.4971L32.61 43.4982ZM27.3911 32.6456C27.3247 32.683 27.2477 32.6904 27.1765 32.6662C27.1052 32.642 27.0455 32.5882 27.01 32.5162C26.976 32.4435 26.9692 32.359 26.9913 32.2809C27.0134 32.2027 27.0625 32.1372 27.128 32.0983C27.1944 32.061 27.2714 32.0536 27.3426 32.0778C27.4139 32.102 27.4736 32.1558 27.5091 32.2278C27.5431 32.3005 27.5499 32.385 27.5278 32.4631C27.5057 32.5412 27.4566 32.6068 27.3911 32.6456ZM29.025 31.7013C28.9587 31.7387 28.8817 31.7461 28.8105 31.7219C28.7392 31.6977 28.6795 31.6438 28.644 31.5719C28.61 31.4991 28.6032 31.4147 28.6253 31.3365C28.6474 31.2584 28.6964 31.1929 28.762 31.154C28.8284 31.1166 28.9054 31.1093 28.9766 31.1334C29.0479 31.1576 29.1076 31.2115 29.143 31.2834C29.1768 31.3561 29.1834 31.4403 29.1613 31.5181C29.1393 31.596 29.0904 31.6613 29.025 31.7002V31.7013ZM28.174 29.8697C28.1077 29.9071 28.0307 29.9145 27.9595 29.8903C27.8882 29.8661 27.8285 29.8122 27.793 29.7403C27.759 29.6675 27.7522 29.583 27.7743 29.5049C27.7964 29.4268 27.8454 29.3613 27.911 29.3224C27.9774 29.285 28.0544 29.2776 28.1256 29.3018C28.1969 29.326 28.2566 29.3799 28.292 29.4518C28.3261 29.5246 28.3329 29.6091 28.3108 29.6872C28.2887 29.7653 28.2396 29.8308 28.174 29.8697ZM29.422 30.293C29.3559 30.3305 29.2789 30.3381 29.2077 30.3141C29.1365 30.2901 29.0767 30.2365 29.041 30.1647C29.0067 30.0919 28.9998 30.0071 29.0218 29.9287C29.0439 29.8504 29.0932 29.7846 29.159 29.7458C29.2254 29.7084 29.3024 29.701 29.3736 29.7252C29.4449 29.7494 29.5046 29.8032 29.5401 29.8752C29.5744 29.948 29.5813 30.0328 29.5593 30.1112C29.5372 30.1895 29.4879 30.2553 29.422 30.2941V30.293ZM27.777 31.2769C27.7107 31.3142 27.6337 31.3216 27.5625 31.2974C27.4912 31.2732 27.4315 31.2194 27.396 31.1474C27.362 31.0747 27.3552 30.9902 27.3773 30.9121C27.3994 30.834 27.4484 30.7684 27.514 30.7296C27.5804 30.6922 27.6574 30.6848 27.7286 30.709C27.7999 30.7332 27.8596 30.787 27.895 30.859C27.9291 30.9317 27.9359 31.0162 27.9138 31.0943C27.8917 31.1725 27.8426 31.238 27.777 31.2769ZM28.56 28.5009C28.4938 28.538 28.417 28.5452 28.346 28.521C28.2751 28.4968 28.2155 28.4432 28.18 28.3715C28.1459 28.2989 28.139 28.2145 28.1609 28.1364C28.1827 28.0583 28.2316 27.9927 28.2971 27.9536C28.3634 27.9162 28.4404 27.9089 28.5116 27.9331C28.5829 27.9573 28.6426 28.0111 28.678 28.083C28.7118 28.1557 28.7184 28.2399 28.6963 28.3178C28.6743 28.3956 28.6254 28.461 28.56 28.4998V28.5009ZM30.67 30.7175C30.6036 30.7552 30.5264 30.7628 30.4549 30.7386C30.3834 30.7144 30.3235 30.6603 30.288 30.5881C30.254 30.5153 30.2472 30.4309 30.2693 30.3527C30.2914 30.2746 30.3404 30.2091 30.406 30.1702C30.4724 30.1328 30.5494 30.1254 30.6206 30.1496C30.6919 30.1738 30.7516 30.2277 30.787 30.2996C30.859 30.4488 30.84 30.6506 30.669 30.7175H30.67ZM29.808 28.9254C29.7416 28.9631 29.6644 28.9707 29.5929 28.9465C29.5214 28.9222 29.4615 28.8682 29.426 28.796C29.3917 28.7231 29.3848 28.6383 29.4068 28.56C29.4289 28.4816 29.4782 28.4159 29.544 28.377C29.6105 28.3393 29.6877 28.3317 29.7592 28.3559C29.8307 28.3801 29.8906 28.4342 29.926 28.5064C29.9604 28.5793 29.9673 28.664 29.9453 28.7424C29.9232 28.8208 29.8739 28.8865 29.808 28.9254ZM27.312 28.0787C27.2457 28.116 27.1687 28.1234 27.0975 28.0992C27.0262 28.075 26.9665 28.0212 26.931 27.9492C26.897 27.8765 26.8902 27.792 26.9123 27.7139C26.9344 27.6358 26.9834 27.5702 27.049 27.5314C27.1154 27.494 27.1924 27.4866 27.2636 27.5108C27.3349 27.535 27.3946 27.5888 27.43 27.6608C27.4641 27.7335 27.4709 27.818 27.4488 27.8961C27.4267 27.9743 27.3776 28.0398 27.312 28.0787ZM28.946 27.1321C28.8797 27.1695 28.8027 27.1769 28.7315 27.1527C28.6602 27.1285 28.6005 27.0747 28.565 27.0027C28.531 26.93 28.5242 26.8455 28.5463 26.7674C28.5684 26.6893 28.6175 26.6237 28.683 26.5849C28.7494 26.5475 28.8264 26.5401 28.8976 26.5643C28.9689 26.5885 29.0286 26.6423 29.064 26.7143C29.0978 26.7869 29.1044 26.8711 29.0823 26.949C29.0603 27.0268 29.0114 27.0922 28.946 27.131V27.1321ZM29.114 36.2299C29.0477 36.2673 28.9707 36.2747 28.8995 36.2505C28.8282 36.2263 28.7685 36.1724 28.733 36.1005C28.6987 36.0276 28.6918 35.9429 28.7138 35.8645C28.7359 35.7861 28.7852 35.7204 28.851 35.6815C28.9174 35.6441 28.9944 35.6367 29.0656 35.6609C29.1369 35.6851 29.1966 35.739 29.232 35.8109C29.304 35.9601 29.285 36.1619 29.114 36.2299ZM30.782 35.2954C30.7157 35.3328 30.6387 35.3402 30.5675 35.316C30.4962 35.2918 30.4365 35.238 30.401 35.166C30.367 35.0933 30.3602 35.0088 30.3823 34.9307C30.4044 34.8526 30.4534 34.787 30.519 34.7481C30.5854 34.7108 30.6624 34.7034 30.7336 34.7276C30.8049 34.7518 30.8646 34.8056 30.9 34.8776C30.9341 34.9503 30.9409 35.0348 30.9188 35.1129C30.8967 35.191 30.8476 35.2566 30.782 35.2954ZM28.2521 34.4367C28.1857 34.474 28.1087 34.4814 28.0375 34.4572C27.9662 34.433 27.9065 34.3792 27.871 34.3072C27.837 34.2345 27.8302 34.15 27.8523 34.0719C27.8744 33.9938 27.9234 33.9282 27.989 33.8894C28.0554 33.852 28.1324 33.8446 28.2036 33.8688C28.2749 33.893 28.3346 33.9468 28.3701 34.0188C28.4041 34.0915 28.4109 34.176 28.3888 34.2541C28.3667 34.3323 28.3176 34.3978 28.2521 34.4367ZM29.886 33.4923C29.8197 33.5297 29.7427 33.5371 29.6715 33.5129C29.6002 33.4887 29.5405 33.4349 29.505 33.3629C29.4707 33.2901 29.4638 33.2053 29.4858 33.1269C29.5079 33.0486 29.5572 32.9828 29.623 32.944C29.6894 32.9066 29.7664 32.8992 29.8376 32.9234C29.9089 32.9476 29.9686 33.0014 30.004 33.0734C30.111 33.2346 30.057 33.4243 29.886 33.4912V33.4923ZM31.169 33.9267C31.1026 33.9644 31.0254 33.972 30.9539 33.9477C30.8824 33.9235 30.8225 33.8695 30.787 33.7972C30.753 33.7245 30.7462 33.64 30.7683 33.5619C30.7904 33.4838 30.8395 33.4182 30.905 33.3794C30.9714 33.342 31.0484 33.3346 31.1196 33.3588C31.1909 33.383 31.2506 33.4368 31.286 33.5088C31.3202 33.5814 31.3271 33.6658 31.3052 33.7439C31.2834 33.822 31.2345 33.8876 31.169 33.9267ZM29.5 34.8611C29.4336 34.8984 29.3565 34.9056 29.2852 34.8812C29.214 34.8568 29.1543 34.8027 29.119 34.7306C29.0853 34.658 29.0787 34.5737 29.1008 34.4959C29.1228 34.418 29.1717 34.3527 29.237 34.3138C29.3032 34.2764 29.3802 34.2688 29.4514 34.2928C29.5226 34.3168 29.5824 34.3704 29.618 34.4421C29.724 34.6034 29.671 34.7931 29.5 34.8611ZM30.272 32.1225C30.2059 32.1596 30.1293 32.167 30.0583 32.143C29.9873 32.119 29.9277 32.0656 29.892 31.9941C29.8576 31.9214 29.8505 31.8368 29.8724 31.7584C29.8943 31.6801 29.9434 31.6142 30.009 31.5752C30.0754 31.5378 30.1524 31.5304 30.2236 31.5546C30.2949 31.5788 30.3546 31.6326 30.39 31.7046C30.497 31.8658 30.443 32.0556 30.272 32.1225ZM28.638 33.0679C28.5717 33.1053 28.4947 33.1127 28.4235 33.0885C28.3522 33.0643 28.2925 33.0104 28.257 32.9385C28.223 32.8657 28.2162 32.7812 28.2383 32.7031C28.2604 32.625 28.3094 32.5595 28.375 32.5206C28.4414 32.4832 28.5184 32.4758 28.5896 32.5C28.6609 32.5242 28.7206 32.5781 28.756 32.65C28.7901 32.7228 28.7969 32.8072 28.7748 32.8854C28.7527 32.9635 28.7036 33.029 28.638 33.0679ZM32.416 34.3511C32.3497 34.3885 32.2727 34.3959 32.2015 34.3717C32.1302 34.3475 32.0705 34.2936 32.035 34.2217C32.001 34.149 31.9942 34.0645 32.0163 33.9863C32.0384 33.9082 32.0874 33.8427 32.153 33.8038C32.2193 33.7668 32.2961 33.7596 32.367 33.7838C32.438 33.8079 32.4976 33.8616 32.5331 33.9332C32.5669 34.0057 32.5736 34.0899 32.5518 34.1677C32.5299 34.2455 32.4812 34.311 32.416 34.35V34.3511ZM31.554 32.5579C31.4877 32.5953 31.4107 32.6027 31.3395 32.5785C31.2682 32.5543 31.2085 32.5004 31.173 32.4285C31.139 32.3557 31.1322 32.2712 31.1543 32.1931C31.1764 32.115 31.2255 32.0495 31.291 32.0106C31.3574 31.9732 31.4344 31.9658 31.5056 31.99C31.5769 32.0142 31.6366 32.0681 31.672 32.14C31.7061 32.2128 31.7129 32.2972 31.6908 32.3754C31.6687 32.4535 31.6196 32.519 31.554 32.5579Z" fill="#0A3B3C"/>
<path d="M27.39 32.6432C27.3238 32.6803 27.247 32.6875 27.176 32.6633C27.105 32.6391 27.0454 32.5855 27.01 32.5138C26.9758 32.4412 26.969 32.3568 26.9908 32.2787C27.0127 32.2006 27.0616 32.135 27.127 32.0959C27.1934 32.0582 27.2707 32.0507 27.3422 32.0749C27.4136 32.0991 27.4736 32.1531 27.509 32.2254C27.5431 32.2981 27.5498 32.3826 27.5278 32.4607C27.5057 32.5388 27.4566 32.6044 27.391 32.6432H27.39ZM29.024 31.6989C28.9578 31.736 28.881 31.7432 28.81 31.719C28.739 31.6948 28.6794 31.6412 28.644 31.5695C28.6098 31.4969 28.603 31.4125 28.6248 31.3344C28.6467 31.2563 28.6956 31.1907 28.761 31.1516C28.8273 31.1142 28.9044 31.1069 28.9756 31.1311C29.0468 31.1552 29.1066 31.2091 29.142 31.281C29.1762 31.3536 29.183 31.438 29.1612 31.5161C29.1393 31.5942 29.0904 31.6598 29.025 31.6989H29.024ZM30.67 30.7151C30.6036 30.7528 30.5263 30.7604 30.4548 30.7362C30.3834 30.712 30.3235 30.6579 30.288 30.5857C30.2539 30.5129 30.2472 30.4285 30.2692 30.3503C30.2913 30.2722 30.3404 30.2067 30.406 30.1678C30.4724 30.1301 30.5497 30.1225 30.6212 30.1467C30.6926 30.1709 30.7526 30.225 30.788 30.2972C30.859 30.4464 30.84 30.6482 30.669 30.7151H30.67ZM30.863 39.8644C30.7967 39.9018 30.7196 39.9092 30.6484 39.885C30.5772 39.8608 30.5175 39.8069 30.482 39.735C30.4479 39.6622 30.4412 39.5777 30.4632 39.4996C30.4853 39.4215 30.5344 39.356 30.6 39.3171C30.6663 39.2797 30.7434 39.2723 30.8146 39.2965C30.8858 39.3207 30.9456 39.3746 30.981 39.4465C31.0151 39.5193 31.0218 39.6038 30.9998 39.6819C30.9777 39.76 30.9286 39.8255 30.863 39.8644ZM32.497 38.9201C32.4307 38.9575 32.3536 38.9648 32.2824 38.9406C32.2112 38.9164 32.1515 38.8626 32.116 38.7907C32.0819 38.7179 32.0752 38.6334 32.0972 38.5553C32.1193 38.4772 32.1684 38.4117 32.234 38.3728C32.3002 38.3357 32.377 38.3285 32.448 38.3527C32.519 38.3769 32.5786 38.4305 32.614 38.5022C32.6479 38.5747 32.6546 38.6588 32.6327 38.7367C32.6109 38.8145 32.5622 38.8799 32.497 38.919V38.9201ZM30.001 38.0712C29.9347 38.1086 29.8576 38.1159 29.7864 38.0917C29.7152 38.0675 29.6555 38.0137 29.62 37.9418C29.5862 37.8691 29.5797 37.7849 29.6017 37.707C29.6238 37.6292 29.6727 37.5638 29.738 37.525C29.8042 37.4875 29.8811 37.48 29.9524 37.5039C30.0236 37.5279 30.0834 37.5815 30.119 37.6533C30.1531 37.726 30.1598 37.8105 30.1378 37.8886C30.1157 37.9668 30.0666 38.0323 30.001 38.0712ZM31.646 37.0885C31.5797 37.1258 31.5026 37.1332 31.4314 37.109C31.3602 37.0848 31.3004 37.031 31.265 36.959C31.2309 36.8863 31.2242 36.8018 31.2462 36.7237C31.2683 36.6456 31.3174 36.58 31.383 36.5412C31.4493 36.5038 31.5264 36.4964 31.5976 36.5206C31.6688 36.5448 31.7286 36.5986 31.764 36.6706C31.825 36.857 31.782 37.0106 31.646 37.0885ZM32.894 37.5129C32.8277 37.5503 32.7506 37.5577 32.6794 37.5335C32.6082 37.5093 32.5485 37.4554 32.513 37.3835C32.4786 37.3106 32.4717 37.2259 32.4938 37.1475C32.5159 37.0691 32.5651 37.0034 32.631 36.9645C32.6972 36.9275 32.774 36.9203 32.845 36.9445C32.916 36.9686 32.9756 37.0223 33.011 37.0939C33.073 37.2815 33.031 37.4339 32.894 37.5129ZM31.25 38.4967C31.1835 38.5344 31.1061 38.5418 31.0346 38.5173C30.9631 38.4929 30.9033 38.4386 30.868 38.3662C30.8339 38.2935 30.8272 38.209 30.8492 38.1309C30.8713 38.0527 30.9204 37.9872 30.986 37.9483C31.0523 37.9109 31.1294 37.9036 31.2006 37.9278C31.2718 37.952 31.3316 38.0058 31.367 38.0777C31.4011 38.1505 31.4078 38.235 31.3858 38.3131C31.3637 38.3912 31.3146 38.4567 31.249 38.4956L31.25 38.4967ZM32.032 35.7197C31.9657 35.7571 31.8886 35.7644 31.8174 35.7403C31.7462 35.7161 31.6864 35.6622 31.651 35.5903C31.6169 35.5175 31.6102 35.433 31.6322 35.3549C31.6543 35.2768 31.7034 35.2113 31.769 35.1724C31.8353 35.135 31.9124 35.1276 31.9836 35.1518C32.0548 35.176 32.1146 35.2299 32.15 35.3018C32.1841 35.3746 32.1908 35.459 32.1688 35.5372C32.1467 35.6153 32.0976 35.6808 32.032 35.7197ZM30.398 36.6651C30.3316 36.7024 30.2544 36.7096 30.1832 36.6852C30.112 36.6608 30.0523 36.6067 30.017 36.5346C29.9829 36.4619 29.9762 36.3774 29.9982 36.2992C30.0203 36.2211 30.0694 36.1556 30.135 36.1167C30.2013 36.0793 30.2784 36.072 30.3496 36.0962C30.4208 36.1203 30.4806 36.1742 30.516 36.2461C30.577 36.4326 30.534 36.5861 30.398 36.664V36.6651ZM34.177 37.9483C34.1105 37.986 34.0331 37.9934 33.9616 37.969C33.8901 37.9445 33.8303 37.8902 33.795 37.8178C33.7609 37.7451 33.7542 37.6606 33.7762 37.5825C33.7983 37.5043 33.8474 37.4388 33.913 37.3999C33.9794 37.3622 34.0567 37.3547 34.1282 37.3789C34.1996 37.4031 34.2595 37.4571 34.295 37.5294C34.355 37.7158 34.313 37.8694 34.177 37.9472V37.9483ZM33.28 36.1441C33.2137 36.1815 33.1366 36.1889 33.0654 36.1647C32.9942 36.1405 32.9344 36.0867 32.899 36.0147C32.8646 35.9419 32.8577 35.8571 32.8798 35.7787C32.9019 35.7004 32.9511 35.6346 33.017 35.5958C33.0833 35.5584 33.1604 35.551 33.2316 35.5752C33.3028 35.5994 33.3626 35.6532 33.398 35.7252C33.4324 35.798 33.4393 35.8828 33.4172 35.9612C33.3951 36.0395 33.3459 36.1053 33.28 36.1441ZM29.115 36.2297C29.0487 36.2671 28.9716 36.2744 28.9004 36.2503C28.8292 36.2261 28.7694 36.1722 28.734 36.1003C28.6996 36.0274 28.6927 35.9427 28.7148 35.8643C28.7369 35.7859 28.7861 35.7202 28.852 35.6813C28.9183 35.6439 28.9954 35.6365 29.0666 35.6607C29.1378 35.6849 29.1976 35.7388 29.233 35.8107C29.305 35.9599 29.286 36.1617 29.115 36.2297ZM30.784 35.2952C30.7177 35.3326 30.6406 35.34 30.5694 35.3158C30.4982 35.2916 30.4385 35.2378 30.403 35.1658C30.3688 35.0932 30.362 35.0088 30.3838 34.9307C30.4057 34.8526 30.4546 34.787 30.52 34.7479C30.5864 34.7102 30.6637 34.7027 30.7352 34.7269C30.8066 34.7511 30.8666 34.8051 30.902 34.8774C30.9361 34.9501 30.9428 35.0346 30.9208 35.1127C30.8987 35.1908 30.8496 35.2564 30.784 35.2952ZM32.418 34.3509C32.3516 34.3886 32.2743 34.3962 32.2028 34.372C32.1314 34.3478 32.0715 34.2937 32.036 34.2215C32.0019 34.1488 31.9952 34.0643 32.0172 33.9861C32.0393 33.908 32.0884 33.8425 32.154 33.8036C32.2204 33.7659 32.2977 33.7583 32.3692 33.7825C32.4406 33.8068 32.5006 33.8608 32.536 33.933C32.5698 34.0057 32.5763 34.0899 32.5543 34.1678C32.5322 34.2456 32.4833 34.3109 32.418 34.3498V34.3509ZM32.61 43.498C32.5436 43.5357 32.4663 43.5433 32.3948 43.5191C32.3234 43.4949 32.2635 43.4408 32.228 43.3686C32.1936 43.2957 32.1867 43.211 32.2088 43.1326C32.2309 43.0542 32.2801 42.9885 32.346 42.9496C32.4125 42.912 32.4899 42.9046 32.5614 42.929C32.6329 42.9534 32.6927 43.0077 32.728 43.0801C32.7617 43.1529 32.7681 43.2372 32.7459 43.3151C32.7236 43.393 32.6745 43.4582 32.609 43.4969L32.61 43.498ZM34.254 42.5142C34.1877 42.5516 34.1106 42.559 34.0394 42.5348C33.9682 42.5106 33.9085 42.4567 33.873 42.3848C33.8389 42.312 33.8322 42.2276 33.8542 42.1494C33.8763 42.0713 33.9254 42.0058 33.991 41.9669C34.0573 41.9295 34.1344 41.9221 34.2056 41.9463C34.2768 41.9705 34.3366 42.0244 34.372 42.0963C34.4061 42.1691 34.4128 42.2536 34.3908 42.3317C34.3687 42.4098 34.3196 42.4753 34.254 42.5142ZM31.724 41.6554C31.6576 41.6931 31.5803 41.7007 31.5088 41.6765C31.4374 41.6523 31.3775 41.5982 31.342 41.526C31.3079 41.4533 31.3012 41.3688 31.3232 41.2907C31.3453 41.2125 31.3944 41.147 31.46 41.1081C31.5264 41.0704 31.6037 41.0628 31.6752 41.0871C31.7466 41.1113 31.8066 41.1653 31.842 41.2376C31.8761 41.3103 31.8828 41.3948 31.8608 41.4729C31.8387 41.551 31.7896 41.6165 31.724 41.6554ZM33.392 40.7221C33.3258 40.7591 33.249 40.7663 33.178 40.7421C33.107 40.718 33.0474 40.6643 33.012 40.5927C32.9775 40.5199 32.9705 40.4353 32.9924 40.3569C33.0142 40.2786 33.0633 40.2128 33.129 40.1737C33.1953 40.1363 33.2724 40.1289 33.3436 40.1531C33.4148 40.1773 33.4746 40.2312 33.51 40.3031C33.5444 40.376 33.5513 40.4607 33.5292 40.5391C33.5071 40.6175 33.4579 40.6832 33.392 40.7221ZM34.64 41.1454C34.5737 41.1828 34.4966 41.1902 34.4254 41.166C34.3542 41.1418 34.2944 41.088 34.259 41.016C34.2249 40.9433 34.2182 40.8588 34.2402 40.7807C34.2623 40.7025 34.3114 40.637 34.377 40.5981C34.4433 40.5608 34.5204 40.5534 34.5916 40.5776C34.6628 40.6018 34.7226 40.6556 34.758 40.7276C34.7921 40.8003 34.7988 40.8848 34.7768 40.9629C34.7547 41.041 34.7056 41.1065 34.64 41.1454ZM33.006 42.0908C32.9397 42.1282 32.8626 42.1356 32.7914 42.1114C32.7202 42.0872 32.6605 42.0334 32.625 41.9614C32.5906 41.8886 32.5837 41.8038 32.6058 41.7254C32.6279 41.6471 32.6771 41.5813 32.743 41.5425C32.8093 41.5051 32.8864 41.4977 32.9576 41.5219C33.0288 41.5461 33.0886 41.5999 33.124 41.6719C33.1584 41.7447 33.1653 41.8295 33.1432 41.9079C33.1211 41.9862 33.0719 42.052 33.006 42.0908ZM33.779 39.3522C33.7127 39.39 33.6355 39.3977 33.5641 39.3737C33.4926 39.3497 33.4326 39.2959 33.397 39.2239C33.3626 39.151 33.3557 39.0663 33.3778 38.9879C33.3999 38.9095 33.4491 38.8438 33.515 38.8049C33.5814 38.7672 33.6587 38.7596 33.7302 38.7838C33.8016 38.808 33.8616 38.8621 33.897 38.9343C33.9311 39.0071 33.9378 39.0916 33.9158 39.1697C33.8937 39.2478 33.8446 39.3133 33.779 39.3522ZM32.11 40.2867C32.0437 40.324 31.9666 40.3314 31.8954 40.3072C31.8242 40.283 31.7645 40.2292 31.729 40.1572C31.6949 40.0845 31.6882 40 31.7102 39.9219C31.7323 39.8438 31.7814 39.7782 31.847 39.7394C31.9133 39.702 31.9904 39.6946 32.0616 39.7188C32.1328 39.743 32.1926 39.7968 32.228 39.8688C32.2621 39.9415 32.2688 40.026 32.2468 40.1041C32.2247 40.1823 32.1756 40.2478 32.11 40.2867ZM35.026 39.7767C34.9597 39.814 34.8827 39.8214 34.8114 39.7972C34.7402 39.773 34.6805 39.7192 34.645 39.6472C34.6109 39.5745 34.6042 39.49 34.6263 39.4119C34.6483 39.3338 34.6974 39.2682 34.763 39.2294C34.8293 39.192 34.9064 39.1846 34.9776 39.2088C35.0488 39.233 35.1086 39.2868 35.144 39.3588C35.1781 39.4315 35.1848 39.516 35.1628 39.5941C35.1407 39.6722 35.0916 39.7378 35.026 39.7767Z" fill="#0A3B3C"/>
<path d="M30.862 39.8622C30.7958 39.8992 30.719 39.9064 30.648 39.8823C30.577 39.8581 30.5175 39.8044 30.482 39.7328C30.4479 39.6602 30.441 39.5758 30.4629 39.4977C30.4847 39.4196 30.5336 39.354 30.599 39.3149C30.6654 39.2775 30.7424 39.2701 30.8136 39.2943C30.8848 39.3185 30.9446 39.3724 30.98 39.4443C31.0141 39.5171 31.0208 39.6016 30.9988 39.6797C30.9767 39.7578 30.9276 39.8233 30.862 39.8622ZM32.496 38.9179C32.4296 38.9556 32.3523 38.9632 32.2809 38.939C32.2094 38.9147 32.1495 38.8607 32.114 38.7885C32.08 38.7157 32.0732 38.6312 32.0953 38.5531C32.1173 38.475 32.1664 38.4095 32.232 38.3706C32.2985 38.3329 32.3757 38.3253 32.4472 38.3495C32.5187 38.3737 32.5786 38.4278 32.614 38.5C32.6481 38.5727 32.6548 38.6572 32.6328 38.7354C32.6107 38.8135 32.5616 38.879 32.496 38.9179ZM34.175 37.9483C34.1086 37.9856 34.0315 37.9928 33.9602 37.9684C33.889 37.944 33.8293 37.8899 33.794 37.8178C33.76 37.7451 33.7532 37.6606 33.7753 37.5825C33.7973 37.5043 33.8464 37.4388 33.912 37.3999C33.9784 37.3626 34.0554 37.3552 34.1266 37.3794C34.1978 37.4036 34.2576 37.4574 34.293 37.5294C34.354 37.7158 34.311 37.8694 34.175 37.9472V37.9483ZM33.472 45.289C33.4056 45.3268 33.3283 45.3343 33.2569 45.3101C33.1854 45.2859 33.1255 45.2319 33.09 45.1596C33.0556 45.0868 33.0487 45.002 33.0708 44.9236C33.0929 44.8453 33.1422 44.7795 33.208 44.7406C33.2745 44.7029 33.3517 44.6954 33.4232 44.7196C33.4947 44.7438 33.5546 44.7978 33.59 44.8701C33.6244 44.9429 33.6313 45.0277 33.6093 45.1061C33.5872 45.1844 33.5379 45.2502 33.472 45.289ZM35.106 44.3425C35.0395 44.3802 34.9621 44.3876 34.8906 44.3631C34.8192 44.3387 34.7593 44.2844 34.724 44.212C34.69 44.1391 34.6834 44.0545 34.7057 43.9764C34.728 43.8983 34.7773 43.8328 34.843 43.7941C34.9093 43.7571 34.986 43.7499 35.057 43.7741C35.128 43.7983 35.1876 43.8519 35.223 43.9236C35.2572 43.9962 35.2641 44.0805 35.2422 44.1586C35.2203 44.2368 35.1715 44.3024 35.106 44.3414V44.3425ZM34.72 45.7102C34.6536 45.7479 34.5763 45.7555 34.5049 45.7313C34.4334 45.7071 34.3735 45.653 34.338 45.5808C34.3043 45.5082 34.2977 45.4239 34.3197 45.3461C34.3418 45.2682 34.3907 45.2029 34.456 45.164C34.5223 45.1262 34.5995 45.1185 34.671 45.1425C34.7424 45.1665 34.8024 45.2203 34.838 45.2923C34.8721 45.3651 34.8788 45.4496 34.8568 45.5277C34.8347 45.6058 34.7856 45.6713 34.72 45.7102ZM33.858 43.9192C33.7918 43.9566 33.7149 43.9642 33.6437 43.9402C33.5725 43.9162 33.5127 43.8626 33.477 43.7908C33.4426 43.718 33.4357 43.6332 33.4578 43.5549C33.4799 43.4765 33.5292 43.4108 33.595 43.3719C33.6614 43.3345 33.7384 43.3271 33.8096 43.3513C33.8808 43.3755 33.9406 43.4293 33.976 43.5013C34.0104 43.5741 34.0173 43.6589 33.9953 43.7373C33.9732 43.8157 33.9239 43.8814 33.858 43.9203V43.9192ZM32.609 43.4958C32.5427 43.5332 32.4657 43.5406 32.3944 43.5164C32.3232 43.4922 32.2635 43.4383 32.228 43.3664C32.1936 43.2935 32.1867 43.2088 32.2088 43.1304C32.2309 43.052 32.2802 42.9863 32.346 42.9474C32.4124 42.91 32.4894 42.9027 32.5606 42.9269C32.6318 42.951 32.6916 43.0049 32.727 43.0768C32.7614 43.1497 32.7683 43.2344 32.7463 43.3128C32.7242 43.3912 32.6749 43.4569 32.609 43.4958ZM34.254 42.512C34.1877 42.5494 34.1107 42.5568 34.0395 42.5326C33.9682 42.5084 33.9085 42.4545 33.873 42.3826C33.839 42.3099 33.8322 42.2254 33.8543 42.1472C33.8763 42.0691 33.9254 42.0036 33.991 41.9647C34.0574 41.9273 34.1344 41.92 34.2056 41.9441C34.2768 41.9683 34.3366 42.0222 34.372 42.0941C34.4061 42.1669 34.4128 42.2514 34.3908 42.3295C34.3687 42.4076 34.3196 42.4731 34.254 42.512ZM30.67 30.7151C30.6036 30.7528 30.5263 30.7604 30.4549 30.7362C30.3834 30.712 30.3235 30.6579 30.288 30.5857C30.254 30.5129 30.2472 30.4285 30.2693 30.3503C30.2913 30.2722 30.3404 30.2067 30.406 30.1678C30.4725 30.1301 30.5497 30.1225 30.6212 30.1467C30.6927 30.1709 30.7526 30.225 30.788 30.2972C30.86 30.4464 30.841 30.6482 30.67 30.7151ZM32.338 29.7839C32.2717 29.8213 32.1947 29.8287 32.1235 29.8045C32.0522 29.7803 31.9925 29.7265 31.957 29.6545C31.923 29.5818 31.9162 29.4973 31.9383 29.4192C31.9603 29.3411 32.0094 29.2755 32.075 29.2366C32.1414 29.1993 32.2184 29.1919 32.2896 29.2161C32.3608 29.2403 32.4206 29.2941 32.456 29.3661C32.4898 29.4387 32.4964 29.5229 32.4743 29.6008C32.4523 29.6786 32.4034 29.744 32.338 29.7828V29.7839ZM29.808 28.9252C29.7416 28.9629 29.6643 28.9705 29.5929 28.9462C29.5214 28.922 29.4615 28.868 29.426 28.7957C29.3916 28.7229 29.3847 28.6381 29.4068 28.5598C29.4289 28.4814 29.4782 28.4157 29.544 28.3768C29.6105 28.3391 29.6877 28.3315 29.7592 28.3557C29.8307 28.3799 29.8906 28.434 29.926 28.5062C29.9604 28.579 29.9673 28.6638 29.9453 28.7422C29.9232 28.8206 29.8739 28.8863 29.808 28.9252ZM31.442 27.9797C31.3757 28.0171 31.2987 28.0245 31.2275 28.0003C31.1562 27.9761 31.0965 27.9223 31.061 27.8503C31.027 27.7776 31.0202 27.6931 31.0423 27.615C31.0643 27.5369 31.1134 27.4713 31.179 27.4325C31.2453 27.3954 31.322 27.3882 31.393 27.4124C31.464 27.4366 31.5236 27.4902 31.559 27.5619C31.666 27.7231 31.613 27.9128 31.442 27.9797ZM32.724 28.4152C32.6577 28.4525 32.5807 28.4599 32.5095 28.4357C32.4382 28.4115 32.3785 28.3577 32.343 28.2857C32.309 28.213 32.3022 28.1285 32.3243 28.0504C32.3463 27.9723 32.3954 27.9068 32.461 27.8679C32.5272 27.8304 32.6042 27.8229 32.6754 27.8468C32.7466 27.8708 32.8064 27.9244 32.842 27.9962C32.8764 28.069 32.8833 28.1538 32.8613 28.2322C32.8392 28.3106 32.7899 28.3763 32.724 28.4152ZM31.056 29.3496C30.9895 29.3873 30.9121 29.3947 30.8406 29.3702C30.7692 29.3458 30.7093 29.2915 30.674 29.2191C30.64 29.1464 30.6332 29.0619 30.6553 28.9838C30.6773 28.9056 30.7264 28.8401 30.792 28.8012C30.8585 28.7635 30.9357 28.7559 31.0072 28.7802C31.0787 28.8044 31.1386 28.8584 31.174 28.9307C31.28 29.0919 31.227 29.2816 31.056 29.3485V29.3496ZM31.839 26.5726C31.7727 26.61 31.6957 26.6173 31.6245 26.5932C31.5532 26.569 31.4935 26.5151 31.458 26.4432C31.424 26.3704 31.4172 26.2859 31.4393 26.2078C31.4613 26.1297 31.5104 26.0642 31.576 26.0253C31.6423 25.9883 31.719 25.9811 31.79 26.0052C31.861 26.0294 31.9206 26.0831 31.956 26.1547C32.053 26.3532 32.01 26.5057 31.839 26.5715V26.5726ZM30.194 27.5564C30.1277 27.5938 30.0507 27.6012 29.9795 27.577C29.9082 27.5528 29.8485 27.4989 29.813 27.427C29.7786 27.3541 29.7717 27.2694 29.7938 27.191C29.8159 27.1126 29.8652 27.0469 29.931 27.008C29.9973 26.971 30.074 26.9638 30.145 26.9879C30.216 27.0121 30.2756 27.0658 30.311 27.1374C30.3455 27.2101 30.3526 27.2948 30.3307 27.3732C30.3088 27.4515 30.2597 27.5173 30.194 27.5564ZM33.973 28.8385C33.9068 28.876 33.8299 28.8835 33.7587 28.8595C33.6875 28.8356 33.6276 28.782 33.592 28.7102C33.5576 28.6374 33.5507 28.5526 33.5728 28.4742C33.5949 28.3958 33.6442 28.3301 33.71 28.2912C33.7764 28.2539 33.8534 28.2465 33.9246 28.2707C33.9958 28.2949 34.0556 28.3487 34.091 28.4207C34.1251 28.4934 34.1318 28.5779 34.1098 28.656C34.0877 28.7341 34.0386 28.7996 33.973 28.8385ZM33.122 27.008C33.0558 27.045 32.979 27.0522 32.908 27.0281C32.837 27.0039 32.7775 26.9502 32.742 26.8786C32.7076 26.8059 32.7005 26.7212 32.7224 26.6429C32.7443 26.5645 32.7933 26.4987 32.859 26.4596C32.9254 26.4222 33.0024 26.4149 33.0736 26.439C33.1448 26.4632 33.2046 26.5171 33.24 26.589C33.301 26.7766 33.259 26.929 33.122 27.008ZM28.946 27.1319C28.8798 27.169 28.803 27.1762 28.732 27.152C28.661 27.1278 28.6015 27.0742 28.566 27.0025C28.5319 26.9299 28.525 26.8455 28.5469 26.7674C28.5687 26.6893 28.6176 26.6237 28.683 26.5847C28.7494 26.5473 28.8264 26.5399 28.8976 26.5641C28.9688 26.5883 29.0286 26.6421 29.064 26.7141C29.0978 26.7867 29.1044 26.8709 29.0823 26.9488C29.0603 27.0266 29.0114 27.092 28.946 27.1308V27.1319ZM30.591 26.1481C30.5248 26.1852 30.448 26.1924 30.377 26.1682C30.306 26.144 30.2465 26.0904 30.211 26.0187C30.1772 25.9462 30.1705 25.8621 30.1923 25.7843C30.2142 25.7064 30.2629 25.641 30.328 25.6019C30.3942 25.5645 30.4712 25.5569 30.5424 25.5809C30.6136 25.6049 30.6734 25.6585 30.709 25.7303C30.77 25.9167 30.728 26.0703 30.591 26.1481ZM32.417 34.3509C32.3507 34.3883 32.2737 34.3957 32.2025 34.3715C32.1312 34.3473 32.0715 34.2934 32.036 34.2215C32.002 34.1488 31.9952 34.0643 32.0173 33.9861C32.0393 33.908 32.0884 33.8425 32.154 33.8036C32.2204 33.7662 32.2974 33.7589 32.3686 33.783C32.4398 33.8072 32.4996 33.8611 32.535 33.933C32.5688 34.0057 32.5754 34.0899 32.5533 34.1677C32.5313 34.2456 32.4824 34.3109 32.417 34.3498V34.3509ZM34.05 33.4066C33.9838 33.4436 33.907 33.4508 33.836 33.4266C33.765 33.4025 33.7055 33.3488 33.67 33.2772C33.6356 33.2045 33.6285 33.1198 33.6504 33.0414C33.6723 32.9631 33.7213 32.8973 33.787 32.8582C33.8535 32.8205 33.9307 32.8129 34.0022 32.8371C34.0737 32.8613 34.1336 32.9154 34.169 32.9876C34.2034 33.0605 34.2103 33.1452 34.1883 33.2236C34.1662 33.302 34.1169 33.3677 34.051 33.4066H34.05ZM31.555 32.5577C31.4887 32.5951 31.4117 32.6024 31.3405 32.5783C31.2692 32.5541 31.2095 32.5002 31.174 32.4283C31.14 32.3555 31.1332 32.271 31.1553 32.1929C31.1773 32.1148 31.2264 32.0493 31.292 32.0104C31.3584 31.973 31.4354 31.9656 31.5066 31.9898C31.5778 32.014 31.6376 32.0679 31.673 32.1398C31.7071 32.2126 31.7138 32.297 31.6918 32.3752C31.6697 32.4533 31.6206 32.5188 31.555 32.5577ZM33.2 31.575C33.1337 31.6124 33.0567 31.6197 32.9855 31.5955C32.9142 31.5713 32.8545 31.5175 32.819 31.4456C32.7846 31.3727 32.7777 31.2879 32.7998 31.2096C32.8219 31.1312 32.8712 31.0655 32.937 31.0266C33.0034 30.9892 33.0804 30.9818 33.1516 31.006C33.2228 31.0302 33.2826 31.0841 33.318 31.156C33.3524 31.2289 33.3593 31.3136 33.3373 31.392C33.3152 31.4704 33.2659 31.5361 33.2 31.575ZM34.448 31.9983C34.3816 32.036 34.3043 32.0436 34.2329 32.0194C34.1614 31.9952 34.1015 31.9411 34.066 31.8689C34.0323 31.7963 34.0257 31.7121 34.0477 31.6342C34.0698 31.5563 34.1187 31.491 34.184 31.4521C34.2503 31.4143 34.3275 31.4066 34.399 31.4306C34.4704 31.4546 34.5304 31.5084 34.566 31.5805C34.6001 31.6532 34.6068 31.7377 34.5848 31.8158C34.5627 31.8939 34.5136 31.9594 34.448 31.9983ZM32.803 32.9821C32.7367 33.0195 32.6597 33.0269 32.5884 33.0027C32.5172 32.9785 32.4575 32.9247 32.422 32.8527C32.388 32.78 32.3812 32.6955 32.4033 32.6174C32.4253 32.5392 32.4744 32.4737 32.54 32.4348C32.6064 32.3975 32.6834 32.3901 32.7546 32.4143C32.8258 32.4385 32.8856 32.4923 32.921 32.5643C32.9548 32.6369 32.9614 32.7211 32.9393 32.799C32.9173 32.8768 32.8684 32.9422 32.803 32.981V32.9821ZM33.586 30.2051C33.5198 30.2426 33.4429 30.2501 33.3717 30.2261C33.3005 30.2021 33.2407 30.1485 33.205 30.0768C33.1706 30.0039 33.1637 29.9192 33.1858 29.8408C33.2079 29.7624 33.2572 29.6967 33.323 29.6578C33.3894 29.6204 33.4664 29.613 33.5376 29.6372C33.6088 29.6614 33.6686 29.7153 33.704 29.7872C33.7384 29.8601 33.7453 29.9448 33.7233 30.0232C33.7012 30.1016 33.6519 30.1673 33.586 30.2062V30.2051ZM31.952 31.1505C31.8857 31.1879 31.8087 31.1953 31.7375 31.1711C31.6662 31.1469 31.6065 31.0931 31.571 31.0211C31.537 30.9484 31.5302 30.8639 31.5523 30.7858C31.5743 30.7076 31.6234 30.6421 31.689 30.6032C31.7554 30.5659 31.8324 30.5585 31.9036 30.5827C31.9748 30.6069 32.0346 30.6607 32.07 30.7326C32.1041 30.8054 32.1108 30.8899 32.0888 30.968C32.0667 31.0461 32.0176 31.1116 31.952 31.1505ZM34.834 30.6296C34.7677 30.6669 34.6907 30.6743 34.6195 30.6501C34.5482 30.6259 34.4885 30.5721 34.453 30.5001C34.419 30.4274 34.4122 30.3429 34.4343 30.2648C34.4563 30.1867 34.5054 30.1211 34.571 30.0823C34.6374 30.0449 34.7144 30.0375 34.7856 30.0617C34.8568 30.0859 34.9166 30.1397 34.952 30.2117C34.9861 30.2844 34.9928 30.3689 34.9708 30.447C34.9487 30.5251 34.8996 30.5907 34.834 30.6296Z" fill="#0A3B3C"/>
<path d="M30.6691 30.7153C30.6028 30.7526 30.5257 30.76 30.4545 30.7358C30.3833 30.7116 30.3235 30.6578 30.2881 30.5858C30.2539 30.5132 30.247 30.4289 30.2689 30.3507C30.2908 30.2726 30.3397 30.207 30.4051 30.168C30.4715 30.1303 30.5488 30.1227 30.6202 30.1469C30.6917 30.1711 30.7516 30.2252 30.7871 30.2974C30.8591 30.4466 30.8401 30.6484 30.6691 30.7153ZM32.3381 29.7819C32.2718 29.8193 32.1947 29.8267 32.1235 29.8025C32.0523 29.7783 31.9925 29.7244 31.9571 29.6525C31.923 29.5798 31.9163 29.4953 31.9383 29.4171C31.9604 29.339 32.0095 29.2735 32.0751 29.2346C32.1414 29.1972 32.2184 29.1899 32.2897 29.2141C32.3609 29.2382 32.4206 29.2921 32.4561 29.364C32.4899 29.4367 32.4964 29.5209 32.4744 29.5988C32.4523 29.6766 32.4034 29.7419 32.3381 29.7808V29.7819ZM33.9721 28.8376C33.9059 28.8746 33.8291 28.8818 33.7581 28.8576C33.6871 28.8335 33.6275 28.7798 33.5921 28.7082C33.5576 28.6355 33.5506 28.5508 33.5724 28.4724C33.5943 28.3941 33.6434 28.3283 33.7091 28.2892C33.7754 28.2518 33.8524 28.2444 33.9237 28.2686C33.9949 28.2928 34.0546 28.3467 34.0901 28.4186C34.1245 28.4915 34.1314 28.5762 34.1093 28.6546C34.0872 28.733 34.0379 28.7987 33.9721 28.8376ZM34.1751 37.9452C34.1088 37.9826 34.0317 37.99 33.9605 37.9658C33.8893 37.9416 33.8295 37.8877 33.7941 37.8158C33.76 37.743 33.7533 37.6586 33.7753 37.5804C33.7974 37.5023 33.8465 37.4368 33.9121 37.3979C33.9783 37.3609 34.0551 37.3537 34.1261 37.3778C34.1971 37.402 34.2566 37.4557 34.2921 37.5273C34.3541 37.7138 34.3121 37.8673 34.1751 37.9452ZM33.2791 36.1421C33.2127 36.1798 33.1354 36.1874 33.0639 36.1632C32.9925 36.139 32.9325 36.0849 32.8971 36.0127C32.8627 35.9398 32.8558 35.8551 32.8779 35.7767C32.8999 35.6983 32.9492 35.6326 33.0151 35.5937C33.0815 35.556 33.1588 35.5484 33.2302 35.5726C33.3017 35.5968 33.3616 35.6509 33.3971 35.7231C33.4315 35.796 33.4384 35.8807 33.4163 35.9591C33.3942 36.0375 33.3449 36.1032 33.2791 36.1421ZM34.9471 35.2077C34.8809 35.2447 34.8041 35.2519 34.7331 35.2277C34.6621 35.2035 34.6025 35.1499 34.5671 35.0782C34.5329 35.0056 34.526 34.9212 34.5479 34.8431C34.5698 34.765 34.6187 34.6994 34.6841 34.6604C34.7504 34.623 34.8274 34.6156 34.8987 34.6398C34.9699 34.664 35.0296 34.7178 35.0651 34.7898C35.0992 34.8625 35.1059 34.947 35.0838 35.0251C35.0618 35.1032 35.0127 35.1688 34.9471 35.2077ZM34.5611 36.5775C34.4946 36.6148 34.4175 36.622 34.3463 36.5976C34.275 36.5732 34.2154 36.5191 34.1801 36.447C34.146 36.3743 34.1393 36.2898 34.1613 36.2117C34.1834 36.1335 34.2325 36.068 34.2981 36.0291C34.3644 35.9918 34.4414 35.9844 34.5127 36.0086C34.5839 36.0328 34.6436 36.0866 34.6791 36.1586C34.7132 36.2313 34.7199 36.3158 34.6978 36.3939C34.6758 36.472 34.6267 36.5375 34.5611 36.5764V36.5775ZM33.6651 34.7733C33.5988 34.8107 33.5217 34.8181 33.4505 34.7939C33.3793 34.7697 33.3195 34.7159 33.2841 34.6439C33.2496 34.5712 33.2426 34.4865 33.2644 34.4082C33.2863 34.3298 33.3354 34.264 33.4011 34.2249C33.4675 34.1872 33.5448 34.1797 33.6162 34.2039C33.6877 34.2281 33.7476 34.2821 33.7831 34.3544C33.8175 34.4272 33.8244 34.512 33.8023 34.5903C33.7802 34.6687 33.7309 34.7344 33.6651 34.7733ZM32.4171 34.3489C32.3508 34.3863 32.2737 34.3936 32.2025 34.3694C32.1313 34.3453 32.0715 34.2914 32.0361 34.2195C32.002 34.1467 31.9953 34.0622 32.0173 33.9841C32.0394 33.906 32.0885 33.8405 32.1541 33.8016C32.2204 33.7642 32.2974 33.7568 32.3687 33.781C32.4399 33.8052 32.4996 33.8591 32.5351 33.931C32.5692 34.0037 32.5759 34.0882 32.5538 34.1664C32.5318 34.2445 32.4827 34.31 32.4171 34.3489ZM34.0501 33.4046C33.9839 33.4416 33.9071 33.4488 33.8361 33.4246C33.7651 33.4004 33.7055 33.3468 33.6701 33.2751C33.6356 33.2024 33.6286 33.1178 33.6504 33.0394C33.6723 32.961 33.7214 32.8952 33.7871 32.8562C33.8535 32.8184 33.9308 32.8109 34.0022 32.8351C34.0737 32.8593 34.1336 32.9134 34.1691 32.9856C34.2035 33.0584 34.2104 33.1432 34.1883 33.2216C34.1662 33.3 34.1169 33.3657 34.0511 33.4046H34.0501ZM35.0271 39.7768C34.9607 39.8145 34.8834 39.8221 34.8119 39.7979C34.7405 39.7737 34.6805 39.7196 34.6451 39.6474C34.611 39.5747 34.6043 39.4902 34.6263 39.412C34.6484 39.3339 34.6975 39.2684 34.7631 39.2295C34.8295 39.1918 34.9068 39.1842 34.9782 39.2084C35.0497 39.2327 35.1096 39.2867 35.1451 39.3589C35.1792 39.4317 35.1859 39.5162 35.1638 39.5943C35.1418 39.6724 35.0927 39.7379 35.0271 39.7768Z" fill="#0A3B3C"/>
<path d="M34.1761 37.9452C34.1099 37.9822 34.0331 37.9894 33.9621 37.9653C33.8911 37.9411 33.8315 37.8874 33.7961 37.8158C33.7619 37.7432 33.7551 37.6588 33.7769 37.5807C33.7988 37.5026 33.8477 37.437 33.9131 37.3979C33.9794 37.3605 34.0565 37.3531 34.1277 37.3773C34.1989 37.4015 34.2586 37.4554 34.2941 37.5273C34.3551 37.7138 34.3131 37.8673 34.1761 37.9452ZM34.8341 30.6297C34.7678 30.6671 34.6907 30.6745 34.6195 30.6503C34.5483 30.6261 34.4885 30.5722 34.4531 30.5003C34.419 30.4276 34.4123 30.3431 34.4343 30.265C34.4564 30.1868 34.5055 30.1213 34.5711 30.0824C34.6374 30.045 34.7145 30.0377 34.7857 30.0619C34.8569 30.0861 34.9166 30.1399 34.9521 30.2118C34.9862 30.2846 34.9929 30.3691 34.9708 30.4472C34.9488 30.5253 34.8997 30.5908 34.8341 30.6297ZM33.9731 28.8376C33.9068 28.875 33.8297 28.8824 33.7585 28.8582C33.6873 28.834 33.6275 28.7801 33.5921 28.7082C33.5577 28.6353 33.5508 28.5506 33.5729 28.4722C33.595 28.3938 33.6442 28.3281 33.7101 28.2892C33.7764 28.2518 33.8534 28.2444 33.9247 28.2686C33.9959 28.2928 34.0556 28.3467 34.0911 28.4186C34.1255 28.4915 34.1324 28.5762 34.1103 28.6546C34.0882 28.733 34.039 28.7987 33.9731 28.8376Z" fill="#0A3B3C"/>
<path fill-rule="evenodd" clip-rule="evenodd" d="M12.484 58.5788C11.5849 57.749 10.7333 56.8593 9.93395 55.9148C11.961 56.1122 14.525 56.1341 18.118 56.1341H18.146C20.576 56.201 22.6479 56.0968 24.2859 55.8764C25.9529 55.6537 27.079 55.3225 27.68 54.9957C27.882 54.886 28.108 54.8432 28.332 54.875C29.532 55.0417 31.432 55.1174 33.277 54.8597C35.179 54.5953 36.756 54.0119 37.58 53.0993C37.788 52.869 38.198 52.1539 38.666 50.874C39.114 49.6478 39.568 48.0344 39.922 46.1458C40.632 42.363 40.929 37.5504 40.034 32.6006C39.055 27.2155 37.7589 22.3173 36.2939 18.7933C35.5599 17.0275 34.8089 15.6708 34.0779 14.777C33.3329 13.8666 32.745 13.5935 32.324 13.5935C31.457 13.5935 30.379 13.61 29.3689 13.7591C28.3139 13.916 27.5439 14.1902 27.1399 14.5466C27.0879 14.5927 26.9939 14.7177 26.9349 15.0402C26.8769 15.3615 26.875 15.7761 26.927 16.2324C26.979 16.6821 27.077 17.1164 27.1819 17.4542C27.2271 17.604 27.2815 17.7502 27.3449 17.8918C27.4421 18.0198 27.5149 18.1678 27.5592 18.3271C27.6035 18.4865 27.6183 18.6539 27.6029 18.8195C27.5874 18.9852 27.542 19.1459 27.4692 19.292C27.3964 19.4382 27.2977 19.567 27.179 19.6708C26.959 19.8638 26.815 20.138 26.774 20.4385C26.736 20.7149 26.788 20.9979 26.922 21.2391C27.8313 22.3382 28.9942 23.1479 30.288 23.583C30.858 23.6597 31.438 23.6071 31.9909 23.4316C32.1592 23.3778 32.3364 23.3673 32.509 23.4008C32.6815 23.4342 32.8447 23.5109 32.9859 23.6247C33.1271 23.7385 33.2425 23.8864 33.3231 24.057C33.4038 24.2276 33.4475 24.4163 33.451 24.6084C33.4991 27.2647 33.3271 29.9203 32.937 32.5425C32.537 34.4706 31.49 36.356 30.5669 37.8553C30.2975 38.2891 30.0249 38.7206 29.749 39.1495C29.573 39.4237 29.41 39.677 29.275 39.8942C28.8899 40.5084 28.673 40.9032 28.589 41.1357C28.5168 41.3368 28.3983 41.5139 28.2452 41.6498C28.092 41.7858 27.9094 41.8759 27.7151 41.9115C27.5208 41.947 27.3214 41.9268 27.1363 41.8528C26.9512 41.7787 26.7867 41.6533 26.659 41.4889C25.375 39.835 22.271 37.8772 18.599 36.7969C14.959 35.7264 11.104 35.6222 8.26895 37.2159C7.46069 37.7775 6.63872 38.3152 5.80395 38.8281L5.58495 38.9652C4.86295 39.4171 4.47495 39.6781 4.23195 39.9183C4.05495 40.0938 3.99495 40.2188 3.96195 40.4415C3.91395 40.7551 3.92795 41.2597 4.05395 42.2029C4.15995 42.9926 4.07195 44.0948 3.95095 45.1817C3.21712 42.9781 2.70508 40.6931 2.42395 38.3675C2.51082 38.2604 2.60296 38.1586 2.69995 38.0626C3.16395 37.6019 3.78895 37.2071 4.45395 36.7903L4.67495 36.6521C5.33195 36.2419 6.11895 35.7517 7.08195 35.075C7.11195 35.0552 7.14095 35.0366 7.17195 35.019C10.741 32.9834 15.285 33.2313 19.19 34.3796C22.37 35.3141 25.357 36.9142 27.275 38.6669L27.392 38.4782C27.566 38.2008 27.7379 37.932 27.9139 37.6579C28.1549 37.2817 28.4039 36.8945 28.6749 36.4536C29.5789 34.9861 30.3979 33.4484 30.7029 32.0237C30.9883 30.067 31.145 28.0902 31.172 26.1088C30.7436 26.1356 30.3139 26.1161 29.889 26.0507C29.8335 26.0424 29.7787 26.0295 29.725 26.0123C27.9622 25.4431 26.3808 24.3422 25.1609 22.835C25.1297 22.7967 25.1007 22.7564 25.0739 22.7143C24.6831 22.0915 24.4755 21.3524 24.479 20.5963C24.4826 19.8402 24.6972 19.1035 25.094 18.4851C24.8855 17.8586 24.7413 17.2086 24.6639 16.5471C24.591 15.9286 24.5739 15.2244 24.6959 14.551C24.8179 13.8787 25.101 13.1318 25.7099 12.5955C26.6279 11.785 27.9359 11.445 29.0639 11.2793C30.2379 11.1039 31.448 11.0896 32.324 11.0896C33.683 11.0896 34.841 11.9604 35.777 13.1055C36.727 14.2659 37.59 15.877 38.3709 17.7558C39.937 21.5221 41.2759 26.6298 42.2729 32.1115C43.2389 37.456 42.915 42.6142 42.158 46.6503C41.778 48.6706 41.2879 50.4276 40.785 51.8051C40.3009 53.1301 39.7529 54.2509 39.202 54.8619C37.811 56.4006 35.569 57.0642 33.5649 57.3439C31.8408 57.5732 30.0989 57.5923 28.371 57.4009C27.43 57.8352 26.1189 58.1533 24.563 58.3617C22.7939 58.5986 20.613 58.706 18.103 58.638C15.928 58.638 14.089 58.6337 12.484 58.5799V58.5788Z" fill="#0B3B3C"/>
<path fill-rule="evenodd" clip-rule="evenodd" d="M31.078 3.5492C15.725 3.5492 3.28005 17.1997 3.28005 34.0384C3.28005 50.8772 15.726 64.5276 31.08 64.5276C46.432 64.5276 58.878 50.8772 58.878 34.0373C58.878 17.1997 46.432 3.5492 31.0791 3.5492H31.078ZM1.05005 34.0384C1.05005 15.8484 14.494 1.10229 31.078 1.10229C47.663 1.10229 61.1081 15.8484 61.1081 34.0384C61.1081 52.2273 47.663 66.9724 31.078 66.9724C14.494 66.9724 1.05005 52.2273 1.05005 34.0384Z" fill="#0B3B3D"/>
</g>
</svg>
