<svg width="62" height="68" viewBox="0 0 62 68" fill="none" xmlns="http://www.w3.org/2000/svg">
<path fill-rule="evenodd" clip-rule="evenodd" d="M31.2659 3.59516C15.9298 3.59516 3.49831 17.3564 3.49831 34.3323C3.49831 51.3081 15.9298 65.0694 31.2659 65.0694C46.6009 65.0694 59.0325 51.3081 59.0325 34.3323C59.0325 17.3564 46.6009 3.59516 31.2659 3.59516ZM1.38611 34.3323C1.38611 16.0655 14.7634 1.25684 31.2659 1.25684C47.7674 1.25684 61.1447 16.0655 61.1447 34.3323C61.1447 52.599 47.7674 67.4066 31.2659 67.4066C14.7634 67.4066 1.38611 52.599 1.38611 34.3323Z" fill="#0B3B3D"/>
<path fill-rule="evenodd" clip-rule="evenodd" d="M31.2659 38.6558C32.0856 38.5988 32.8558 38.2511 33.6587 37.6962C34.3417 37.2224 34.9869 36.6455 35.6868 36.0181C35.8465 35.8755 36.0084 35.7297 36.1755 35.5827C37.8621 34.0889 39.9722 32.3647 42.7748 33.0711C43.9202 33.3025 44.8502 33.9693 45.6121 34.714C46.2993 35.3875 46.9088 36.1892 47.4363 36.8802L47.5919 37.0842L47.6045 37.1006C50.3724 40.8582 53.4472 40.9876 58.3546 41.1938L59.1806 41.23L60.4858 41.287L60.161 42.6876C56.8761 56.8689 45.1655 67.4089 31.2659 67.4089C17.359 67.4089 5.76183 56.8634 2.37179 42.6964L2.03552 41.2881L3.35013 41.23L4.1761 41.1938C9.08356 40.9876 12.1583 40.8582 14.9273 37.1006L14.9389 37.0842L14.9946 37.0118C16.1011 35.564 17.5712 33.6403 19.7265 33.0787H19.7297C22.546 32.3527 24.6634 34.0834 26.3563 35.5827L26.8439 36.0181C27.5438 36.6455 28.189 37.2224 28.8721 37.6962C29.6749 38.2511 30.4462 38.5988 31.2659 38.6558ZM20.2089 35.3546C18.8144 35.7187 17.7646 37.0074 16.5572 38.5867C13.2544 43.0616 9.35573 43.3248 4.78349 43.5102C8.34901 55.9728 18.8197 65.0705 31.2648 65.0705C43.7195 65.0705 54.2826 55.964 57.7578 43.5102C53.1813 43.3259 49.2795 43.066 45.9736 38.5856L45.8348 38.4036C45.2884 37.6896 44.7777 37.0184 44.2123 36.4645C43.607 35.8722 43.0144 35.4916 42.3786 35.3677L42.3513 35.3622L42.324 35.3546C40.6006 34.9115 39.2334 35.8678 37.4943 37.4077L37.0529 37.8026C36.3488 38.4332 35.5817 39.1209 34.7789 39.678C33.7827 40.3668 32.6436 40.9218 31.3174 40.9942L31.2648 40.9964L31.2144 40.9931C29.8882 40.9218 28.7481 40.3668 27.7529 39.6769C26.949 39.1209 26.1819 38.4332 25.4778 37.8015C25.3311 37.6697 25.184 37.5385 25.0365 37.4077C23.2984 35.8678 21.9323 34.9115 20.2089 35.3546ZM27.4618 27.9426L31.9489 2.6663L29.738 2.18481L24.9871 28.9483C24.9219 29.3146 25.0081 29.6941 25.2225 29.9815C25.4358 30.2699 25.7552 30.4366 26.0926 30.4366H35.3831C35.6984 30.4366 36 30.2896 36.2133 30.0319C37.1853 28.8584 37.7391 27.7177 37.9535 26.6198C38.1488 25.6598 38.0714 24.6611 37.7307 23.7463C37.3793 22.8175 36.794 22.0051 36.0367 21.3948L36.0199 21.3817L36.0136 21.3773L36.0105 21.3751L36.0094 21.374L35.3831 22.4104C34.7579 23.448 34.7579 23.448 34.7568 23.4469L34.7547 23.4458L34.7516 23.4436L34.7495 23.4414L34.7589 23.4491L34.822 23.5028C35.1871 23.8245 35.4708 24.2351 35.6479 24.6983C35.7887 25.0756 35.8612 25.5329 35.753 26.0912C35.6574 26.5738 35.4136 27.1946 34.8682 27.9426H27.4618Z" fill="#0B3B3D"/>
<path fill-rule="evenodd" clip-rule="evenodd" d="M23.7701 47.2874L24.5162 48.1143C28.4327 52.4499 34.7315 52.4499 38.648 48.1143L39.3941 47.2874L40.8884 48.9402L40.1423 49.7672C35.4009 55.0152 27.7633 55.0152 23.023 49.7672L22.2769 48.9402L23.7691 47.2874H23.7701Z" fill="#0B3B3D"/>
<mask id="mask0" style="mask-type:alpha" maskUnits="userSpaceOnUse" x="2" y="32" width="59" height="36">
<path d="M31.2659 38.6558C32.0856 38.5987 32.8558 38.2511 33.6587 37.6961C34.3417 37.2223 34.9869 36.6454 35.6868 36.018C35.8465 35.8754 36.0084 35.7296 36.1755 35.5826C37.8621 34.0888 39.9722 32.3647 42.7748 33.071C43.9202 33.3024 44.8502 33.9693 45.6121 34.714C46.2993 35.3874 46.9088 36.1891 47.4363 36.8801L47.5919 37.0841L47.6045 37.1005C50.3735 40.8581 53.4472 40.9875 58.3546 41.1937L59.1806 41.2299L60.4858 41.2869L60.161 42.6875C56.8761 56.8688 45.1655 67.4088 31.2659 67.4088C17.359 67.4088 5.76183 56.8633 2.37179 42.6963L2.03552 41.288L3.35013 41.2299L4.1761 41.1937C9.08356 40.9875 12.1583 40.8581 14.9273 37.1005L14.9389 37.0841L14.9946 37.0117C16.1011 35.564 17.5712 33.6402 19.7265 33.0787H19.7297C22.546 32.3526 24.6634 34.0833 26.3563 35.5826L26.8439 36.018C27.5438 36.6454 28.189 37.2223 28.8721 37.6961C29.6749 38.2511 30.4462 38.5987 31.2659 38.6558Z" fill="#C4C4C4"/>
</mask>
<g mask="url(#mask0)">
<path d="M8.90803 61.3154C8.90383 61.7552 9.23169 62.1182 9.62997 62.1138C10.0272 62.1105 10.3614 61.7409 10.3656 61.3C10.3687 60.8602 10.0398 60.4961 9.64363 60.5004C9.24536 60.5048 8.91119 60.8755 8.90803 61.3154ZM4.02685 66.7203C4.02264 67.159 4.35051 67.5231 4.74878 67.5187C5.146 67.5143 5.48017 67.1447 5.48437 66.7049C5.48753 66.264 5.15861 65.901 4.76244 65.9054C4.36417 65.9097 4.03 66.2794 4.02685 66.7192V66.7203ZM1.66349 64.1023C1.65929 64.5421 1.9882 64.9051 2.38542 64.9018C2.78264 64.8974 3.11681 64.5267 3.12102 64.0869C3.12417 63.6471 2.79631 63.2841 2.39909 63.2874C2.00081 63.2917 1.66664 63.6614 1.66349 64.1023ZM6.50054 63.9794C6.49739 64.4203 6.82631 64.7834 7.22248 64.7801C7.62075 64.7746 7.95492 64.405 7.95807 63.9652C7.96227 63.5254 7.63441 63.1612 7.23614 63.1656C6.83892 63.17 6.50475 63.5396 6.50054 63.9794ZM4.13719 61.3647C4.13403 61.8034 4.46295 62.1676 4.85912 62.1632C5.25739 62.1599 5.59156 61.7903 5.59471 61.3494C5.59892 60.9095 5.27105 60.5454 4.87278 60.5498C4.47556 60.5542 4.14139 60.9238 4.13719 61.3647ZM1.70868 58.6754C1.70553 59.1163 2.03444 59.4794 2.43166 59.4761C2.82888 59.4717 3.16305 59.101 3.16725 58.6612C3.17041 58.2214 2.84149 57.8572 2.44427 57.8616C2.04705 57.866 1.71288 58.2356 1.70868 58.6754Z" fill="#0A3B3C"/>
<path d="M8.90798 61.3152C8.90483 61.755 9.23374 62.118 9.62991 62.1136C10.0282 62.1103 10.3624 61.7407 10.3655 61.2998C10.3697 60.86 10.0418 60.4959 9.64357 60.5003C9.24635 60.5047 8.91218 60.8754 8.90798 61.3152ZM18.6042 50.5811C18.601 51.0198 18.9299 51.3839 19.3261 51.3795C19.7244 51.3762 20.0585 51.0066 20.0617 50.5657C20.0659 50.1259 19.738 49.7618 19.3397 49.7662C18.9425 49.7705 18.6084 50.1402 18.6042 50.5811Z" fill="#0A3B3C"/>
<path d="M8.90801 61.3152C8.90381 61.755 9.23272 62.1181 9.62995 62.1137C10.0272 62.1104 10.3624 61.7408 10.3655 61.2999C10.3697 60.8601 10.0408 60.4959 9.64361 60.5003C9.24639 60.5047 8.91222 60.8754 8.90801 61.3152ZM8.95215 56.0342C8.94795 56.4741 9.27686 56.8382 9.67408 56.8349C10.0724 56.8294 10.4065 56.4598 10.4097 56.02C10.4139 55.5791 10.085 55.2161 9.68774 55.2193C9.29052 55.2248 8.95635 55.5944 8.95215 56.0342ZM6.52364 53.3471C6.52049 53.7859 6.8494 54.15 7.24557 54.1456C7.64384 54.1412 7.97801 53.7716 7.98117 53.3318C7.98537 52.8909 7.65751 52.5279 7.25923 52.5311C6.86201 52.5355 6.52784 52.9062 6.52364 53.3461V53.3471ZM13.7903 55.9103C13.786 56.3501 14.115 56.7142 14.5122 56.7099C14.9094 56.7055 15.2436 56.3359 15.2478 55.895C15.252 55.4562 14.9231 55.0921 14.5258 55.0954C14.0614 55.1744 13.7934 55.4705 13.7903 55.9103ZM11.4269 53.2945C11.4227 53.7343 11.7516 54.0984 12.1488 54.0951C12.546 54.0897 12.8813 53.7201 12.8844 53.2802C12.8886 52.8393 12.5597 52.4763 12.1625 52.4796C11.698 52.5586 11.43 52.8547 11.4269 53.2945ZM8.99839 50.6063C8.99418 51.0461 9.3231 51.4102 9.72032 51.4059C10.1175 51.4015 10.4528 51.0319 10.4559 50.5921C10.4601 50.1511 10.1312 49.7881 9.73398 49.7914C9.2695 49.8704 9.00154 50.1665 8.99839 50.6063ZM11.3155 58.6501C11.3113 59.0899 11.6402 59.454 12.0374 59.4496C12.4357 59.4452 12.7699 59.0756 12.773 58.6347C12.7772 58.196 12.4483 57.8319 12.0511 57.8362C11.6539 57.8395 11.3187 58.2091 11.3155 58.6501ZM16.1977 53.2452C16.1935 53.6861 16.5225 54.0491 16.9197 54.0458C17.3169 54.0403 17.6511 53.6707 17.6553 53.2309C17.6595 52.79 17.3306 52.427 16.9333 52.4302C16.5351 52.4357 16.2009 52.8053 16.1977 53.2452ZM13.8344 50.6304C13.8302 51.0691 14.1591 51.4333 14.5563 51.4289C14.9535 51.4256 15.2888 51.056 15.2919 50.6151C15.2961 50.1753 14.9672 49.8111 14.57 49.8155C14.1717 49.8199 13.8375 50.1895 13.8344 50.6293V50.6304ZM11.4059 47.9411C11.4027 48.382 11.7306 48.7451 12.1278 48.7418C12.525 48.7363 12.8603 48.3667 12.8634 47.9269C12.8676 47.4871 12.5387 47.123 12.1415 47.1262C11.7443 47.1317 11.409 47.5013 11.4059 47.9411ZM18.6052 50.5811C18.601 51.0198 18.9299 51.3839 19.3272 51.3795C19.7244 51.3762 20.0596 51.0066 20.0628 50.5657C20.067 50.1259 19.738 49.7618 19.3408 49.7662C18.9426 49.7706 18.6084 50.1402 18.6052 50.5811ZM4.13612 61.3624C4.13296 61.8022 4.46188 62.1652 4.8591 62.1619C5.25632 62.1575 5.59049 61.7868 5.59469 61.347C5.59784 60.9072 5.26893 60.5442 4.87276 60.5475C4.47449 60.5519 4.14032 60.9215 4.13717 61.3624H4.13612ZM1.70866 58.6731C1.70445 59.114 2.03337 59.477 2.43059 59.4737C2.82781 59.4693 3.16198 59.0986 3.16618 58.6588C3.16934 58.219 2.84147 57.8549 2.44425 57.8593C2.04598 57.8637 1.71181 58.2333 1.70866 58.6731ZM1.75174 53.3932C1.74859 53.833 2.07751 54.1971 2.47473 54.1928C2.87195 54.1884 3.20612 53.8188 3.21032 53.3779C3.21347 52.9391 2.88456 52.575 2.48734 52.5794C2.09012 52.5827 1.75595 52.9523 1.75174 53.3932ZM6.54466 58.6972C6.54045 59.137 6.86832 59.5012 7.26659 59.4968C7.66381 59.4924 7.99798 59.1228 8.00218 58.6819C8.00534 58.2432 7.67642 57.879 7.28025 57.8834C6.88198 57.8867 6.54781 58.2563 6.54466 58.6972ZM4.11615 56.009C4.11195 56.4488 4.44086 56.8119 4.83808 56.8086C5.2353 56.8042 5.56947 56.4346 5.57367 55.9937C5.57683 55.5539 5.24896 55.1908 4.85174 55.1941C4.45347 55.1985 4.1193 55.5692 4.11615 56.009ZM4.15923 50.7281C4.15608 51.169 4.485 51.532 4.88222 51.5287C5.27944 51.5232 5.61361 51.1536 5.61781 50.7138C5.62096 50.274 5.29205 49.9099 4.89483 49.9131C4.49761 49.9186 4.16344 50.2882 4.15923 50.7281Z" fill="#0A3B3C"/>
<path d="M8.90809 61.3153C8.90389 61.7551 9.23175 62.1182 9.63003 62.1138C10.0272 62.1105 10.3614 61.7409 10.3656 61.3C10.3688 60.8602 10.0399 60.496 9.64369 60.5004C9.24542 60.5048 8.91125 60.8755 8.90809 61.3153ZM8.95223 56.0344C8.94803 56.4742 9.27589 56.8383 9.67416 56.835C10.0714 56.8295 10.4056 56.4599 10.4098 56.0201C10.4129 55.5792 10.084 55.2162 9.68782 55.2195C9.28955 55.2249 8.95538 55.5946 8.95223 56.0344ZM6.52372 53.3473C6.51952 53.786 6.84843 54.1501 7.24565 54.1457C7.64287 54.1413 7.97704 53.7717 7.98125 53.3319C7.9844 52.891 7.65653 52.528 7.25931 52.5313C6.86104 52.5357 6.52687 52.9064 6.52372 53.3462V53.3473ZM18.6053 50.5812C18.6011 51.0199 18.93 51.384 19.3272 51.3797C19.7245 51.3764 20.0597 51.0068 20.0628 50.5658C20.067 50.126 19.7381 49.7619 19.3409 49.7663C18.9426 49.7707 18.6085 50.1403 18.6053 50.5812ZM18.6495 45.298C18.6463 45.7378 18.9742 46.102 19.3714 46.0987C19.7697 46.0932 20.1038 45.7236 20.107 45.2838C20.1112 44.8429 19.7823 44.4798 19.385 44.4831C18.9878 44.4886 18.6537 44.8582 18.6495 45.298ZM16.2209 42.612C16.2167 43.0518 16.5457 43.416 16.9429 43.4116C17.3401 43.4072 17.6753 43.0376 17.6785 42.5967C17.6827 42.158 17.3538 41.7938 16.9565 41.7971C16.5593 41.8015 16.2251 42.1722 16.2209 42.612ZM23.4865 45.1763C23.4834 45.6161 23.8123 45.9791 24.2095 45.9758C24.6067 45.9715 24.9409 45.6018 24.9451 45.1609C24.9482 44.7211 24.6193 44.3581 24.2231 44.3614C23.8249 44.3658 23.4907 44.7365 23.4876 45.1763H23.4865ZM21.1242 42.5605C21.12 43.0003 21.4479 43.3644 21.8461 43.36C22.2433 43.3557 22.5775 42.986 22.5817 42.5462C22.5849 42.1053 22.256 41.7423 21.8598 41.7456C21.4615 41.75 21.1273 42.1207 21.1242 42.5605ZM18.6946 39.8723C18.6915 40.3121 19.0204 40.6762 19.4176 40.6718C19.8148 40.6675 20.149 40.2978 20.1532 39.8569C20.1564 39.4182 19.8285 39.0541 19.4313 39.0574C19.033 39.0618 18.6988 39.4325 18.6957 39.8723H18.6946ZM21.0128 47.916C21.0086 48.3558 21.3375 48.7189 21.7347 48.7156C22.132 48.7112 22.4672 48.3405 22.4703 47.9007C22.4745 47.4609 22.1456 47.0978 21.7484 47.1022C21.3501 47.1055 21.016 47.4751 21.0128 47.916ZM9.04155 45.3244C9.0384 45.7631 9.36626 46.1272 9.76348 46.1228C10.1618 46.1195 10.4959 45.7499 10.4991 45.309C10.5033 44.8692 10.1754 44.5051 9.77715 44.5095C9.37992 44.5138 9.04576 44.8835 9.04155 45.3244ZM13.8334 50.6273C13.8303 51.0682 14.1592 51.4312 14.5564 51.4279C14.9536 51.4235 15.2878 51.0528 15.292 50.613C15.2951 50.1732 14.9662 49.8091 14.569 49.8135C14.1718 49.8178 13.8376 50.1875 13.8334 50.6284V50.6273ZM11.406 47.9402C11.4018 48.3789 11.7296 48.743 12.1279 48.7386C12.5251 48.7353 12.8593 48.3657 12.8635 47.9248C12.8666 47.485 12.5377 47.1209 12.1405 47.1253C11.7433 47.1297 11.4091 47.4993 11.4049 47.9391L11.406 47.9402ZM11.449 42.6592C11.4459 43.099 11.7738 43.462 12.171 43.4588C12.5692 43.4544 12.9034 43.0837 12.9066 42.6438C12.9108 42.204 12.5829 41.841 12.1846 41.8454C11.7874 41.8487 11.4532 42.2183 11.449 42.6592ZM16.2409 47.9621C16.2378 48.403 16.5667 48.7671 16.9628 48.7627C17.3611 48.7584 17.6953 48.3888 17.6984 47.9478C17.7026 47.5091 17.3748 47.145 16.9765 47.1483C16.5793 47.1527 16.2451 47.5234 16.2409 47.9632V47.9621ZM13.8135 45.275C13.8092 45.7148 14.1371 46.0778 14.5354 46.0746C14.9326 46.0702 15.2668 45.6995 15.271 45.2597C15.2741 44.8198 14.9452 44.4557 14.548 44.4601C14.1508 44.4645 13.8166 44.8352 13.8124 45.275H13.8135ZM9.08569 40.0434C9.08254 40.4832 9.41145 40.8473 9.80867 40.8429C10.2059 40.8386 10.5401 40.4689 10.5443 40.0291C10.5474 39.5882 10.2185 39.2252 9.82128 39.2285C9.42406 39.234 9.08989 39.6036 9.08569 40.0434ZM13.8565 39.994C13.8534 40.4338 14.1823 40.798 14.5785 40.7947C14.9767 40.7892 15.3109 40.4196 15.3141 39.9798C15.3183 39.5389 14.9904 39.1758 14.5921 39.1791C14.1949 39.1846 13.8607 39.5542 13.8565 39.994Z" fill="#0A3B3C"/>
<path d="M18.6042 50.5812C18.601 51.02 18.9299 51.3841 19.3272 51.3797C19.7244 51.3764 20.0585 51.0068 20.0627 50.5659C20.0659 50.1261 19.737 49.762 19.3398 49.7663C18.9425 49.7707 18.6084 50.1403 18.6042 50.5812ZM18.6483 45.3003C18.6452 45.7401 18.9741 46.1042 19.3713 46.0998C19.7685 46.0954 20.1027 45.7258 20.1069 45.286C20.11 44.8451 19.7811 44.4821 19.3839 44.4854C18.9867 44.4898 18.6525 44.8605 18.6483 45.3003ZM16.2198 42.6121C16.2166 43.0519 16.5456 43.416 16.9428 43.4116C17.34 43.4072 17.6742 43.0376 17.6784 42.5967C17.6815 42.158 17.3526 41.7939 16.9554 41.7972C16.5582 41.8016 16.224 42.1723 16.2198 42.6121ZM4.16027 50.7282C4.15607 51.1691 4.48498 51.5321 4.8822 51.5289C5.27942 51.5234 5.61359 51.1538 5.6178 50.714C5.62095 50.2741 5.29308 49.91 4.89586 49.9133C4.49759 49.9188 4.16342 50.2884 4.16027 50.7282ZM4.27166 45.3738C4.26746 45.8125 4.59532 46.1766 4.99359 46.1722C5.39081 46.1689 5.72498 45.7993 5.72919 45.3584C5.73234 44.9186 5.40447 44.5545 5.00725 44.5589C4.54278 44.6367 4.27481 44.9329 4.27166 45.3738ZM1.9083 42.758C1.9041 43.1978 2.23302 43.5608 2.63024 43.5575C3.02746 43.5531 3.36163 43.1835 3.36583 42.7426C3.36898 42.3028 3.04112 41.9398 2.6439 41.9431C2.17942 42.022 1.91146 42.3182 1.9083 42.758ZM1.79691 48.1135C1.79271 48.5522 2.12163 48.9163 2.51885 48.912C2.91607 48.9087 3.25129 48.5391 3.25444 48.0981C3.25864 47.6583 2.92973 47.2942 2.53251 47.2986C2.13529 47.303 1.80007 47.6726 1.79691 48.1135ZM6.67915 42.7086C6.67495 43.1484 7.00281 43.5114 7.40108 43.5081C7.79831 43.5038 8.13247 43.1341 8.13668 42.6932C8.13983 42.2534 7.81197 41.8904 7.41475 41.8937C7.01647 41.8981 6.6823 42.2688 6.67915 42.7086ZM6.63397 47.9907C6.63081 48.4305 6.95973 48.7946 7.35695 48.7913C7.75417 48.7858 8.08834 48.4162 8.09254 47.9764C8.09569 47.5355 7.76678 47.1725 7.36956 47.1758C6.90614 47.2547 6.63817 47.5509 6.63397 47.9907ZM4.3158 40.0928C4.31159 40.5326 4.64051 40.8967 5.03773 40.8923C5.43495 40.888 5.76912 40.5183 5.77332 40.0785C5.77647 39.6376 5.44861 39.2746 5.05139 39.2779C4.65312 39.2823 4.31895 39.653 4.3158 40.0928ZM9.04146 45.3266C9.0383 45.7653 9.36722 46.1294 9.76444 46.1251C10.1617 46.1218 10.4958 45.7521 10.5 45.3112C10.5032 44.8714 10.1743 44.5073 9.77705 44.5117C9.37983 44.5161 9.04566 44.8857 9.04146 45.3266ZM9.08664 40.0434C9.08244 40.4832 9.41136 40.8474 9.80858 40.843C10.2058 40.8386 10.54 40.469 10.5442 40.0292C10.5473 39.5883 10.2195 39.2252 9.82224 39.2285C9.42397 39.234 9.0898 39.6036 9.08664 40.0434Z" fill="#0A3B3C"/>
<path d="M9.08673 40.0433C9.08252 40.4831 9.41144 40.8472 9.80866 40.8428C10.2059 40.8385 10.54 40.4688 10.5443 40.029C10.5474 39.5881 10.2195 39.2251 9.82232 39.2284C9.42405 39.2339 9.08988 39.6035 9.08673 40.0433ZM9.13086 34.7634C9.12666 35.2032 9.45557 35.5663 9.85279 35.563C10.25 35.5586 10.5842 35.1879 10.5884 34.7481C10.5915 34.3083 10.2637 33.9452 9.86645 33.9485C9.46818 33.9529 9.13401 34.3225 9.13086 34.7634ZM13.8576 39.9939C13.8534 40.4337 14.1812 40.7979 14.5795 40.7946C14.9767 40.7891 15.3109 40.4195 15.3151 39.9797C15.3183 39.5388 14.9893 39.1757 14.5921 39.179C14.1949 39.1845 13.8607 39.5541 13.8565 39.9939H13.8576ZM13.9679 34.6384C13.9648 35.0793 14.2937 35.4423 14.6909 35.439C15.0881 35.4336 15.4223 35.0639 15.4265 34.6241C15.4296 34.1843 15.1007 33.8202 14.7035 33.8246C14.3063 33.829 13.9721 34.1986 13.9679 34.6384ZM11.6046 32.0237C11.6014 32.4624 11.9303 32.8265 12.3275 32.8232C12.7248 32.8188 13.0589 32.4481 13.0631 32.0083C13.0663 31.5685 12.7374 31.2044 12.3401 31.2088C11.9429 31.2132 11.6088 31.5828 11.6046 32.0237ZM11.4942 37.3781C11.49 37.819 11.8179 38.1821 12.2161 38.1788C12.6134 38.1744 12.9475 37.8037 12.9517 37.3639C12.9549 36.9241 12.627 36.5599 12.2298 36.5643C11.8315 36.5687 11.4974 36.9383 11.4942 37.3781ZM16.3313 37.2542C16.3281 37.694 16.656 38.0581 17.0532 38.0537C17.4515 38.0494 17.7856 37.6797 17.7888 37.2399C17.793 36.799 17.4651 36.436 17.0669 36.4393C16.6696 36.4448 16.3355 36.8144 16.3313 37.2542ZM4.31588 40.0905C4.31167 40.5303 4.64059 40.8944 5.03781 40.89C5.43503 40.8856 5.7692 40.516 5.7734 40.0762C5.77656 39.6353 5.44869 39.2723 5.05147 39.2756C4.6532 39.2799 4.31903 39.6507 4.31588 40.0905ZM4.29381 34.7371C4.29066 35.178 4.61957 35.541 5.01679 35.5377C5.41401 35.5323 5.74818 35.1627 5.75239 34.7228C5.75554 34.2819 5.42662 33.9189 5.0294 33.9222C4.63218 33.9277 4.29801 34.2973 4.29381 34.7371ZM1.9315 32.1224C1.9273 32.5611 2.25517 32.9252 2.65344 32.9208C3.05066 32.9176 3.38483 32.5479 3.38903 32.107C3.39218 31.6672 3.06432 31.3031 2.6671 31.3075C2.26883 31.3119 1.93466 31.6815 1.9315 32.1213V32.1224ZM1.88737 37.4023C1.88317 37.8421 2.21103 38.2062 2.6093 38.2018C3.00652 38.1974 3.34069 37.8278 3.34489 37.3869C3.34805 36.9482 3.02018 36.5841 2.62296 36.5874C2.22469 36.5917 1.89052 36.9625 1.88737 37.4023ZM6.7013 32.073C6.69815 32.5117 7.02706 32.8759 7.42428 32.8715C7.82151 32.8682 8.15567 32.4986 8.15988 32.0577C8.16303 31.6179 7.83412 31.2537 7.4369 31.2581C7.03967 31.2625 6.7055 31.6321 6.7013 32.073ZM6.72337 37.4253C6.71917 37.8662 7.04808 38.2292 7.4453 38.2259C7.84252 38.2216 8.17669 37.8508 8.18089 37.411C8.18405 36.9712 7.85618 36.6071 7.45896 36.6115C7.06069 36.6159 6.72652 36.9855 6.72337 37.4253Z" fill="#0A3B3C"/>
<path d="M9.08671 40.0411C9.08251 40.481 9.41142 40.8451 9.80864 40.8407C10.2059 40.8363 10.54 40.4667 10.5442 40.0269C10.5474 39.586 10.2195 39.223 9.8223 39.2262C9.42403 39.2317 9.08986 39.6013 9.08671 40.0411ZM9.13085 34.7613C9.12664 35.2011 9.45556 35.5641 9.85278 35.5608C10.25 35.5564 10.5842 35.1857 10.5884 34.7459C10.5915 34.3061 10.2637 33.9431 9.86644 33.9464C9.46817 33.9508 9.134 34.3204 9.13085 34.7613ZM35.6574 31.7024C35.6542 32.1422 35.9832 32.5052 36.3804 32.5019C36.7776 32.4975 37.1118 32.1268 37.116 31.687C37.1191 31.2472 36.7902 30.8842 36.393 30.8875C35.9958 30.8919 35.6616 31.2615 35.6574 31.7024ZM25.9612 42.4365C25.9581 42.8763 26.287 43.2393 26.6832 43.2361C27.0814 43.2317 27.4156 42.861 27.4187 42.4212C27.4229 41.9813 27.0951 41.6183 26.6968 41.6216C26.2996 41.626 25.9654 41.9967 25.9612 42.4365ZM26.0054 37.1555C26.0022 37.5964 26.3311 37.9595 26.7283 37.9562C27.1256 37.9507 27.4597 37.5811 27.4639 37.1413C27.4671 36.7015 27.1382 36.3373 26.7409 36.3406C26.3437 36.3461 26.0096 36.7157 26.0054 37.1555ZM23.5768 34.4673C23.5737 34.9082 23.9026 35.2713 24.2998 35.268C24.6971 35.2625 25.0312 34.8929 25.0354 34.4531C25.0386 34.0122 24.7097 33.6492 24.3124 33.6524C23.9152 33.6579 23.5811 34.0275 23.5768 34.4673ZM30.7762 37.1073C30.7731 37.546 31.102 37.9101 31.4992 37.9057C31.8964 37.9013 32.2306 37.5317 32.2348 37.0919C32.2379 36.651 31.909 36.288 31.5118 36.2924C31.1146 36.2968 30.7804 36.6664 30.7762 37.1062V37.1073ZM28.4128 34.4893C28.4097 34.9291 28.7386 35.2921 29.1358 35.2888C29.533 35.2844 29.8672 34.9137 29.8714 34.4739C29.8746 34.0341 29.5457 33.6711 29.1495 33.6744C28.7512 33.6788 28.417 34.0484 28.4139 34.4893H28.4128ZM25.9843 31.8033C25.9812 32.242 26.3101 32.6061 26.7073 32.6017C27.1045 32.5984 27.4387 32.2288 27.4429 31.7879C27.4461 31.3481 27.1172 30.984 26.7199 30.9884C26.3227 30.9928 25.9885 31.3624 25.9843 31.8022V31.8033ZM28.3687 39.7713C28.3656 40.2112 28.6945 40.5753 29.0906 40.5709C29.4889 40.5665 29.8231 40.1969 29.8262 39.7571C29.8304 39.3162 29.5026 38.9532 29.1043 38.9564C28.7071 38.9608 28.3729 39.3315 28.3687 39.7713ZM33.2509 34.3664C33.2478 34.8073 33.5757 35.1704 33.9729 35.1671C34.3711 35.1616 34.7053 34.792 34.7085 34.3522C34.7127 33.9113 34.3838 33.5482 33.9865 33.5526C33.5893 33.557 33.2552 33.9266 33.2509 34.3664ZM30.8876 31.7517C30.8844 32.1904 31.2123 32.5546 31.6095 32.5513C32.0078 32.5469 32.342 32.1762 32.3451 31.7364C32.3493 31.2966 32.0204 30.9324 31.6232 30.9368C31.226 30.9412 30.8907 31.3108 30.8876 31.7517Z" fill="#0A3B3C"/>
<path d="M35.6585 31.7024C35.6553 32.1422 35.9832 32.5052 36.3804 32.5019C36.7787 32.4975 37.1128 32.1268 37.116 31.687C37.1202 31.2472 36.7913 30.8842 36.3941 30.8875C35.9968 30.8919 35.6627 31.2615 35.6585 31.7024ZM18.806 34.5156C18.8018 34.9543 19.1297 35.3184 19.528 35.3141C19.9252 35.3097 20.2593 34.9401 20.2635 34.5002C20.2667 34.0593 19.9388 33.6963 19.5416 33.6996C19.1433 33.704 18.8092 34.0747 18.806 34.5145V34.5156ZM23.5979 39.8185C23.5937 40.2583 23.9226 40.6224 24.3198 40.6181C24.717 40.6137 25.0523 40.2441 25.0554 39.8042C25.0586 39.3633 24.7307 39.0003 24.3335 39.0036C23.9363 39.008 23.601 39.3787 23.5979 39.8185ZM21.1694 37.1303C21.1662 37.5701 21.4941 37.9342 21.8913 37.9299C22.2885 37.9255 22.6238 37.5559 22.6269 37.115C22.6311 36.6762 22.3022 36.3121 21.905 36.3154C21.5078 36.3198 21.1725 36.6905 21.1694 37.1303ZM16.4427 31.8987C16.4385 32.3396 16.7674 32.7026 17.1646 32.6993C17.5618 32.6939 17.897 32.3242 17.9002 31.8844C17.9044 31.4435 17.5755 31.0805 17.1783 31.0849C16.781 31.0893 16.4458 31.4589 16.4427 31.8987ZM21.2135 31.8504C21.2093 32.2892 21.5382 32.6533 21.9354 32.6489C22.3327 32.6456 22.6668 32.276 22.671 31.8351C22.6742 31.3953 22.3463 31.0312 21.9491 31.0355C21.5508 31.0399 21.2167 31.4095 21.2135 31.8493V31.8504ZM25.9612 42.4365C25.957 42.8763 26.286 43.2393 26.6832 43.2361C27.0804 43.2317 27.4156 42.861 27.4188 42.4212C27.423 41.9813 27.0941 41.6183 26.6968 41.6216C26.2986 41.626 25.9644 41.9967 25.9612 42.4365ZM26.0054 37.1555C26.0012 37.5964 26.3301 37.9595 26.7273 37.9562C27.1245 37.9507 27.4598 37.5811 27.4629 37.1413C27.4671 36.7015 27.1382 36.3373 26.741 36.3406C26.3438 36.3461 26.0085 36.7157 26.0054 37.1555ZM23.5769 34.4673C23.5737 34.9082 23.9016 35.2713 24.2988 35.268C24.696 35.2625 25.0312 34.8929 25.0344 34.4531C25.0386 34.0122 24.7097 33.6492 24.3125 33.6524C23.9152 33.6579 23.58 34.0275 23.5769 34.4673Z" fill="#0A3B3C"/>
<path d="M16.4427 31.8988C16.4385 32.3397 16.7674 32.7027 17.1646 32.6995C17.5618 32.694 17.897 32.3244 17.9002 31.8845C17.9044 31.4436 17.5755 31.0806 17.1783 31.085C16.781 31.0894 16.4458 31.459 16.4427 31.8988ZM37.6214 66.3002C37.6183 66.7389 37.9472 67.1031 38.3434 67.0987C38.7416 67.0954 39.0758 66.7258 39.079 66.2849C39.0832 65.8451 38.7553 65.4809 38.357 65.4853C37.9598 65.4897 37.6256 65.8593 37.6214 66.3002ZM42.5247 66.2487C42.5205 66.6885 42.8494 67.0515 43.2466 67.0482C43.6439 67.0438 43.978 66.6731 43.9822 66.2333C43.9864 65.7935 43.6575 65.4305 43.2603 65.4338C42.862 65.4382 42.5278 65.8089 42.5247 66.2487ZM40.0962 63.5605C40.093 63.9992 40.4209 64.3633 40.8181 64.36C41.2153 64.3556 41.5506 63.9849 41.5537 63.5451C41.5579 63.1053 41.229 62.7412 40.8318 62.7456C40.4346 62.75 40.0993 63.1196 40.0962 63.5605ZM32.8495 66.3474C32.8464 66.7861 33.1753 67.1502 33.5725 67.1458C33.9697 67.1426 34.3039 66.7729 34.3081 66.332C34.3113 65.8922 33.9824 65.5281 33.5851 65.5325C33.1879 65.5369 32.8538 65.9065 32.8495 66.3474ZM30.4872 63.7316C30.483 64.1714 30.8109 64.5344 31.2092 64.5311C31.6064 64.5267 31.9406 64.156 31.9448 63.7162C31.9479 63.2764 31.6201 62.9134 31.2228 62.9167C30.8246 62.9211 30.4904 63.2918 30.4872 63.7316ZM35.257 63.6822C35.2539 64.122 35.5828 64.4851 35.98 64.4818C36.3772 64.4774 36.7114 64.1067 36.7156 63.6669C36.7188 63.2271 36.3899 62.864 35.9926 62.8684C35.5954 62.8717 35.2612 63.2413 35.257 63.6822Z" fill="#0A3B3C"/>
<path d="M37.6203 66.3001C37.6172 66.7388 37.9461 67.1029 38.3433 67.0985C38.7406 67.0952 39.0758 66.7256 39.0789 66.2847C39.0821 65.8449 38.7542 65.4808 38.357 65.4852C37.9598 65.4896 37.6246 65.8592 37.6214 66.3001H37.6203ZM23.3078 66.4459C23.3047 66.8847 23.6336 67.2488 24.0308 67.2444C24.428 67.2411 24.7632 66.8715 24.7664 66.4306C24.7706 65.9908 24.4417 65.6267 24.0445 65.631C23.58 65.7089 23.312 66.005 23.3089 66.4448L23.3078 66.4459ZM28.0787 66.3966C28.0755 66.8353 28.4044 67.1994 28.8016 67.195C29.1989 67.1918 29.5341 66.8221 29.5372 66.3812C29.5414 65.9414 29.2125 65.5773 28.8153 65.5817C28.4181 65.5861 28.0829 65.9557 28.0797 66.3955L28.0787 66.3966ZM20.8804 63.7567C20.8761 64.1965 21.204 64.5606 21.6023 64.5573C21.9995 64.5518 22.3337 64.1822 22.3379 63.7424C22.341 63.3015 22.0132 62.9385 21.6159 62.9418C21.1515 63.0207 20.8835 63.3168 20.8804 63.7567ZM25.7164 63.7808C25.7121 64.2206 26.0411 64.5836 26.4383 64.5803C26.8355 64.5759 27.1707 64.2052 27.1739 63.7654C27.1781 63.3256 26.8492 62.9626 26.4519 62.9659C26.0547 62.9703 25.7195 63.341 25.7164 63.7808ZM30.4872 63.7314C30.483 64.1712 30.8119 64.5343 31.2091 64.531C31.6063 64.5266 31.9416 64.1559 31.9447 63.7161C31.9489 63.2763 31.62 62.9132 31.2228 62.9165C30.8256 62.9209 30.4904 63.2916 30.4872 63.7314ZM13.6348 66.5436C13.6316 66.9845 13.9595 67.3475 14.3567 67.3442C14.7539 67.3387 15.0891 66.9691 15.0923 66.5293C15.0965 66.0884 14.7676 65.7254 14.3704 65.7287C13.9731 65.7341 13.639 66.1038 13.6348 66.5436ZM18.4056 66.4942C18.4014 66.9351 18.7303 67.2981 19.1275 67.2948C19.5248 67.2894 19.8589 66.9198 19.8631 66.4799C19.8663 66.0401 19.5384 65.676 19.1412 65.6793C18.744 65.6848 18.4088 66.0544 18.4056 66.4942ZM11.2714 63.9288C11.2672 64.3676 11.5961 64.7317 11.9933 64.7273C12.3906 64.724 12.7258 64.3544 12.7289 63.9135C12.7331 63.4737 12.4042 63.1096 12.007 63.1139C11.6098 63.1183 11.2756 63.4879 11.2714 63.9277V63.9288ZM16.0422 63.8795C16.038 64.3182 16.367 64.6823 16.7642 64.6779C17.1614 64.6747 17.4966 64.305 17.4998 63.8641C17.504 63.4243 17.1751 63.0602 16.7778 63.0646C16.3806 63.069 16.0454 63.4386 16.0422 63.8795Z" fill="#0A3B3C"/>
<path d="M20.8804 63.7557C20.8762 64.1944 21.204 64.5586 21.6023 64.5542C21.9995 64.5498 22.3337 64.1802 22.3379 63.7404C22.341 63.2995 22.0132 62.9364 21.6159 62.9397C21.1515 63.0187 20.8835 63.3148 20.8804 63.7546V63.7557ZM8.86391 66.5931C8.86076 67.0329 9.18863 67.397 9.58585 67.3926C9.98307 67.3882 10.3183 67.0186 10.3214 66.5788C10.3256 66.1379 9.99673 65.7749 9.59951 65.7782C9.20229 65.7837 8.86812 66.1533 8.86391 66.5931ZM11.2714 63.929C11.2672 64.3677 11.5961 64.7318 11.9933 64.7275C12.3906 64.7242 12.7258 64.3546 12.7289 63.9137C12.7331 63.4738 12.4042 63.1097 12.007 63.1141C11.6098 63.1185 11.2756 63.4881 11.2714 63.9279V63.929ZM30.4872 63.7316C30.483 64.1714 30.8119 64.5344 31.2091 64.5311C31.6064 64.5268 31.9416 64.156 31.9447 63.7162C31.9489 63.2764 31.62 62.9134 31.2228 62.9167C30.8256 62.9211 30.4904 63.2918 30.4872 63.7316ZM30.5313 58.4506C30.5271 58.8915 30.856 59.2546 31.2533 59.2513C31.6505 59.2458 31.9857 58.8762 31.9889 58.4364C31.9931 57.9966 31.6642 57.6324 31.2669 57.6357C30.8697 57.6412 30.5345 58.0108 30.5313 58.4506ZM35.258 63.6822C35.2538 64.122 35.5828 64.4851 35.98 64.4818C36.3772 64.4774 36.7114 64.1067 36.7156 63.6669C36.7187 63.2271 36.3909 62.864 35.9936 62.8684C35.5954 62.8717 35.2612 63.2413 35.258 63.6822ZM35.3694 58.3267C35.3652 58.7665 35.6942 59.1306 36.0914 59.1262C36.4886 59.1218 36.8228 58.7522 36.827 58.3113C36.8301 57.8726 36.5023 57.5085 36.105 57.5129C35.7068 57.5162 35.3726 57.8858 35.3694 58.3267ZM33.0061 55.7109C33.0019 56.1518 33.3308 56.5148 33.728 56.5115C34.1252 56.506 34.4594 56.1364 34.4636 55.6966C34.4668 55.2568 34.1389 54.8927 33.7417 54.896C33.3434 54.9015 33.0092 55.2711 33.0061 55.7109ZM32.8947 61.0664C32.8905 61.5062 33.2194 61.8704 33.6166 61.866C34.0138 61.8616 34.3491 61.492 34.3522 61.0522C34.3564 60.6113 34.0275 60.2482 33.6303 60.2515C33.2331 60.2559 32.8978 60.6266 32.8947 61.0664ZM37.7328 60.9425C37.7286 61.3823 38.0565 61.7453 38.4547 61.742C38.8519 61.7377 39.1861 61.368 39.1903 60.9271C39.1935 60.4873 38.8646 60.1243 38.4673 60.1276C38.0701 60.132 37.7359 60.5027 37.7317 60.9425H37.7328ZM30.5765 53.0227C30.5734 53.4625 30.9023 53.8266 31.2995 53.8222C31.6967 53.8179 32.0309 53.4482 32.0351 53.0084C32.0383 52.5675 31.7093 52.2045 31.3121 52.2078C30.9149 52.2122 30.5807 52.5829 30.5765 53.0227Z" fill="#0A3B3C"/>
<path d="M20.8804 63.7557C20.8762 64.1944 21.204 64.5586 21.6023 64.5542C21.9995 64.5498 22.3337 64.1802 22.3379 63.7404C22.341 63.2995 22.0132 62.9364 21.6159 62.9397C21.1515 63.0187 20.8835 63.3148 20.8804 63.7546V63.7557ZM20.9245 58.4747C20.9203 58.9146 21.2492 59.2776 21.6464 59.2743C22.0436 59.2699 22.3789 58.9003 22.382 58.4594C22.3852 58.0196 22.0573 57.6566 21.6601 57.6598C21.2629 57.6642 20.9276 58.0349 20.9245 58.4747ZM25.7164 63.7777C25.7122 64.2186 26.0411 64.5816 26.4383 64.5783C26.8355 64.5739 27.1707 64.2032 27.1739 63.7634C27.1781 63.3236 26.8492 62.9606 26.4519 62.9638C26.0547 62.9682 25.7195 63.3389 25.7164 63.7787V63.7777ZM25.6953 58.4254C25.6911 58.8652 26.02 59.2282 26.4173 59.2249C26.8145 59.2206 27.1497 58.8498 27.1529 58.41C27.1571 57.9702 26.8282 57.6072 26.4309 57.6116C26.0337 57.6149 25.6985 57.9845 25.6953 58.4254ZM23.332 55.8096C23.3278 56.2494 23.6567 56.6135 24.0539 56.6091C24.4511 56.6047 24.7864 56.2351 24.7895 55.7953C24.7927 55.3544 24.4648 54.9914 24.0676 54.9947C23.6704 55.0002 23.3351 55.3698 23.332 55.8096ZM23.2868 61.0906C23.2836 61.5293 23.6126 61.8934 24.0098 61.889C24.407 61.8857 24.7422 61.5161 24.7454 61.0752C24.7496 60.6354 24.4207 60.2713 24.0234 60.2757C23.6262 60.28 23.291 60.6497 23.2878 61.0906H23.2868ZM28.1028 55.7602C28.0986 56.2 28.4275 56.5642 28.8248 56.5609C29.222 56.5554 29.5562 56.1858 29.5604 55.746C29.5635 55.3051 29.2356 54.942 28.8384 54.9453C28.4402 54.9508 28.106 55.3204 28.1028 55.7602ZM28.1238 61.1136C28.1196 61.5534 28.4486 61.9175 28.8458 61.9131C29.243 61.9087 29.5782 61.5391 29.5814 61.0993C29.5856 60.6584 29.2567 60.2954 28.8594 60.2987C28.4622 60.3031 28.127 60.6738 28.1238 61.1136ZM20.9686 53.1938C20.9644 53.6347 21.2933 53.9977 21.6906 53.9944C22.0878 53.9889 22.423 53.6193 22.4262 53.1795C22.4293 52.7397 22.1014 52.3756 21.7042 52.38C21.307 52.3844 20.9718 52.754 20.9686 53.1938ZM25.7395 53.1455C25.7353 53.5842 26.0631 53.9484 26.4614 53.944C26.8586 53.9407 27.1928 53.5711 27.197 53.1302C27.2002 52.6904 26.8723 52.3262 26.4751 52.3306C26.0768 52.335 25.7426 52.7046 25.7395 53.1444V53.1455ZM30.4872 63.7294C30.483 64.1692 30.8119 64.5322 31.2091 64.5289C31.6064 64.5246 31.9416 64.1538 31.9447 63.714C31.9489 63.2742 31.62 62.9112 31.2228 62.9145C30.8256 62.9189 30.4904 63.2896 30.4872 63.7294ZM30.5313 58.4484C30.5271 58.8893 30.856 59.2524 31.2533 59.2491C31.6505 59.2447 31.9857 58.874 31.9889 58.4342C31.9931 57.9944 31.6642 57.6302 31.2669 57.6346C30.8697 57.639 30.5345 58.0086 30.5313 58.4484ZM30.5765 53.0205C30.5734 53.4603 30.9023 53.8244 31.2995 53.82C31.6967 53.8157 32.0309 53.446 32.0351 53.0062C32.0383 52.5653 31.7093 52.2023 31.3121 52.2056C30.9149 52.2111 30.5807 52.5807 30.5765 53.0205ZM11.2714 63.929C11.2672 64.3677 11.5961 64.7318 11.9933 64.7275C12.3906 64.7242 12.7258 64.3546 12.7289 63.9136C12.7331 63.4738 12.4042 63.1097 12.007 63.1141C11.6098 63.1185 11.2756 63.4881 11.2714 63.9279V63.929ZM16.0423 63.8797C16.0391 64.3184 16.367 64.6825 16.7642 64.6781C17.1614 64.6748 17.4966 64.3052 17.4998 63.8643C17.504 63.4245 17.1751 63.0604 16.7778 63.0647C16.3806 63.0691 16.0465 63.4387 16.0423 63.8797ZM16.1536 58.5241C16.1494 58.9639 16.4784 59.3269 16.8756 59.3237C17.2728 59.3193 17.608 58.9486 17.6112 58.5088C17.6143 58.0689 17.2865 57.7059 16.8892 57.7092C16.4248 57.7882 16.1568 58.0843 16.1536 58.5241ZM13.6789 61.2638C13.6757 61.7037 14.0036 62.0667 14.4008 62.0634C14.798 62.059 15.1333 61.6883 15.1364 61.2485C15.1406 60.8087 14.8117 60.4457 14.4145 60.4489C14.0173 60.4533 13.6831 60.824 13.6789 61.2638ZM18.5611 55.8589C18.5569 56.2988 18.8858 56.6629 19.2831 56.6585C19.6803 56.6541 20.0155 56.2845 20.0187 55.8436C20.0218 55.4049 19.6939 55.0408 19.2967 55.0451C18.8995 55.0484 18.5643 55.418 18.5611 55.8589ZM18.5159 61.1399C18.5128 61.5786 18.8417 61.9427 19.2389 61.9384C19.6362 61.9351 19.9703 61.5655 19.9745 61.1246C19.9777 60.6847 19.6488 60.3206 19.2526 60.325C18.7881 60.4029 18.5202 60.699 18.517 61.1399H18.5159Z" fill="#0A3B3C"/>
<path d="M20.8803 63.7557C20.8761 64.1944 21.204 64.5586 21.6012 64.5542C21.9995 64.5498 22.3336 64.1802 22.3368 63.7404C22.341 63.2995 22.0131 62.9364 21.6149 62.9397C21.1504 63.0187 20.8835 63.3148 20.8793 63.7546L20.8803 63.7557ZM20.9245 58.4748C20.9203 58.9146 21.2481 59.2776 21.6464 59.2743C22.0436 59.2699 22.3778 58.9003 22.382 58.4594C22.3851 58.0196 22.0562 57.6566 21.6601 57.6598C21.2618 57.6642 20.9276 58.0349 20.9245 58.4748ZM20.9686 53.1938C20.9644 53.6347 21.2933 53.9977 21.6905 53.9944C22.0877 53.9889 22.423 53.6193 22.4261 53.1795C22.4293 52.7397 22.1014 52.3756 21.7042 52.38C21.307 52.3844 20.9717 52.754 20.9686 53.1938ZM30.5765 53.0227C30.5733 53.4625 30.9023 53.8266 31.2995 53.8222C31.6967 53.8179 32.0309 53.4482 32.0351 53.0084C32.0382 52.5675 31.7093 52.2045 31.3121 52.2078C30.9149 52.2122 30.5807 52.5829 30.5765 53.0227Z" fill="#0A3B3C"/>
<path d="M20.9687 53.1936C20.9645 53.6345 21.2934 53.9975 21.6906 53.9942C22.0878 53.9887 22.423 53.6191 22.4262 53.1793C22.4293 52.7395 22.1015 52.3754 21.7043 52.3798C21.307 52.3842 20.9718 52.7538 20.9687 53.1936ZM25.7395 53.1453C25.7353 53.584 26.0642 53.9482 26.4614 53.9438C26.8587 53.9405 27.1939 53.5709 27.197 53.13C27.2002 52.6902 26.8723 52.326 26.4751 52.3304C26.0779 52.3348 25.7427 52.7044 25.7395 53.1442V53.1453ZM25.8509 47.7898C25.8467 48.2285 26.1746 48.5926 26.5728 48.5882C26.9701 48.5849 27.3042 48.2153 27.3084 47.7744C27.3116 47.3346 26.9827 46.9716 26.5865 46.9749C26.1882 46.9793 25.8541 47.3489 25.8509 47.7898ZM23.3762 50.5284C23.372 50.9693 23.7009 51.3324 24.0981 51.3291C24.4953 51.3247 24.8305 50.954 24.8337 50.5142C24.8368 50.0744 24.509 49.7113 24.1118 49.7146C23.7145 49.719 23.3793 50.0886 23.3762 50.5295V50.5284ZM28.2132 50.4056C28.2101 50.8443 28.539 51.2084 28.9362 51.204C29.3334 51.1996 29.6676 50.83 29.6718 50.3902C29.6749 49.9493 29.346 49.5863 28.9488 49.5907C28.5516 49.5951 28.2174 49.9647 28.2132 50.4045V50.4056ZM30.5766 53.0203C30.5734 53.4601 30.9023 53.8242 31.2995 53.8198C31.6968 53.8155 32.0309 53.4458 32.0351 53.006C32.0383 52.5651 31.7094 52.2021 31.3122 52.2054C30.9149 52.2109 30.5808 52.5805 30.5766 53.0203ZM57.059 55.3915C57.0548 55.8324 57.3826 56.1955 57.7809 56.1922C58.1781 56.1867 58.5123 55.8171 58.5165 55.3773C58.5196 54.9364 58.1907 54.5733 57.7946 54.5766C57.3963 54.5821 57.0621 54.9517 57.059 55.3915ZM47.3618 66.1257C47.3586 66.5666 47.6875 66.9296 48.0847 66.9263C48.482 66.9208 48.8161 66.5512 48.8203 66.1114C48.8235 65.6716 48.4946 65.3075 48.0984 65.3118C47.7001 65.3162 47.366 65.6858 47.3628 66.1257H47.3618ZM47.4059 60.8458C47.4027 61.2856 47.7316 61.6497 48.1289 61.6453C48.5261 61.6409 48.8603 61.2713 48.8645 60.8304C48.8676 60.3917 48.5387 60.0276 48.1425 60.0309C47.7443 60.0353 47.4101 60.406 47.4069 60.8458H47.4059ZM44.9784 58.1576C44.9742 58.5974 45.3031 58.9604 45.7004 58.9571C46.0976 58.9527 46.4328 58.582 46.436 58.1422C46.4402 57.7024 46.1112 57.3394 45.714 57.3427C45.3158 57.3471 44.9816 57.7178 44.9784 58.1576ZM52.1778 60.7964C52.1736 61.2362 52.5014 61.6004 52.8997 61.596C53.2969 61.5916 53.6311 61.222 53.6353 60.7811C53.6385 60.3424 53.3095 59.9782 52.9134 59.9826C52.5151 59.9859 52.1809 60.3555 52.1778 60.7964ZM49.8144 58.1784C49.8102 58.6193 50.1391 58.9824 50.5364 58.9791C50.9336 58.9736 51.2688 58.604 51.272 58.1642C51.2762 57.7244 50.9472 57.3602 50.55 57.3635C50.1518 57.369 49.8176 57.7386 49.8144 58.1784ZM47.3859 55.4924C47.3817 55.9322 47.7106 56.2964 48.1079 56.292C48.5051 56.2876 48.8403 55.918 48.8434 55.4782C48.8476 55.0373 48.5187 54.6742 48.1215 54.6775C47.7232 54.6819 47.3891 55.0526 47.3859 55.4924ZM49.7692 63.4616C49.7661 63.9014 50.095 64.2644 50.4922 64.26C50.8894 64.2567 51.2236 63.8871 51.2278 63.4462C51.231 63.0064 50.9021 62.6434 50.5059 62.6467C50.1076 62.6511 49.7734 63.0218 49.7703 63.4616H49.7692ZM54.6515 58.0567C54.6483 58.4965 54.9772 58.8606 55.3734 58.8562C55.7717 58.8518 56.1059 58.4822 56.109 58.0413C56.1132 57.6026 55.7853 57.2385 55.3871 57.2429C54.9899 57.2462 54.6557 57.6158 54.6515 58.0567ZM52.2881 55.442C52.285 55.8807 52.6139 56.2448 53.0111 56.2404C53.4083 56.236 53.7425 55.8664 53.7467 55.4266C53.7499 54.9857 53.4209 54.6227 53.0237 54.626C52.6265 54.6315 52.2923 55.0011 52.2881 55.4409V55.442ZM49.8596 52.7527C49.8565 53.1925 50.1854 53.5566 50.5826 53.5522C50.9798 53.5478 51.314 53.1782 51.3182 52.7384C51.3213 52.2975 50.9924 51.9345 50.5952 51.9378C50.198 51.9422 49.8638 52.3129 49.8596 52.7527Z" fill="#0A3B3C"/>
<path d="M57.059 55.3916C57.0558 55.8325 57.3847 56.1955 57.7809 56.1922C58.1792 56.1867 58.5133 55.8171 58.5165 55.3773C58.5207 54.9364 58.1928 54.5734 57.7946 54.5767C57.3973 54.5822 57.0632 54.9518 57.059 55.3916ZM40.2055 58.2048C40.2023 58.6446 40.5312 59.0076 40.9285 59.0044C41.3257 59 41.6609 58.6293 41.664 58.1895C41.6682 57.7496 41.3393 57.3866 40.9421 57.3899C40.5449 57.3943 40.2097 57.7639 40.2065 58.2048H40.2055ZM44.9984 63.5088C44.9952 63.9486 45.3231 64.3116 45.7203 64.3084C46.1175 64.304 46.4528 63.9333 46.4559 63.4935C46.4601 63.0536 46.1312 62.6895 45.734 62.6939C45.3368 62.6983 45.0015 63.069 44.9984 63.5088ZM42.5699 60.8206C42.5667 61.2593 42.8956 61.6235 43.2918 61.6191C43.6901 61.6158 44.0242 61.2462 44.0274 60.8053C44.0316 60.3655 43.7037 60.0013 43.3055 60.0057C42.9082 60.0101 42.5741 60.3797 42.5699 60.8206ZM37.8432 55.589C37.84 56.0288 38.1679 56.3929 38.5651 56.3885C38.9634 56.3842 39.2975 56.0145 39.3007 55.5736C39.3049 55.1349 38.976 54.7708 38.5788 54.7752C38.1815 54.7785 37.8474 55.1481 37.8432 55.589ZM42.614 55.5407C42.6098 55.9795 42.9387 56.3436 43.3359 56.3392C43.7332 56.3348 44.0684 55.9652 44.0715 55.5243C44.0757 55.0856 43.7468 54.7215 43.3496 54.7258C42.9524 54.7291 42.6172 55.0987 42.614 55.5396V55.5407ZM47.3617 66.1257C47.3575 66.5666 47.6864 66.9296 48.0837 66.9264C48.4819 66.9209 48.8161 66.5513 48.8193 66.1115C48.8235 65.6716 48.4946 65.3075 48.0973 65.3119C47.7001 65.3163 47.3649 65.6859 47.3617 66.1257ZM47.4059 60.8458C47.4017 61.2856 47.7306 61.6498 48.1278 61.6454C48.5261 61.641 48.8602 61.2714 48.8634 60.8305C48.8676 60.3918 48.5387 60.0276 48.1415 60.0309C47.7442 60.0353 47.409 60.406 47.4059 60.8458ZM44.9774 58.1576C44.9742 58.5975 45.3031 58.9605 45.7003 58.9572C46.0976 58.9528 46.4317 58.5821 46.4359 58.1423C46.4391 57.7025 46.1102 57.3395 45.713 57.3427C45.3157 57.3471 44.9816 57.7178 44.9774 58.1576Z" fill="#0A3B3C"/>
<path d="M57.0589 55.3916C57.0547 55.8326 57.3836 56.1956 57.7808 56.1923C58.1791 56.1868 58.5133 55.8172 58.5164 55.3774C58.5206 54.9365 58.1917 54.5735 57.7945 54.5767C57.3973 54.5822 57.0631 54.9518 57.0589 55.3916ZM57.103 50.1118C57.0988 50.5516 57.4278 50.9157 57.825 50.9113C58.2232 50.9069 58.5574 50.5373 58.5606 50.0964C58.5648 49.6566 58.2359 49.2936 57.8386 49.2969C57.4414 49.3013 57.1072 49.672 57.103 50.1118ZM54.6756 47.4236C54.6714 47.8634 54.9992 48.2264 55.3975 48.2231C55.7947 48.2187 56.1289 47.848 56.1331 47.4082C56.1363 46.9684 55.8073 46.6043 55.4101 46.6087C55.0129 46.6131 54.6787 46.9827 54.6745 47.4236H54.6756ZM59.5778 47.372C59.5736 47.8118 59.9025 48.1749 60.2997 48.1716C60.6969 48.1672 61.0322 47.7976 61.0353 47.3567C61.0395 46.9169 60.7106 46.5538 60.3134 46.5571C59.8489 46.6361 59.5809 46.9322 59.5778 47.372ZM57.1493 44.6827C57.1451 45.1236 57.474 45.4867 57.8712 45.4834C58.2695 45.479 58.6036 45.1083 58.6068 44.6685C58.611 44.2287 58.2821 43.8656 57.8849 43.8689C57.4204 43.9468 57.1524 44.2429 57.1493 44.6838V44.6827ZM59.4674 52.7276C59.4632 53.1663 59.7911 53.5304 60.1883 53.526C60.5855 53.5227 60.9208 53.1531 60.9239 52.7122C60.9281 52.2724 60.5992 51.9083 60.202 51.9127C59.8048 51.9171 59.4706 52.2867 59.4664 52.7276H59.4674ZM59.5568 42.0187C59.5536 42.4585 59.8815 42.8226 60.2787 42.8182C60.677 42.8138 61.0111 42.4442 61.0143 42.0033C61.0185 41.5646 60.6896 41.2005 60.2924 41.2049C59.8951 41.2082 59.5599 41.5778 59.5568 42.0187ZM47.4951 50.1348C47.492 50.5757 47.8209 50.9387 48.2181 50.9355C48.6153 50.93 48.9495 50.5604 48.9537 50.1206C48.9569 49.6796 48.628 49.3166 48.2307 49.3199C47.8335 49.3254 47.4993 49.695 47.4951 50.1348ZM52.2881 55.4388C52.2839 55.8797 52.6117 56.2427 53.01 56.2395C53.4072 56.234 53.7414 55.8644 53.7456 55.4246C53.7487 54.9847 53.4198 54.6206 53.0236 54.6239C52.6254 54.6294 52.2912 54.999 52.2881 55.4388ZM49.8595 52.7506C49.8553 53.1904 50.1843 53.5546 50.5815 53.5502C50.9787 53.5458 51.3139 53.1762 51.3171 52.7364C51.3202 52.2955 50.9924 51.9324 50.5951 51.9357C50.1979 51.9401 49.8627 52.3108 49.8595 52.7506ZM49.9037 47.4707C49.8995 47.9095 50.2273 48.2736 50.6256 48.2703C51.0228 48.2659 51.357 47.8952 51.3612 47.4554C51.3644 47.0156 51.0354 46.6515 50.6382 46.6558C50.241 46.6602 49.9068 47.0298 49.9026 47.4707H49.9037ZM54.6955 52.7747C54.6913 53.2135 55.0192 53.5776 55.4175 53.5732C55.8147 53.5699 56.1489 53.2003 56.1531 52.7594C56.1562 52.3196 55.8273 51.9555 55.4311 51.9598C55.0329 51.9642 54.6987 52.3338 54.6955 52.7747ZM52.267 50.0855C52.2628 50.5264 52.5918 50.8894 52.989 50.8861C53.3862 50.8817 53.7214 50.511 53.7246 50.0712C53.7288 49.6314 53.3999 49.2673 53.0026 49.2716C52.6044 49.276 52.2702 49.6456 52.267 50.0855ZM47.5403 44.8549C47.5361 45.2947 47.864 45.6578 48.2623 45.6545C48.6595 45.6501 48.9936 45.2805 48.9979 44.8396C49.001 44.3998 48.6731 44.0367 48.2759 44.04C47.8776 44.0444 47.5435 44.4151 47.5403 44.8549ZM52.3112 44.8056C52.307 45.2454 52.6348 45.6095 53.0331 45.6051C53.4303 45.6007 53.7645 45.2311 53.7687 44.7902C53.7719 44.3515 53.4429 43.9874 53.0457 43.9907C52.6485 43.9951 52.3143 44.3658 52.3101 44.8056H52.3112Z" fill="#0A3B3C"/>
<path d="M57.0589 55.3917C57.0547 55.8326 57.3825 56.1956 57.7808 56.1923C58.178 56.1868 58.5122 55.8172 58.5164 55.3774C58.5195 54.9365 58.1906 54.5735 57.7945 54.5768C57.3962 54.5823 57.062 54.9519 57.0589 55.3917ZM57.103 50.1118C57.0988 50.5516 57.4267 50.9157 57.8249 50.9114C58.2221 50.907 58.5563 50.5374 58.5605 50.0964C58.5637 49.6566 58.2348 49.2936 57.8386 49.2969C57.4403 49.3013 57.1061 49.672 57.103 50.1118ZM54.6745 47.4236C54.6703 47.8634 54.9992 48.2264 55.3964 48.2232C55.7936 48.2188 56.1289 47.8481 56.132 47.4083C56.1362 46.9684 55.8073 46.6043 55.4101 46.6087C55.0118 46.6131 54.6776 46.9827 54.6745 47.4236ZM37.8431 55.5891C37.8399 56.0289 38.1678 56.393 38.565 56.3886C38.9633 56.3843 39.2974 56.0146 39.3006 55.5737C39.3048 55.135 38.9759 54.7709 38.5787 54.7753C38.1814 54.7786 37.8473 55.1482 37.8431 55.5891ZM37.8872 50.3092C37.884 50.7479 38.213 51.1121 38.6091 51.1077C39.0074 51.1044 39.3416 50.7348 39.3447 50.2939C39.3489 49.8541 39.02 49.4899 38.6228 49.4943C38.2256 49.4987 37.8914 49.8683 37.8872 50.3092ZM42.6139 55.5408C42.6097 55.9795 42.9386 56.3437 43.3358 56.3393C43.7331 56.3349 44.0683 55.9653 44.0714 55.5244C44.0756 55.0857 43.7467 54.7215 43.3495 54.7259C42.9523 54.7292 42.6171 55.0988 42.6139 55.5397V55.5408ZM42.658 50.2599C42.6549 50.6986 42.9828 51.0627 43.38 51.0583C43.7782 51.055 44.1124 50.6854 44.1156 50.2445C44.1198 49.8047 43.7919 49.4406 43.3936 49.445C42.9964 49.4494 42.6622 49.819 42.658 50.2599ZM40.2947 47.6441C40.2915 48.0839 40.6205 48.448 41.0166 48.4436C41.4149 48.4392 41.7491 48.0696 41.7522 47.6287C41.7564 47.1889 41.4275 46.8259 41.0303 46.8292C40.6331 46.8335 40.2989 47.2043 40.2947 47.6441ZM40.2506 52.9239C40.2474 53.3648 40.5753 53.7279 40.9725 53.7246C41.3708 53.7191 41.7049 53.3495 41.7081 52.9097C41.7123 52.4688 41.3844 52.1057 40.9861 52.109C40.5889 52.1145 40.2548 52.4841 40.2506 52.9239ZM45.1328 47.5201C45.1286 47.9588 45.4575 48.323 45.8547 48.3186C46.2519 48.3153 46.5872 47.9457 46.5903 47.5048C46.5945 47.065 46.2656 46.7008 45.8684 46.7052C45.4712 46.7096 45.1359 47.0792 45.1328 47.5201ZM45.0214 52.8757C45.0172 53.3144 45.3461 53.6785 45.7433 53.6741C46.1406 53.6697 46.4758 53.3001 46.4789 52.8603C46.4831 52.4205 46.1542 52.0564 45.757 52.0608C45.3598 52.0652 45.0246 52.4348 45.0214 52.8746V52.8757ZM37.8662 44.9559C37.862 45.3957 38.1909 45.7587 38.5881 45.7554C38.9853 45.751 39.3206 45.3803 39.3237 44.9405C39.3279 44.5007 38.999 44.1366 38.6018 44.141C38.2046 44.1454 37.8693 44.515 37.8662 44.9559ZM42.7694 44.9043C42.7652 45.3441 43.0941 45.7072 43.4914 45.7039C43.8896 45.6995 44.2238 45.3299 44.227 44.889C44.2312 44.4492 43.9023 44.0861 43.505 44.0894C43.1078 44.0938 42.7726 44.4645 42.7694 44.9043ZM47.4961 50.137C47.4919 50.5779 47.8209 50.941 48.2181 50.9377C48.6153 50.9322 48.9495 50.5626 48.9537 50.1228C48.9568 49.6819 48.629 49.3188 48.2317 49.3221C47.8335 49.3276 47.4993 49.6972 47.4961 50.137ZM47.5403 44.855C47.5361 45.2948 47.865 45.6578 48.2622 45.6545C48.6594 45.6501 48.9947 45.2805 48.9978 44.8396C49.002 44.3998 48.6731 44.0368 48.2759 44.0401C47.8787 44.0444 47.5434 44.4152 47.5403 44.855ZM33.0512 50.2829C33.048 50.7227 33.3759 51.0868 33.7731 51.0825C34.1714 51.0781 34.5056 50.7085 34.5087 50.2686C34.5129 49.8277 34.1851 49.4647 33.7868 49.468C33.3896 49.4724 33.0554 49.8431 33.0512 50.2829ZM30.6878 47.6671C30.6847 48.108 31.0126 48.471 31.4098 48.4677C31.807 48.4623 32.1422 48.0926 32.1454 47.6528C32.1496 47.2119 31.8217 46.8489 31.4234 46.8522C31.0262 46.8577 30.692 47.2273 30.6878 47.6671ZM35.4587 47.6177C35.4545 48.0586 35.7834 48.4217 36.1806 48.4184C36.5778 48.4129 36.9131 48.0433 36.9162 47.6035C36.9204 47.1637 36.5915 46.7995 36.1943 46.8039C35.7971 46.8083 35.4618 47.1779 35.4587 47.6177ZM35.4797 52.9711C35.4766 53.412 35.8044 53.775 36.2016 53.7717C36.5999 53.7663 36.9341 53.3966 36.9372 52.9568C36.9414 52.517 36.6136 52.1529 36.2153 52.1562C35.8181 52.1617 35.4839 52.5313 35.4797 52.9711ZM28.3245 45.0524C28.3213 45.4911 28.6502 45.8552 29.0464 45.8508C29.4447 45.8475 29.7789 45.4779 29.782 45.037C29.7862 44.5972 29.4583 44.2331 29.0601 44.2375C28.6629 44.2419 28.3287 44.6115 28.3245 45.0524ZM33.0953 45.003C33.0922 45.4417 33.42 45.8059 33.8173 45.8026C34.2155 45.7982 34.5497 45.4275 34.5529 44.9877C34.5571 44.5479 34.2281 44.1837 33.8309 44.1881C33.4337 44.1925 33.0995 44.5621 33.0953 45.003Z" fill="#0A3B3C"/>
<path d="M37.8432 55.5891C37.84 56.0289 38.1689 56.393 38.5661 56.3886C38.9634 56.3843 39.2975 56.0146 39.3017 55.5737C39.3049 55.135 38.976 54.7709 38.5788 54.7753C38.1815 54.7786 37.8474 55.1482 37.8432 55.5891ZM37.8873 50.3092C37.8841 50.7479 38.2131 51.1121 38.6103 51.1077C39.0075 51.1044 39.3417 50.7348 39.3459 50.2939C39.349 49.8541 39.0201 49.4899 38.6229 49.4943C38.2257 49.4987 37.8915 49.8683 37.8873 50.3092ZM37.8663 44.9537C37.8631 45.3935 38.191 45.7565 38.5882 45.7521C38.9865 45.7488 39.3207 45.3792 39.3238 44.9383C39.328 44.4985 38.9991 44.1355 38.6019 44.1388C38.2047 44.1432 37.8705 44.5139 37.8663 44.9537ZM57.1924 39.4007C57.1893 39.8405 57.5182 40.2046 57.9143 40.2003C58.3126 40.1959 58.6468 39.8263 58.6499 39.3864C58.6541 38.9455 58.3263 38.5825 57.928 38.5858C57.5308 38.5913 57.1966 38.9609 57.1924 39.4007ZM59.5568 42.0165C59.5526 42.4563 59.8805 42.8204 60.2788 42.8161C60.676 42.8117 61.0101 42.4421 61.0143 42.0012C61.0175 41.5624 60.6886 41.1983 60.2924 41.2027C59.8941 41.206 59.56 41.5756 59.5568 42.0165ZM59.5999 36.7366C59.5968 37.1753 59.9257 37.5395 60.3218 37.5351C60.7201 37.5318 61.0543 37.1622 61.0574 36.7213C61.0616 36.2815 60.7338 35.9173 60.3355 35.9217C59.9383 35.9261 59.6041 36.2957 59.5999 36.7366ZM57.2376 34.1208C57.2334 34.5606 57.5613 34.9237 57.9595 34.9204C58.3568 34.916 58.6909 34.5453 58.6951 34.1055C58.6983 33.6657 58.3694 33.3026 57.9721 33.3059C57.5749 33.3103 57.2408 33.681 57.2365 34.1208H57.2376ZM47.5404 44.855C47.5362 45.2948 47.8651 45.6578 48.2623 45.6545C48.6595 45.6501 48.9948 45.2805 48.9979 44.8396C49.0021 44.3998 48.6732 44.0368 48.276 44.0401C47.8788 44.0444 47.5435 44.4152 47.5404 44.855ZM47.5845 39.5751C47.5803 40.0138 47.9092 40.3779 48.3064 40.3735C48.7037 40.3703 49.0389 40.0006 49.042 39.5597C49.0462 39.1199 48.7173 38.7558 48.3201 38.7602C47.9229 38.7646 47.5877 39.1342 47.5845 39.574V39.5751ZM52.3112 44.8056C52.307 45.2454 52.6359 45.6095 53.0332 45.6052C53.4304 45.6008 53.7645 45.2312 53.7688 44.7903C53.7719 44.3515 53.444 43.9874 53.0468 43.9907C52.6496 43.9951 52.3144 44.3658 52.3112 44.8056ZM52.4226 39.4512C52.4184 39.8899 52.7463 40.254 53.1446 40.2496C53.5418 40.2452 53.8759 39.8756 53.8801 39.4358C53.8833 38.9949 53.5554 38.6319 53.1582 38.6352C52.6937 38.7141 52.4258 39.0103 52.4226 39.4501V39.4512ZM50.0593 36.8343C50.0551 37.2752 50.384 37.6382 50.7812 37.6349C51.1784 37.6305 51.5126 37.2598 51.5168 36.82C51.5199 36.3802 51.1921 36.0161 50.7949 36.0204C50.3304 36.0983 50.0624 36.3944 50.0593 36.8343ZM49.9479 42.1898C49.9447 42.6296 50.2726 42.9937 50.6698 42.9893C51.067 42.985 51.4022 42.6153 51.4054 42.1755C51.4096 41.7346 51.0807 41.3716 50.6835 41.3749C50.2862 41.3804 49.951 41.75 49.9479 42.1898ZM54.8301 36.786C54.8259 37.2247 55.1548 37.5888 55.552 37.5844C55.9493 37.5801 56.2834 37.2115 56.2876 36.7706C56.2908 36.3308 55.9629 35.9667 55.5657 35.9711C55.1674 35.9755 54.8333 36.3451 54.8301 36.7849V36.786ZM54.786 42.0681C54.7818 42.5079 55.1096 42.8709 55.5079 42.8676C55.9051 42.8632 56.2393 42.4925 56.2435 42.0527C56.2467 41.6129 55.9177 41.2499 55.5205 41.2532C55.0571 41.3321 54.7891 41.6283 54.7849 42.0681H54.786ZM47.6297 34.1461C47.6266 34.587 47.9555 34.95 48.3527 34.9456C48.7499 34.9412 49.0841 34.5716 49.0883 34.1318C49.0914 33.6909 48.7625 33.3279 48.3653 33.3312C47.9019 33.4101 47.6339 33.7063 47.6297 34.1461ZM52.4668 34.1702C52.4626 34.61 52.7915 34.973 53.1887 34.9697C53.5859 34.9654 53.9201 34.5946 53.9243 34.1548C53.9285 33.715 53.5996 33.352 53.2023 33.3553C52.8041 33.3597 52.4699 33.7293 52.4668 34.1702Z" fill="#0A3B3C"/>
<path d="M57.1923 39.4029C57.1892 39.8427 57.5181 40.2068 57.9153 40.2024C58.3125 40.1981 58.6467 39.8284 58.6509 39.3886C58.654 38.9477 58.3251 38.5847 57.9279 38.588C57.5307 38.5935 57.1965 38.9631 57.1923 39.4029ZM57.2375 34.1208C57.2333 34.5606 57.5622 34.9237 57.9594 34.9204C58.3567 34.916 58.6908 34.5453 58.695 34.1055C58.6982 33.6657 58.3703 33.3026 57.9731 33.3059C57.5748 33.3103 57.2407 33.681 57.2375 34.1208ZM37.8662 44.9537C37.863 45.3935 38.1909 45.7565 38.5881 45.7521C38.9864 45.7488 39.3206 45.3792 39.3237 44.9383C39.3279 44.4985 38.999 44.1355 38.6018 44.1388C38.2046 44.1432 37.8704 44.5139 37.8662 44.9537ZM37.9776 39.5981C37.9734 40.0379 38.3023 40.4021 38.6995 40.3977C39.0967 40.3933 39.4319 40.0237 39.4351 39.5828C39.4393 39.143 39.1104 38.7799 38.7132 38.7832C38.3159 38.7876 37.9807 39.1583 37.9776 39.5981ZM42.7694 44.9021C42.7652 45.3419 43.0941 45.7061 43.4914 45.7017C43.8896 45.6973 44.2238 45.3277 44.227 44.8868C44.2312 44.447 43.9023 44.0839 43.505 44.0872C43.1078 44.0916 42.7726 44.4623 42.7694 44.9021ZM42.7484 39.5488C42.7442 39.9886 43.0731 40.3527 43.4704 40.3483C43.8676 40.3439 44.2017 39.9743 44.2059 39.5334C44.2091 39.0947 43.8812 38.7306 43.484 38.735C43.0857 38.7383 42.7516 39.1079 42.7484 39.5488ZM40.384 36.933C40.3809 37.3728 40.7098 37.7369 41.107 37.7325C41.5042 37.7281 41.8394 37.3585 41.8426 36.9187C41.8468 36.4778 41.5179 36.1148 41.1207 36.1181C40.7234 36.1235 40.3882 36.4932 40.3851 36.933H40.384ZM40.3409 42.2139C40.3367 42.6537 40.6656 43.0168 41.0629 43.0135C41.4601 43.0091 41.7953 42.6384 41.7985 42.1986C41.8027 41.7588 41.4737 41.3946 41.0765 41.399C40.6793 41.4034 40.3441 41.773 40.3409 42.2139ZM45.1549 36.8847C45.1517 37.3234 45.4806 37.6875 45.8778 37.6832C46.2751 37.6788 46.6092 37.3092 46.6134 36.8694C46.6166 36.4284 46.2887 36.0654 45.8915 36.0687C45.4932 36.0742 45.1591 36.4438 45.1559 36.8836L45.1549 36.8847ZM45.1759 42.237C45.1727 42.6768 45.5016 43.0409 45.8989 43.0376C46.2971 43.0321 46.6313 42.6625 46.6345 42.2227C46.6387 41.7818 46.3097 41.4188 45.9125 41.4221C45.5153 41.4275 45.1801 41.7972 45.1769 42.237H45.1759ZM38.0217 34.3183C38.0175 34.757 38.3464 35.1211 38.7436 35.1167C39.1409 35.1123 39.4761 34.7438 39.4792 34.3029C39.4824 33.8631 39.1545 33.499 38.7573 33.5034C38.3601 33.5077 38.0249 33.8773 38.0217 34.3172V34.3183ZM42.7926 34.2689C42.7884 34.7076 43.1173 35.0717 43.5145 35.0673C43.9117 35.0641 44.2459 34.6944 44.2501 34.2535C44.2532 33.8137 43.9254 33.4496 43.5281 33.454C43.1299 33.4584 42.7957 33.828 42.7926 34.2689ZM47.5403 44.8528C47.5361 45.2926 47.865 45.6556 48.2622 45.6523C48.6594 45.6479 48.9947 45.2772 48.9978 44.8374C49.002 44.3976 48.6731 44.0346 48.2759 44.039C47.8787 44.0423 47.5434 44.4119 47.5403 44.8528ZM47.5844 39.5718C47.5802 40.0127 47.9091 40.3757 48.3064 40.3724C48.7036 40.3681 49.0388 39.9973 49.0419 39.5575C49.0461 39.1177 48.7172 38.7536 48.32 38.758C47.9228 38.7624 47.5876 39.132 47.5844 39.5718ZM47.6296 34.1439C47.6265 34.5837 47.9554 34.9478 48.3526 34.9445C48.7498 34.939 49.084 34.5694 49.0882 34.1296C49.0913 33.6887 48.7624 33.3257 48.3652 33.329C47.9018 33.4079 47.6338 33.7041 47.6296 34.1439ZM28.3245 45.0524C28.3213 45.4911 28.6492 45.8552 29.0464 45.8508C29.4447 45.8475 29.7789 45.4779 29.782 45.037C29.7862 44.5972 29.4573 44.2331 29.0601 44.2375C28.6629 44.2419 28.3287 44.6115 28.3245 45.0524ZM33.0953 45.003C33.0922 45.4417 33.42 45.8059 33.8173 45.8026C34.2155 45.7982 34.5497 45.4275 34.5529 44.9877C34.5571 44.5479 34.2281 44.1837 33.8309 44.1881C33.4337 44.1925 33.0995 44.5621 33.0953 45.003ZM33.1395 39.7221C33.1363 40.1619 33.4642 40.526 33.8614 40.5216C34.2597 40.5172 34.5938 40.1476 34.597 39.7078C34.6012 39.2669 34.2723 38.9039 33.8751 38.9072C33.4778 38.9126 33.1437 39.2823 33.1395 39.7221ZM30.732 42.3872C30.7288 42.827 31.0567 43.1901 31.4539 43.1868C31.8522 43.1824 32.1863 42.8128 32.1895 42.3719C32.1937 41.9321 31.8648 41.569 31.4676 41.5723C31.0703 41.5767 30.7362 41.9474 30.732 42.3872ZM35.6132 36.9834C35.61 37.4221 35.9389 37.7863 36.3361 37.7819C36.7334 37.7775 37.0686 37.4079 37.0717 36.9681C37.0759 36.5272 36.747 36.1641 36.3498 36.1674C35.9515 36.1718 35.6174 36.5425 35.6142 36.9823L35.6132 36.9834ZM35.5028 42.3379C35.4997 42.7777 35.8275 43.1418 36.2248 43.1374C36.623 43.133 36.9572 42.7634 36.9604 42.3225C36.9646 41.8838 36.6367 41.5197 36.2384 41.523C35.8412 41.5273 35.507 41.8981 35.5028 42.3379Z" fill="#0A3B3C"/>
<path d="M37.8663 44.9537C37.862 45.3935 38.191 45.7565 38.5882 45.7521C38.9854 45.7488 39.3206 45.3792 39.3238 44.9383C39.328 44.4985 38.9991 44.1355 38.6018 44.1388C38.2046 44.1432 37.8694 44.5139 37.8663 44.9537ZM37.9776 39.5981C37.9734 40.0379 38.3013 40.4021 38.6996 40.3977C39.0968 40.3933 39.431 40.0237 39.4352 39.5828C39.4383 39.143 39.1105 38.7799 38.7132 38.7832C38.315 38.7876 37.9808 39.1583 37.9776 39.5981ZM38.0218 34.3183C38.0176 34.757 38.3465 35.1211 38.7437 35.1167C39.1409 35.1123 39.4761 34.7438 39.4793 34.3029C39.4825 33.8631 39.1546 33.499 38.7574 33.5034C38.3601 33.5077 38.0249 33.8773 38.0218 34.3172V34.3183ZM57.2376 34.1208C57.2334 34.5606 57.5623 34.9237 57.9595 34.9204C58.3567 34.916 58.6909 34.5453 58.6951 34.1055C58.6982 33.6657 58.3704 33.3026 57.9732 33.3059C57.5749 33.3103 57.2407 33.681 57.2376 34.1208ZM47.6297 34.1439C47.6265 34.5837 47.9554 34.9478 48.3527 34.9445C48.7499 34.939 49.084 34.5694 49.0883 34.1296C49.0914 33.6887 48.7625 33.3257 48.3653 33.329C47.9018 33.4079 47.6339 33.7041 47.6297 34.1439ZM52.4667 34.168C52.4625 34.6078 52.7914 34.9708 53.1887 34.9675C53.5859 34.9632 53.92 34.5924 53.9242 34.1526C53.9285 33.7128 53.5995 33.3498 53.2023 33.3531C52.804 33.3575 52.4699 33.7271 52.4667 34.168Z" fill="#0A3B3C"/>
<path d="M57.2376 34.1186C57.2334 34.5584 57.5623 34.9215 57.9595 34.9182C58.3567 34.9138 58.6909 34.5431 58.6951 34.1033C58.6982 33.6635 58.3704 33.3004 57.9732 33.3037C57.5749 33.3081 57.2407 33.6788 57.2376 34.1186ZM38.0218 34.3183C38.0176 34.757 38.3465 35.1211 38.7437 35.1167C39.1409 35.1123 39.4761 34.7438 39.4793 34.3029C39.4824 33.8631 39.1546 33.499 38.7574 33.5033C38.3601 33.5077 38.0249 33.8773 38.0218 34.3172V34.3183ZM42.7926 34.2689C42.7884 34.7076 43.1173 35.0717 43.5146 35.0673C43.9118 35.0641 44.247 34.6944 44.2501 34.2535C44.2543 33.8137 43.9254 33.4496 43.5282 33.454C43.131 33.4584 42.7958 33.828 42.7926 34.2689ZM47.6297 34.1439C47.6265 34.5837 47.9544 34.9478 48.3516 34.9445C48.7499 34.939 49.084 34.5694 49.0872 34.1296C49.0914 33.6887 48.7625 33.3257 48.3653 33.329C47.9008 33.4079 47.6339 33.7041 47.6297 34.1439ZM58.2674 65.1749C58.2632 65.6147 58.5921 65.9788 58.9893 65.9745C59.3866 65.9701 59.7207 65.6005 59.7249 65.1606C59.7281 64.7197 59.4002 64.3567 59.003 64.36C58.6047 64.3655 58.2706 64.7351 58.2674 65.1749ZM60.6749 62.5108C60.6707 62.9495 60.9996 63.3137 61.3968 63.3093C61.794 63.306 62.1282 62.9364 62.1324 62.4955C62.1356 62.0557 61.8077 61.6915 61.4105 61.6959C61.0122 61.7003 60.678 62.0699 60.6749 62.5108ZM60.6308 67.7907C60.6266 68.2305 60.9555 68.5946 61.3527 68.5903C61.7499 68.5859 62.0841 68.2163 62.0883 67.7754C62.0914 67.3366 61.7636 66.9725 61.3664 66.9769C60.9691 66.9802 60.6339 67.3498 60.6308 67.7907ZM58.3115 59.895C58.3073 60.3348 58.6352 60.6979 59.0335 60.6946C59.4307 60.6902 59.7649 60.3195 59.7691 59.8797C59.7722 59.4399 59.4443 59.0768 59.0471 59.0801C58.6489 59.0845 58.3147 59.4552 58.3115 59.895ZM53.4966 65.2254C53.4923 65.6641 53.8213 66.0282 54.2185 66.0238C54.6157 66.0194 54.9499 65.6498 54.9541 65.21C54.9572 64.7691 54.6294 64.4061 54.2321 64.4094C53.7677 64.4883 53.4997 64.7845 53.4966 65.2243V65.2254ZM51.0218 67.964C51.0176 68.4038 51.3465 68.7679 51.7437 68.7635C52.141 68.7592 52.4762 68.3895 52.4793 67.9497C52.4835 67.5088 52.1546 67.1458 51.7574 67.1491C51.3602 67.1546 51.025 67.5242 51.0218 67.964ZM55.904 62.5602C55.8998 62.9989 56.2288 63.363 56.626 63.3586C57.0232 63.3543 57.3574 62.9857 57.3616 62.5448C57.3647 62.105 57.0369 61.7409 56.6396 61.7453C56.2414 61.7497 55.9072 62.1193 55.904 62.5591V62.5602ZM55.8599 67.8401C55.8557 68.2799 56.1836 68.644 56.5818 68.6396C56.9791 68.6352 57.3132 68.2656 57.3174 67.8247C57.3206 67.3849 56.9917 67.0219 56.5944 67.0252C56.13 67.1041 55.8631 67.4003 55.8589 67.8401H55.8599Z" fill="#0A3B3C"/>
<path d="M58.2664 65.1749C58.2632 65.6147 58.5921 65.9788 58.9894 65.9744C59.3866 65.97 59.7208 65.6004 59.725 65.1606C59.7281 64.7197 59.3992 64.3567 59.002 64.36C58.6048 64.3655 58.2706 64.7351 58.2664 65.1749ZM58.3116 59.895C58.3074 60.3348 58.6352 60.6978 59.0335 60.6946C59.4307 60.6902 59.7649 60.3195 59.7691 59.8796C59.7722 59.4398 59.4444 59.0768 59.0472 59.0801C58.6489 59.0845 58.3147 59.4552 58.3116 59.895Z" fill="#0A3B3C"/>
<path d="M58.3116 59.895C58.3074 60.3348 58.6352 60.6979 59.0335 60.6946C59.4307 60.6902 59.7649 60.3195 59.7691 59.8797C59.7722 59.4399 59.4444 59.0768 59.0472 59.0801C58.6489 59.0845 58.3147 59.4552 58.3116 59.895ZM60.718 57.2299C60.7149 57.6697 61.0438 58.0338 61.441 58.0294C61.8382 58.025 62.1724 57.6554 62.1766 57.2145C62.1797 56.7758 61.8519 56.4117 61.4546 56.4161C61.0564 56.4193 60.7222 56.789 60.7191 57.2299H60.718Z" fill="#0A3B3C"/>
</g>
</svg>
